<?xml version="1.0" encoding="UTF-8" standalone="no"?>
<!-- Created with Inkscape (http://www.inkscape.org/) -->

<svg
   width="453.3031"
   height="145.62373"
   viewBox="0 0 64.025848 19.264806"
   version="1.1"
   id="svg8"
   inkscape:version="1.1.2 (1:1.1+202202050950+0a00cf5339)"
   sodipodi:docname="NetworkPowerFreqChar_mu.svg"
   xmlns:inkscape="http://www.inkscape.org/namespaces/inkscape"
   xmlns:sodipodi="http://sodipodi.sourceforge.net/DTD/sodipodi-0.dtd"
   xmlns="http://www.w3.org/2000/svg"
   xmlns:svg="http://www.w3.org/2000/svg"
   xmlns:rdf="http://www.w3.org/1999/02/22-rdf-syntax-ns#"
   xmlns:cc="http://creativecommons.org/ns#"
   xmlns:dc="http://purl.org/dc/elements/1.1/"
   xmlns:ns1="http://www.iki.fi/pav/software/textext/">
  <sodipodi:namedview
     id="base"
     pagecolor="#ffffff"
     bordercolor="#666666"
     borderopacity="1.0"
     inkscape:pageopacity="0.0"
     inkscape:pageshadow="2"
     inkscape:zoom="0.94631876"
     inkscape:cx="51.779593"
     inkscape:cy="-128.92062"
     inkscape:document-units="mm"
     inkscape:current-layer="layer1"
     showgrid="false"
     inkscape:window-width="1920"
     inkscape:window-height="1200"
     inkscape:window-x="3840"
     inkscape:window-y="-33"
     inkscape:window-maximized="1"
     fit-margin-top="5"
     fit-margin-left="5"
     fit-margin-right="5"
     fit-margin-bottom="5"
     scale-x="0.5"
     units="px"
     viewbox-width="62.6"
     inkscape:pagecheckerboard="0" />
  <defs
     id="defs2" />
  <metadata
     id="metadata5">
    <rdf:RDF>
      <cc:Work
         rdf:about="">
        <dc:format>image/svg+xml</dc:format>
        <dc:type
           rdf:resource="http://purl.org/dc/dcmitype/StillImage" />
      </cc:Work>
    </rdf:RDF>
  </metadata>
  <g
     id="layer1"
     inkscape:groupmode="layer"
     inkscape:label="Layer 1"
     transform="translate(-80.713841,-81.793354)">
    <g
       transform="matrix(0.352778,0,0,0.352778,81.4201,81.8479)"
       ns1:version="1.8.1"
       ns1:texconverter="lualatex"
       ns1:pdfconverter="inkscape"
       ns1:text="\\begin{align*}\n  \\lambda &amp;= - \\frac{\\Delta P}{\\Delta f} = \\sum_i \\left(\\frac{1}{R_{g_i}} \\cdot \\frac{P_{g_{i,r}}}{f_r}\\right) {\\color{red} + \\frac{\\mu}{100}\\cdot P} \\\\\n    \\mu &amp;=  - \\frac{\\Delta P' /P}{\\Delta f} \\cdot 100\\,\\%\n\\end{align*}\n        "
       ns1:preamble="/home/dietmarw/.config/inkscape/extensions/textext/default_packages.tex"
       ns1:scale="1.0"
       ns1:alignment="bottom right"
       ns1:stroke-to-path="0"
       ns1:inkscapeversion="1.1.2"
       ns1:jacobian_sqrt="0.352778"
       id="g1759">
      <defs
         id="id-3e2aa93d-969e-48e5-bda5-508d3df8a4f4">
        <g
           id="id-20251e96-c17e-4fe1-8428-1c7662425be2">
          <symbol
             overflow="visible"
             id="id-f1e33c39-77ae-4e93-b236-f130856ff165">
            <path
               style="stroke:none"
               d=""
               id="id-c70bb987-174f-4b9f-a67b-ddd3ca2faed2" />
          </symbol>
          <symbol
             overflow="visible"
             id="id-6851cf7e-3a30-4aaf-ad10-1a5ccf9b820e">
            <path
               style="stroke:none"
               d="m 3.5625,-2.90625 c 0.40625,1.046875 0.890625,2.5625 1.046875,2.796875 0.15625,0.21875 0.25,0.21875 0.53125,0.21875 h 0.21875 c 0.09375,-0.015625 0.109375,-0.0625 0.109375,-0.09375 0,-0.03125 -0.03125,-0.0625 -0.0625,-0.09375 C 5.3125,-0.1875 5.25,-0.34375 5.1875,-0.53125 L 3.15625,-6.203125 c -0.21875,-0.578125 -0.75,-0.71875 -1.21875,-0.71875 -0.046875,0 -0.1875,0 -0.1875,0.109375 0,0.078125 0.078125,0.109375 0.09375,0.109375 C 2.171875,-6.65625 2.25,-6.59375 2.5,-5.90625 l 0.953125,2.703125 -2.75,2.734375 c -0.109375,0.125 -0.171875,0.171875 -0.171875,0.3125 0,0.171875 0.140625,0.28125 0.296875,0.28125 0.15625,0 0.25,-0.109375 0.328125,-0.203125 z m 0,0"
               id="id-3d9896a7-78cc-4725-8208-9ba074aec308" />
          </symbol>
          <symbol
             overflow="visible"
             id="id-ab815be8-8cbe-4645-8172-ba9d0ad0da18">
            <path
               style="stroke:none"
               d="M 3.015625,-3.15625 H 4.71875 c 1.40625,0 2.796875,-1.03125 2.796875,-2.140625 0,-0.78125 -0.65625,-1.515625 -1.96875,-1.515625 h -3.21875 c -0.1875,0 -0.296875,0 -0.296875,0.1875 0,0.125 0.078125,0.125 0.28125,0.125 0.125,0 0.3125,0.015625 0.421875,0.015625 0.171875,0.03125 0.21875,0.046875 0.21875,0.171875 0,0.03125 0,0.0625 -0.03125,0.1875 l -1.34375,5.34375 c -0.09375,0.390625 -0.109375,0.46875 -0.90625,0.46875 -0.15625,0 -0.265625,0 -0.265625,0.1875 C 0.40625,0 0.515625,0 0.546875,0 0.828125,0 1.53125,-0.03125 1.8125,-0.03125 c 0.21875,0 0.4375,0.015625 0.640625,0.015625 0.21875,0 0.4375,0.015625 0.640625,0.015625 0.078125,0 0.203125,0 0.203125,-0.203125 0,-0.109375 -0.09375,-0.109375 -0.28125,-0.109375 -0.359375,0 -0.640625,0 -0.640625,-0.171875 0,-0.0625 0.015625,-0.109375 0.03125,-0.171875 z M 3.734375,-6.125 C 3.828125,-6.46875 3.84375,-6.5 4.28125,-6.5 h 0.953125 c 0.828125,0 1.359375,0.265625 1.359375,0.953125 0,0.390625 -0.203125,1.25 -0.59375,1.609375 -0.5,0.453125 -1.09375,0.53125 -1.53125,0.53125 H 3.0625 Z m 0,0"
               id="id-9491d061-c51f-4117-81bc-c2d2ec84b741" />
          </symbol>
          <symbol
             overflow="visible"
             id="id-b618dca5-544f-4600-a34c-cd370cf70754">
            <path
               style="stroke:none"
               d="m 3.65625,-3.984375 h 0.859375 c 0.203125,0 0.296875,0 0.296875,-0.203125 0,-0.109375 -0.09375,-0.109375 -0.265625,-0.109375 H 3.71875 L 3.921875,-5.4375 c 0.046875,-0.203125 0.1875,-0.90625 0.25,-1.03125 0.078125,-0.1875 0.25,-0.34375 0.46875,-0.34375 0.03125,0 0.296875,0 0.484375,0.1875 -0.4375,0.03125 -0.546875,0.390625 -0.546875,0.53125 0,0.234375 0.1875,0.359375 0.375,0.359375 C 5.21875,-5.734375 5.5,-5.96875 5.5,-6.34375 c 0,-0.453125 -0.453125,-0.6875 -0.859375,-0.6875 -0.34375,0 -0.96875,0.1875 -1.265625,1.171875 -0.0625,0.203125 -0.09375,0.3125 -0.328125,1.5625 h -0.6875 c -0.203125,0 -0.3125,0 -0.3125,0.1875 0,0.125 0.09375,0.125 0.28125,0.125 h 0.65625 L 2.25,-0.046875 c -0.1875,0.96875 -0.359375,1.875 -0.875,1.875 -0.046875,0 -0.28125,0 -0.484375,-0.1875 C 1.359375,1.609375 1.453125,1.25 1.453125,1.109375 1.453125,0.875 1.265625,0.75 1.078125,0.75 0.8125,0.75 0.53125,0.984375 0.53125,1.359375 c 0,0.4375 0.4375,0.6875 0.84375,0.6875 0.546875,0 0.953125,-0.59375 1.125,-0.96875 0.328125,-0.625 0.546875,-1.828125 0.5625,-1.90625 z m 0,0"
               id="id-0e8c5fd2-922b-42f6-beb1-36691eeb9b7a" />
          </symbol>
          <symbol
             overflow="visible"
             id="id-4c944af9-6643-4512-8989-9c4c53b909cc">
            <path
               style="stroke:none"
               d="m 3.734375,-6.125 c 0.0625,-0.234375 0.09375,-0.328125 0.28125,-0.359375 C 4.109375,-6.5 4.421875,-6.5 4.625,-6.5 c 0.703125,0 1.8125,0 1.8125,0.984375 0,0.34375 -0.15625,1.03125 -0.546875,1.421875 -0.265625,0.25 -0.78125,0.578125 -1.6875,0.578125 H 3.09375 Z m 1.4375,2.734375 c 1.015625,-0.21875 2.1875,-0.921875 2.1875,-1.921875 0,-0.859375 -0.890625,-1.5 -2.203125,-1.5 H 2.328125 c -0.203125,0 -0.296875,0 -0.296875,0.203125 C 2.03125,-6.5 2.125,-6.5 2.3125,-6.5 c 0.015625,0 0.203125,0 0.375,0.015625 0.1875,0.03125 0.265625,0.03125 0.265625,0.171875 0,0.03125 0,0.0625 -0.03125,0.1875 l -1.34375,5.34375 C 1.484375,-0.390625 1.46875,-0.3125 0.671875,-0.3125 0.5,-0.3125 0.40625,-0.3125 0.40625,-0.109375 0.40625,0 0.53125,0 0.546875,0 c 0.28125,0 0.984375,-0.03125 1.25,-0.03125 0.28125,0 1,0.03125 1.28125,0.03125 0.078125,0 0.1875,0 0.1875,-0.203125 0,-0.109375 -0.078125,-0.109375 -0.28125,-0.109375 -0.359375,0 -0.640625,0 -0.640625,-0.171875 0,-0.0625 0.015625,-0.109375 0.03125,-0.171875 l 0.65625,-2.640625 h 1.1875 c 0.90625,0 1.078125,0.5625 1.078125,0.90625 0,0.140625 -0.078125,0.453125 -0.140625,0.6875 C 5.09375,-1.421875 5,-1.0625 5,-0.859375 5,0.21875 6.203125,0.21875 6.328125,0.21875 c 0.84375,0 1.203125,-1 1.203125,-1.140625 0,-0.125 -0.109375,-0.125 -0.125,-0.125 -0.09375,0 -0.109375,0.0625 -0.125,0.140625 C 7.03125,-0.171875 6.59375,0 6.375,0 6.046875,0 5.96875,-0.21875 5.96875,-0.609375 c 0,-0.3125 0.0625,-0.8125 0.109375,-1.140625 0.015625,-0.140625 0.03125,-0.328125 0.03125,-0.46875 0,-0.765625 -0.671875,-1.078125 -0.9375,-1.171875 z m 0,0"
               id="id-00b36500-ccd4-43c9-ae0c-9e0dd192f1f7" />
          </symbol>
          <symbol
             overflow="visible"
             id="id-e8805890-d96b-41de-ad1b-ab018dcc0880">
            <path
               style="stroke:none"
               d="m 2.296875,-3.5 c 0.0625,-0.203125 0.15625,-0.59375 0.15625,-0.640625 0,-0.171875 -0.125,-0.265625 -0.296875,-0.265625 -0.015625,0 -0.296875,0.015625 -0.390625,0.359375 l -1.4375,5.765625 c -0.03125,0.125 -0.03125,0.140625 -0.03125,0.171875 0,0.140625 0.109375,0.265625 0.28125,0.265625 0.203125,0 0.328125,-0.1875 0.34375,-0.21875 C 0.96875,1.859375 1.09375,1.328125 1.46875,-0.203125 1.796875,0.0625 2.25,0.109375 2.4375,0.109375 c 0.703125,0 1.09375,-0.453125 1.328125,-0.734375 0.09375,0.453125 0.46875,0.734375 0.90625,0.734375 0.34375,0 0.578125,-0.234375 0.734375,-0.546875 0.171875,-0.359375 0.296875,-0.96875 0.296875,-0.984375 0,-0.109375 -0.09375,-0.109375 -0.125,-0.109375 -0.09375,0 -0.109375,0.046875 -0.140625,0.1875 -0.15625,0.640625 -0.34375,1.234375 -0.75,1.234375 -0.265625,0 -0.296875,-0.265625 -0.296875,-0.453125 0,-0.21875 0.109375,-0.6875 0.1875,-1.046875 L 4.859375,-2.6875 C 4.890625,-2.828125 5,-3.203125 5.03125,-3.359375 5.078125,-3.59375 5.1875,-3.96875 5.1875,-4.03125 c 0,-0.171875 -0.140625,-0.265625 -0.296875,-0.265625 -0.046875,0 -0.3125,0.015625 -0.390625,0.34375 l -0.46875,1.875 c -0.109375,0.5 -0.21875,0.90625 -0.25,1.015625 -0.015625,0.046875 -0.484375,0.953125 -1.296875,0.953125 -0.5,0 -0.734375,-0.328125 -0.734375,-0.875 0,-0.28125 0.0625,-0.5625 0.140625,-0.84375 z m 0,0"
               id="id-24669bea-5944-4c41-affa-49ba9344f663" />
          </symbol>
          <symbol
             overflow="visible"
             id="id-12f73f15-8440-4875-84b6-18547ad0c7b0">
            <path
               style="stroke:none"
               d="m 4.375,-7.09375 c 0.046875,-0.140625 0.046875,-0.171875 0.046875,-0.1875 0,-0.109375 -0.078125,-0.203125 -0.1875,-0.203125 -0.078125,0 -0.140625,0.03125 -0.171875,0.09375 l -3.46875,9.5 C 0.546875,2.25 0.546875,2.28125 0.546875,2.296875 0.546875,2.40625 0.640625,2.5 0.75,2.5 0.875,2.5 0.90625,2.421875 0.96875,2.25 Z m 0,0"
               id="id-de8a11ac-4c1a-44df-ab73-5cb4cf896541" />
          </symbol>
          <symbol
             overflow="visible"
             id="id-7ea4b9bd-445a-446a-866d-c5cc0c3a4aa6">
            <path
               style="stroke:none"
               d=""
               id="id-705c9d35-64f2-4271-bc5f-b2f42aa8e3ff" />
          </symbol>
          <symbol
             overflow="visible"
             id="id-cb42c2b4-ec8b-4586-b2ed-d48cece24083">
            <path
               style="stroke:none"
               d="m 6.84375,-3.265625 c 0.15625,0 0.34375,0 0.34375,-0.1875 C 7.1875,-3.65625 7,-3.65625 6.859375,-3.65625 h -5.96875 c -0.140625,0 -0.328125,0 -0.328125,0.203125 0,0.1875 0.1875,0.1875 0.328125,0.1875 z m 0.015625,1.9375 c 0.140625,0 0.328125,0 0.328125,-0.203125 0,-0.1875 -0.1875,-0.1875 -0.34375,-0.1875 H 0.890625 c -0.140625,0 -0.328125,0 -0.328125,0.1875 0,0.203125 0.1875,0.203125 0.328125,0.203125 z m 0,0"
               id="id-c6455004-1742-498d-9ded-310762b1ba35" />
          </symbol>
          <symbol
             overflow="visible"
             id="id-ad4f21b6-a1df-467b-a909-fe2a5e71f117">
            <path
               style="stroke:none"
               d="m 4.40625,-6.953125 c -0.0625,-0.140625 -0.09375,-0.1875 -0.265625,-0.1875 -0.15625,0 -0.1875,0.046875 -0.25,0.1875 l -3.375,6.75 C 0.46875,-0.109375 0.46875,-0.09375 0.46875,-0.078125 0.46875,0 0.53125,0 0.6875,0 h 6.921875 c 0.15625,0 0.21875,0 0.21875,-0.078125 0,-0.015625 0,-0.03125 -0.046875,-0.125 z m -0.578125,0.8125 2.6875,5.390625 h -5.375 z m 0,0"
               id="id-e17d98ef-2050-4a86-bb26-4b129f611e14" />
          </symbol>
          <symbol
             overflow="visible"
             id="id-ce7cc254-967c-4073-ba7d-9f193d1d3467">
            <path
               style="stroke:none"
               d="m 2.9375,-6.375 c 0,-0.25 0,-0.265625 -0.234375,-0.265625 C 2.078125,-6 1.203125,-6 0.890625,-6 v 0.3125 c 0.203125,0 0.78125,0 1.296875,-0.265625 v 5.171875 c 0,0.359375 -0.03125,0.46875 -0.921875,0.46875 h -0.3125 V 0 c 0.34375,-0.03125 1.203125,-0.03125 1.609375,-0.03125 0.390625,0 1.265625,0 1.609375,0.03125 v -0.3125 h -0.3125 c -0.90625,0 -0.921875,-0.109375 -0.921875,-0.46875 z m 0,0"
               id="id-26ba23a7-8f21-465c-89fb-8dd0a8b4eabc" />
          </symbol>
          <symbol
             overflow="visible"
             id="id-fc7e5353-e8cd-4b18-bd33-e018aceab4ac">
            <path
               style="stroke:none"
               d="m 4.078125,-2.296875 h 2.78125 C 7,-2.296875 7.1875,-2.296875 7.1875,-2.5 7.1875,-2.6875 7,-2.6875 6.859375,-2.6875 h -2.78125 v -2.796875 c 0,-0.140625 0,-0.328125 -0.203125,-0.328125 -0.203125,0 -0.203125,0.1875 -0.203125,0.328125 V -2.6875 h -2.78125 c -0.140625,0 -0.328125,0 -0.328125,0.1875 0,0.203125 0.1875,0.203125 0.328125,0.203125 h 2.78125 V 0.5 c 0,0.140625 0,0.328125 0.203125,0.328125 0.203125,0 0.203125,-0.1875 0.203125,-0.328125 z m 0,0"
               id="id-e8998849-9ce3-4c9a-b59a-842384deeb0a" />
          </symbol>
          <symbol
             overflow="visible"
             id="id-107f6cdc-79e2-4686-9840-a923245123ef">
            <path
               style="stroke:none"
               d="m 4.578125,-3.1875 c 0,-0.796875 -0.046875,-1.59375 -0.390625,-2.328125 -0.453125,-0.96875 -1.28125,-1.125 -1.6875,-1.125 -0.609375,0 -1.328125,0.265625 -1.75,1.1875 -0.3125,0.6875 -0.359375,1.46875 -0.359375,2.265625 0,0.75 0.03125,1.640625 0.453125,2.40625 0.421875,0.796875 1.15625,1 1.640625,1 0.53125,0 1.296875,-0.203125 1.734375,-1.15625 0.3125,-0.6875 0.359375,-1.46875 0.359375,-2.25 z M 2.484375,0 C 2.09375,0 1.5,-0.25 1.328125,-1.203125 1.21875,-1.796875 1.21875,-2.71875 1.21875,-3.3125 c 0,-0.640625 0,-1.296875 0.078125,-1.828125 0.1875,-1.1875 0.9375,-1.28125 1.1875,-1.28125 0.328125,0 0.984375,0.1875 1.171875,1.171875 0.109375,0.5625 0.109375,1.3125 0.109375,1.9375 0,0.75 0,1.421875 -0.109375,2.0625 C 3.5,-0.296875 2.9375,0 2.484375,0 Z m 0,0"
               id="id-6bc2f507-c5ba-4a4a-a256-7d9555d49d6e" />
          </symbol>
          <symbol
             overflow="visible"
             id="id-8a593cb5-1e95-446e-b677-d4bd39512a6b">
            <path
               style="stroke:none"
               d="m 6.828125,-7.09375 c 0.0625,-0.09375 0.078125,-0.125 0.078125,-0.1875 0,-0.109375 -0.09375,-0.203125 -0.203125,-0.203125 -0.09375,0 -0.140625,0.078125 -0.203125,0.140625 -0.5,0.6875 -1.171875,0.953125 -1.890625,0.953125 -0.703125,0 -1.3125,-0.25 -1.875,-0.765625 -0.1875,-0.171875 -0.390625,-0.328125 -0.703125,-0.328125 -0.765625,0 -1.46875,0.84375 -1.46875,2.015625 0,1.203125 0.71875,2.015625 1.46875,2.015625 0.71875,0 1.28125,-0.890625 1.28125,-2.015625 0,-0.140625 0,-0.609375 -0.203125,-1.125 0.65625,0.375 1.140625,0.421875 1.5,0.421875 0.765625,0 1.265625,-0.3125 1.328125,-0.34375 H 5.953125 L 1.46875,0.15625 c -0.078125,0.140625 -0.078125,0.1875 -0.078125,0.203125 0,0.109375 0.09375,0.203125 0.1875,0.203125 0.109375,0 0.125,-0.046875 0.203125,-0.15625 z M 2.03125,-3.671875 c -0.203125,0 -0.859375,-0.140625 -0.859375,-1.796875 0,-1.65625 0.65625,-1.78125 0.859375,-1.78125 0.53125,0 1.046875,0.734375 1.046875,1.78125 0,1.078125 -0.53125,1.796875 -1.046875,1.796875 z M 6.453125,0.34375 C 6.25,0.34375 5.59375,0.203125 5.59375,-1.453125 c 0,-1.65625 0.640625,-1.78125 0.859375,-1.78125 0.53125,0 1.03125,0.734375 1.03125,1.78125 0,1.078125 -0.515625,1.796875 -1.03125,1.796875 z m 1.28125,-1.796875 c 0,-1.140625 -0.59375,-2 -1.296875,-2 -0.75,0 -1.46875,0.828125 -1.46875,2 0,1.203125 0.71875,2.015625 1.46875,2.015625 0.734375,0 1.296875,-0.890625 1.296875,-2.015625 z m 0,0"
               id="id-d7f0db35-a241-4b34-9d7d-f643be7d91b7" />
          </symbol>
          <symbol
             overflow="visible"
             id="id-b893a3f9-b0dd-4b39-9df8-ec8d6c0dacb4">
            <path
               style="stroke:none"
               d=""
               id="id-bed35f6f-a37d-49dc-b888-5fa8f70796c5" />
          </symbol>
          <symbol
             overflow="visible"
             id="id-82150ead-e80c-4b6b-a156-f4d2cfa594b2">
            <path
               style="stroke:none"
               d="m 6.5625,-2.296875 c 0.171875,0 0.359375,0 0.359375,-0.203125 0,-0.1875 -0.1875,-0.1875 -0.359375,-0.1875 H 1.171875 c -0.171875,0 -0.34375,0 -0.34375,0.1875 0,0.203125 0.171875,0.203125 0.34375,0.203125 z m 0,0"
               id="id-4802f40c-1a78-4d9f-9b71-8ec0e152fce4" />
          </symbol>
          <symbol
             overflow="visible"
             id="id-6178032c-262a-44d8-bca8-bd9fb7fde6d3">
            <path
               style="stroke:none"
               d="m 1.90625,-2.5 c 0,-0.28125 -0.234375,-0.515625 -0.515625,-0.515625 -0.296875,0 -0.53125,0.234375 -0.53125,0.515625 0,0.296875 0.234375,0.53125 0.53125,0.53125 0.28125,0 0.515625,-0.234375 0.515625,-0.53125 z m 0,0"
               id="id-ec611d11-2562-4a58-bf14-ee22a1608104" />
          </symbol>
          <symbol
             overflow="visible"
             id="id-536f1511-3904-4fd4-bb52-7d3a6568c703">
            <path
               style="stroke:none"
               d=""
               id="id-7219f420-3d3d-4dfc-9e17-8780d1732c65" />
          </symbol>
          <symbol
             overflow="visible"
             id="id-2120dacc-f8ca-4c1e-8e36-f13999f3fffa">
            <path
               style="stroke:none"
               d="m 12.625,13.953125 1.203125,-3.1875 h -0.25 c -0.390625,1.03125 -1.453125,1.71875 -2.59375,2.015625 -0.203125,0.04687 -1.1875,0.3125 -3.09375,0.3125 H 1.875 L 6.953125,7.140625 C 7.015625,7.0625 7.03125,7.03125 7.03125,6.984375 c 0,-0.03125 0,-0.0625 -0.0625,-0.15625 L 2.328125,0.484375 H 7.78125 c 1.34375,0 2.25,0.140625 2.34375,0.15625 0.53125,0.078125 1.40625,0.25 2.1875,0.75 0.25,0.15625 0.921875,0.609375 1.265625,1.40625 h 0.25 L 12.625,0 H 0.84375 c -0.234375,0 -0.25,0.015625 -0.28125,0.0625 0,0.03125 0,0.234375 0,0.34375 l 5.265625,7.203125 -5.15625,6.0625 C 0.5625,13.78125 0.5625,13.84375 0.5625,13.84375 c 0,0.109375 0.09375,0.109375 0.28125,0.109375 z m 0,0"
               id="id-21e0c5aa-d6f5-4fc7-8d3f-d469f72eb9a8" />
          </symbol>
          <symbol
             overflow="visible"
             id="id-87c34fcd-568a-4901-8d33-f356c9fded56">
            <path
               style="stroke:none"
               d="m 6.984375,23.421875 c 0,-0.04687 -0.03125,-0.0625 -0.046875,-0.09375 -0.375,-0.375 -1.03125,-1.03125 -1.703125,-2.109375 C 3.625,18.640625 2.90625,15.40625 2.90625,11.5625 c 0,-2.6875 0.359375,-6.140625 2,-9.109375 C 5.6875,1.03125 6.515625,0.21875 6.953125,-0.21875 c 0.03125,-0.03125 0.03125,-0.046875 0.03125,-0.078125 0,-0.109375 -0.078125,-0.109375 -0.21875,-0.109375 -0.140625,0 -0.15625,0 -0.3125,0.15625 -3.328125,3.046875 -4.375,7.609375 -4.375,11.796875 0,3.921875 0.890625,7.875 3.421875,10.859375 0.203125,0.21875 0.578125,0.625 0.984375,0.984375 0.125,0.125 0.140625,0.125 0.28125,0.125 0.140625,0 0.21875,0 0.21875,-0.09375 z m 0,0"
               id="id-f3e2bc53-1845-4bb6-801a-83516adbfe97" />
          </symbol>
          <symbol
             overflow="visible"
             id="id-a1d5472a-93d3-42d5-8620-212ae1bf82b0">
            <path
               style="stroke:none"
               d="M 5.25,11.5625 C 5.25,7.640625 4.359375,3.703125 1.828125,0.71875 1.625,0.484375 1.25,0.078125 0.84375,-0.28125 c -0.125,-0.125 -0.140625,-0.125 -0.28125,-0.125 -0.125,0 -0.21875,0 -0.21875,0.109375 0,0.03125 0.046875,0.078125 0.0625,0.09375 0.34375,0.359375 1.015625,1.03125 1.6875,2.109375 1.609375,2.5625 2.328125,5.8125 2.328125,9.640625 0,2.6875 -0.359375,6.140625 -2,9.125 -0.78125,1.40625 -1.609375,2.234375 -2.03125,2.65625 -0.015625,0.03125 -0.046875,0.0625 -0.046875,0.09375 0,0.09375 0.09375,0.09375 0.21875,0.09375 0.140625,0 0.15625,0 0.3125,-0.15625 C 4.203125,20.328125 5.25,15.765625 5.25,11.5625 Z m 0,0"
               id="id-6fd5a56c-37e1-41f0-b495-39f2a84ebc67" />
          </symbol>
          <symbol
             overflow="visible"
             id="id-a885958b-964e-4efb-ad96-017094e813e5">
            <path
               style="stroke:none"
               d=""
               id="id-b52cd831-352a-4d33-9e09-283c80a9dfdb" />
          </symbol>
          <symbol
             overflow="visible"
             id="id-2cc4f14f-eb5a-4e04-aeac-25b1631e8e1d">
            <path
               style="stroke:none"
               d="m 2.265625,-4.359375 c 0,-0.109375 -0.09375,-0.265625 -0.28125,-0.265625 -0.1875,0 -0.390625,0.1875 -0.390625,0.390625 0,0.109375 0.078125,0.265625 0.28125,0.265625 0.1875,0 0.390625,-0.203125 0.390625,-0.390625 z M 0.84375,-0.8125 c -0.03125,0.09375 -0.0625,0.171875 -0.0625,0.296875 0,0.328125 0.265625,0.578125 0.65625,0.578125 0.6875,0 1,-0.953125 1,-1.0625 0,-0.09375 -0.09375,-0.09375 -0.109375,-0.09375 -0.09375,0 -0.109375,0.046875 -0.140625,0.125 -0.15625,0.5625 -0.453125,0.84375 -0.734375,0.84375 -0.140625,0 -0.171875,-0.09375 -0.171875,-0.25 0,-0.15625 0.046875,-0.28125 0.109375,-0.4375 C 1.46875,-1 1.546875,-1.1875 1.609375,-1.375 1.671875,-1.546875 1.9375,-2.171875 1.953125,-2.265625 1.984375,-2.328125 2,-2.40625 2,-2.484375 2,-2.8125 1.71875,-3.078125 1.34375,-3.078125 0.640625,-3.078125 0.328125,-2.125 0.328125,-2 c 0,0.078125 0.09375,0.078125 0.125,0.078125 0.09375,0 0.09375,-0.03125 0.125,-0.109375 C 0.75,-2.625 1.0625,-2.875 1.3125,-2.875 c 0.109375,0 0.171875,0.046875 0.171875,0.234375 0,0.171875 -0.03125,0.265625 -0.203125,0.703125 z m 0,0"
               id="id-9f00707d-1da6-40c1-a4e2-2129416d2091" />
          </symbol>
          <symbol
             overflow="visible"
             id="id-462f8ee0-6ff7-4ca2-8c71-e1f3b6ed95c9">
            <path
               style="stroke:none"
               d="m 3.703125,-2.578125 c 0.03125,-0.09375 0.03125,-0.125 0.03125,-0.140625 0,-0.15625 -0.125,-0.21875 -0.234375,-0.21875 -0.15625,0 -0.296875,0.125 -0.328125,0.265625 -0.109375,-0.1875 -0.34375,-0.40625 -0.71875,-0.40625 -0.859375,0 -1.78125,0.9375 -1.78125,1.9375 0,0.71875 0.484375,1.140625 1.0625,1.140625 0.328125,0 0.625,-0.15625 0.875,-0.375 L 2.453125,0.25 C 2.375,0.546875 2.328125,0.734375 2.0625,0.96875 c -0.3125,0.25 -0.609375,0.25 -0.78125,0.25 -0.3125,0 -0.40625,-0.015625 -0.53125,-0.046875 0.171875,-0.078125 0.21875,-0.25 0.21875,-0.34375 0,-0.171875 -0.125,-0.25 -0.265625,-0.25 C 0.5,0.578125 0.296875,0.734375 0.296875,1 c 0,0.421875 0.609375,0.421875 1,0.421875 1.09375,0 1.546875,-0.5625 1.65625,-0.953125 z M 2.75,-0.921875 c -0.03125,0.09375 -0.03125,0.109375 -0.15625,0.25 C 2.359375,-0.375 2.015625,-0.1875 1.75,-0.1875 c -0.34375,0 -0.515625,-0.3125 -0.515625,-0.671875 0,-0.296875 0.1875,-1.078125 0.375,-1.390625 0.28125,-0.484375 0.609375,-0.625 0.84375,-0.625 0.5,0 0.625,0.515625 0.625,0.59375 0,0.015625 0,0.015625 -0.015625,0.09375 z m 0,0"
               id="id-71ba54ba-4f97-480e-ac44-684696e64a25" />
          </symbol>
          <symbol
             overflow="visible"
             id="id-08695a39-0965-4e24-b163-eac1ab4ded12">
            <path
               style="stroke:none"
               d="m 1.640625,-1.40625 c 0,-0.046875 0.171875,-0.671875 0.171875,-0.703125 0.015625,-0.0625 0.21875,-0.40625 0.453125,-0.578125 0.0625,-0.046875 0.25,-0.1875 0.5625,-0.1875 0.0625,0 0.234375,0 0.375,0.09375 -0.21875,0.0625 -0.296875,0.265625 -0.296875,0.390625 0,0.140625 0.109375,0.25 0.265625,0.25 0.171875,0 0.390625,-0.125 0.390625,-0.421875 0,-0.359375 -0.375,-0.515625 -0.734375,-0.515625 -0.359375,0 -0.671875,0.15625 -0.984375,0.5 -0.125,-0.421875 -0.546875,-0.5 -0.71875,-0.5 -0.25,0 -0.421875,0.171875 -0.546875,0.359375 -0.15625,0.265625 -0.25,0.671875 -0.25,0.71875 0,0.078125 0.09375,0.078125 0.125,0.078125 0.09375,0 0.09375,-0.015625 0.140625,-0.203125 0.109375,-0.421875 0.25,-0.75 0.515625,-0.75 0.1875,0 0.234375,0.15625 0.234375,0.34375 0,0.125 -0.0625,0.390625 -0.125,0.578125 -0.046875,0.1875 -0.109375,0.46875 -0.140625,0.625 L 0.84375,-0.4375 C 0.828125,-0.34375 0.78125,-0.171875 0.78125,-0.15625 0.78125,0 0.90625,0.0625 1.015625,0.0625 1.125,0.0625 1.265625,0 1.3125,-0.125 1.328125,-0.171875 1.40625,-0.484375 1.453125,-0.65625 Z m 0,0"
               id="id-a0389a10-951b-448c-8cf8-3e24a56005b2" />
          </symbol>
          <symbol
             overflow="visible"
             id="id-05fc04b3-74cf-4df7-a893-40a26a72db72">
            <path
               style="stroke:none"
               d=""
               id="id-518a3260-0d17-4eb4-a015-7ec2ca8a7b11" />
          </symbol>
          <symbol
             overflow="visible"
             id="id-03d7cfbd-b3b6-4760-aa2e-ee1cfa61f487">
            <path
               style="stroke:none"
               d="m 1.96875,-3.109375 c 0,-0.125 -0.078125,-0.21875 -0.21875,-0.21875 -0.140625,0 -0.296875,0.140625 -0.296875,0.296875 0,0.140625 0.109375,0.21875 0.21875,0.21875 0.15625,0 0.296875,-0.140625 0.296875,-0.296875 z m 0.234375,2.390625 c 0,-0.0625 -0.078125,-0.0625 -0.09375,-0.0625 -0.09375,0 -0.09375,0.015625 -0.125,0.109375 -0.078125,0.265625 -0.3125,0.5625 -0.5625,0.5625 -0.109375,0 -0.140625,-0.078125 -0.140625,-0.1875 0,-0.109375 0.015625,-0.171875 0.0625,-0.265625 0.03125,-0.09375 0.078125,-0.1875 0.109375,-0.265625 0.015625,-0.046875 0.203125,-0.5 0.28125,-0.6875 0.03125,-0.09375 0.0625,-0.171875 0.0625,-0.25 0,-0.234375 -0.234375,-0.4375 -0.546875,-0.4375 -0.515625,0 -0.796875,0.640625 -0.796875,0.765625 0,0.078125 0.078125,0.078125 0.109375,0.078125 0.078125,0 0.078125,-0.03125 0.109375,-0.09375 0.109375,-0.359375 0.34375,-0.578125 0.5625,-0.578125 0.09375,0 0.15625,0.046875 0.15625,0.1875 0,0.015625 0,0.078125 -0.03125,0.171875 -0.03125,0.09375 -0.265625,0.625 -0.328125,0.796875 -0.046875,0.09375 -0.046875,0.09375 -0.109375,0.265625 -0.03125,0.078125 -0.0625,0.140625 -0.0625,0.21875 0,0.265625 0.25,0.453125 0.546875,0.453125 0.515625,0 0.796875,-0.65625 0.796875,-0.78125 z m 0,0"
               id="id-16dae6d8-47d5-4f1e-973d-74b63dac54ea" />
          </symbol>
          <symbol
             overflow="visible"
             id="id-08c189f1-b8bf-4474-b3af-e72862d7751d">
            <path
               style="stroke:none"
               d="m 1.34375,-0.0625 c 0,0.46875 -0.25,0.75 -0.390625,0.859375 -0.046875,0.03125 -0.0625,0.046875 -0.0625,0.078125 0,0.03125 0.046875,0.09375 0.09375,0.09375 0.0625,0 0.53125,-0.390625 0.53125,-1.015625 0,-0.34375 -0.15625,-0.5625 -0.375,-0.5625 -0.1875,0 -0.296875,0.15625 -0.296875,0.3125 C 0.84375,-0.140625 0.953125,0 1.140625,0 1.21875,0 1.296875,-0.015625 1.34375,-0.0625 Z m 0,0"
               id="id-fc0c1e73-ea44-4c9e-ac50-61a91c60cda6" />
          </symbol>
          <symbol
             overflow="visible"
             id="id-dc3176c0-3cae-4a30-998a-76f5f9d5dc8b">
            <path
               style="stroke:none"
               d="M 1.484375,-0.8125 C 1.5,-0.890625 1.546875,-1.078125 1.5625,-1.15625 1.578125,-1.234375 1.609375,-1.3125 1.625,-1.375 1.640625,-1.453125 1.796875,-1.71875 1.96875,-1.859375 2.140625,-2 2.296875,-2.03125 2.46875,-2.03125 c 0.0625,0 0.296875,0 0.46875,0.078125 -0.21875,0.078125 -0.21875,0.28125 -0.21875,0.296875 0,0.078125 0.0625,0.203125 0.21875,0.203125 0.140625,0 0.3125,-0.125 0.3125,-0.34375 0,-0.359375 -0.53125,-0.40625 -0.765625,-0.40625 -0.125,0 -0.453125,0 -0.796875,0.390625 -0.0625,-0.265625 -0.359375,-0.390625 -0.59375,-0.390625 -0.171875,0 -0.3125,0.078125 -0.453125,0.28125 -0.125,0.203125 -0.1875,0.46875 -0.1875,0.484375 0,0.078125 0.078125,0.078125 0.109375,0.078125 0.078125,0 0.078125,-0.015625 0.125,-0.140625 0.078125,-0.296875 0.1875,-0.53125 0.375,-0.53125 0.171875,0 0.203125,0.15625 0.203125,0.265625 0,0.0625 -0.046875,0.25 -0.078125,0.390625 -0.03125,0.125 -0.078125,0.328125 -0.109375,0.4375 L 0.96875,-0.484375 C 0.9375,-0.359375 0.875,-0.140625 0.875,-0.125 c 0,0.109375 0.09375,0.1875 0.1875,0.1875 0.078125,0 0.171875,-0.046875 0.21875,-0.140625 C 1.3125,-0.109375 1.34375,-0.28125 1.375,-0.375 Z m 0,0"
               id="id-152d7726-d382-4774-b744-ae4e0d5468a3" />
          </symbol>
          <symbol
             overflow="visible"
             id="id-b763106b-c33f-4b77-b29f-83d41bdbf2f0">
            <path
               style="stroke:none"
               d=""
               id="id-fb4b39a2-0696-482b-b776-0b6dd0414717" />
          </symbol>
          <symbol
             overflow="visible"
             id="id-3d145c55-0c21-4bae-b09f-ec882e852fd0">
            <path
               style="stroke:none"
               d="m 2.015625,-3.296875 c 0.0625,-0.109375 0.0625,-0.171875 0.0625,-0.21875 0,-0.21875 -0.1875,-0.375 -0.40625,-0.375 -0.265625,0 -0.34375,0.21875 -0.375,0.328125 L 0.375,-0.546875 c -0.015625,0.015625 -0.046875,0.09375 -0.046875,0.109375 0,0.078125 0.21875,0.15625 0.28125,0.15625 0.046875,0 0.046875,-0.015625 0.09375,-0.125 z m 0,0"
               id="id-ce760425-59fd-4555-8fd2-70b6ca6dc249" />
          </symbol>
        </g>
      </defs>
      <g
         id="id-5f29cd09-b24d-4393-9e44-e3ac35943b51"
         transform="translate(-216.897,-145.716)">
        <g
           style="fill:#000000;fill-opacity:1"
           id="id-3d6ac610-2d60-4b4d-96a5-e821bd43613f">
          <g
             transform="translate(216.791,160.169)"
             id="g1551">
            <path
               style="stroke:none"
               d="m 3.5625,-2.90625 c 0.40625,1.046875 0.890625,2.5625 1.046875,2.796875 0.15625,0.21875 0.25,0.21875 0.53125,0.21875 h 0.21875 c 0.09375,-0.015625 0.109375,-0.0625 0.109375,-0.09375 0,-0.03125 -0.03125,-0.0625 -0.0625,-0.09375 C 5.3125,-0.1875 5.25,-0.34375 5.1875,-0.53125 L 3.15625,-6.203125 c -0.21875,-0.578125 -0.75,-0.71875 -1.21875,-0.71875 -0.046875,0 -0.1875,0 -0.1875,0.109375 0,0.078125 0.078125,0.109375 0.09375,0.109375 C 2.171875,-6.65625 2.25,-6.59375 2.5,-5.90625 l 0.953125,2.703125 -2.75,2.734375 c -0.109375,0.125 -0.171875,0.171875 -0.171875,0.3125 0,0.171875 0.140625,0.28125 0.296875,0.28125 0.15625,0 0.25,-0.109375 0.328125,-0.203125 z m 0,0"
               id="id-9913c368-ff26-469f-92e5-5cc075f36571" />
          </g>
        </g>
        <g
           style="fill:#000000;fill-opacity:1"
           id="id-ee6cdf10-ac3e-4f5e-a9f5-80064b86af5d">
          <g
             transform="translate(225.37,160.169)"
             id="g1555">
            <path
               style="stroke:none"
               d="m 6.84375,-3.265625 c 0.15625,0 0.34375,0 0.34375,-0.1875 C 7.1875,-3.65625 7,-3.65625 6.859375,-3.65625 h -5.96875 c -0.140625,0 -0.328125,0 -0.328125,0.203125 0,0.1875 0.1875,0.1875 0.328125,0.1875 z m 0.015625,1.9375 c 0.140625,0 0.328125,0 0.328125,-0.203125 0,-0.1875 -0.1875,-0.1875 -0.34375,-0.1875 H 0.890625 c -0.140625,0 -0.328125,0 -0.328125,0.1875 0,0.203125 0.1875,0.203125 0.328125,0.203125 z m 0,0"
               id="id-4aac6941-cfc1-4712-851c-8aaddc524091" />
          </g>
        </g>
        <g
           style="fill:#000000;fill-opacity:1"
           id="id-b2c0fd48-5fc3-405f-bb33-73bd721b64ed">
          <g
             transform="translate(235.886,160.169)"
             id="g1559">
            <path
               style="stroke:none"
               d="m 6.5625,-2.296875 c 0.171875,0 0.359375,0 0.359375,-0.203125 0,-0.1875 -0.1875,-0.1875 -0.359375,-0.1875 H 1.171875 c -0.171875,0 -0.34375,0 -0.34375,0.1875 0,0.203125 0.171875,0.203125 0.34375,0.203125 z m 0,0"
               id="id-54628851-7687-4b58-8400-c91971599e62" />
          </g>
        </g>
        <g
           style="fill:#000000;fill-opacity:1"
           id="id-2ef97800-b900-4bb3-ac00-42ffec5d2362">
          <g
             transform="translate(244.83,153.43)"
             id="g1563">
            <path
               style="stroke:none"
               d="m 4.40625,-6.953125 c -0.0625,-0.140625 -0.09375,-0.1875 -0.265625,-0.1875 -0.15625,0 -0.1875,0.046875 -0.25,0.1875 l -3.375,6.75 C 0.46875,-0.109375 0.46875,-0.09375 0.46875,-0.078125 0.46875,0 0.53125,0 0.6875,0 h 6.921875 c 0.15625,0 0.21875,0 0.21875,-0.078125 0,-0.015625 0,-0.03125 -0.046875,-0.125 z m -0.578125,0.8125 2.6875,5.390625 h -5.375 z m 0,0"
               id="id-f171a46f-ca01-4571-9b11-51682349bfe1" />
          </g>
        </g>
        <g
           style="fill:#000000;fill-opacity:1"
           id="id-639ab434-affc-4b64-bd6e-0a3194efce47">
          <g
             transform="translate(253.132,153.43)"
             id="g1567">
            <path
               style="stroke:none"
               d="M 3.015625,-3.15625 H 4.71875 c 1.40625,0 2.796875,-1.03125 2.796875,-2.140625 0,-0.78125 -0.65625,-1.515625 -1.96875,-1.515625 h -3.21875 c -0.1875,0 -0.296875,0 -0.296875,0.1875 0,0.125 0.078125,0.125 0.28125,0.125 0.125,0 0.3125,0.015625 0.421875,0.015625 0.171875,0.03125 0.21875,0.046875 0.21875,0.171875 0,0.03125 0,0.0625 -0.03125,0.1875 l -1.34375,5.34375 c -0.09375,0.390625 -0.109375,0.46875 -0.90625,0.46875 -0.15625,0 -0.265625,0 -0.265625,0.1875 C 0.40625,0 0.515625,0 0.546875,0 0.828125,0 1.53125,-0.03125 1.8125,-0.03125 c 0.21875,0 0.4375,0.015625 0.640625,0.015625 0.21875,0 0.4375,0.015625 0.640625,0.015625 0.078125,0 0.203125,0 0.203125,-0.203125 0,-0.109375 -0.09375,-0.109375 -0.28125,-0.109375 -0.359375,0 -0.640625,0 -0.640625,-0.171875 0,-0.0625 0.015625,-0.109375 0.03125,-0.171875 z M 3.734375,-6.125 C 3.828125,-6.46875 3.84375,-6.5 4.28125,-6.5 h 0.953125 c 0.828125,0 1.359375,0.265625 1.359375,0.953125 0,0.390625 -0.203125,1.25 -0.59375,1.609375 -0.5,0.453125 -1.09375,0.53125 -1.53125,0.53125 H 3.0625 Z m 0,0"
               id="id-9b00c2b8-9bc1-442f-9579-778a7539dfd2" />
          </g>
        </g>
        <path
           style="fill:none;stroke:#000000;stroke-width:0.398;stroke-linecap:butt;stroke-linejoin:miter;stroke-miterlimit:10;stroke-opacity:1"
           d="M -0.001875,-6.875e-4 H 16.080156"
           transform="matrix(1,0,0,-1,244.83,157.679)"
           id="id-ebe74598-e6fb-4b39-8565-46f3262a9756" />
        <g
           style="fill:#000000;fill-opacity:1"
           id="id-4b661610-1f74-4d27-a2dd-4db9277f07e2">
          <g
             transform="translate(245.745,167.003)"
             id="g1572">
            <path
               style="stroke:none"
               d="m 4.40625,-6.953125 c -0.0625,-0.140625 -0.09375,-0.1875 -0.265625,-0.1875 -0.15625,0 -0.1875,0.046875 -0.25,0.1875 l -3.375,6.75 C 0.46875,-0.109375 0.46875,-0.09375 0.46875,-0.078125 0.46875,0 0.53125,0 0.6875,0 h 6.921875 c 0.15625,0 0.21875,0 0.21875,-0.078125 0,-0.015625 0,-0.03125 -0.046875,-0.125 z m -0.578125,0.8125 2.6875,5.390625 h -5.375 z m 0,0"
               id="id-70d3bd08-c7bc-478f-8a65-9e5bb44a806a" />
          </g>
        </g>
        <g
           style="fill:#000000;fill-opacity:1"
           id="id-9a0024f7-12bd-4091-a5a4-c6ef1c0a5a53">
          <g
             transform="translate(254.047,167.003)"
             id="g1576">
            <path
               style="stroke:none"
               d="m 3.65625,-3.984375 h 0.859375 c 0.203125,0 0.296875,0 0.296875,-0.203125 0,-0.109375 -0.09375,-0.109375 -0.265625,-0.109375 H 3.71875 L 3.921875,-5.4375 c 0.046875,-0.203125 0.1875,-0.90625 0.25,-1.03125 0.078125,-0.1875 0.25,-0.34375 0.46875,-0.34375 0.03125,0 0.296875,0 0.484375,0.1875 -0.4375,0.03125 -0.546875,0.390625 -0.546875,0.53125 0,0.234375 0.1875,0.359375 0.375,0.359375 C 5.21875,-5.734375 5.5,-5.96875 5.5,-6.34375 c 0,-0.453125 -0.453125,-0.6875 -0.859375,-0.6875 -0.34375,0 -0.96875,0.1875 -1.265625,1.171875 -0.0625,0.203125 -0.09375,0.3125 -0.328125,1.5625 h -0.6875 c -0.203125,0 -0.3125,0 -0.3125,0.1875 0,0.125 0.09375,0.125 0.28125,0.125 h 0.65625 L 2.25,-0.046875 c -0.1875,0.96875 -0.359375,1.875 -0.875,1.875 -0.046875,0 -0.28125,0 -0.484375,-0.1875 C 1.359375,1.609375 1.453125,1.25 1.453125,1.109375 1.453125,0.875 1.265625,0.75 1.078125,0.75 0.8125,0.75 0.53125,0.984375 0.53125,1.359375 c 0,0.4375 0.4375,0.6875 0.84375,0.6875 0.546875,0 0.953125,-0.59375 1.125,-0.96875 0.328125,-0.625 0.546875,-1.828125 0.5625,-1.90625 z m 0,0"
               id="id-ea431029-0d89-4587-bf27-aee4bcac053f" />
          </g>
        </g>
        <g
           style="fill:#000000;fill-opacity:1"
           id="id-1acd7895-5fd4-4ea7-a554-bc661ecdd8f7">
          <g
             transform="translate(264.875,160.169)"
             id="g1580">
            <path
               style="stroke:none"
               d="m 6.84375,-3.265625 c 0.15625,0 0.34375,0 0.34375,-0.1875 C 7.1875,-3.65625 7,-3.65625 6.859375,-3.65625 h -5.96875 c -0.140625,0 -0.328125,0 -0.328125,0.203125 0,0.1875 0.1875,0.1875 0.328125,0.1875 z m 0.015625,1.9375 c 0.140625,0 0.328125,0 0.328125,-0.203125 0,-0.1875 -0.1875,-0.1875 -0.34375,-0.1875 H 0.890625 c -0.140625,0 -0.328125,0 -0.328125,0.1875 0,0.203125 0.1875,0.203125 0.328125,0.203125 z m 0,0"
               id="id-81ff13e0-c279-40cc-8cfc-e53016dc12bf" />
          </g>
        </g>
        <g
           style="fill:#000000;fill-opacity:1"
           id="id-abe35348-dadf-4ca8-bc5f-fb612ae46b96">
          <g
             transform="translate(275.391,150.705)"
             id="g1584">
            <path
               style="stroke:none"
               d="m 12.625,13.953125 1.203125,-3.1875 h -0.25 c -0.390625,1.03125 -1.453125,1.71875 -2.59375,2.015625 -0.203125,0.04687 -1.1875,0.3125 -3.09375,0.3125 H 1.875 L 6.953125,7.140625 C 7.015625,7.0625 7.03125,7.03125 7.03125,6.984375 c 0,-0.03125 0,-0.0625 -0.0625,-0.15625 L 2.328125,0.484375 H 7.78125 c 1.34375,0 2.25,0.140625 2.34375,0.15625 0.53125,0.078125 1.40625,0.25 2.1875,0.75 0.25,0.15625 0.921875,0.609375 1.265625,1.40625 h 0.25 L 12.625,0 H 0.84375 c -0.234375,0 -0.25,0.015625 -0.28125,0.0625 0,0.03125 0,0.234375 0,0.34375 l 5.265625,7.203125 -5.15625,6.0625 C 0.5625,13.78125 0.5625,13.84375 0.5625,13.84375 c 0,0.109375 0.09375,0.109375 0.28125,0.109375 z m 0,0"
               id="id-b09dc47d-e17c-4819-a993-9e69ee1c89f1" />
          </g>
        </g>
        <g
           style="fill:#000000;fill-opacity:1"
           id="id-750c3cb1-1332-4ff7-9d9a-0159e9f357ec">
          <g
             transform="translate(281.177,171.924)"
             id="g1588">
            <path
               style="stroke:none"
               d="m 2.265625,-4.359375 c 0,-0.109375 -0.09375,-0.265625 -0.28125,-0.265625 -0.1875,0 -0.390625,0.1875 -0.390625,0.390625 0,0.109375 0.078125,0.265625 0.28125,0.265625 0.1875,0 0.390625,-0.203125 0.390625,-0.390625 z M 0.84375,-0.8125 c -0.03125,0.09375 -0.0625,0.171875 -0.0625,0.296875 0,0.328125 0.265625,0.578125 0.65625,0.578125 0.6875,0 1,-0.953125 1,-1.0625 0,-0.09375 -0.09375,-0.09375 -0.109375,-0.09375 -0.09375,0 -0.109375,0.046875 -0.140625,0.125 -0.15625,0.5625 -0.453125,0.84375 -0.734375,0.84375 -0.140625,0 -0.171875,-0.09375 -0.171875,-0.25 0,-0.15625 0.046875,-0.28125 0.109375,-0.4375 C 1.46875,-1 1.546875,-1.1875 1.609375,-1.375 1.671875,-1.546875 1.9375,-2.171875 1.953125,-2.265625 1.984375,-2.328125 2,-2.40625 2,-2.484375 2,-2.8125 1.71875,-3.078125 1.34375,-3.078125 0.640625,-3.078125 0.328125,-2.125 0.328125,-2 c 0,0.078125 0.09375,0.078125 0.125,0.078125 0.09375,0 0.09375,-0.03125 0.125,-0.109375 C 0.75,-2.625 1.0625,-2.875 1.3125,-2.875 c 0.109375,0 0.171875,0.046875 0.171875,0.234375 0,0.171875 -0.03125,0.265625 -0.203125,0.703125 z m 0,0"
               id="id-248b02b0-ece2-44b1-a79d-8e4681631c62" />
          </g>
        </g>
        <g
           style="fill:#000000;fill-opacity:1"
           id="id-f91fae31-9666-4895-958b-1f72001a7c39">
          <g
             transform="translate(291.442,146.122)"
             id="g1592">
            <path
               style="stroke:none"
               d="m 6.984375,23.421875 c 0,-0.04687 -0.03125,-0.0625 -0.046875,-0.09375 -0.375,-0.375 -1.03125,-1.03125 -1.703125,-2.109375 C 3.625,18.640625 2.90625,15.40625 2.90625,11.5625 c 0,-2.6875 0.359375,-6.140625 2,-9.109375 C 5.6875,1.03125 6.515625,0.21875 6.953125,-0.21875 c 0.03125,-0.03125 0.03125,-0.046875 0.03125,-0.078125 0,-0.109375 -0.078125,-0.109375 -0.21875,-0.109375 -0.140625,0 -0.15625,0 -0.3125,0.15625 -3.328125,3.046875 -4.375,7.609375 -4.375,11.796875 0,3.921875 0.890625,7.875 3.421875,10.859375 0.203125,0.21875 0.578125,0.625 0.984375,0.984375 0.125,0.125 0.140625,0.125 0.28125,0.125 0.140625,0 0.21875,0 0.21875,-0.09375 z m 0,0"
               id="id-a3517661-0506-4251-a858-0caa1fa50626" />
          </g>
        </g>
        <g
           style="fill:#000000;fill-opacity:1"
           id="id-d29a7764-f4aa-457e-9a3d-76cde8298851">
          <g
             transform="translate(305.033,153.43)"
             id="g1596">
            <path
               style="stroke:none"
               d="m 2.9375,-6.375 c 0,-0.25 0,-0.265625 -0.234375,-0.265625 C 2.078125,-6 1.203125,-6 0.890625,-6 v 0.3125 c 0.203125,0 0.78125,0 1.296875,-0.265625 v 5.171875 c 0,0.359375 -0.03125,0.46875 -0.921875,0.46875 h -0.3125 V 0 c 0.34375,-0.03125 1.203125,-0.03125 1.609375,-0.03125 0.390625,0 1.265625,0 1.609375,0.03125 v -0.3125 h -0.3125 c -0.90625,0 -0.921875,-0.109375 -0.921875,-0.46875 z m 0,0"
               id="id-160483e5-a498-4bea-b31e-f455d484f8bb" />
          </g>
        </g>
        <path
           style="fill:none;stroke:#000000;stroke-width:0.398;stroke-linecap:butt;stroke-linejoin:miter;stroke-miterlimit:10;stroke-opacity:1"
           d="M 0.00165625,-6.875e-4 H 15.103219"
           transform="matrix(1,0,0,-1,299.971,157.679)"
           id="id-079b45af-628e-4c67-ae1a-b2e434b4288d" />
        <g
           style="fill:#000000;fill-opacity:1"
           id="id-a97606f9-323f-42d9-be7b-d7d6f05b7e8c">
          <g
             transform="translate(299.971,167.003)"
             id="g1601">
            <path
               style="stroke:none"
               d="m 3.734375,-6.125 c 0.0625,-0.234375 0.09375,-0.328125 0.28125,-0.359375 C 4.109375,-6.5 4.421875,-6.5 4.625,-6.5 c 0.703125,0 1.8125,0 1.8125,0.984375 0,0.34375 -0.15625,1.03125 -0.546875,1.421875 -0.265625,0.25 -0.78125,0.578125 -1.6875,0.578125 H 3.09375 Z m 1.4375,2.734375 c 1.015625,-0.21875 2.1875,-0.921875 2.1875,-1.921875 0,-0.859375 -0.890625,-1.5 -2.203125,-1.5 H 2.328125 c -0.203125,0 -0.296875,0 -0.296875,0.203125 C 2.03125,-6.5 2.125,-6.5 2.3125,-6.5 c 0.015625,0 0.203125,0 0.375,0.015625 0.1875,0.03125 0.265625,0.03125 0.265625,0.171875 0,0.03125 0,0.0625 -0.03125,0.1875 l -1.34375,5.34375 C 1.484375,-0.390625 1.46875,-0.3125 0.671875,-0.3125 0.5,-0.3125 0.40625,-0.3125 0.40625,-0.109375 0.40625,0 0.53125,0 0.546875,0 c 0.28125,0 0.984375,-0.03125 1.25,-0.03125 0.28125,0 1,0.03125 1.28125,0.03125 0.078125,0 0.1875,0 0.1875,-0.203125 0,-0.109375 -0.078125,-0.109375 -0.28125,-0.109375 -0.359375,0 -0.640625,0 -0.640625,-0.171875 0,-0.0625 0.015625,-0.109375 0.03125,-0.171875 l 0.65625,-2.640625 h 1.1875 c 0.90625,0 1.078125,0.5625 1.078125,0.90625 0,0.140625 -0.078125,0.453125 -0.140625,0.6875 C 5.09375,-1.421875 5,-1.0625 5,-0.859375 5,0.21875 6.203125,0.21875 6.328125,0.21875 c 0.84375,0 1.203125,-1 1.203125,-1.140625 0,-0.125 -0.109375,-0.125 -0.125,-0.125 -0.09375,0 -0.109375,0.0625 -0.125,0.140625 C 7.03125,-0.171875 6.59375,0 6.375,0 6.046875,0 5.96875,-0.21875 5.96875,-0.609375 c 0,-0.3125 0.0625,-0.8125 0.109375,-1.140625 0.015625,-0.140625 0.03125,-0.328125 0.03125,-0.46875 0,-0.765625 -0.671875,-1.078125 -0.9375,-1.171875 z m 0,0"
               id="id-b49c2b50-4f6e-492b-ad19-b1b5057c7a6b" />
          </g>
        </g>
        <g
           style="fill:#000000;fill-opacity:1"
           id="id-40bbb1a5-341c-4db6-8d40-b994b78d5d93">
          <g
             transform="translate(307.536,168.498)"
             id="g1605">
            <path
               style="stroke:none"
               d="m 3.703125,-2.578125 c 0.03125,-0.09375 0.03125,-0.125 0.03125,-0.140625 0,-0.15625 -0.125,-0.21875 -0.234375,-0.21875 -0.15625,0 -0.296875,0.125 -0.328125,0.265625 -0.109375,-0.1875 -0.34375,-0.40625 -0.71875,-0.40625 -0.859375,0 -1.78125,0.9375 -1.78125,1.9375 0,0.71875 0.484375,1.140625 1.0625,1.140625 0.328125,0 0.625,-0.15625 0.875,-0.375 L 2.453125,0.25 C 2.375,0.546875 2.328125,0.734375 2.0625,0.96875 c -0.3125,0.25 -0.609375,0.25 -0.78125,0.25 -0.3125,0 -0.40625,-0.015625 -0.53125,-0.046875 0.171875,-0.078125 0.21875,-0.25 0.21875,-0.34375 0,-0.171875 -0.125,-0.25 -0.265625,-0.25 C 0.5,0.578125 0.296875,0.734375 0.296875,1 c 0,0.421875 0.609375,0.421875 1,0.421875 1.09375,0 1.546875,-0.5625 1.65625,-0.953125 z M 2.75,-0.921875 c -0.03125,0.09375 -0.03125,0.109375 -0.15625,0.25 C 2.359375,-0.375 2.015625,-0.1875 1.75,-0.1875 c -0.34375,0 -0.515625,-0.3125 -0.515625,-0.671875 0,-0.296875 0.1875,-1.078125 0.375,-1.390625 0.28125,-0.484375 0.609375,-0.625 0.84375,-0.625 0.5,0 0.625,0.515625 0.625,0.59375 0,0.015625 0,0.015625 -0.015625,0.09375 z m 0,0"
               id="id-dd017a8a-e1ea-4d62-866a-ac753c1a5d67" />
          </g>
        </g>
        <g
           style="fill:#000000;fill-opacity:1"
           id="id-a6cf4dc5-73b7-4175-9de5-07726fad9471">
          <g
             transform="translate(311.423,169.494)"
             id="g1609">
            <path
               style="stroke:none"
               d="m 1.96875,-3.109375 c 0,-0.125 -0.078125,-0.21875 -0.21875,-0.21875 -0.140625,0 -0.296875,0.140625 -0.296875,0.296875 0,0.140625 0.109375,0.21875 0.21875,0.21875 0.15625,0 0.296875,-0.140625 0.296875,-0.296875 z m 0.234375,2.390625 c 0,-0.0625 -0.078125,-0.0625 -0.09375,-0.0625 -0.09375,0 -0.09375,0.015625 -0.125,0.109375 -0.078125,0.265625 -0.3125,0.5625 -0.5625,0.5625 -0.109375,0 -0.140625,-0.078125 -0.140625,-0.1875 0,-0.109375 0.015625,-0.171875 0.0625,-0.265625 0.03125,-0.09375 0.078125,-0.1875 0.109375,-0.265625 0.015625,-0.046875 0.203125,-0.5 0.28125,-0.6875 0.03125,-0.09375 0.0625,-0.171875 0.0625,-0.25 0,-0.234375 -0.234375,-0.4375 -0.546875,-0.4375 -0.515625,0 -0.796875,0.640625 -0.796875,0.765625 0,0.078125 0.078125,0.078125 0.109375,0.078125 0.078125,0 0.078125,-0.03125 0.109375,-0.09375 0.109375,-0.359375 0.34375,-0.578125 0.5625,-0.578125 0.09375,0 0.15625,0.046875 0.15625,0.1875 0,0.015625 0,0.078125 -0.03125,0.171875 -0.03125,0.09375 -0.265625,0.625 -0.328125,0.796875 -0.046875,0.09375 -0.046875,0.09375 -0.109375,0.265625 -0.03125,0.078125 -0.0625,0.140625 -0.0625,0.21875 0,0.265625 0.25,0.453125 0.546875,0.453125 0.515625,0 0.796875,-0.65625 0.796875,-0.78125 z m 0,0"
               id="id-9658e080-c515-4aaa-b781-c5f2d8aad8bb" />
          </g>
        </g>
        <g
           style="fill:#000000;fill-opacity:1"
           id="id-df24920f-2e0f-4c22-95fa-2514df3196e6">
          <g
             transform="translate(318.486,160.169)"
             id="g1613">
            <path
               style="stroke:none"
               d="m 1.90625,-2.5 c 0,-0.28125 -0.234375,-0.515625 -0.515625,-0.515625 -0.296875,0 -0.53125,0.234375 -0.53125,0.515625 0,0.296875 0.234375,0.53125 0.53125,0.53125 0.28125,0 0.515625,-0.234375 0.515625,-0.53125 z m 0,0"
               id="id-216306b6-6261-48a6-9bfd-d3a05dedbcdf" />
          </g>
        </g>
        <g
           style="fill:#000000;fill-opacity:1"
           id="id-8121e1c1-34ab-4a0c-8d50-119b3d125039">
          <g
             transform="translate(324.663,152.825)"
             id="g1617">
            <path
               style="stroke:none"
               d="M 3.015625,-3.15625 H 4.71875 c 1.40625,0 2.796875,-1.03125 2.796875,-2.140625 0,-0.78125 -0.65625,-1.515625 -1.96875,-1.515625 h -3.21875 c -0.1875,0 -0.296875,0 -0.296875,0.1875 0,0.125 0.078125,0.125 0.28125,0.125 0.125,0 0.3125,0.015625 0.421875,0.015625 0.171875,0.03125 0.21875,0.046875 0.21875,0.171875 0,0.03125 0,0.0625 -0.03125,0.1875 l -1.34375,5.34375 c -0.09375,0.390625 -0.109375,0.46875 -0.90625,0.46875 -0.15625,0 -0.265625,0 -0.265625,0.1875 C 0.40625,0 0.515625,0 0.546875,0 0.828125,0 1.53125,-0.03125 1.8125,-0.03125 c 0.21875,0 0.4375,0.015625 0.640625,0.015625 0.21875,0 0.4375,0.015625 0.640625,0.015625 0.078125,0 0.203125,0 0.203125,-0.203125 0,-0.109375 -0.09375,-0.109375 -0.28125,-0.109375 -0.359375,0 -0.640625,0 -0.640625,-0.171875 0,-0.0625 0.015625,-0.109375 0.03125,-0.171875 z M 3.734375,-6.125 C 3.828125,-6.46875 3.84375,-6.5 4.28125,-6.5 h 0.953125 c 0.828125,0 1.359375,0.265625 1.359375,0.953125 0,0.390625 -0.203125,1.25 -0.59375,1.609375 -0.5,0.453125 -1.09375,0.53125 -1.53125,0.53125 H 3.0625 Z m 0,0"
               id="id-70d12c32-6346-49b8-869f-1cf475cbc3ec" />
          </g>
        </g>
        <g
           style="fill:#000000;fill-opacity:1"
           id="id-f4514c38-07f6-47ef-877a-fac3a4362ebb">
          <g
             transform="translate(331.059,154.319)"
             id="g1621">
            <path
               style="stroke:none"
               d="m 3.703125,-2.578125 c 0.03125,-0.09375 0.03125,-0.125 0.03125,-0.140625 0,-0.15625 -0.125,-0.21875 -0.234375,-0.21875 -0.15625,0 -0.296875,0.125 -0.328125,0.265625 -0.109375,-0.1875 -0.34375,-0.40625 -0.71875,-0.40625 -0.859375,0 -1.78125,0.9375 -1.78125,1.9375 0,0.71875 0.484375,1.140625 1.0625,1.140625 0.328125,0 0.625,-0.15625 0.875,-0.375 L 2.453125,0.25 C 2.375,0.546875 2.328125,0.734375 2.0625,0.96875 c -0.3125,0.25 -0.609375,0.25 -0.78125,0.25 -0.3125,0 -0.40625,-0.015625 -0.53125,-0.046875 0.171875,-0.078125 0.21875,-0.25 0.21875,-0.34375 0,-0.171875 -0.125,-0.25 -0.265625,-0.25 C 0.5,0.578125 0.296875,0.734375 0.296875,1 c 0,0.421875 0.609375,0.421875 1,0.421875 1.09375,0 1.546875,-0.5625 1.65625,-0.953125 z M 2.75,-0.921875 c -0.03125,0.09375 -0.03125,0.109375 -0.15625,0.25 C 2.359375,-0.375 2.015625,-0.1875 1.75,-0.1875 c -0.34375,0 -0.515625,-0.3125 -0.515625,-0.671875 0,-0.296875 0.1875,-1.078125 0.375,-1.390625 0.28125,-0.484375 0.609375,-0.625 0.84375,-0.625 0.5,0 0.625,0.515625 0.625,0.59375 0,0.015625 0,0.015625 -0.015625,0.09375 z m 0,0"
               id="id-a9acd7eb-346b-4134-adfe-e1f9ac17e2a2" />
          </g>
        </g>
        <g
           style="fill:#000000;fill-opacity:1"
           id="id-5f464109-1aaf-414a-8623-5759469eb9cb">
          <g
             transform="translate(334.946,155.316)"
             id="g1625">
            <path
               style="stroke:none"
               d="m 1.96875,-3.109375 c 0,-0.125 -0.078125,-0.21875 -0.21875,-0.21875 -0.140625,0 -0.296875,0.140625 -0.296875,0.296875 0,0.140625 0.109375,0.21875 0.21875,0.21875 0.15625,0 0.296875,-0.140625 0.296875,-0.296875 z m 0.234375,2.390625 c 0,-0.0625 -0.078125,-0.0625 -0.09375,-0.0625 -0.09375,0 -0.09375,0.015625 -0.125,0.109375 -0.078125,0.265625 -0.3125,0.5625 -0.5625,0.5625 -0.109375,0 -0.140625,-0.078125 -0.140625,-0.1875 0,-0.109375 0.015625,-0.171875 0.0625,-0.265625 0.03125,-0.09375 0.078125,-0.1875 0.109375,-0.265625 0.015625,-0.046875 0.203125,-0.5 0.28125,-0.6875 0.03125,-0.09375 0.0625,-0.171875 0.0625,-0.25 0,-0.234375 -0.234375,-0.4375 -0.546875,-0.4375 -0.515625,0 -0.796875,0.640625 -0.796875,0.765625 0,0.078125 0.078125,0.078125 0.109375,0.078125 0.078125,0 0.078125,-0.03125 0.109375,-0.09375 0.109375,-0.359375 0.34375,-0.578125 0.5625,-0.578125 0.09375,0 0.15625,0.046875 0.15625,0.1875 0,0.015625 0,0.078125 -0.03125,0.171875 -0.03125,0.09375 -0.265625,0.625 -0.328125,0.796875 -0.046875,0.09375 -0.046875,0.09375 -0.109375,0.265625 -0.03125,0.078125 -0.0625,0.140625 -0.0625,0.21875 0,0.265625 0.25,0.453125 0.546875,0.453125 0.515625,0 0.796875,-0.65625 0.796875,-0.78125 z m 0,0"
               id="id-d2a89878-0975-492a-8fd7-fe39be986bd5" />
          </g>
          <g
             transform="translate(337.604,155.316)"
             id="g1628">
            <path
               style="stroke:none"
               d="m 1.34375,-0.0625 c 0,0.46875 -0.25,0.75 -0.390625,0.859375 -0.046875,0.03125 -0.0625,0.046875 -0.0625,0.078125 0,0.03125 0.046875,0.09375 0.09375,0.09375 0.0625,0 0.53125,-0.390625 0.53125,-1.015625 0,-0.34375 -0.15625,-0.5625 -0.375,-0.5625 -0.1875,0 -0.296875,0.15625 -0.296875,0.3125 C 0.84375,-0.140625 0.953125,0 1.140625,0 1.21875,0 1.296875,-0.015625 1.34375,-0.0625 Z m 0,0"
               id="id-82975fce-d69f-4fc6-8ac5-9636c6842b3e" />
          </g>
          <g
             transform="translate(339.887,155.316)"
             id="g1631">
            <path
               style="stroke:none"
               d="M 1.484375,-0.8125 C 1.5,-0.890625 1.546875,-1.078125 1.5625,-1.15625 1.578125,-1.234375 1.609375,-1.3125 1.625,-1.375 1.640625,-1.453125 1.796875,-1.71875 1.96875,-1.859375 2.140625,-2 2.296875,-2.03125 2.46875,-2.03125 c 0.0625,0 0.296875,0 0.46875,0.078125 -0.21875,0.078125 -0.21875,0.28125 -0.21875,0.296875 0,0.078125 0.0625,0.203125 0.21875,0.203125 0.140625,0 0.3125,-0.125 0.3125,-0.34375 0,-0.359375 -0.53125,-0.40625 -0.765625,-0.40625 -0.125,0 -0.453125,0 -0.796875,0.390625 -0.0625,-0.265625 -0.359375,-0.390625 -0.59375,-0.390625 -0.171875,0 -0.3125,0.078125 -0.453125,0.28125 -0.125,0.203125 -0.1875,0.46875 -0.1875,0.484375 0,0.078125 0.078125,0.078125 0.109375,0.078125 0.078125,0 0.078125,-0.015625 0.125,-0.140625 0.078125,-0.296875 0.1875,-0.53125 0.375,-0.53125 0.171875,0 0.203125,0.15625 0.203125,0.265625 0,0.0625 -0.046875,0.25 -0.078125,0.390625 -0.03125,0.125 -0.078125,0.328125 -0.109375,0.4375 L 0.96875,-0.484375 C 0.9375,-0.359375 0.875,-0.140625 0.875,-0.125 c 0,0.109375 0.09375,0.1875 0.1875,0.1875 0.078125,0 0.171875,-0.046875 0.21875,-0.140625 C 1.3125,-0.109375 1.34375,-0.28125 1.375,-0.375 Z m 0,0"
               id="id-cd498d38-1439-45a7-937d-3d76b647674a" />
          </g>
        </g>
        <path
           style="fill:none;stroke:#000000;stroke-width:0.398;stroke-linecap:butt;stroke-linejoin:miter;stroke-miterlimit:10;stroke-opacity:1"
           d="M 0.0010625,-6.875e-4 H 19.735437"
           transform="matrix(1,0,0,-1,324.663,157.679)"
           id="id-ddde139d-9220-43e4-8aae-e8a5f366f813" />
        <g
           style="fill:#000000;fill-opacity:1"
           id="id-d67a324b-fdb1-47dd-818d-3ff1ccd33652">
          <g
             transform="translate(329.887,167.003)"
             id="g1636">
            <path
               style="stroke:none"
               d="m 3.65625,-3.984375 h 0.859375 c 0.203125,0 0.296875,0 0.296875,-0.203125 0,-0.109375 -0.09375,-0.109375 -0.265625,-0.109375 H 3.71875 L 3.921875,-5.4375 c 0.046875,-0.203125 0.1875,-0.90625 0.25,-1.03125 0.078125,-0.1875 0.25,-0.34375 0.46875,-0.34375 0.03125,0 0.296875,0 0.484375,0.1875 -0.4375,0.03125 -0.546875,0.390625 -0.546875,0.53125 0,0.234375 0.1875,0.359375 0.375,0.359375 C 5.21875,-5.734375 5.5,-5.96875 5.5,-6.34375 c 0,-0.453125 -0.453125,-0.6875 -0.859375,-0.6875 -0.34375,0 -0.96875,0.1875 -1.265625,1.171875 -0.0625,0.203125 -0.09375,0.3125 -0.328125,1.5625 h -0.6875 c -0.203125,0 -0.3125,0 -0.3125,0.1875 0,0.125 0.09375,0.125 0.28125,0.125 h 0.65625 L 2.25,-0.046875 c -0.1875,0.96875 -0.359375,1.875 -0.875,1.875 -0.046875,0 -0.28125,0 -0.484375,-0.1875 C 1.359375,1.609375 1.453125,1.25 1.453125,1.109375 1.453125,0.875 1.265625,0.75 1.078125,0.75 0.8125,0.75 0.53125,0.984375 0.53125,1.359375 c 0,0.4375 0.4375,0.6875 0.84375,0.6875 0.546875,0 0.953125,-0.59375 1.125,-0.96875 0.328125,-0.625 0.546875,-1.828125 0.5625,-1.90625 z m 0,0"
               id="id-870401e4-bce0-46a7-8ce9-03dfb4e23882" />
          </g>
        </g>
        <g
           style="fill:#000000;fill-opacity:1"
           id="id-1b09e04b-c7cc-4e02-b944-b483e7038b20">
          <g
             transform="translate(334.764,168.498)"
             id="g1640">
            <path
               style="stroke:none"
               d="m 1.640625,-1.40625 c 0,-0.046875 0.171875,-0.671875 0.171875,-0.703125 0.015625,-0.0625 0.21875,-0.40625 0.453125,-0.578125 0.0625,-0.046875 0.25,-0.1875 0.5625,-0.1875 0.0625,0 0.234375,0 0.375,0.09375 -0.21875,0.0625 -0.296875,0.265625 -0.296875,0.390625 0,0.140625 0.109375,0.25 0.265625,0.25 0.171875,0 0.390625,-0.125 0.390625,-0.421875 0,-0.359375 -0.375,-0.515625 -0.734375,-0.515625 -0.359375,0 -0.671875,0.15625 -0.984375,0.5 -0.125,-0.421875 -0.546875,-0.5 -0.71875,-0.5 -0.25,0 -0.421875,0.171875 -0.546875,0.359375 -0.15625,0.265625 -0.25,0.671875 -0.25,0.71875 0,0.078125 0.09375,0.078125 0.125,0.078125 0.09375,0 0.09375,-0.015625 0.140625,-0.203125 0.109375,-0.421875 0.25,-0.75 0.515625,-0.75 0.1875,0 0.234375,0.15625 0.234375,0.34375 0,0.125 -0.0625,0.390625 -0.125,0.578125 -0.046875,0.1875 -0.109375,0.46875 -0.140625,0.625 L 0.84375,-0.4375 C 0.828125,-0.34375 0.78125,-0.171875 0.78125,-0.15625 0.78125,0 0.90625,0.0625 1.015625,0.0625 1.125,0.0625 1.265625,0 1.3125,-0.125 1.328125,-0.171875 1.40625,-0.484375 1.453125,-0.65625 Z m 0,0"
               id="id-f9220b6e-c4ee-4f02-bee7-7e6c7c803784" />
          </g>
        </g>
        <g
           style="fill:#000000;fill-opacity:1"
           id="id-e0680af7-c1b0-496d-84c4-118ac3237856">
          <g
             transform="translate(345.595,146.122)"
             id="g1644">
            <path
               style="stroke:none"
               d="M 5.25,11.5625 C 5.25,7.640625 4.359375,3.703125 1.828125,0.71875 1.625,0.484375 1.25,0.078125 0.84375,-0.28125 c -0.125,-0.125 -0.140625,-0.125 -0.28125,-0.125 -0.125,0 -0.21875,0 -0.21875,0.109375 0,0.03125 0.046875,0.078125 0.0625,0.09375 0.34375,0.359375 1.015625,1.03125 1.6875,2.109375 1.609375,2.5625 2.328125,5.8125 2.328125,9.640625 0,2.6875 -0.359375,6.140625 -2,9.125 -0.78125,1.40625 -1.609375,2.234375 -2.03125,2.65625 -0.015625,0.03125 -0.046875,0.0625 -0.046875,0.09375 0,0.09375 0.09375,0.09375 0.21875,0.09375 0.140625,0 0.15625,0 0.3125,-0.15625 C 4.203125,20.328125 5.25,15.765625 5.25,11.5625 Z m 0,0"
               id="id-d61e8c66-4f39-41a4-a59f-ef3af2f8709b" />
          </g>
        </g>
        <g
           style="fill:#ff0000;fill-opacity:1"
           id="id-d2e9a4f8-1ed7-4f64-aaa0-0fa51adb72f7">
          <g
             transform="translate(354.589,160.169)"
             id="g1648">
            <path
               style="stroke:none"
               d="m 4.078125,-2.296875 h 2.78125 C 7,-2.296875 7.1875,-2.296875 7.1875,-2.5 7.1875,-2.6875 7,-2.6875 6.859375,-2.6875 h -2.78125 v -2.796875 c 0,-0.140625 0,-0.328125 -0.203125,-0.328125 -0.203125,0 -0.203125,0.1875 -0.203125,0.328125 V -2.6875 h -2.78125 c -0.140625,0 -0.328125,0 -0.328125,0.1875 0,0.203125 0.1875,0.203125 0.328125,0.203125 h 2.78125 V 0.5 c 0,0.140625 0,0.328125 0.203125,0.328125 0.203125,0 0.203125,-0.1875 0.203125,-0.328125 z m 0,0"
               id="id-5f079480-9932-44a2-bc85-d4f330ed93cc" />
          </g>
        </g>
        <g
           style="fill:#ff0000;fill-opacity:1"
           id="id-7da8c1ff-7059-45f8-98f8-0c773d2476f0">
          <g
             transform="translate(368.004,153.43)"
             id="g1652">
            <path
               style="stroke:none"
               d="m 2.296875,-3.5 c 0.0625,-0.203125 0.15625,-0.59375 0.15625,-0.640625 0,-0.171875 -0.125,-0.265625 -0.296875,-0.265625 -0.015625,0 -0.296875,0.015625 -0.390625,0.359375 l -1.4375,5.765625 c -0.03125,0.125 -0.03125,0.140625 -0.03125,0.171875 0,0.140625 0.109375,0.265625 0.28125,0.265625 0.203125,0 0.328125,-0.1875 0.34375,-0.21875 C 0.96875,1.859375 1.09375,1.328125 1.46875,-0.203125 1.796875,0.0625 2.25,0.109375 2.4375,0.109375 c 0.703125,0 1.09375,-0.453125 1.328125,-0.734375 0.09375,0.453125 0.46875,0.734375 0.90625,0.734375 0.34375,0 0.578125,-0.234375 0.734375,-0.546875 0.171875,-0.359375 0.296875,-0.96875 0.296875,-0.984375 0,-0.109375 -0.09375,-0.109375 -0.125,-0.109375 -0.09375,0 -0.109375,0.046875 -0.140625,0.1875 -0.15625,0.640625 -0.34375,1.234375 -0.75,1.234375 -0.265625,0 -0.296875,-0.265625 -0.296875,-0.453125 0,-0.21875 0.109375,-0.6875 0.1875,-1.046875 L 4.859375,-2.6875 C 4.890625,-2.828125 5,-3.203125 5.03125,-3.359375 5.078125,-3.59375 5.1875,-3.96875 5.1875,-4.03125 c 0,-0.171875 -0.140625,-0.265625 -0.296875,-0.265625 -0.046875,0 -0.3125,0.015625 -0.390625,0.34375 l -0.46875,1.875 c -0.109375,0.5 -0.21875,0.90625 -0.25,1.015625 -0.015625,0.046875 -0.484375,0.953125 -1.296875,0.953125 -0.5,0 -0.734375,-0.328125 -0.734375,-0.875 0,-0.28125 0.0625,-0.5625 0.140625,-0.84375 z m 0,0"
               id="id-70a1229c-21b4-4d0a-95d4-0e7fdab15e8d" />
          </g>
        </g>
        <path
           style="fill:none;stroke:#ff0000;stroke-width:0.398;stroke-linecap:butt;stroke-linejoin:miter;stroke-miterlimit:10;stroke-opacity:1"
           d="M 0.00115625,-6.875e-4 H 14.942563"
           transform="matrix(1,0,0,-1,363.534,157.679)"
           id="id-276db28e-f9df-42c2-b191-4e750fa7ba5d" />
        <g
           style="fill:#ff0000;fill-opacity:1"
           id="id-fdea8f3e-1667-466f-8e17-daf284370d2b">
          <g
             transform="translate(363.534,167.003)"
             id="g1657">
            <path
               style="stroke:none"
               d="m 2.9375,-6.375 c 0,-0.25 0,-0.265625 -0.234375,-0.265625 C 2.078125,-6 1.203125,-6 0.890625,-6 v 0.3125 c 0.203125,0 0.78125,0 1.296875,-0.265625 v 5.171875 c 0,0.359375 -0.03125,0.46875 -0.921875,0.46875 h -0.3125 V 0 c 0.34375,-0.03125 1.203125,-0.03125 1.609375,-0.03125 0.390625,0 1.265625,0 1.609375,0.03125 v -0.3125 h -0.3125 c -0.90625,0 -0.921875,-0.109375 -0.921875,-0.46875 z m 0,0"
               id="id-3faff579-2840-4ccf-a676-4251d418d0bb" />
          </g>
          <g
             transform="translate(368.515,167.003)"
             id="g1660">
            <path
               style="stroke:none"
               d="m 4.578125,-3.1875 c 0,-0.796875 -0.046875,-1.59375 -0.390625,-2.328125 -0.453125,-0.96875 -1.28125,-1.125 -1.6875,-1.125 -0.609375,0 -1.328125,0.265625 -1.75,1.1875 -0.3125,0.6875 -0.359375,1.46875 -0.359375,2.265625 0,0.75 0.03125,1.640625 0.453125,2.40625 0.421875,0.796875 1.15625,1 1.640625,1 0.53125,0 1.296875,-0.203125 1.734375,-1.15625 0.3125,-0.6875 0.359375,-1.46875 0.359375,-2.25 z M 2.484375,0 C 2.09375,0 1.5,-0.25 1.328125,-1.203125 1.21875,-1.796875 1.21875,-2.71875 1.21875,-3.3125 c 0,-0.640625 0,-1.296875 0.078125,-1.828125 0.1875,-1.1875 0.9375,-1.28125 1.1875,-1.28125 0.328125,0 0.984375,0.1875 1.171875,1.171875 0.109375,0.5625 0.109375,1.3125 0.109375,1.9375 0,0.75 0,1.421875 -0.109375,2.0625 C 3.5,-0.296875 2.9375,0 2.484375,0 Z m 0,0"
               id="id-ef2a90d0-264b-407f-875b-13c5723668b9" />
          </g>
          <g
             transform="translate(373.497,167.003)"
             id="g1663">
            <path
               style="stroke:none"
               d="m 4.578125,-3.1875 c 0,-0.796875 -0.046875,-1.59375 -0.390625,-2.328125 -0.453125,-0.96875 -1.28125,-1.125 -1.6875,-1.125 -0.609375,0 -1.328125,0.265625 -1.75,1.1875 -0.3125,0.6875 -0.359375,1.46875 -0.359375,2.265625 0,0.75 0.03125,1.640625 0.453125,2.40625 0.421875,0.796875 1.15625,1 1.640625,1 0.53125,0 1.296875,-0.203125 1.734375,-1.15625 0.3125,-0.6875 0.359375,-1.46875 0.359375,-2.25 z M 2.484375,0 C 2.09375,0 1.5,-0.25 1.328125,-1.203125 1.21875,-1.796875 1.21875,-2.71875 1.21875,-3.3125 c 0,-0.640625 0,-1.296875 0.078125,-1.828125 0.1875,-1.1875 0.9375,-1.28125 1.1875,-1.28125 0.328125,0 0.984375,0.1875 1.171875,1.171875 0.109375,0.5625 0.109375,1.3125 0.109375,1.9375 0,0.75 0,1.421875 -0.109375,2.0625 C 3.5,-0.296875 2.9375,0 2.484375,0 Z m 0,0"
               id="id-1eb9266a-5263-4391-bbaf-d0a5c1611df0" />
          </g>
        </g>
        <g
           style="fill:#ff0000;fill-opacity:1"
           id="id-48f08948-8b0f-4a17-9645-5d389a1301cc">
          <g
             transform="translate(381.887,160.169)"
             id="g1667">
            <path
               style="stroke:none"
               d="m 1.90625,-2.5 c 0,-0.28125 -0.234375,-0.515625 -0.515625,-0.515625 -0.296875,0 -0.53125,0.234375 -0.53125,0.515625 0,0.296875 0.234375,0.53125 0.53125,0.53125 0.28125,0 0.515625,-0.234375 0.515625,-0.53125 z m 0,0"
               id="id-31014275-0f2a-4ad7-966b-feb2a325dd03" />
          </g>
        </g>
        <g
           style="fill:#ff0000;fill-opacity:1"
           id="id-0b873759-b8b1-40c0-82f2-fb1c760b83b0">
          <g
             transform="translate(386.868,160.169)"
             id="g1671">
            <path
               style="stroke:none"
               d="M 3.015625,-3.15625 H 4.71875 c 1.40625,0 2.796875,-1.03125 2.796875,-2.140625 0,-0.78125 -0.65625,-1.515625 -1.96875,-1.515625 h -3.21875 c -0.1875,0 -0.296875,0 -0.296875,0.1875 0,0.125 0.078125,0.125 0.28125,0.125 0.125,0 0.3125,0.015625 0.421875,0.015625 0.171875,0.03125 0.21875,0.046875 0.21875,0.171875 0,0.03125 0,0.0625 -0.03125,0.1875 l -1.34375,5.34375 c -0.09375,0.390625 -0.109375,0.46875 -0.90625,0.46875 -0.15625,0 -0.265625,0 -0.265625,0.1875 C 0.40625,0 0.515625,0 0.546875,0 0.828125,0 1.53125,-0.03125 1.8125,-0.03125 c 0.21875,0 0.4375,0.015625 0.640625,0.015625 0.21875,0 0.4375,0.015625 0.640625,0.015625 0.078125,0 0.203125,0 0.203125,-0.203125 0,-0.109375 -0.09375,-0.109375 -0.28125,-0.109375 -0.359375,0 -0.640625,0 -0.640625,-0.171875 0,-0.0625 0.015625,-0.109375 0.03125,-0.171875 z M 3.734375,-6.125 C 3.828125,-6.46875 3.84375,-6.5 4.28125,-6.5 h 0.953125 c 0.828125,0 1.359375,0.265625 1.359375,0.953125 0,0.390625 -0.203125,1.25 -0.59375,1.609375 -0.5,0.453125 -1.09375,0.53125 -1.53125,0.53125 H 3.0625 Z m 0,0"
               id="id-f20877d6-be56-43cd-bfba-492c1776d753" />
          </g>
        </g>
        <g
           style="fill:#000000;fill-opacity:1"
           id="id-7736e712-4eea-4a0b-9421-97de3fdfe3df">
          <g
             transform="translate(216.6,191.135)"
             id="g1675">
            <path
               style="stroke:none"
               d="m 2.296875,-3.5 c 0.0625,-0.203125 0.15625,-0.59375 0.15625,-0.640625 0,-0.171875 -0.125,-0.265625 -0.296875,-0.265625 -0.015625,0 -0.296875,0.015625 -0.390625,0.359375 l -1.4375,5.765625 c -0.03125,0.125 -0.03125,0.140625 -0.03125,0.171875 0,0.140625 0.109375,0.265625 0.28125,0.265625 0.203125,0 0.328125,-0.1875 0.34375,-0.21875 C 0.96875,1.859375 1.09375,1.328125 1.46875,-0.203125 1.796875,0.0625 2.25,0.109375 2.4375,0.109375 c 0.703125,0 1.09375,-0.453125 1.328125,-0.734375 0.09375,0.453125 0.46875,0.734375 0.90625,0.734375 0.34375,0 0.578125,-0.234375 0.734375,-0.546875 0.171875,-0.359375 0.296875,-0.96875 0.296875,-0.984375 0,-0.109375 -0.09375,-0.109375 -0.125,-0.109375 -0.09375,0 -0.109375,0.046875 -0.140625,0.1875 -0.15625,0.640625 -0.34375,1.234375 -0.75,1.234375 -0.265625,0 -0.296875,-0.265625 -0.296875,-0.453125 0,-0.21875 0.109375,-0.6875 0.1875,-1.046875 L 4.859375,-2.6875 C 4.890625,-2.828125 5,-3.203125 5.03125,-3.359375 5.078125,-3.59375 5.1875,-3.96875 5.1875,-4.03125 c 0,-0.171875 -0.140625,-0.265625 -0.296875,-0.265625 -0.046875,0 -0.3125,0.015625 -0.390625,0.34375 l -0.46875,1.875 c -0.109375,0.5 -0.21875,0.90625 -0.25,1.015625 -0.015625,0.046875 -0.484375,0.953125 -1.296875,0.953125 -0.5,0 -0.734375,-0.328125 -0.734375,-0.875 0,-0.28125 0.0625,-0.5625 0.140625,-0.84375 z m 0,0"
               id="id-656ac3e4-40fa-4000-bd54-a88a6615ca8e" />
          </g>
        </g>
        <g
           style="fill:#000000;fill-opacity:1"
           id="id-15501480-1e1d-45f9-8090-78d260b8ca35">
          <g
             transform="translate(225.37,191.135)"
             id="g1679">
            <path
               style="stroke:none"
               d="m 6.84375,-3.265625 c 0.15625,0 0.34375,0 0.34375,-0.1875 C 7.1875,-3.65625 7,-3.65625 6.859375,-3.65625 h -5.96875 c -0.140625,0 -0.328125,0 -0.328125,0.203125 0,0.1875 0.1875,0.1875 0.328125,0.1875 z m 0.015625,1.9375 c 0.140625,0 0.328125,0 0.328125,-0.203125 0,-0.1875 -0.1875,-0.1875 -0.34375,-0.1875 H 0.890625 c -0.140625,0 -0.328125,0 -0.328125,0.1875 0,0.203125 0.1875,0.203125 0.328125,0.203125 z m 0,0"
               id="id-60dbbeb5-cad9-4ded-b607-832310c4946f" />
          </g>
        </g>
        <g
           style="fill:#000000;fill-opacity:1"
           id="id-c24370e8-87ea-4737-ae82-a93659cdf834">
          <g
             transform="translate(235.886,191.135)"
             id="g1683">
            <path
               style="stroke:none"
               d="m 6.5625,-2.296875 c 0.171875,0 0.359375,0 0.359375,-0.203125 0,-0.1875 -0.1875,-0.1875 -0.359375,-0.1875 H 1.171875 c -0.171875,0 -0.34375,0 -0.34375,0.1875 0,0.203125 0.171875,0.203125 0.34375,0.203125 z m 0,0"
               id="id-b758c96b-f5bd-44ed-90bf-ddd21bc7d506" />
          </g>
        </g>
        <g
           style="fill:#000000;fill-opacity:1"
           id="id-2a92974b-b2dd-4424-a176-ce4f397ace5d">
          <g
             transform="translate(244.83,184.395)"
             id="g1687">
            <path
               style="stroke:none"
               d="m 4.40625,-6.953125 c -0.0625,-0.140625 -0.09375,-0.1875 -0.265625,-0.1875 -0.15625,0 -0.1875,0.046875 -0.25,0.1875 l -3.375,6.75 C 0.46875,-0.109375 0.46875,-0.09375 0.46875,-0.078125 0.46875,0 0.53125,0 0.6875,0 h 6.921875 c 0.15625,0 0.21875,0 0.21875,-0.078125 0,-0.015625 0,-0.03125 -0.046875,-0.125 z m -0.578125,0.8125 2.6875,5.390625 h -5.375 z m 0,0"
               id="id-bc4e17a9-28cb-4c1f-8fe6-99c975a4de7b" />
          </g>
        </g>
        <g
           style="fill:#000000;fill-opacity:1"
           id="id-e46c5512-fc02-448c-bf67-934d61ca699b">
          <g
             transform="translate(253.132,184.395)"
             id="g1691">
            <path
               style="stroke:none"
               d="M 3.015625,-3.15625 H 4.71875 c 1.40625,0 2.796875,-1.03125 2.796875,-2.140625 0,-0.78125 -0.65625,-1.515625 -1.96875,-1.515625 h -3.21875 c -0.1875,0 -0.296875,0 -0.296875,0.1875 0,0.125 0.078125,0.125 0.28125,0.125 0.125,0 0.3125,0.015625 0.421875,0.015625 0.171875,0.03125 0.21875,0.046875 0.21875,0.171875 0,0.03125 0,0.0625 -0.03125,0.1875 l -1.34375,5.34375 c -0.09375,0.390625 -0.109375,0.46875 -0.90625,0.46875 -0.15625,0 -0.265625,0 -0.265625,0.1875 C 0.40625,0 0.515625,0 0.546875,0 0.828125,0 1.53125,-0.03125 1.8125,-0.03125 c 0.21875,0 0.4375,0.015625 0.640625,0.015625 0.21875,0 0.4375,0.015625 0.640625,0.015625 0.078125,0 0.203125,0 0.203125,-0.203125 0,-0.109375 -0.09375,-0.109375 -0.28125,-0.109375 -0.359375,0 -0.640625,0 -0.640625,-0.171875 0,-0.0625 0.015625,-0.109375 0.03125,-0.171875 z M 3.734375,-6.125 C 3.828125,-6.46875 3.84375,-6.5 4.28125,-6.5 h 0.953125 c 0.828125,0 1.359375,0.265625 1.359375,0.953125 0,0.390625 -0.203125,1.25 -0.59375,1.609375 -0.5,0.453125 -1.09375,0.53125 -1.53125,0.53125 H 3.0625 Z m 0,0"
               id="id-8f626003-f817-4d9b-87b3-1a4512b5f63c" />
          </g>
        </g>
        <g
           style="fill:#000000;fill-opacity:1"
           id="id-e363afc8-2c54-42e2-b947-c91cfd9b4eb1">
          <g
             transform="translate(260.912,180.78)"
             id="g1695">
            <path
               style="stroke:none"
               d="m 2.015625,-3.296875 c 0.0625,-0.109375 0.0625,-0.171875 0.0625,-0.21875 0,-0.21875 -0.1875,-0.375 -0.40625,-0.375 -0.265625,0 -0.34375,0.21875 -0.375,0.328125 L 0.375,-0.546875 c -0.015625,0.015625 -0.046875,0.09375 -0.046875,0.109375 0,0.078125 0.21875,0.15625 0.28125,0.15625 0.046875,0 0.046875,-0.015625 0.09375,-0.125 z m 0,0"
               id="id-d1c3bb58-81e7-4a16-8e81-544e289ffd2e" />
          </g>
        </g>
        <g
           style="fill:#000000;fill-opacity:1"
           id="id-05c87777-b583-48f7-8aef-874fedb44b8e">
          <g
             transform="translate(263.707,184.395)"
             id="g1699">
            <path
               style="stroke:none"
               d="m 4.375,-7.09375 c 0.046875,-0.140625 0.046875,-0.171875 0.046875,-0.1875 0,-0.109375 -0.078125,-0.203125 -0.1875,-0.203125 -0.078125,0 -0.140625,0.03125 -0.171875,0.09375 l -3.46875,9.5 C 0.546875,2.25 0.546875,2.28125 0.546875,2.296875 0.546875,2.40625 0.640625,2.5 0.75,2.5 0.875,2.5 0.90625,2.421875 0.96875,2.25 Z m 0,0"
               id="id-3cc18b12-91f2-4ba0-b13c-f1ec861c5a07" />
          </g>
          <g
             transform="translate(268.688,184.395)"
             id="g1702">
            <path
               style="stroke:none"
               d="M 3.015625,-3.15625 H 4.71875 c 1.40625,0 2.796875,-1.03125 2.796875,-2.140625 0,-0.78125 -0.65625,-1.515625 -1.96875,-1.515625 h -3.21875 c -0.1875,0 -0.296875,0 -0.296875,0.1875 0,0.125 0.078125,0.125 0.28125,0.125 0.125,0 0.3125,0.015625 0.421875,0.015625 0.171875,0.03125 0.21875,0.046875 0.21875,0.171875 0,0.03125 0,0.0625 -0.03125,0.1875 l -1.34375,5.34375 c -0.09375,0.390625 -0.109375,0.46875 -0.90625,0.46875 -0.15625,0 -0.265625,0 -0.265625,0.1875 C 0.40625,0 0.515625,0 0.546875,0 0.828125,0 1.53125,-0.03125 1.8125,-0.03125 c 0.21875,0 0.4375,0.015625 0.640625,0.015625 0.21875,0 0.4375,0.015625 0.640625,0.015625 0.078125,0 0.203125,0 0.203125,-0.203125 0,-0.109375 -0.09375,-0.109375 -0.28125,-0.109375 -0.359375,0 -0.640625,0 -0.640625,-0.171875 0,-0.0625 0.015625,-0.109375 0.03125,-0.171875 z M 3.734375,-6.125 C 3.828125,-6.46875 3.84375,-6.5 4.28125,-6.5 h 0.953125 c 0.828125,0 1.359375,0.265625 1.359375,0.953125 0,0.390625 -0.203125,1.25 -0.59375,1.609375 -0.5,0.453125 -1.09375,0.53125 -1.53125,0.53125 H 3.0625 Z m 0,0"
               id="id-52b39a2c-56ec-4f04-abd6-5a443e62fe1c" />
          </g>
        </g>
        <path
           style="fill:none;stroke:#000000;stroke-width:0.398;stroke-linecap:butt;stroke-linejoin:miter;stroke-miterlimit:10;stroke-opacity:1"
           d="M -0.001875,-5.3125e-4 H 31.63875"
           transform="matrix(1,0,0,-1,244.83,188.644)"
           id="id-4844d5f9-1ec0-490c-99f3-7fb71996dbfd" />
        <g
           style="fill:#000000;fill-opacity:1"
           id="id-0fbfe170-7667-4c20-8ad6-bf90ca4d2238">
          <g
             transform="translate(253.523,197.969)"
             id="g1707">
            <path
               style="stroke:none"
               d="m 4.40625,-6.953125 c -0.0625,-0.140625 -0.09375,-0.1875 -0.265625,-0.1875 -0.15625,0 -0.1875,0.046875 -0.25,0.1875 l -3.375,6.75 C 0.46875,-0.109375 0.46875,-0.09375 0.46875,-0.078125 0.46875,0 0.53125,0 0.6875,0 h 6.921875 c 0.15625,0 0.21875,0 0.21875,-0.078125 0,-0.015625 0,-0.03125 -0.046875,-0.125 z m -0.578125,0.8125 2.6875,5.390625 h -5.375 z m 0,0"
               id="id-72a0e8ad-cd87-4c43-80b5-ee838293237b" />
          </g>
        </g>
        <g
           style="fill:#000000;fill-opacity:1"
           id="id-701adf00-d32a-4312-9f66-acf910f7b51c">
          <g
             transform="translate(261.826,197.969)"
             id="g1711">
            <path
               style="stroke:none"
               d="m 3.65625,-3.984375 h 0.859375 c 0.203125,0 0.296875,0 0.296875,-0.203125 0,-0.109375 -0.09375,-0.109375 -0.265625,-0.109375 H 3.71875 L 3.921875,-5.4375 c 0.046875,-0.203125 0.1875,-0.90625 0.25,-1.03125 0.078125,-0.1875 0.25,-0.34375 0.46875,-0.34375 0.03125,0 0.296875,0 0.484375,0.1875 -0.4375,0.03125 -0.546875,0.390625 -0.546875,0.53125 0,0.234375 0.1875,0.359375 0.375,0.359375 C 5.21875,-5.734375 5.5,-5.96875 5.5,-6.34375 c 0,-0.453125 -0.453125,-0.6875 -0.859375,-0.6875 -0.34375,0 -0.96875,0.1875 -1.265625,1.171875 -0.0625,0.203125 -0.09375,0.3125 -0.328125,1.5625 h -0.6875 c -0.203125,0 -0.3125,0 -0.3125,0.1875 0,0.125 0.09375,0.125 0.28125,0.125 h 0.65625 L 2.25,-0.046875 c -0.1875,0.96875 -0.359375,1.875 -0.875,1.875 -0.046875,0 -0.28125,0 -0.484375,-0.1875 C 1.359375,1.609375 1.453125,1.25 1.453125,1.109375 1.453125,0.875 1.265625,0.75 1.078125,0.75 0.8125,0.75 0.53125,0.984375 0.53125,1.359375 c 0,0.4375 0.4375,0.6875 0.84375,0.6875 0.546875,0 0.953125,-0.59375 1.125,-0.96875 0.328125,-0.625 0.546875,-1.828125 0.5625,-1.90625 z m 0,0"
               id="id-1eb3b9aa-190c-4176-93a1-534735f83c47" />
          </g>
        </g>
        <g
           style="fill:#000000;fill-opacity:1"
           id="id-b30e8e03-1b44-4da9-bd97-2411967ddc9c">
          <g
             transform="translate(279.878,191.135)"
             id="g1715">
            <path
               style="stroke:none"
               d="m 1.90625,-2.5 c 0,-0.28125 -0.234375,-0.515625 -0.515625,-0.515625 -0.296875,0 -0.53125,0.234375 -0.53125,0.515625 0,0.296875 0.234375,0.53125 0.53125,0.53125 0.28125,0 0.515625,-0.234375 0.515625,-0.53125 z m 0,0"
               id="id-466f6012-ba7c-406d-9a0a-5515a1e96d89" />
          </g>
        </g>
        <g
           style="fill:#000000;fill-opacity:1"
           id="id-6e1eb7a3-4982-49fe-a8b0-860943a3815b">
          <g
             transform="translate(284.859,191.135)"
             id="g1719">
            <path
               style="stroke:none"
               d="m 2.9375,-6.375 c 0,-0.25 0,-0.265625 -0.234375,-0.265625 C 2.078125,-6 1.203125,-6 0.890625,-6 v 0.3125 c 0.203125,0 0.78125,0 1.296875,-0.265625 v 5.171875 c 0,0.359375 -0.03125,0.46875 -0.921875,0.46875 h -0.3125 V 0 c 0.34375,-0.03125 1.203125,-0.03125 1.609375,-0.03125 0.390625,0 1.265625,0 1.609375,0.03125 v -0.3125 h -0.3125 c -0.90625,0 -0.921875,-0.109375 -0.921875,-0.46875 z m 0,0"
               id="id-a64adf4c-1384-46c1-93b6-195f086ebbc5" />
          </g>
          <g
             transform="translate(289.84,191.135)"
             id="g1722">
            <path
               style="stroke:none"
               d="m 4.578125,-3.1875 c 0,-0.796875 -0.046875,-1.59375 -0.390625,-2.328125 -0.453125,-0.96875 -1.28125,-1.125 -1.6875,-1.125 -0.609375,0 -1.328125,0.265625 -1.75,1.1875 -0.3125,0.6875 -0.359375,1.46875 -0.359375,2.265625 0,0.75 0.03125,1.640625 0.453125,2.40625 0.421875,0.796875 1.15625,1 1.640625,1 0.53125,0 1.296875,-0.203125 1.734375,-1.15625 0.3125,-0.6875 0.359375,-1.46875 0.359375,-2.25 z M 2.484375,0 C 2.09375,0 1.5,-0.25 1.328125,-1.203125 1.21875,-1.796875 1.21875,-2.71875 1.21875,-3.3125 c 0,-0.640625 0,-1.296875 0.078125,-1.828125 0.1875,-1.1875 0.9375,-1.28125 1.1875,-1.28125 0.328125,0 0.984375,0.1875 1.171875,1.171875 0.109375,0.5625 0.109375,1.3125 0.109375,1.9375 0,0.75 0,1.421875 -0.109375,2.0625 C 3.5,-0.296875 2.9375,0 2.484375,0 Z m 0,0"
               id="id-f8c2d2f2-b228-4f64-9bc4-7e0fed77c1a6" />
          </g>
          <g
             transform="translate(294.822,191.135)"
             id="g1725">
            <path
               style="stroke:none"
               d="m 4.578125,-3.1875 c 0,-0.796875 -0.046875,-1.59375 -0.390625,-2.328125 -0.453125,-0.96875 -1.28125,-1.125 -1.6875,-1.125 -0.609375,0 -1.328125,0.265625 -1.75,1.1875 -0.3125,0.6875 -0.359375,1.46875 -0.359375,2.265625 0,0.75 0.03125,1.640625 0.453125,2.40625 0.421875,0.796875 1.15625,1 1.640625,1 0.53125,0 1.296875,-0.203125 1.734375,-1.15625 0.3125,-0.6875 0.359375,-1.46875 0.359375,-2.25 z M 2.484375,0 C 2.09375,0 1.5,-0.25 1.328125,-1.203125 1.21875,-1.796875 1.21875,-2.71875 1.21875,-3.3125 c 0,-0.640625 0,-1.296875 0.078125,-1.828125 0.1875,-1.1875 0.9375,-1.28125 1.1875,-1.28125 0.328125,0 0.984375,0.1875 1.171875,1.171875 0.109375,0.5625 0.109375,1.3125 0.109375,1.9375 0,0.75 0,1.421875 -0.109375,2.0625 C 3.5,-0.296875 2.9375,0 2.484375,0 Z m 0,0"
               id="id-31b4cd94-9e71-4d06-9afa-8f0f83dc48c2" />
          </g>
        </g>
        <g
           style="fill:#000000;fill-opacity:1"
           id="id-eba3d239-c1b9-453d-abec-2e9824cf1f97">
          <g
             transform="translate(301.457,191.135)"
             id="g1729">
            <path
               style="stroke:none"
               d="m 6.828125,-7.09375 c 0.0625,-0.09375 0.078125,-0.125 0.078125,-0.1875 0,-0.109375 -0.09375,-0.203125 -0.203125,-0.203125 -0.09375,0 -0.140625,0.078125 -0.203125,0.140625 -0.5,0.6875 -1.171875,0.953125 -1.890625,0.953125 -0.703125,0 -1.3125,-0.25 -1.875,-0.765625 -0.1875,-0.171875 -0.390625,-0.328125 -0.703125,-0.328125 -0.765625,0 -1.46875,0.84375 -1.46875,2.015625 0,1.203125 0.71875,2.015625 1.46875,2.015625 0.71875,0 1.28125,-0.890625 1.28125,-2.015625 0,-0.140625 0,-0.609375 -0.203125,-1.125 0.65625,0.375 1.140625,0.421875 1.5,0.421875 0.765625,0 1.265625,-0.3125 1.328125,-0.34375 H 5.953125 L 1.46875,0.15625 c -0.078125,0.140625 -0.078125,0.1875 -0.078125,0.203125 0,0.109375 0.09375,0.203125 0.1875,0.203125 0.109375,0 0.125,-0.046875 0.203125,-0.15625 z M 2.03125,-3.671875 c -0.203125,0 -0.859375,-0.140625 -0.859375,-1.796875 0,-1.65625 0.65625,-1.78125 0.859375,-1.78125 0.53125,0 1.046875,0.734375 1.046875,1.78125 0,1.078125 -0.53125,1.796875 -1.046875,1.796875 z M 6.453125,0.34375 C 6.25,0.34375 5.59375,0.203125 5.59375,-1.453125 c 0,-1.65625 0.640625,-1.78125 0.859375,-1.78125 0.53125,0 1.03125,0.734375 1.03125,1.78125 0,1.078125 -0.515625,1.796875 -1.03125,1.796875 z m 1.28125,-1.796875 c 0,-1.140625 -0.59375,-2 -1.296875,-2 -0.75,0 -1.46875,0.828125 -1.46875,2 0,1.203125 0.71875,2.015625 1.46875,2.015625 0.734375,0 1.296875,-0.890625 1.296875,-2.015625 z m 0,0"
               id="id-c3ca9da3-a3fa-459f-a024-d4fc61343dfc" />
          </g>
        </g>
      </g>
    </g>
  </g>
</svg>
