<?xml version="1.0" encoding="UTF-8" standalone="no"?>
<svg viewBox="0 0 1097.64 595.669"
 xmlns="http://www.w3.org/2000/svg" xmlns:xlink="http://www.w3.org/1999/xlink"  version="1.2" baseProfile="tiny">
<title>Plot Document</title>
<desc>Generated with Qt</desc>
<defs>
</defs>
<g fill="none" stroke="black" stroke-width="1" fill-rule="evenodd" stroke-linecap="square" stroke-linejoin="bevel" >

<g fill="none" stroke="#000000" stroke-opacity="1" stroke-width="1" stroke-linecap="square" stroke-linejoin="bevel" transform="matrix(0.885417,0,0,0.885417,0,0)"
font-family="MS Shell Dlg 2" font-size="9.73958" font-weight="400" font-style="normal" 
>
</g>

<g fill="none" stroke="#000000" stroke-opacity="1" stroke-width="1" stroke-linecap="square" stroke-linejoin="bevel" transform="matrix(0.885417,0,0,0.885417,0,0)"
font-family="MS Shell Dlg 2" font-size="9.73958" font-weight="400" font-style="normal" 
>
</g>

<g fill="#ffffff" fill-opacity="1" stroke="none" transform="matrix(0.885417,0,0,0.885417,0,0)"
font-family="MS Shell Dlg 2" font-size="9.73958" font-weight="400" font-style="normal" 
>
<path vector-effect="non-scaling-stroke" fill-rule="evenodd" d="M68,39 L1240,39 L1240,648 L68,648 L68,39"/>
</g>

<g fill="none" stroke="#000000" stroke-opacity="1" stroke-width="1" stroke-linecap="square" stroke-linejoin="bevel" transform="matrix(0.885417,0,0,0.885417,0,0)"
font-family="MS Shell Dlg 2" font-size="9.73958" font-weight="400" font-style="normal" 
>
</g>

<g fill="none" stroke="#c0c0c0" stroke-opacity="1" stroke-dasharray="1,2" stroke-dashoffset="0" stroke-width="1" stroke-linecap="butt" stroke-linejoin="bevel" transform="matrix(0.885417,0,0,0.885417,0,0)"
font-family="MS Shell Dlg 2" font-size="9.73958" font-weight="400" font-style="normal" 
>
<polyline fill="none" vector-effect="non-scaling-stroke" points="141.998,39 141.998,647 " />
<polyline fill="none" vector-effect="non-scaling-stroke" points="247.155,39 247.155,647 " />
<polyline fill="none" vector-effect="non-scaling-stroke" points="352.311,39 352.311,647 " />
<polyline fill="none" vector-effect="non-scaling-stroke" points="457.468,39 457.468,647 " />
<polyline fill="none" vector-effect="non-scaling-stroke" points="562.625,39 562.625,647 " />
<polyline fill="none" vector-effect="non-scaling-stroke" points="667.781,39 667.781,647 " />
<polyline fill="none" vector-effect="non-scaling-stroke" points="772.938,39 772.938,647 " />
<polyline fill="none" vector-effect="non-scaling-stroke" points="878.095,39 878.095,647 " />
<polyline fill="none" vector-effect="non-scaling-stroke" points="983.251,39 983.251,647 " />
<polyline fill="none" vector-effect="non-scaling-stroke" points="1088.41,39 1088.41,647 " />
<polyline fill="none" vector-effect="non-scaling-stroke" points="1193.56,39 1193.56,647 " />
<polyline fill="none" vector-effect="non-scaling-stroke" points="194.576,39 194.576,647 " />
<polyline fill="none" vector-effect="non-scaling-stroke" points="404.89,39 404.89,647 " />
<polyline fill="none" vector-effect="non-scaling-stroke" points="615.203,39 615.203,647 " />
<polyline fill="none" vector-effect="non-scaling-stroke" points="825.516,39 825.516,647 " />
<polyline fill="none" vector-effect="non-scaling-stroke" points="1035.83,39 1035.83,647 " />
<polyline fill="none" vector-effect="non-scaling-stroke" points="68,620.429 1239,620.429 " />
<polyline fill="none" vector-effect="non-scaling-stroke" points="68,590.931 1239,590.931 " />
<polyline fill="none" vector-effect="non-scaling-stroke" points="68,561.432 1239,561.432 " />
<polyline fill="none" vector-effect="non-scaling-stroke" points="68,502.434 1239,502.434 " />
<polyline fill="none" vector-effect="non-scaling-stroke" points="68,472.935 1239,472.935 " />
<polyline fill="none" vector-effect="non-scaling-stroke" points="68,443.437 1239,443.437 " />
<polyline fill="none" vector-effect="non-scaling-stroke" points="68,413.938 1239,413.938 " />
<polyline fill="none" vector-effect="non-scaling-stroke" points="68,354.94 1239,354.94 " />
<polyline fill="none" vector-effect="non-scaling-stroke" points="68,325.442 1239,325.442 " />
<polyline fill="none" vector-effect="non-scaling-stroke" points="68,295.943 1239,295.943 " />
<polyline fill="none" vector-effect="non-scaling-stroke" points="68,266.444 1239,266.444 " />
<polyline fill="none" vector-effect="non-scaling-stroke" points="68,207.446 1239,207.446 " />
<polyline fill="none" vector-effect="non-scaling-stroke" points="68,177.948 1239,177.948 " />
<polyline fill="none" vector-effect="non-scaling-stroke" points="68,148.449 1239,148.449 " />
<polyline fill="none" vector-effect="non-scaling-stroke" points="68,118.95 1239,118.95 " />
<polyline fill="none" vector-effect="non-scaling-stroke" points="68,59.9524 1239,59.9524 " />
</g>

<g fill="none" stroke="#a0a0a4" stroke-opacity="1" stroke-width="1" stroke-linecap="butt" stroke-linejoin="bevel" transform="matrix(0.885417,0,0,0.885417,0,0)"
font-family="MS Shell Dlg 2" font-size="9.73958" font-weight="400" font-style="normal" 
>
<polyline fill="none" vector-effect="non-scaling-stroke" points="89.4198,39 89.4198,647 " />
<polyline fill="none" vector-effect="non-scaling-stroke" points="299.733,39 299.733,647 " />
<polyline fill="none" vector-effect="non-scaling-stroke" points="510.046,39 510.046,647 " />
<polyline fill="none" vector-effect="non-scaling-stroke" points="720.36,39 720.36,647 " />
<polyline fill="none" vector-effect="non-scaling-stroke" points="930.673,39 930.673,647 " />
<polyline fill="none" vector-effect="non-scaling-stroke" points="1140.99,39 1140.99,647 " />
<polyline fill="none" vector-effect="non-scaling-stroke" points="68,531.933 1239,531.933 " />
<polyline fill="none" vector-effect="non-scaling-stroke" points="68,384.439 1239,384.439 " />
<polyline fill="none" vector-effect="non-scaling-stroke" points="68,236.945 1239,236.945 " />
<polyline fill="none" vector-effect="non-scaling-stroke" points="68,89.4511 1239,89.4511 " />
</g>

<g fill="none" stroke="#000000" stroke-opacity="1" stroke-width="1" stroke-linecap="square" stroke-linejoin="bevel" transform="matrix(0.885417,0,0,0.885417,0,0)"
font-family="MS Shell Dlg 2" font-size="9.73958" font-weight="400" font-style="normal" 
>
</g>

<g fill="none" stroke="#000000" stroke-opacity="1" stroke-width="1" stroke-linecap="square" stroke-linejoin="bevel" transform="matrix(0.885417,0,0,0.885417,0,0)"
font-family="MS Shell Dlg 2" font-size="9.73958" font-weight="400" font-style="normal" 
>
</g>

<g fill="none" stroke="#ff0000" stroke-opacity="1" stroke-width="1" stroke-linecap="square" stroke-linejoin="bevel" transform="matrix(0.885417,0,0,0.885417,0,0)"
font-family="MS Shell Dlg 2" font-size="9.73958" font-weight="400" font-style="normal" 
>
<polyline fill="none" vector-effect="none" points="68,424.582 70.4916,424.582 76.801,424.582 83.1104,424.582 89.4198,424.582 89.4199,424.582 89.4199,424.561 95.7292,173.571 99.9326,39 99.9386,39 102.039,90.1491 108.348,118.415 114.657,431.308 120.967,628.209 127.276,571.684 133.586,353.391 139.895,241.488 146.204,298.928 152.514,418.517 158.823,470.246 165.133,409.331 171.442,329.39 177.751,302.926 184.061,341.28 190.37,384.285 196.68,389.704 202.989,355.177 209.298,326.975 215.608,325.288 221.917,343.732 228.227,357.449 234.536,354.348 240.845,341.341 247.155,332.823 253.464,335.773 259.774,344.626 266.083,350.201 272.392,349.377 278.702,345.619 285.011,344.902 291.321,349.625 297.63,356.195 303.939,360.026 310.249,361.196 316.558,363.031 322.868,366.617 329.177,372.068 335.486,377.369 341.796,381.65 348.105,385.71 354.415,389.888 360.724,394.672 367.033,400.214 373.343,405.932 379.652,411.152 385.962,415.993 392.271,420.915 398.58,426.055 404.89,431.745 411.199,437.388 417.509,442.126 423.818,446.821 430.127,451.644 436.437,456.323 442.746,461.068 449.056,465.573 455.365,469.746 461.674,473.627 467.984,477.23 474.293,480.555 480.603,483.64 486.912,486.467 493.221,489.013 499.531,491.286 505.84,493.228 512.15,494.852 518.459,496.126 524.768,497.056 531.078,497.638 537.387,497.878 543.697,497.779 550.006,497.344 556.315,496.573 562.625,495.469 568.934,494.033 575.244,492.279 581.553,490.211 587.862,487.839 594.172,485.18 600.481,482.241 606.791,479.039 613.1,475.595 619.409,471.92 625.719,468.033 632.028,463.956 638.338,459.704 644.647,455.302 650.956,450.774 657.266,446.138 663.575,441.422 669.885,436.652 676.194,431.854 682.503,427.037 688.813,422.221 695.122,417.429 701.432,412.683 707.741,408.001 714.05,403.404 720.36,398.912 726.669,394.547 732.979,390.327 739.288,386.273 745.597,382.403 751.907,378.73 758.216,375.278 764.526,372.062 770.835,369.079 777.144,366.354 783.454,363.9 789.763,361.722 796.073,359.824 802.382,358.219 808.691,356.911 815.001,355.906 821.31,355.209 827.62,354.821 833.929,354.744 840.238,354.977 846.548,355.519 852.857,356.367 859.167,357.513 865.476,358.952 871.785,360.676 878.095,362.678 884.404,364.946 890.714,367.469 897.023,370.235 903.332,373.234 909.642,376.449 915.951,379.865 922.261,383.468 928.57,387.241 934.879,391.165 941.189,395.222 947.498,399.393 953.808,403.658 960.117,407.998 966.426,412.395 972.736,416.827 979.045,421.273 985.355,425.712 991.664,430.122 997.973,434.483 1004.28,438.78 1010.59,442.99 1016.9,447.094 1023.21,451.072 1029.52,454.906 1035.83,458.578 1042.14,462.077 1048.45,465.385 1054.76,468.488 1061.07,471.373 1067.38,474.028 1073.69,476.44 1080,478.595 1086.3,480.487 1092.61,482.109 1098.92,483.453 1105.23,484.517 1111.54,485.291 1117.85,485.775 1124.16,485.968 1130.47,485.87 1136.78,485.485 1143.09,484.81 1149.4,483.851 1155.71,482.616 1162.02,481.11 1168.33,479.342 1174.64,477.324 1180.95,475.066 1187.26,472.582 1193.56,469.889 1199.87,467.002 1206.18,463.92 1212.49,460.661 1218.8,457.243 1225.11,453.679 1231.42,449.985 1237.73,446.183 1240,444.781 " />
</g>

<g fill="none" stroke="#000000" stroke-opacity="1" stroke-width="1" stroke-linecap="square" stroke-linejoin="bevel" transform="matrix(0.885417,0,0,0.885417,0,0)"
font-family="MS Shell Dlg 2" font-size="9.73958" font-weight="400" font-style="normal" 
>
</g>

<g fill="none" stroke="#000000" stroke-opacity="1" stroke-width="1" stroke-linecap="square" stroke-linejoin="bevel" transform="matrix(0.885417,0,0,0.885417,0,0)"
font-family="MS Shell Dlg 2" font-size="9.73958" font-weight="400" font-style="normal" 
>
</g>

<g fill="none" stroke="#000000" stroke-opacity="1" stroke-width="1" stroke-linecap="square" stroke-linejoin="bevel" transform="matrix(0.885417,0,0,0.885417,0,0)"
font-family="MS Shell Dlg 2" font-size="9.73958" font-weight="400" font-style="normal" 
>
</g>

<g fill="none" stroke="#0000ff" stroke-opacity="1" stroke-width="1" stroke-linecap="square" stroke-linejoin="bevel" transform="matrix(0.885417,0,0,0.885417,0,0)"
font-family="MS Shell Dlg 2" font-size="9.73958" font-weight="400" font-style="normal" 
>
<polyline fill="none" vector-effect="none" points="68,426.466 70.4916,426.416 76.801,426.432 83.1104,426.468 89.4198,426.526 89.4199,426.526 89.4199,426.505 95.7292,175.718 99.9356,41.0629 99.9356,41.0858 102.039,94.0041 108.348,294.776 114.657,610.723 120.967,549.341 127.276,330.585 133.586,304.369 139.895,437.186 146.204,498.962 152.514,417.546 158.823,349.8 165.133,390.953 171.442,441.999 177.751,423.655 184.061,385.805 190.37,383.672 196.68,405.855 202.989,413.31 209.298,396.551 215.608,384.38 221.917,392.442 228.227,398.561 234.536,394.869 240.845,387.561 247.155,385.664 253.464,390.167 259.774,388.997 266.083,385.589 272.392,384.068 278.702,382.509 285.011,384.038 291.321,382.506 297.63,380.863 303.939,380.11 310.249,379.707 316.558,379.201 322.868,378.648 329.177,378.112 335.486,377.67 341.796,377.28 348.105,376.951 354.415,376.676 360.724,376.452 367.033,376.276 373.343,376.163 379.652,376.107 385.962,376.107 392.271,376.166 398.58,376.282 404.89,376.457 411.199,376.693 417.509,376.988 423.818,377.341 430.127,377.751 436.437,378.22 442.746,378.743 449.056,379.322 455.365,379.956 461.674,380.643 467.984,381.383 474.293,382.175 480.603,383.018 486.912,383.91 493.221,384.852 499.531,385.842 505.84,386.878 512.15,387.958 518.459,389.081 524.768,390.246 531.078,391.453 537.387,392.699 543.697,393.98 550.006,395.297 556.315,396.647 562.625,398.03 568.934,399.444 575.244,400.885 581.553,402.352 587.862,403.843 594.172,405.358 600.481,406.893 606.791,408.448 613.1,410.018 619.409,411.603 625.719,413.201 632.028,414.809 638.338,416.426 644.647,418.049 650.956,419.676 657.266,421.306 663.575,422.936 669.885,424.563 676.194,426.186 682.503,427.802 688.813,429.41 695.122,431.009 701.432,432.596 707.741,434.168 714.05,435.724 720.36,437.261 726.669,438.778 732.979,440.273 739.288,441.744 745.597,443.189 751.907,444.606 758.216,445.993 764.526,447.349 770.835,448.671 777.144,449.958 783.454,451.208 789.763,452.421 796.073,453.596 802.382,454.729 808.691,455.82 815.001,456.867 821.31,457.869 827.62,458.824 833.929,459.732 840.238,460.592 846.548,461.403 852.857,462.163 859.167,462.872 865.476,463.528 871.785,464.131 878.095,464.679 884.404,465.174 890.714,465.614 897.023,465.999 903.332,466.327 909.642,466.599 915.951,466.813 922.261,466.972 928.57,467.074 934.879,467.119 941.189,467.108 947.498,467.04 953.808,466.915 960.117,466.735 966.426,466.499 972.736,466.207 979.045,465.861 985.355,465.46 991.664,465.006 997.973,464.498 1004.28,463.939 1010.59,463.328 1016.9,462.665 1023.21,461.953 1029.52,461.192 1035.83,460.383 1042.14,459.527 1048.45,458.625 1054.76,457.68 1061.07,456.691 1067.38,455.661 1073.69,454.591 1080,453.482 1086.3,452.337 1092.61,451.155 1098.92,449.939 1105.23,448.69 1111.54,447.409 1117.85,446.099 1124.16,444.762 1130.47,443.398 1136.78,442.011 1143.09,440.601 1149.4,439.172 1155.71,437.724 1162.02,436.26 1168.33,434.782 1174.64,433.292 1180.95,431.791 1187.26,430.282 1193.56,428.765 1199.87,427.244 1206.18,425.72 1212.49,424.196 1218.8,422.672 1225.11,421.152 1231.42,419.636 1237.73,418.128 1240,417.589 " />
</g>

<g fill="none" stroke="#000000" stroke-opacity="1" stroke-width="1" stroke-linecap="square" stroke-linejoin="bevel" transform="matrix(0.885417,0,0,0.885417,0,0)"
font-family="MS Shell Dlg 2" font-size="9.73958" font-weight="400" font-style="normal" 
>
</g>

<g fill="none" stroke="#000000" stroke-opacity="1" stroke-width="1" stroke-linecap="square" stroke-linejoin="bevel" transform="matrix(0.885417,0,0,0.885417,0,0)"
font-family="MS Shell Dlg 2" font-size="9.73958" font-weight="400" font-style="normal" 
>
</g>

<g fill="none" stroke="#000000" stroke-opacity="1" stroke-width="1" stroke-linecap="square" stroke-linejoin="bevel" transform="matrix(0.885417,0,0,0.885417,0,0)"
font-family="MS Shell Dlg 2" font-size="9.73958" font-weight="400" font-style="normal" 
>
</g>

<g fill="none" stroke="#000000" stroke-opacity="1" stroke-width="1" stroke-linecap="square" stroke-linejoin="bevel" transform="matrix(0.885417,0,0,0.885417,0,0)"
font-family="MS Shell Dlg 2" font-size="9.73958" font-weight="400" font-style="normal" 
>
</g>

<g fill="none" stroke="#000000" stroke-opacity="1" stroke-width="1" stroke-linecap="square" stroke-linejoin="bevel" transform="matrix(0.885417,0,0,0.885417,61.9792,1.77083)"
font-family="MS Shell Dlg 2" font-size="9.73958" font-weight="400" font-style="normal" 
>
</g>

<g fill="none" stroke="#ff0000" stroke-opacity="1" stroke-width="1" stroke-linecap="butt" stroke-linejoin="bevel" transform="matrix(1,0,0,1,0,0)"
font-family="MS Shell Dlg 2" font-size="9.73958" font-weight="400" font-style="normal" 
>
<path vector-effect="none" fill-rule="evenodd" d="M61.9792,15.0521 L88.5417,15.0521"/>
</g>

<g fill="none" stroke="#000000" stroke-opacity="1" stroke-width="1" stroke-linecap="square" stroke-linejoin="bevel" transform="matrix(0.885417,0,0,0.885417,61.9792,1.77083)"
font-family="MS Shell Dlg 2" font-size="9.73958" font-weight="400" font-style="normal" 
>
</g>

<g fill="none" stroke="#000000" stroke-opacity="1" stroke-width="1" stroke-linecap="square" stroke-linejoin="bevel" transform="matrix(0.885417,0,0,0.885417,0,0)"
font-family="MS Shell Dlg 2" font-size="9.73958" font-weight="400" font-style="normal" 
>
</g>

<g fill="none" stroke="#000000" stroke-opacity="1" stroke-width="1" stroke-linecap="square" stroke-linejoin="bevel" transform="matrix(0.885417,0,0,0.885417,0,0)"
font-family="MS Shell Dlg 2" font-size="11" font-weight="400" font-style="normal" 
>
<text fill="#000000" fill-opacity="1" stroke="none" xml:space="preserve" x="104" y="21.1562" font-family="MS Shell Dlg 2" font-size="11" font-weight="400" font-style="normal" 
 >SurgeDhalf.dp_tr [Pa]</text>
</g>

<g fill="none" stroke="#000000" stroke-opacity="1" stroke-width="1" stroke-linecap="square" stroke-linejoin="bevel" transform="matrix(0.885417,0,0,0.885417,0,0)"
font-family="MS Shell Dlg 2" font-size="9.73958" font-weight="400" font-style="normal" 
>
</g>

<g fill="none" stroke="#000000" stroke-opacity="1" stroke-width="1" stroke-linecap="square" stroke-linejoin="bevel" transform="matrix(0.885417,0,0,0.885417,0,0)"
font-family="MS Shell Dlg 2" font-size="9.73958" font-weight="400" font-style="normal" 
>
</g>

<g fill="none" stroke="#000000" stroke-opacity="1" stroke-width="1" stroke-linecap="square" stroke-linejoin="bevel" transform="matrix(0.885417,0,0,0.885417,0,0)"
font-family="MS Shell Dlg 2" font-size="9.73958" font-weight="400" font-style="normal" 
>
</g>

<g fill="none" stroke="#000000" stroke-opacity="1" stroke-width="1" stroke-linecap="square" stroke-linejoin="bevel" transform="matrix(0.885417,0,0,0.885417,0,0)"
font-family="MS Shell Dlg 2" font-size="9.73958" font-weight="400" font-style="normal" 
>
</g>

<g fill="none" stroke="#000000" stroke-opacity="1" stroke-width="1" stroke-linecap="square" stroke-linejoin="bevel" transform="matrix(0.885417,0,0,0.885417,195.677,1.77083)"
font-family="MS Shell Dlg 2" font-size="9.73958" font-weight="400" font-style="normal" 
>
</g>

<g fill="none" stroke="#0000ff" stroke-opacity="1" stroke-width="1" stroke-linecap="butt" stroke-linejoin="bevel" transform="matrix(1,0,0,1,0,0)"
font-family="MS Shell Dlg 2" font-size="9.73958" font-weight="400" font-style="normal" 
>
<path vector-effect="none" fill-rule="evenodd" d="M195.677,15.0521 L222.24,15.0521"/>
</g>

<g fill="none" stroke="#000000" stroke-opacity="1" stroke-width="1" stroke-linecap="square" stroke-linejoin="bevel" transform="matrix(0.885417,0,0,0.885417,195.677,1.77083)"
font-family="MS Shell Dlg 2" font-size="9.73958" font-weight="400" font-style="normal" 
>
</g>

<g fill="none" stroke="#000000" stroke-opacity="1" stroke-width="1" stroke-linecap="square" stroke-linejoin="bevel" transform="matrix(0.885417,0,0,0.885417,0,0)"
font-family="MS Shell Dlg 2" font-size="9.73958" font-weight="400" font-style="normal" 
>
</g>

<g fill="none" stroke="#000000" stroke-opacity="1" stroke-width="1" stroke-linecap="square" stroke-linejoin="bevel" transform="matrix(0.885417,0,0,0.885417,0,0)"
font-family="MS Shell Dlg 2" font-size="11" font-weight="400" font-style="normal" 
>
<text fill="#000000" fill-opacity="1" stroke="none" xml:space="preserve" x="255" y="21.1562" font-family="MS Shell Dlg 2" font-size="11" font-weight="400" font-style="normal" 
 >SurgeDnorm.dp_tr [Pa]</text>
</g>

<g fill="none" stroke="#000000" stroke-opacity="1" stroke-width="1" stroke-linecap="square" stroke-linejoin="bevel" transform="matrix(0.885417,0,0,0.885417,0,0)"
font-family="MS Shell Dlg 2" font-size="9.73958" font-weight="400" font-style="normal" 
>
</g>

<g fill="none" stroke="#000000" stroke-opacity="1" stroke-width="1" stroke-linecap="square" stroke-linejoin="bevel" transform="matrix(0.885417,0,0,0.885417,0,0)"
font-family="MS Shell Dlg 2" font-size="9.73958" font-weight="400" font-style="normal" 
>
</g>

<g fill="none" stroke="#000000" stroke-opacity="1" stroke-width="1" stroke-linecap="square" stroke-linejoin="bevel" transform="matrix(0.885417,0,0,0.885417,0,0)"
font-family="MS Shell Dlg 2" font-size="9.73958" font-weight="400" font-style="normal" 
>
</g>

<g fill="none" stroke="#000000" stroke-opacity="1" stroke-width="1" stroke-linecap="square" stroke-linejoin="bevel" transform="matrix(0,-0.885417,0.885417,0,0,572.865)"
font-family="MS Shell Dlg 2" font-size="11.8056" font-weight="400" font-style="normal" 
>
</g>

<g fill="none" stroke="#000000" stroke-opacity="1" stroke-width="1" stroke-linecap="square" stroke-linejoin="bevel" transform="matrix(0,-0.885417,0.885417,0,0,572.865)"
font-family="MS Shell Dlg 2" font-size="12.9861" font-weight="400" font-style="normal" 
>
</g>

<g fill="none" stroke="#000000" stroke-opacity="1" stroke-width="1" stroke-linecap="square" stroke-linejoin="bevel" transform="matrix(0,-0.885417,0.885417,0,0,572.865)"
font-family="MS Shell Dlg 2" font-size="12.9861" font-weight="400" font-style="normal" 
>
</g>

<g fill="none" stroke="#000000" stroke-opacity="1" stroke-width="1" stroke-linecap="square" stroke-linejoin="bevel" transform="matrix(0,-0.885417,0.885417,0,0,572.865)"
font-family="MS Shell Dlg 2" font-size="11.8056" font-weight="400" font-style="normal" 
>
</g>

<g fill="none" stroke="#000000" stroke-opacity="1" stroke-width="1" stroke-linecap="square" stroke-linejoin="bevel" transform="matrix(0.885417,0,0,0.885417,0,0)"
font-family="MS Shell Dlg 2" font-size="9.73958" font-weight="400" font-style="normal" 
>
</g>

<g fill="none" stroke="#000000" stroke-opacity="1" stroke-width="1" stroke-linecap="square" stroke-linejoin="bevel" transform="matrix(0.885417,0,0,0.885417,0,0)"
font-family="MS Shell Dlg 2" font-size="11.8056" font-weight="400" font-style="normal" 
>
</g>

<g fill="none" stroke="#000000" stroke-opacity="1" stroke-width="1" stroke-linecap="square" stroke-linejoin="bevel" transform="matrix(0.885417,0,0,0.885417,0,466.113)"
font-family="MS Shell Dlg 2" font-size="11.8056" font-weight="400" font-style="normal" 
>
</g>

<g fill="none" stroke="#000000" stroke-opacity="1" stroke-width="1" stroke-linecap="square" stroke-linejoin="bevel" transform="matrix(0.885417,0,0,0.885417,0,466.113)"
font-family="MS Shell Dlg 2" font-size="13" font-weight="400" font-style="normal" 
>
<text fill="#000000" fill-opacity="1" stroke="none" xml:space="preserve" x="0" y="10" font-family="MS Shell Dlg 2" font-size="13" font-weight="400" font-style="normal" 
 >4,75e+06</text>
</g>

<g fill="none" stroke="#000000" stroke-opacity="1" stroke-width="1" stroke-linecap="square" stroke-linejoin="bevel" transform="matrix(0.885417,0,0,0.885417,0,466.113)"
font-family="MS Shell Dlg 2" font-size="11.8056" font-weight="400" font-style="normal" 
>
</g>

<g fill="none" stroke="#000000" stroke-opacity="1" stroke-width="1" stroke-linecap="square" stroke-linejoin="bevel" transform="matrix(0.885417,0,0,0.885417,0,466.113)"
font-family="MS Shell Dlg 2" font-size="11.8056" font-weight="400" font-style="normal" 
>
</g>

<g fill="none" stroke="#000000" stroke-opacity="1" stroke-width="1" stroke-linecap="square" stroke-linejoin="bevel" transform="matrix(0.885417,0,0,0.885417,0,0)"
font-family="MS Shell Dlg 2" font-size="11.8056" font-weight="400" font-style="normal" 
>
</g>

<g fill="none" stroke="#000000" stroke-opacity="1" stroke-width="1" stroke-linecap="square" stroke-linejoin="bevel" transform="matrix(0.885417,0,0,0.885417,6.19792,335.519)"
font-family="MS Shell Dlg 2" font-size="11.8056" font-weight="400" font-style="normal" 
>
</g>

<g fill="none" stroke="#000000" stroke-opacity="1" stroke-width="1" stroke-linecap="square" stroke-linejoin="bevel" transform="matrix(0.885417,0,0,0.885417,6.19792,335.519)"
font-family="MS Shell Dlg 2" font-size="13" font-weight="400" font-style="normal" 
>
<text fill="#000000" fill-opacity="1" stroke="none" xml:space="preserve" x="0" y="10" font-family="MS Shell Dlg 2" font-size="13" font-weight="400" font-style="normal" 
 >4,8e+06</text>
</g>

<g fill="none" stroke="#000000" stroke-opacity="1" stroke-width="1" stroke-linecap="square" stroke-linejoin="bevel" transform="matrix(0.885417,0,0,0.885417,6.19792,335.519)"
font-family="MS Shell Dlg 2" font-size="11.8056" font-weight="400" font-style="normal" 
>
</g>

<g fill="none" stroke="#000000" stroke-opacity="1" stroke-width="1" stroke-linecap="square" stroke-linejoin="bevel" transform="matrix(0.885417,0,0,0.885417,6.19792,335.519)"
font-family="MS Shell Dlg 2" font-size="11.8056" font-weight="400" font-style="normal" 
>
</g>

<g fill="none" stroke="#000000" stroke-opacity="1" stroke-width="1" stroke-linecap="square" stroke-linejoin="bevel" transform="matrix(0.885417,0,0,0.885417,0,0)"
font-family="MS Shell Dlg 2" font-size="11.8056" font-weight="400" font-style="normal" 
>
</g>

<g fill="none" stroke="#000000" stroke-opacity="1" stroke-width="1" stroke-linecap="square" stroke-linejoin="bevel" transform="matrix(0.885417,0,0,0.885417,0,204.925)"
font-family="MS Shell Dlg 2" font-size="11.8056" font-weight="400" font-style="normal" 
>
</g>

<g fill="none" stroke="#000000" stroke-opacity="1" stroke-width="1" stroke-linecap="square" stroke-linejoin="bevel" transform="matrix(0.885417,0,0,0.885417,0,204.925)"
font-family="MS Shell Dlg 2" font-size="13" font-weight="400" font-style="normal" 
>
<text fill="#000000" fill-opacity="1" stroke="none" xml:space="preserve" x="0" y="10" font-family="MS Shell Dlg 2" font-size="13" font-weight="400" font-style="normal" 
 >4,85e+06</text>
</g>

<g fill="none" stroke="#000000" stroke-opacity="1" stroke-width="1" stroke-linecap="square" stroke-linejoin="bevel" transform="matrix(0.885417,0,0,0.885417,0,204.925)"
font-family="MS Shell Dlg 2" font-size="11.8056" font-weight="400" font-style="normal" 
>
</g>

<g fill="none" stroke="#000000" stroke-opacity="1" stroke-width="1" stroke-linecap="square" stroke-linejoin="bevel" transform="matrix(0.885417,0,0,0.885417,0,204.925)"
font-family="MS Shell Dlg 2" font-size="11.8056" font-weight="400" font-style="normal" 
>
</g>

<g fill="none" stroke="#000000" stroke-opacity="1" stroke-width="1" stroke-linecap="square" stroke-linejoin="bevel" transform="matrix(0.885417,0,0,0.885417,0,0)"
font-family="MS Shell Dlg 2" font-size="11.8056" font-weight="400" font-style="normal" 
>
</g>

<g fill="none" stroke="#000000" stroke-opacity="1" stroke-width="1" stroke-linecap="square" stroke-linejoin="bevel" transform="matrix(0.885417,0,0,0.885417,6.19792,74.3317)"
font-family="MS Shell Dlg 2" font-size="11.8056" font-weight="400" font-style="normal" 
>
</g>

<g fill="none" stroke="#000000" stroke-opacity="1" stroke-width="1" stroke-linecap="square" stroke-linejoin="bevel" transform="matrix(0.885417,0,0,0.885417,6.19792,74.3317)"
font-family="MS Shell Dlg 2" font-size="13" font-weight="400" font-style="normal" 
>
<text fill="#000000" fill-opacity="1" stroke="none" xml:space="preserve" x="0" y="10" font-family="MS Shell Dlg 2" font-size="13" font-weight="400" font-style="normal" 
 >4,9e+06</text>
</g>

<g fill="none" stroke="#000000" stroke-opacity="1" stroke-width="1" stroke-linecap="square" stroke-linejoin="bevel" transform="matrix(0.885417,0,0,0.885417,6.19792,74.3317)"
font-family="MS Shell Dlg 2" font-size="11.8056" font-weight="400" font-style="normal" 
>
</g>

<g fill="none" stroke="#000000" stroke-opacity="1" stroke-width="1" stroke-linecap="square" stroke-linejoin="bevel" transform="matrix(0.885417,0,0,0.885417,6.19792,74.3317)"
font-family="MS Shell Dlg 2" font-size="11.8056" font-weight="400" font-style="normal" 
>
</g>

<g fill="none" stroke="#000000" stroke-opacity="1" stroke-width="1" stroke-linecap="square" stroke-linejoin="bevel" transform="matrix(0.885417,0,0,0.885417,0,0)"
font-family="MS Shell Dlg 2" font-size="11.8056" font-weight="400" font-style="normal" 
>
</g>

<g fill="none" stroke="#000000" stroke-opacity="1" stroke-width="1" stroke-linecap="square" stroke-linejoin="bevel" transform="matrix(0.885417,0,0,0.885417,0,0)"
font-family="MS Shell Dlg 2" font-size="11.8056" font-weight="400" font-style="normal" 
>
</g>

<g fill="none" stroke="#000000" stroke-opacity="1" stroke-width="1" stroke-linecap="butt" stroke-linejoin="bevel" transform="matrix(0.885417,0,0,0.885417,0,0)"
font-family="MS Shell Dlg 2" font-size="11.8056" font-weight="400" font-style="normal" 
>
<polyline fill="none" vector-effect="non-scaling-stroke" points="67,620.429 63,620.429 " />
<polyline fill="none" vector-effect="non-scaling-stroke" points="67,590.931 63,590.931 " />
<polyline fill="none" vector-effect="non-scaling-stroke" points="67,561.432 63,561.432 " />
<polyline fill="none" vector-effect="non-scaling-stroke" points="67,502.434 63,502.434 " />
<polyline fill="none" vector-effect="non-scaling-stroke" points="67,472.935 63,472.935 " />
<polyline fill="none" vector-effect="non-scaling-stroke" points="67,443.437 63,443.437 " />
<polyline fill="none" vector-effect="non-scaling-stroke" points="67,413.938 63,413.938 " />
<polyline fill="none" vector-effect="non-scaling-stroke" points="67,354.94 63,354.94 " />
<polyline fill="none" vector-effect="non-scaling-stroke" points="67,325.442 63,325.442 " />
<polyline fill="none" vector-effect="non-scaling-stroke" points="67,295.943 63,295.943 " />
<polyline fill="none" vector-effect="non-scaling-stroke" points="67,266.444 63,266.444 " />
<polyline fill="none" vector-effect="non-scaling-stroke" points="67,207.446 63,207.446 " />
<polyline fill="none" vector-effect="non-scaling-stroke" points="67,177.948 63,177.948 " />
<polyline fill="none" vector-effect="non-scaling-stroke" points="67,148.449 63,148.449 " />
<polyline fill="none" vector-effect="non-scaling-stroke" points="67,118.95 63,118.95 " />
<polyline fill="none" vector-effect="non-scaling-stroke" points="67,59.9524 63,59.9524 " />
<polyline fill="none" vector-effect="non-scaling-stroke" points="67,531.933 59,531.933 " />
<polyline fill="none" vector-effect="non-scaling-stroke" points="67,384.439 59,384.439 " />
<polyline fill="none" vector-effect="non-scaling-stroke" points="67,236.945 59,236.945 " />
<polyline fill="none" vector-effect="non-scaling-stroke" points="67,89.4511 59,89.4511 " />
</g>

<g fill="none" stroke="#000000" stroke-opacity="1" stroke-width="1" stroke-linecap="square" stroke-linejoin="bevel" transform="matrix(0.885417,0,0,0.885417,0,0)"
font-family="MS Shell Dlg 2" font-size="11.8056" font-weight="400" font-style="normal" 
>
</g>

<g fill="none" stroke="#000000" stroke-opacity="1" stroke-width="1" stroke-linecap="butt" stroke-linejoin="bevel" transform="matrix(0.885417,0,0,0.885417,0,0)"
font-family="MS Shell Dlg 2" font-size="11.8056" font-weight="400" font-style="normal" 
>
<polyline fill="none" vector-effect="non-scaling-stroke" points="67,39 67,647 " />
</g>

<g fill="none" stroke="#000000" stroke-opacity="1" stroke-width="1" stroke-linecap="square" stroke-linejoin="bevel" transform="matrix(0.885417,0,0,0.885417,0,0)"
font-family="MS Shell Dlg 2" font-size="11.8056" font-weight="400" font-style="normal" 
>
</g>

<g fill="none" stroke="#000000" stroke-opacity="1" stroke-width="1" stroke-linecap="square" stroke-linejoin="bevel" transform="matrix(0.885417,0,0,0.885417,0,0)"
font-family="MS Shell Dlg 2" font-size="11.8056" font-weight="400" font-style="normal" 
>
</g>

<g fill="none" stroke="#000000" stroke-opacity="1" stroke-width="1" stroke-linecap="square" stroke-linejoin="bevel" transform="matrix(0.885417,0,0,0.885417,0,0)"
font-family="MS Shell Dlg 2" font-size="9.73958" font-weight="400" font-style="normal" 
>
</g>

<g fill="none" stroke="#000000" stroke-opacity="1" stroke-width="1" stroke-linecap="square" stroke-linejoin="bevel" transform="matrix(0.885417,0,0,0.885417,60.2083,596.771)"
font-family="MS Shell Dlg 2" font-size="11.8056" font-weight="400" font-style="normal" 
>
</g>

<g fill="none" stroke="#000000" stroke-opacity="1" stroke-width="1" stroke-linecap="square" stroke-linejoin="bevel" transform="matrix(0.885417,0,0,0.885417,60.2083,596.771)"
font-family="MS Shell Dlg 2" font-size="12.9861" font-weight="400" font-style="normal" 
>
</g>

<g fill="none" stroke="#000000" stroke-opacity="1" stroke-width="1" stroke-linecap="square" stroke-linejoin="bevel" transform="matrix(0.885417,0,0,0.885417,60.2083,596.771)"
font-family="MS Shell Dlg 2" font-size="12.9861" font-weight="400" font-style="normal" 
>
</g>

<g fill="none" stroke="#000000" stroke-opacity="1" stroke-width="1" stroke-linecap="square" stroke-linejoin="bevel" transform="matrix(0.885417,0,0,0.885417,60.2083,596.771)"
font-family="MS Shell Dlg 2" font-size="11.8056" font-weight="400" font-style="normal" 
>
</g>

<g fill="none" stroke="#000000" stroke-opacity="1" stroke-width="1" stroke-linecap="square" stroke-linejoin="bevel" transform="matrix(0.885417,0,0,0.885417,0,0)"
font-family="MS Shell Dlg 2" font-size="9.73958" font-weight="400" font-style="normal" 
>
</g>

<g fill="none" stroke="#000000" stroke-opacity="1" stroke-width="1" stroke-linecap="square" stroke-linejoin="bevel" transform="matrix(0.885417,0,0,0.885417,0,0)"
font-family="MS Shell Dlg 2" font-size="11.8056" font-weight="400" font-style="normal" 
>
</g>

<g fill="none" stroke="#000000" stroke-opacity="1" stroke-width="1" stroke-linecap="square" stroke-linejoin="bevel" transform="matrix(0.885417,0,0,0.885417,65.0071,585.26)"
font-family="MS Shell Dlg 2" font-size="11.8056" font-weight="400" font-style="normal" 
>
</g>

<g fill="none" stroke="#000000" stroke-opacity="1" stroke-width="1" stroke-linecap="square" stroke-linejoin="bevel" transform="matrix(0.885417,0,0,0.885417,65.0071,585.26)"
font-family="MS Shell Dlg 2" font-size="13" font-weight="400" font-style="normal" 
>
<text fill="#000000" fill-opacity="1" stroke="none" xml:space="preserve" x="0" y="10" font-family="MS Shell Dlg 2" font-size="13" font-weight="400" font-style="normal" 
 >1 200</text>
</g>

<g fill="none" stroke="#000000" stroke-opacity="1" stroke-width="1" stroke-linecap="square" stroke-linejoin="bevel" transform="matrix(0.885417,0,0,0.885417,65.0071,585.26)"
font-family="MS Shell Dlg 2" font-size="11.8056" font-weight="400" font-style="normal" 
>
</g>

<g fill="none" stroke="#000000" stroke-opacity="1" stroke-width="1" stroke-linecap="square" stroke-linejoin="bevel" transform="matrix(0.885417,0,0,0.885417,65.0071,585.26)"
font-family="MS Shell Dlg 2" font-size="11.8056" font-weight="400" font-style="normal" 
>
</g>

<g fill="none" stroke="#000000" stroke-opacity="1" stroke-width="1" stroke-linecap="square" stroke-linejoin="bevel" transform="matrix(0.885417,0,0,0.885417,0,0)"
font-family="MS Shell Dlg 2" font-size="11.8056" font-weight="400" font-style="normal" 
>
</g>

<g fill="none" stroke="#000000" stroke-opacity="1" stroke-width="1" stroke-linecap="square" stroke-linejoin="bevel" transform="matrix(0.885417,0,0,0.885417,251.222,585.26)"
font-family="MS Shell Dlg 2" font-size="11.8056" font-weight="400" font-style="normal" 
>
</g>

<g fill="none" stroke="#000000" stroke-opacity="1" stroke-width="1" stroke-linecap="square" stroke-linejoin="bevel" transform="matrix(0.885417,0,0,0.885417,251.222,585.26)"
font-family="MS Shell Dlg 2" font-size="13" font-weight="400" font-style="normal" 
>
<text fill="#000000" fill-opacity="1" stroke="none" xml:space="preserve" x="0" y="10" font-family="MS Shell Dlg 2" font-size="13" font-weight="400" font-style="normal" 
 >1 220</text>
</g>

<g fill="none" stroke="#000000" stroke-opacity="1" stroke-width="1" stroke-linecap="square" stroke-linejoin="bevel" transform="matrix(0.885417,0,0,0.885417,251.222,585.26)"
font-family="MS Shell Dlg 2" font-size="11.8056" font-weight="400" font-style="normal" 
>
</g>

<g fill="none" stroke="#000000" stroke-opacity="1" stroke-width="1" stroke-linecap="square" stroke-linejoin="bevel" transform="matrix(0.885417,0,0,0.885417,251.222,585.26)"
font-family="MS Shell Dlg 2" font-size="11.8056" font-weight="400" font-style="normal" 
>
</g>

<g fill="none" stroke="#000000" stroke-opacity="1" stroke-width="1" stroke-linecap="square" stroke-linejoin="bevel" transform="matrix(0.885417,0,0,0.885417,0,0)"
font-family="MS Shell Dlg 2" font-size="11.8056" font-weight="400" font-style="normal" 
>
</g>

<g fill="none" stroke="#000000" stroke-opacity="1" stroke-width="1" stroke-linecap="square" stroke-linejoin="bevel" transform="matrix(0.885417,0,0,0.885417,437.437,585.26)"
font-family="MS Shell Dlg 2" font-size="11.8056" font-weight="400" font-style="normal" 
>
</g>

<g fill="none" stroke="#000000" stroke-opacity="1" stroke-width="1" stroke-linecap="square" stroke-linejoin="bevel" transform="matrix(0.885417,0,0,0.885417,437.437,585.26)"
font-family="MS Shell Dlg 2" font-size="13" font-weight="400" font-style="normal" 
>
<text fill="#000000" fill-opacity="1" stroke="none" xml:space="preserve" x="0" y="10" font-family="MS Shell Dlg 2" font-size="13" font-weight="400" font-style="normal" 
 >1 240</text>
</g>

<g fill="none" stroke="#000000" stroke-opacity="1" stroke-width="1" stroke-linecap="square" stroke-linejoin="bevel" transform="matrix(0.885417,0,0,0.885417,437.437,585.26)"
font-family="MS Shell Dlg 2" font-size="11.8056" font-weight="400" font-style="normal" 
>
</g>

<g fill="none" stroke="#000000" stroke-opacity="1" stroke-width="1" stroke-linecap="square" stroke-linejoin="bevel" transform="matrix(0.885417,0,0,0.885417,437.437,585.26)"
font-family="MS Shell Dlg 2" font-size="11.8056" font-weight="400" font-style="normal" 
>
</g>

<g fill="none" stroke="#000000" stroke-opacity="1" stroke-width="1" stroke-linecap="square" stroke-linejoin="bevel" transform="matrix(0.885417,0,0,0.885417,0,0)"
font-family="MS Shell Dlg 2" font-size="11.8056" font-weight="400" font-style="normal" 
>
</g>

<g fill="none" stroke="#000000" stroke-opacity="1" stroke-width="1" stroke-linecap="square" stroke-linejoin="bevel" transform="matrix(0.885417,0,0,0.885417,623.652,585.26)"
font-family="MS Shell Dlg 2" font-size="11.8056" font-weight="400" font-style="normal" 
>
</g>

<g fill="none" stroke="#000000" stroke-opacity="1" stroke-width="1" stroke-linecap="square" stroke-linejoin="bevel" transform="matrix(0.885417,0,0,0.885417,623.652,585.26)"
font-family="MS Shell Dlg 2" font-size="13" font-weight="400" font-style="normal" 
>
<text fill="#000000" fill-opacity="1" stroke="none" xml:space="preserve" x="0" y="10" font-family="MS Shell Dlg 2" font-size="13" font-weight="400" font-style="normal" 
 >1 260</text>
</g>

<g fill="none" stroke="#000000" stroke-opacity="1" stroke-width="1" stroke-linecap="square" stroke-linejoin="bevel" transform="matrix(0.885417,0,0,0.885417,623.652,585.26)"
font-family="MS Shell Dlg 2" font-size="11.8056" font-weight="400" font-style="normal" 
>
</g>

<g fill="none" stroke="#000000" stroke-opacity="1" stroke-width="1" stroke-linecap="square" stroke-linejoin="bevel" transform="matrix(0.885417,0,0,0.885417,623.652,585.26)"
font-family="MS Shell Dlg 2" font-size="11.8056" font-weight="400" font-style="normal" 
>
</g>

<g fill="none" stroke="#000000" stroke-opacity="1" stroke-width="1" stroke-linecap="square" stroke-linejoin="bevel" transform="matrix(0.885417,0,0,0.885417,0,0)"
font-family="MS Shell Dlg 2" font-size="11.8056" font-weight="400" font-style="normal" 
>
</g>

<g fill="none" stroke="#000000" stroke-opacity="1" stroke-width="1" stroke-linecap="square" stroke-linejoin="bevel" transform="matrix(0.885417,0,0,0.885417,809.867,585.26)"
font-family="MS Shell Dlg 2" font-size="11.8056" font-weight="400" font-style="normal" 
>
</g>

<g fill="none" stroke="#000000" stroke-opacity="1" stroke-width="1" stroke-linecap="square" stroke-linejoin="bevel" transform="matrix(0.885417,0,0,0.885417,809.867,585.26)"
font-family="MS Shell Dlg 2" font-size="13" font-weight="400" font-style="normal" 
>
<text fill="#000000" fill-opacity="1" stroke="none" xml:space="preserve" x="0" y="10" font-family="MS Shell Dlg 2" font-size="13" font-weight="400" font-style="normal" 
 >1 280</text>
</g>

<g fill="none" stroke="#000000" stroke-opacity="1" stroke-width="1" stroke-linecap="square" stroke-linejoin="bevel" transform="matrix(0.885417,0,0,0.885417,809.867,585.26)"
font-family="MS Shell Dlg 2" font-size="11.8056" font-weight="400" font-style="normal" 
>
</g>

<g fill="none" stroke="#000000" stroke-opacity="1" stroke-width="1" stroke-linecap="square" stroke-linejoin="bevel" transform="matrix(0.885417,0,0,0.885417,809.867,585.26)"
font-family="MS Shell Dlg 2" font-size="11.8056" font-weight="400" font-style="normal" 
>
</g>

<g fill="none" stroke="#000000" stroke-opacity="1" stroke-width="1" stroke-linecap="square" stroke-linejoin="bevel" transform="matrix(0.885417,0,0,0.885417,0,0)"
font-family="MS Shell Dlg 2" font-size="11.8056" font-weight="400" font-style="normal" 
>
</g>

<g fill="none" stroke="#000000" stroke-opacity="1" stroke-width="1" stroke-linecap="square" stroke-linejoin="bevel" transform="matrix(0.885417,0,0,0.885417,996.082,585.26)"
font-family="MS Shell Dlg 2" font-size="11.8056" font-weight="400" font-style="normal" 
>
</g>

<g fill="none" stroke="#000000" stroke-opacity="1" stroke-width="1" stroke-linecap="square" stroke-linejoin="bevel" transform="matrix(0.885417,0,0,0.885417,996.082,585.26)"
font-family="MS Shell Dlg 2" font-size="13" font-weight="400" font-style="normal" 
>
<text fill="#000000" fill-opacity="1" stroke="none" xml:space="preserve" x="0" y="10" font-family="MS Shell Dlg 2" font-size="13" font-weight="400" font-style="normal" 
 >1 300</text>
</g>

<g fill="none" stroke="#000000" stroke-opacity="1" stroke-width="1" stroke-linecap="square" stroke-linejoin="bevel" transform="matrix(0.885417,0,0,0.885417,996.082,585.26)"
font-family="MS Shell Dlg 2" font-size="11.8056" font-weight="400" font-style="normal" 
>
</g>

<g fill="none" stroke="#000000" stroke-opacity="1" stroke-width="1" stroke-linecap="square" stroke-linejoin="bevel" transform="matrix(0.885417,0,0,0.885417,996.082,585.26)"
font-family="MS Shell Dlg 2" font-size="11.8056" font-weight="400" font-style="normal" 
>
</g>

<g fill="none" stroke="#000000" stroke-opacity="1" stroke-width="1" stroke-linecap="square" stroke-linejoin="bevel" transform="matrix(0.885417,0,0,0.885417,0,0)"
font-family="MS Shell Dlg 2" font-size="11.8056" font-weight="400" font-style="normal" 
>
</g>

<g fill="none" stroke="#000000" stroke-opacity="1" stroke-width="1" stroke-linecap="square" stroke-linejoin="bevel" transform="matrix(0.885417,0,0,0.885417,0,0)"
font-family="MS Shell Dlg 2" font-size="11.8056" font-weight="400" font-style="normal" 
>
</g>

<g fill="none" stroke="#000000" stroke-opacity="1" stroke-width="1" stroke-linecap="butt" stroke-linejoin="bevel" transform="matrix(0.885417,0,0,0.885417,0,0)"
font-family="MS Shell Dlg 2" font-size="11.8056" font-weight="400" font-style="normal" 
>
<polyline fill="none" vector-effect="non-scaling-stroke" points="141.998,648 141.998,652 " />
<polyline fill="none" vector-effect="non-scaling-stroke" points="247.155,648 247.155,652 " />
<polyline fill="none" vector-effect="non-scaling-stroke" points="352.311,648 352.311,652 " />
<polyline fill="none" vector-effect="non-scaling-stroke" points="457.468,648 457.468,652 " />
<polyline fill="none" vector-effect="non-scaling-stroke" points="562.625,648 562.625,652 " />
<polyline fill="none" vector-effect="non-scaling-stroke" points="667.781,648 667.781,652 " />
<polyline fill="none" vector-effect="non-scaling-stroke" points="772.938,648 772.938,652 " />
<polyline fill="none" vector-effect="non-scaling-stroke" points="878.095,648 878.095,652 " />
<polyline fill="none" vector-effect="non-scaling-stroke" points="983.251,648 983.251,652 " />
<polyline fill="none" vector-effect="non-scaling-stroke" points="1088.41,648 1088.41,652 " />
<polyline fill="none" vector-effect="non-scaling-stroke" points="1193.56,648 1193.56,652 " />
<polyline fill="none" vector-effect="non-scaling-stroke" points="194.576,648 194.576,654 " />
<polyline fill="none" vector-effect="non-scaling-stroke" points="404.89,648 404.89,654 " />
<polyline fill="none" vector-effect="non-scaling-stroke" points="615.203,648 615.203,654 " />
<polyline fill="none" vector-effect="non-scaling-stroke" points="825.516,648 825.516,654 " />
<polyline fill="none" vector-effect="non-scaling-stroke" points="1035.83,648 1035.83,654 " />
<polyline fill="none" vector-effect="non-scaling-stroke" points="89.4198,648 89.4198,656 " />
<polyline fill="none" vector-effect="non-scaling-stroke" points="299.733,648 299.733,656 " />
<polyline fill="none" vector-effect="non-scaling-stroke" points="510.046,648 510.046,656 " />
<polyline fill="none" vector-effect="non-scaling-stroke" points="720.36,648 720.36,656 " />
<polyline fill="none" vector-effect="non-scaling-stroke" points="930.673,648 930.673,656 " />
<polyline fill="none" vector-effect="non-scaling-stroke" points="1140.99,648 1140.99,656 " />
</g>

<g fill="none" stroke="#000000" stroke-opacity="1" stroke-width="1" stroke-linecap="square" stroke-linejoin="bevel" transform="matrix(0.885417,0,0,0.885417,0,0)"
font-family="MS Shell Dlg 2" font-size="11.8056" font-weight="400" font-style="normal" 
>
</g>

<g fill="none" stroke="#000000" stroke-opacity="1" stroke-width="1" stroke-linecap="butt" stroke-linejoin="bevel" transform="matrix(0.885417,0,0,0.885417,0,0)"
font-family="MS Shell Dlg 2" font-size="11.8056" font-weight="400" font-style="normal" 
>
<polyline fill="none" vector-effect="non-scaling-stroke" points="68,648 1239,648 " />
</g>

<g fill="none" stroke="#000000" stroke-opacity="1" stroke-width="1" stroke-linecap="square" stroke-linejoin="bevel" transform="matrix(0.885417,0,0,0.885417,0,0)"
font-family="MS Shell Dlg 2" font-size="11.8056" font-weight="400" font-style="normal" 
>
</g>

<g fill="none" stroke="#000000" stroke-opacity="1" stroke-width="1" stroke-linecap="square" stroke-linejoin="bevel" transform="matrix(0.885417,0,0,0.885417,0,0)"
font-family="MS Shell Dlg 2" font-size="11.8056" font-weight="400" font-style="normal" 
>
</g>

<g fill="none" stroke="#000000" stroke-opacity="1" stroke-width="1" stroke-linecap="square" stroke-linejoin="bevel" transform="matrix(0.885417,0,0,0.885417,0,0)"
font-family="MS Shell Dlg 2" font-size="9.73958" font-weight="400" font-style="normal" 
>
</g>

<g fill="none" stroke="#000000" stroke-opacity="1" stroke-width="1" stroke-linecap="square" stroke-linejoin="bevel" transform="matrix(1,0,0,1,0,0)"
font-family="MS Shell Dlg 2" font-size="9.73958" font-weight="400" font-style="normal" 
>
</g>
</g>
</svg>
