<?xml version="1.0" encoding="UTF-8" standalone="no"?>
<svg viewBox="0 0 1097.64 595.669"
 xmlns="http://www.w3.org/2000/svg" xmlns:xlink="http://www.w3.org/1999/xlink"  version="1.2" baseProfile="tiny">
<title>Plot Document</title>
<desc>Generated with Qt</desc>
<defs>
</defs>
<g fill="none" stroke="black" stroke-width="1" fill-rule="evenodd" stroke-linecap="square" stroke-linejoin="bevel" >

<g fill="none" stroke="#000000" stroke-opacity="1" stroke-width="1" stroke-linecap="square" stroke-linejoin="bevel" transform="matrix(0.885417,0,0,0.885417,0,0)"
font-family="MS Shell Dlg 2" font-size="9.73958" font-weight="400" font-style="normal" 
>
</g>

<g fill="none" stroke="#000000" stroke-opacity="1" stroke-width="1" stroke-linecap="square" stroke-linejoin="bevel" transform="matrix(0.885417,0,0,0.885417,0,0)"
font-family="MS Shell Dlg 2" font-size="9.73958" font-weight="400" font-style="normal" 
>
</g>

<g fill="#ffffff" fill-opacity="1" stroke="none" transform="matrix(0.885417,0,0,0.885417,0,0)"
font-family="MS Shell Dlg 2" font-size="9.73958" font-weight="400" font-style="normal" 
>
<path vector-effect="non-scaling-stroke" fill-rule="evenodd" d="M68,39 L1240,39 L1240,648 L68,648 L68,39"/>
</g>

<g fill="none" stroke="#000000" stroke-opacity="1" stroke-width="1" stroke-linecap="square" stroke-linejoin="bevel" transform="matrix(0.885417,0,0,0.885417,0,0)"
font-family="MS Shell Dlg 2" font-size="9.73958" font-weight="400" font-style="normal" 
>
</g>

<g fill="none" stroke="#c0c0c0" stroke-opacity="1" stroke-dasharray="1,2" stroke-dashoffset="0" stroke-width="1" stroke-linecap="butt" stroke-linejoin="bevel" transform="matrix(0.885417,0,0,0.885417,0,0)"
font-family="MS Shell Dlg 2" font-size="9.73958" font-weight="400" font-style="normal" 
>
<polyline fill="none" vector-effect="non-scaling-stroke" points="156.186,39 156.186,647 " />
<polyline fill="none" vector-effect="non-scaling-stroke" points="264.229,39 264.229,647 " />
<polyline fill="none" vector-effect="non-scaling-stroke" points="372.271,39 372.271,647 " />
<polyline fill="none" vector-effect="non-scaling-stroke" points="480.313,39 480.313,647 " />
<polyline fill="none" vector-effect="non-scaling-stroke" points="588.356,39 588.356,647 " />
<polyline fill="none" vector-effect="non-scaling-stroke" points="696.398,39 696.398,647 " />
<polyline fill="none" vector-effect="non-scaling-stroke" points="804.441,39 804.441,647 " />
<polyline fill="none" vector-effect="non-scaling-stroke" points="912.483,39 912.483,647 " />
<polyline fill="none" vector-effect="non-scaling-stroke" points="1020.53,39 1020.53,647 " />
<polyline fill="none" vector-effect="non-scaling-stroke" points="1128.57,39 1128.57,647 " />
<polyline fill="none" vector-effect="non-scaling-stroke" points="1236.61,39 1236.61,647 " />
<polyline fill="none" vector-effect="non-scaling-stroke" points="210.207,39 210.207,647 " />
<polyline fill="none" vector-effect="non-scaling-stroke" points="426.292,39 426.292,647 " />
<polyline fill="none" vector-effect="non-scaling-stroke" points="642.377,39 642.377,647 " />
<polyline fill="none" vector-effect="non-scaling-stroke" points="858.462,39 858.462,647 " />
<polyline fill="none" vector-effect="non-scaling-stroke" points="1074.55,39 1074.55,647 " />
<polyline fill="none" vector-effect="non-scaling-stroke" points="68,617.578 1239,617.578 " />
<polyline fill="none" vector-effect="non-scaling-stroke" points="68,583.269 1239,583.269 " />
<polyline fill="none" vector-effect="non-scaling-stroke" points="68,548.96 1239,548.96 " />
<polyline fill="none" vector-effect="non-scaling-stroke" points="68,480.342 1239,480.342 " />
<polyline fill="none" vector-effect="non-scaling-stroke" points="68,446.033 1239,446.033 " />
<polyline fill="none" vector-effect="non-scaling-stroke" points="68,411.724 1239,411.724 " />
<polyline fill="none" vector-effect="non-scaling-stroke" points="68,377.415 1239,377.415 " />
<polyline fill="none" vector-effect="non-scaling-stroke" points="68,308.797 1239,308.797 " />
<polyline fill="none" vector-effect="non-scaling-stroke" points="68,274.488 1239,274.488 " />
<polyline fill="none" vector-effect="non-scaling-stroke" points="68,240.179 1239,240.179 " />
<polyline fill="none" vector-effect="non-scaling-stroke" points="68,205.871 1239,205.871 " />
<polyline fill="none" vector-effect="non-scaling-stroke" points="68,137.253 1239,137.253 " />
<polyline fill="none" vector-effect="non-scaling-stroke" points="68,102.944 1239,102.944 " />
<polyline fill="none" vector-effect="non-scaling-stroke" points="68,68.6348 1239,68.6348 " />
</g>

<g fill="none" stroke="#a0a0a4" stroke-opacity="1" stroke-width="1" stroke-linecap="butt" stroke-linejoin="bevel" transform="matrix(0.885417,0,0,0.885417,0,0)"
font-family="MS Shell Dlg 2" font-size="9.73958" font-weight="400" font-style="normal" 
>
<polyline fill="none" vector-effect="non-scaling-stroke" points="102.165,39 102.165,647 " />
<polyline fill="none" vector-effect="non-scaling-stroke" points="318.25,39 318.25,647 " />
<polyline fill="none" vector-effect="non-scaling-stroke" points="534.335,39 534.335,647 " />
<polyline fill="none" vector-effect="non-scaling-stroke" points="750.42,39 750.42,647 " />
<polyline fill="none" vector-effect="non-scaling-stroke" points="966.505,39 966.505,647 " />
<polyline fill="none" vector-effect="non-scaling-stroke" points="1182.59,39 1182.59,647 " />
<polyline fill="none" vector-effect="non-scaling-stroke" points="68,514.651 1239,514.651 " />
<polyline fill="none" vector-effect="non-scaling-stroke" points="68,343.106 1239,343.106 " />
<polyline fill="none" vector-effect="non-scaling-stroke" points="68,171.562 1239,171.562 " />
</g>

<g fill="none" stroke="#000000" stroke-opacity="1" stroke-width="1" stroke-linecap="square" stroke-linejoin="bevel" transform="matrix(0.885417,0,0,0.885417,0,0)"
font-family="MS Shell Dlg 2" font-size="9.73958" font-weight="400" font-style="normal" 
>
</g>

<g fill="none" stroke="#000000" stroke-opacity="1" stroke-width="1" stroke-linecap="square" stroke-linejoin="bevel" transform="matrix(0.885417,0,0,0.885417,0,0)"
font-family="MS Shell Dlg 2" font-size="9.73958" font-weight="400" font-style="normal" 
>
</g>

<g fill="none" stroke="#ff0000" stroke-opacity="1" stroke-width="1" stroke-linecap="square" stroke-linejoin="bevel" transform="matrix(0.885417,0,0,0.885417,0,0)"
font-family="MS Shell Dlg 2" font-size="9.73958" font-weight="400" font-style="normal" 
>
<polyline fill="none" vector-effect="none" points="68,556.518 102.165,556.451 102.165,556.451 102.165,556.427 112.969,47.5716 112.969,47.5983 166.99,503.262 231.816,465.189 296.641,467.353 361.467,507.538 426.292,567.165 491.118,619.521 555.943,641.649 620.769,624.659 685.594,577.635 750.42,522.725 815.245,484.136 880.071,477.691 944.896,505.064 1009.72,553.313 1074.55,600.703 1139.37,626.355 1204.2,619.59 1240,600.257 " />
</g>

<g fill="none" stroke="#000000" stroke-opacity="1" stroke-width="1" stroke-linecap="square" stroke-linejoin="bevel" transform="matrix(0.885417,0,0,0.885417,0,0)"
font-family="MS Shell Dlg 2" font-size="9.73958" font-weight="400" font-style="normal" 
>
</g>

<g fill="none" stroke="#000000" stroke-opacity="1" stroke-width="1" stroke-linecap="square" stroke-linejoin="bevel" transform="matrix(0.885417,0,0,0.885417,0,0)"
font-family="MS Shell Dlg 2" font-size="9.73958" font-weight="400" font-style="normal" 
>
</g>

<g fill="none" stroke="#000000" stroke-opacity="1" stroke-width="1" stroke-linecap="square" stroke-linejoin="bevel" transform="matrix(0.885417,0,0,0.885417,0,0)"
font-family="MS Shell Dlg 2" font-size="9.73958" font-weight="400" font-style="normal" 
>
</g>

<g fill="none" stroke="#0000ff" stroke-opacity="1" stroke-width="1" stroke-linecap="square" stroke-linejoin="bevel" transform="matrix(0.885417,0,0,0.885417,0,0)"
font-family="MS Shell Dlg 2" font-size="9.73958" font-weight="400" font-style="normal" 
>
<polyline fill="none" vector-effect="none" points="68,558.388 102.165,558.471 102.165,558.471 102.165,558.447 112.969,144.793 112.969,144.82 166.99,540.379 231.816,522.193 296.641,508.387 361.467,500.614 426.292,499.772 491.118,505.885 555.943,518.097 620.769,534.786 685.594,553.775 750.42,572.63 815.245,588.965 880.071,600.743 944.896,606.536 1009.72,605.697 1074.55,598.444 1139.37,585.803 1204.2,569.456 1240,559.558 " />
</g>

<g fill="none" stroke="#000000" stroke-opacity="1" stroke-width="1" stroke-linecap="square" stroke-linejoin="bevel" transform="matrix(0.885417,0,0,0.885417,0,0)"
font-family="MS Shell Dlg 2" font-size="9.73958" font-weight="400" font-style="normal" 
>
</g>

<g fill="none" stroke="#000000" stroke-opacity="1" stroke-width="1" stroke-linecap="square" stroke-linejoin="bevel" transform="matrix(0.885417,0,0,0.885417,0,0)"
font-family="MS Shell Dlg 2" font-size="9.73958" font-weight="400" font-style="normal" 
>
</g>

<g fill="none" stroke="#000000" stroke-opacity="1" stroke-width="1" stroke-linecap="square" stroke-linejoin="bevel" transform="matrix(0.885417,0,0,0.885417,0,0)"
font-family="MS Shell Dlg 2" font-size="9.73958" font-weight="400" font-style="normal" 
>
</g>

<g fill="none" stroke="#000000" stroke-opacity="1" stroke-width="1" stroke-linecap="square" stroke-linejoin="bevel" transform="matrix(0.885417,0,0,0.885417,0,0)"
font-family="MS Shell Dlg 2" font-size="9.73958" font-weight="400" font-style="normal" 
>
</g>

<g fill="none" stroke="#000000" stroke-opacity="1" stroke-width="1" stroke-linecap="square" stroke-linejoin="bevel" transform="matrix(0.885417,0,0,0.885417,61.9792,1.77083)"
font-family="MS Shell Dlg 2" font-size="9.73958" font-weight="400" font-style="normal" 
>
</g>

<g fill="none" stroke="#ff0000" stroke-opacity="1" stroke-width="1" stroke-linecap="butt" stroke-linejoin="bevel" transform="matrix(1,0,0,1,0,0)"
font-family="MS Shell Dlg 2" font-size="9.73958" font-weight="400" font-style="normal" 
>
<path vector-effect="none" fill-rule="evenodd" d="M61.9792,15.0521 L88.5417,15.0521"/>
</g>

<g fill="none" stroke="#000000" stroke-opacity="1" stroke-width="1" stroke-linecap="square" stroke-linejoin="bevel" transform="matrix(0.885417,0,0,0.885417,61.9792,1.77083)"
font-family="MS Shell Dlg 2" font-size="9.73958" font-weight="400" font-style="normal" 
>
</g>

<g fill="none" stroke="#000000" stroke-opacity="1" stroke-width="1" stroke-linecap="square" stroke-linejoin="bevel" transform="matrix(0.885417,0,0,0.885417,0,0)"
font-family="MS Shell Dlg 2" font-size="9.73958" font-weight="400" font-style="normal" 
>
</g>

<g fill="none" stroke="#000000" stroke-opacity="1" stroke-width="1" stroke-linecap="square" stroke-linejoin="bevel" transform="matrix(0.885417,0,0,0.885417,0,0)"
font-family="MS Shell Dlg 2" font-size="11" font-weight="400" font-style="normal" 
>
<text fill="#000000" fill-opacity="1" stroke="none" xml:space="preserve" x="104" y="21.1562" font-family="MS Shell Dlg 2" font-size="11" font-weight="400" font-style="normal" 
 >SurgeDhalf.dp_tr [Pa]</text>
</g>

<g fill="none" stroke="#000000" stroke-opacity="1" stroke-width="1" stroke-linecap="square" stroke-linejoin="bevel" transform="matrix(0.885417,0,0,0.885417,0,0)"
font-family="MS Shell Dlg 2" font-size="9.73958" font-weight="400" font-style="normal" 
>
</g>

<g fill="none" stroke="#000000" stroke-opacity="1" stroke-width="1" stroke-linecap="square" stroke-linejoin="bevel" transform="matrix(0.885417,0,0,0.885417,0,0)"
font-family="MS Shell Dlg 2" font-size="9.73958" font-weight="400" font-style="normal" 
>
</g>

<g fill="none" stroke="#000000" stroke-opacity="1" stroke-width="1" stroke-linecap="square" stroke-linejoin="bevel" transform="matrix(0.885417,0,0,0.885417,0,0)"
font-family="MS Shell Dlg 2" font-size="9.73958" font-weight="400" font-style="normal" 
>
</g>

<g fill="none" stroke="#000000" stroke-opacity="1" stroke-width="1" stroke-linecap="square" stroke-linejoin="bevel" transform="matrix(0.885417,0,0,0.885417,0,0)"
font-family="MS Shell Dlg 2" font-size="9.73958" font-weight="400" font-style="normal" 
>
</g>

<g fill="none" stroke="#000000" stroke-opacity="1" stroke-width="1" stroke-linecap="square" stroke-linejoin="bevel" transform="matrix(0.885417,0,0,0.885417,195.677,1.77083)"
font-family="MS Shell Dlg 2" font-size="9.73958" font-weight="400" font-style="normal" 
>
</g>

<g fill="none" stroke="#0000ff" stroke-opacity="1" stroke-width="1" stroke-linecap="butt" stroke-linejoin="bevel" transform="matrix(1,0,0,1,0,0)"
font-family="MS Shell Dlg 2" font-size="9.73958" font-weight="400" font-style="normal" 
>
<path vector-effect="none" fill-rule="evenodd" d="M195.677,15.0521 L222.24,15.0521"/>
</g>

<g fill="none" stroke="#000000" stroke-opacity="1" stroke-width="1" stroke-linecap="square" stroke-linejoin="bevel" transform="matrix(0.885417,0,0,0.885417,195.677,1.77083)"
font-family="MS Shell Dlg 2" font-size="9.73958" font-weight="400" font-style="normal" 
>
</g>

<g fill="none" stroke="#000000" stroke-opacity="1" stroke-width="1" stroke-linecap="square" stroke-linejoin="bevel" transform="matrix(0.885417,0,0,0.885417,0,0)"
font-family="MS Shell Dlg 2" font-size="9.73958" font-weight="400" font-style="normal" 
>
</g>

<g fill="none" stroke="#000000" stroke-opacity="1" stroke-width="1" stroke-linecap="square" stroke-linejoin="bevel" transform="matrix(0.885417,0,0,0.885417,0,0)"
font-family="MS Shell Dlg 2" font-size="11" font-weight="400" font-style="normal" 
>
<text fill="#000000" fill-opacity="1" stroke="none" xml:space="preserve" x="255" y="21.1562" font-family="MS Shell Dlg 2" font-size="11" font-weight="400" font-style="normal" 
 >SurgeDnorm.dp_tr [Pa]</text>
</g>

<g fill="none" stroke="#000000" stroke-opacity="1" stroke-width="1" stroke-linecap="square" stroke-linejoin="bevel" transform="matrix(0.885417,0,0,0.885417,0,0)"
font-family="MS Shell Dlg 2" font-size="9.73958" font-weight="400" font-style="normal" 
>
</g>

<g fill="none" stroke="#000000" stroke-opacity="1" stroke-width="1" stroke-linecap="square" stroke-linejoin="bevel" transform="matrix(0.885417,0,0,0.885417,0,0)"
font-family="MS Shell Dlg 2" font-size="9.73958" font-weight="400" font-style="normal" 
>
</g>

<g fill="none" stroke="#000000" stroke-opacity="1" stroke-width="1" stroke-linecap="square" stroke-linejoin="bevel" transform="matrix(0.885417,0,0,0.885417,0,0)"
font-family="MS Shell Dlg 2" font-size="9.73958" font-weight="400" font-style="normal" 
>
</g>

<g fill="none" stroke="#000000" stroke-opacity="1" stroke-width="1" stroke-linecap="square" stroke-linejoin="bevel" transform="matrix(0,-0.885417,0.885417,0,0,572.865)"
font-family="MS Shell Dlg 2" font-size="11.8056" font-weight="400" font-style="normal" 
>
</g>

<g fill="none" stroke="#000000" stroke-opacity="1" stroke-width="1" stroke-linecap="square" stroke-linejoin="bevel" transform="matrix(0,-0.885417,0.885417,0,0,572.865)"
font-family="MS Shell Dlg 2" font-size="12.9861" font-weight="400" font-style="normal" 
>
</g>

<g fill="none" stroke="#000000" stroke-opacity="1" stroke-width="1" stroke-linecap="square" stroke-linejoin="bevel" transform="matrix(0,-0.885417,0.885417,0,0,572.865)"
font-family="MS Shell Dlg 2" font-size="12.9861" font-weight="400" font-style="normal" 
>
</g>

<g fill="none" stroke="#000000" stroke-opacity="1" stroke-width="1" stroke-linecap="square" stroke-linejoin="bevel" transform="matrix(0,-0.885417,0.885417,0,0,572.865)"
font-family="MS Shell Dlg 2" font-size="11.8056" font-weight="400" font-style="normal" 
>
</g>

<g fill="none" stroke="#000000" stroke-opacity="1" stroke-width="1" stroke-linecap="square" stroke-linejoin="bevel" transform="matrix(0.885417,0,0,0.885417,0,0)"
font-family="MS Shell Dlg 2" font-size="9.73958" font-weight="400" font-style="normal" 
>
</g>

<g fill="none" stroke="#000000" stroke-opacity="1" stroke-width="1" stroke-linecap="square" stroke-linejoin="bevel" transform="matrix(0.885417,0,0,0.885417,0,0)"
font-family="MS Shell Dlg 2" font-size="11.8056" font-weight="400" font-style="normal" 
>
</g>

<g fill="none" stroke="#000000" stroke-opacity="1" stroke-width="1" stroke-linecap="square" stroke-linejoin="bevel" transform="matrix(0.885417,0,0,0.885417,6.19792,450.811)"
font-family="MS Shell Dlg 2" font-size="11.8056" font-weight="400" font-style="normal" 
>
</g>

<g fill="none" stroke="#000000" stroke-opacity="1" stroke-width="1" stroke-linecap="square" stroke-linejoin="bevel" transform="matrix(0.885417,0,0,0.885417,6.19792,450.811)"
font-family="MS Shell Dlg 2" font-size="13" font-weight="400" font-style="normal" 
>
<text fill="#000000" fill-opacity="1" stroke="none" xml:space="preserve" x="0" y="10" font-family="MS Shell Dlg 2" font-size="13" font-weight="400" font-style="normal" 
 >4,8e+06</text>
</g>

<g fill="none" stroke="#000000" stroke-opacity="1" stroke-width="1" stroke-linecap="square" stroke-linejoin="bevel" transform="matrix(0.885417,0,0,0.885417,6.19792,450.811)"
font-family="MS Shell Dlg 2" font-size="11.8056" font-weight="400" font-style="normal" 
>
</g>

<g fill="none" stroke="#000000" stroke-opacity="1" stroke-width="1" stroke-linecap="square" stroke-linejoin="bevel" transform="matrix(0.885417,0,0,0.885417,6.19792,450.811)"
font-family="MS Shell Dlg 2" font-size="11.8056" font-weight="400" font-style="normal" 
>
</g>

<g fill="none" stroke="#000000" stroke-opacity="1" stroke-width="1" stroke-linecap="square" stroke-linejoin="bevel" transform="matrix(0.885417,0,0,0.885417,0,0)"
font-family="MS Shell Dlg 2" font-size="11.8056" font-weight="400" font-style="normal" 
>
</g>

<g fill="none" stroke="#000000" stroke-opacity="1" stroke-width="1" stroke-linecap="square" stroke-linejoin="bevel" transform="matrix(0.885417,0,0,0.885417,0,298.922)"
font-family="MS Shell Dlg 2" font-size="11.8056" font-weight="400" font-style="normal" 
>
</g>

<g fill="none" stroke="#000000" stroke-opacity="1" stroke-width="1" stroke-linecap="square" stroke-linejoin="bevel" transform="matrix(0.885417,0,0,0.885417,0,298.922)"
font-family="MS Shell Dlg 2" font-size="13" font-weight="400" font-style="normal" 
>
<text fill="#000000" fill-opacity="1" stroke="none" xml:space="preserve" x="0" y="10" font-family="MS Shell Dlg 2" font-size="13" font-weight="400" font-style="normal" 
 >4,85e+06</text>
</g>

<g fill="none" stroke="#000000" stroke-opacity="1" stroke-width="1" stroke-linecap="square" stroke-linejoin="bevel" transform="matrix(0.885417,0,0,0.885417,0,298.922)"
font-family="MS Shell Dlg 2" font-size="11.8056" font-weight="400" font-style="normal" 
>
</g>

<g fill="none" stroke="#000000" stroke-opacity="1" stroke-width="1" stroke-linecap="square" stroke-linejoin="bevel" transform="matrix(0.885417,0,0,0.885417,0,298.922)"
font-family="MS Shell Dlg 2" font-size="11.8056" font-weight="400" font-style="normal" 
>
</g>

<g fill="none" stroke="#000000" stroke-opacity="1" stroke-width="1" stroke-linecap="square" stroke-linejoin="bevel" transform="matrix(0.885417,0,0,0.885417,0,0)"
font-family="MS Shell Dlg 2" font-size="11.8056" font-weight="400" font-style="normal" 
>
</g>

<g fill="none" stroke="#000000" stroke-opacity="1" stroke-width="1" stroke-linecap="square" stroke-linejoin="bevel" transform="matrix(0.885417,0,0,0.885417,6.19792,147.034)"
font-family="MS Shell Dlg 2" font-size="11.8056" font-weight="400" font-style="normal" 
>
</g>

<g fill="none" stroke="#000000" stroke-opacity="1" stroke-width="1" stroke-linecap="square" stroke-linejoin="bevel" transform="matrix(0.885417,0,0,0.885417,6.19792,147.034)"
font-family="MS Shell Dlg 2" font-size="13" font-weight="400" font-style="normal" 
>
<text fill="#000000" fill-opacity="1" stroke="none" xml:space="preserve" x="0" y="10" font-family="MS Shell Dlg 2" font-size="13" font-weight="400" font-style="normal" 
 >4,9e+06</text>
</g>

<g fill="none" stroke="#000000" stroke-opacity="1" stroke-width="1" stroke-linecap="square" stroke-linejoin="bevel" transform="matrix(0.885417,0,0,0.885417,6.19792,147.034)"
font-family="MS Shell Dlg 2" font-size="11.8056" font-weight="400" font-style="normal" 
>
</g>

<g fill="none" stroke="#000000" stroke-opacity="1" stroke-width="1" stroke-linecap="square" stroke-linejoin="bevel" transform="matrix(0.885417,0,0,0.885417,6.19792,147.034)"
font-family="MS Shell Dlg 2" font-size="11.8056" font-weight="400" font-style="normal" 
>
</g>

<g fill="none" stroke="#000000" stroke-opacity="1" stroke-width="1" stroke-linecap="square" stroke-linejoin="bevel" transform="matrix(0.885417,0,0,0.885417,0,0)"
font-family="MS Shell Dlg 2" font-size="11.8056" font-weight="400" font-style="normal" 
>
</g>

<g fill="none" stroke="#000000" stroke-opacity="1" stroke-width="1" stroke-linecap="square" stroke-linejoin="bevel" transform="matrix(0.885417,0,0,0.885417,0,0)"
font-family="MS Shell Dlg 2" font-size="11.8056" font-weight="400" font-style="normal" 
>
</g>

<g fill="none" stroke="#000000" stroke-opacity="1" stroke-width="1" stroke-linecap="butt" stroke-linejoin="bevel" transform="matrix(0.885417,0,0,0.885417,0,0)"
font-family="MS Shell Dlg 2" font-size="11.8056" font-weight="400" font-style="normal" 
>
<polyline fill="none" vector-effect="non-scaling-stroke" points="67,617.578 63,617.578 " />
<polyline fill="none" vector-effect="non-scaling-stroke" points="67,583.269 63,583.269 " />
<polyline fill="none" vector-effect="non-scaling-stroke" points="67,548.96 63,548.96 " />
<polyline fill="none" vector-effect="non-scaling-stroke" points="67,480.342 63,480.342 " />
<polyline fill="none" vector-effect="non-scaling-stroke" points="67,446.033 63,446.033 " />
<polyline fill="none" vector-effect="non-scaling-stroke" points="67,411.724 63,411.724 " />
<polyline fill="none" vector-effect="non-scaling-stroke" points="67,377.415 63,377.415 " />
<polyline fill="none" vector-effect="non-scaling-stroke" points="67,308.797 63,308.797 " />
<polyline fill="none" vector-effect="non-scaling-stroke" points="67,274.488 63,274.488 " />
<polyline fill="none" vector-effect="non-scaling-stroke" points="67,240.179 63,240.179 " />
<polyline fill="none" vector-effect="non-scaling-stroke" points="67,205.871 63,205.871 " />
<polyline fill="none" vector-effect="non-scaling-stroke" points="67,137.253 63,137.253 " />
<polyline fill="none" vector-effect="non-scaling-stroke" points="67,102.944 63,102.944 " />
<polyline fill="none" vector-effect="non-scaling-stroke" points="67,68.6348 63,68.6348 " />
<polyline fill="none" vector-effect="non-scaling-stroke" points="67,514.651 59,514.651 " />
<polyline fill="none" vector-effect="non-scaling-stroke" points="67,343.106 59,343.106 " />
<polyline fill="none" vector-effect="non-scaling-stroke" points="67,171.562 59,171.562 " />
</g>

<g fill="none" stroke="#000000" stroke-opacity="1" stroke-width="1" stroke-linecap="square" stroke-linejoin="bevel" transform="matrix(0.885417,0,0,0.885417,0,0)"
font-family="MS Shell Dlg 2" font-size="11.8056" font-weight="400" font-style="normal" 
>
</g>

<g fill="none" stroke="#000000" stroke-opacity="1" stroke-width="1" stroke-linecap="butt" stroke-linejoin="bevel" transform="matrix(0.885417,0,0,0.885417,0,0)"
font-family="MS Shell Dlg 2" font-size="11.8056" font-weight="400" font-style="normal" 
>
<polyline fill="none" vector-effect="non-scaling-stroke" points="67,39 67,647 " />
</g>

<g fill="none" stroke="#000000" stroke-opacity="1" stroke-width="1" stroke-linecap="square" stroke-linejoin="bevel" transform="matrix(0.885417,0,0,0.885417,0,0)"
font-family="MS Shell Dlg 2" font-size="11.8056" font-weight="400" font-style="normal" 
>
</g>

<g fill="none" stroke="#000000" stroke-opacity="1" stroke-width="1" stroke-linecap="square" stroke-linejoin="bevel" transform="matrix(0.885417,0,0,0.885417,0,0)"
font-family="MS Shell Dlg 2" font-size="11.8056" font-weight="400" font-style="normal" 
>
</g>

<g fill="none" stroke="#000000" stroke-opacity="1" stroke-width="1" stroke-linecap="square" stroke-linejoin="bevel" transform="matrix(0.885417,0,0,0.885417,0,0)"
font-family="MS Shell Dlg 2" font-size="9.73958" font-weight="400" font-style="normal" 
>
</g>

<g fill="none" stroke="#000000" stroke-opacity="1" stroke-width="1" stroke-linecap="square" stroke-linejoin="bevel" transform="matrix(0.885417,0,0,0.885417,60.2083,596.771)"
font-family="MS Shell Dlg 2" font-size="11.8056" font-weight="400" font-style="normal" 
>
</g>

<g fill="none" stroke="#000000" stroke-opacity="1" stroke-width="1" stroke-linecap="square" stroke-linejoin="bevel" transform="matrix(0.885417,0,0,0.885417,60.2083,596.771)"
font-family="MS Shell Dlg 2" font-size="12.9861" font-weight="400" font-style="normal" 
>
</g>

<g fill="none" stroke="#000000" stroke-opacity="1" stroke-width="1" stroke-linecap="square" stroke-linejoin="bevel" transform="matrix(0.885417,0,0,0.885417,60.2083,596.771)"
font-family="MS Shell Dlg 2" font-size="12.9861" font-weight="400" font-style="normal" 
>
</g>

<g fill="none" stroke="#000000" stroke-opacity="1" stroke-width="1" stroke-linecap="square" stroke-linejoin="bevel" transform="matrix(0.885417,0,0,0.885417,60.2083,596.771)"
font-family="MS Shell Dlg 2" font-size="11.8056" font-weight="400" font-style="normal" 
>
</g>

<g fill="none" stroke="#000000" stroke-opacity="1" stroke-width="1" stroke-linecap="square" stroke-linejoin="bevel" transform="matrix(0.885417,0,0,0.885417,0,0)"
font-family="MS Shell Dlg 2" font-size="9.73958" font-weight="400" font-style="normal" 
>
</g>

<g fill="none" stroke="#000000" stroke-opacity="1" stroke-width="1" stroke-linecap="square" stroke-linejoin="bevel" transform="matrix(0.885417,0,0,0.885417,0,0)"
font-family="MS Shell Dlg 2" font-size="11.8056" font-weight="400" font-style="normal" 
>
</g>

<g fill="none" stroke="#000000" stroke-opacity="1" stroke-width="1" stroke-linecap="square" stroke-linejoin="bevel" transform="matrix(0.885417,0,0,0.885417,76.2917,585.26)"
font-family="MS Shell Dlg 2" font-size="11.8056" font-weight="400" font-style="normal" 
>
</g>

<g fill="none" stroke="#000000" stroke-opacity="1" stroke-width="1" stroke-linecap="square" stroke-linejoin="bevel" transform="matrix(0.885417,0,0,0.885417,76.2917,585.26)"
font-family="MS Shell Dlg 2" font-size="13" font-weight="400" font-style="normal" 
>
<text fill="#000000" fill-opacity="1" stroke="none" xml:space="preserve" x="0" y="10" font-family="MS Shell Dlg 2" font-size="13" font-weight="400" font-style="normal" 
 >1 200</text>
</g>

<g fill="none" stroke="#000000" stroke-opacity="1" stroke-width="1" stroke-linecap="square" stroke-linejoin="bevel" transform="matrix(0.885417,0,0,0.885417,76.2917,585.26)"
font-family="MS Shell Dlg 2" font-size="11.8056" font-weight="400" font-style="normal" 
>
</g>

<g fill="none" stroke="#000000" stroke-opacity="1" stroke-width="1" stroke-linecap="square" stroke-linejoin="bevel" transform="matrix(0.885417,0,0,0.885417,76.2917,585.26)"
font-family="MS Shell Dlg 2" font-size="11.8056" font-weight="400" font-style="normal" 
>
</g>

<g fill="none" stroke="#000000" stroke-opacity="1" stroke-width="1" stroke-linecap="square" stroke-linejoin="bevel" transform="matrix(0.885417,0,0,0.885417,0,0)"
font-family="MS Shell Dlg 2" font-size="11.8056" font-weight="400" font-style="normal" 
>
</g>

<g fill="none" stroke="#000000" stroke-opacity="1" stroke-width="1" stroke-linecap="square" stroke-linejoin="bevel" transform="matrix(0.885417,0,0,0.885417,267.617,585.26)"
font-family="MS Shell Dlg 2" font-size="11.8056" font-weight="400" font-style="normal" 
>
</g>

<g fill="none" stroke="#000000" stroke-opacity="1" stroke-width="1" stroke-linecap="square" stroke-linejoin="bevel" transform="matrix(0.885417,0,0,0.885417,267.617,585.26)"
font-family="MS Shell Dlg 2" font-size="13" font-weight="400" font-style="normal" 
>
<text fill="#000000" fill-opacity="1" stroke="none" xml:space="preserve" x="0" y="10" font-family="MS Shell Dlg 2" font-size="13" font-weight="400" font-style="normal" 
 >1 220</text>
</g>

<g fill="none" stroke="#000000" stroke-opacity="1" stroke-width="1" stroke-linecap="square" stroke-linejoin="bevel" transform="matrix(0.885417,0,0,0.885417,267.617,585.26)"
font-family="MS Shell Dlg 2" font-size="11.8056" font-weight="400" font-style="normal" 
>
</g>

<g fill="none" stroke="#000000" stroke-opacity="1" stroke-width="1" stroke-linecap="square" stroke-linejoin="bevel" transform="matrix(0.885417,0,0,0.885417,267.617,585.26)"
font-family="MS Shell Dlg 2" font-size="11.8056" font-weight="400" font-style="normal" 
>
</g>

<g fill="none" stroke="#000000" stroke-opacity="1" stroke-width="1" stroke-linecap="square" stroke-linejoin="bevel" transform="matrix(0.885417,0,0,0.885417,0,0)"
font-family="MS Shell Dlg 2" font-size="11.8056" font-weight="400" font-style="normal" 
>
</g>

<g fill="none" stroke="#000000" stroke-opacity="1" stroke-width="1" stroke-linecap="square" stroke-linejoin="bevel" transform="matrix(0.885417,0,0,0.885417,458.942,585.26)"
font-family="MS Shell Dlg 2" font-size="11.8056" font-weight="400" font-style="normal" 
>
</g>

<g fill="none" stroke="#000000" stroke-opacity="1" stroke-width="1" stroke-linecap="square" stroke-linejoin="bevel" transform="matrix(0.885417,0,0,0.885417,458.942,585.26)"
font-family="MS Shell Dlg 2" font-size="13" font-weight="400" font-style="normal" 
>
<text fill="#000000" fill-opacity="1" stroke="none" xml:space="preserve" x="0" y="10" font-family="MS Shell Dlg 2" font-size="13" font-weight="400" font-style="normal" 
 >1 240</text>
</g>

<g fill="none" stroke="#000000" stroke-opacity="1" stroke-width="1" stroke-linecap="square" stroke-linejoin="bevel" transform="matrix(0.885417,0,0,0.885417,458.942,585.26)"
font-family="MS Shell Dlg 2" font-size="11.8056" font-weight="400" font-style="normal" 
>
</g>

<g fill="none" stroke="#000000" stroke-opacity="1" stroke-width="1" stroke-linecap="square" stroke-linejoin="bevel" transform="matrix(0.885417,0,0,0.885417,458.942,585.26)"
font-family="MS Shell Dlg 2" font-size="11.8056" font-weight="400" font-style="normal" 
>
</g>

<g fill="none" stroke="#000000" stroke-opacity="1" stroke-width="1" stroke-linecap="square" stroke-linejoin="bevel" transform="matrix(0.885417,0,0,0.885417,0,0)"
font-family="MS Shell Dlg 2" font-size="11.8056" font-weight="400" font-style="normal" 
>
</g>

<g fill="none" stroke="#000000" stroke-opacity="1" stroke-width="1" stroke-linecap="square" stroke-linejoin="bevel" transform="matrix(0.885417,0,0,0.885417,650.267,585.26)"
font-family="MS Shell Dlg 2" font-size="11.8056" font-weight="400" font-style="normal" 
>
</g>

<g fill="none" stroke="#000000" stroke-opacity="1" stroke-width="1" stroke-linecap="square" stroke-linejoin="bevel" transform="matrix(0.885417,0,0,0.885417,650.267,585.26)"
font-family="MS Shell Dlg 2" font-size="13" font-weight="400" font-style="normal" 
>
<text fill="#000000" fill-opacity="1" stroke="none" xml:space="preserve" x="0" y="10" font-family="MS Shell Dlg 2" font-size="13" font-weight="400" font-style="normal" 
 >1 260</text>
</g>

<g fill="none" stroke="#000000" stroke-opacity="1" stroke-width="1" stroke-linecap="square" stroke-linejoin="bevel" transform="matrix(0.885417,0,0,0.885417,650.267,585.26)"
font-family="MS Shell Dlg 2" font-size="11.8056" font-weight="400" font-style="normal" 
>
</g>

<g fill="none" stroke="#000000" stroke-opacity="1" stroke-width="1" stroke-linecap="square" stroke-linejoin="bevel" transform="matrix(0.885417,0,0,0.885417,650.267,585.26)"
font-family="MS Shell Dlg 2" font-size="11.8056" font-weight="400" font-style="normal" 
>
</g>

<g fill="none" stroke="#000000" stroke-opacity="1" stroke-width="1" stroke-linecap="square" stroke-linejoin="bevel" transform="matrix(0.885417,0,0,0.885417,0,0)"
font-family="MS Shell Dlg 2" font-size="11.8056" font-weight="400" font-style="normal" 
>
</g>

<g fill="none" stroke="#000000" stroke-opacity="1" stroke-width="1" stroke-linecap="square" stroke-linejoin="bevel" transform="matrix(0.885417,0,0,0.885417,841.593,585.26)"
font-family="MS Shell Dlg 2" font-size="11.8056" font-weight="400" font-style="normal" 
>
</g>

<g fill="none" stroke="#000000" stroke-opacity="1" stroke-width="1" stroke-linecap="square" stroke-linejoin="bevel" transform="matrix(0.885417,0,0,0.885417,841.593,585.26)"
font-family="MS Shell Dlg 2" font-size="13" font-weight="400" font-style="normal" 
>
<text fill="#000000" fill-opacity="1" stroke="none" xml:space="preserve" x="0" y="10" font-family="MS Shell Dlg 2" font-size="13" font-weight="400" font-style="normal" 
 >1 280</text>
</g>

<g fill="none" stroke="#000000" stroke-opacity="1" stroke-width="1" stroke-linecap="square" stroke-linejoin="bevel" transform="matrix(0.885417,0,0,0.885417,841.593,585.26)"
font-family="MS Shell Dlg 2" font-size="11.8056" font-weight="400" font-style="normal" 
>
</g>

<g fill="none" stroke="#000000" stroke-opacity="1" stroke-width="1" stroke-linecap="square" stroke-linejoin="bevel" transform="matrix(0.885417,0,0,0.885417,841.593,585.26)"
font-family="MS Shell Dlg 2" font-size="11.8056" font-weight="400" font-style="normal" 
>
</g>

<g fill="none" stroke="#000000" stroke-opacity="1" stroke-width="1" stroke-linecap="square" stroke-linejoin="bevel" transform="matrix(0.885417,0,0,0.885417,0,0)"
font-family="MS Shell Dlg 2" font-size="11.8056" font-weight="400" font-style="normal" 
>
</g>

<g fill="none" stroke="#000000" stroke-opacity="1" stroke-width="1" stroke-linecap="square" stroke-linejoin="bevel" transform="matrix(0.885417,0,0,0.885417,1032.92,585.26)"
font-family="MS Shell Dlg 2" font-size="11.8056" font-weight="400" font-style="normal" 
>
</g>

<g fill="none" stroke="#000000" stroke-opacity="1" stroke-width="1" stroke-linecap="square" stroke-linejoin="bevel" transform="matrix(0.885417,0,0,0.885417,1032.92,585.26)"
font-family="MS Shell Dlg 2" font-size="13" font-weight="400" font-style="normal" 
>
<text fill="#000000" fill-opacity="1" stroke="none" xml:space="preserve" x="0" y="10" font-family="MS Shell Dlg 2" font-size="13" font-weight="400" font-style="normal" 
 >1 300</text>
</g>

<g fill="none" stroke="#000000" stroke-opacity="1" stroke-width="1" stroke-linecap="square" stroke-linejoin="bevel" transform="matrix(0.885417,0,0,0.885417,1032.92,585.26)"
font-family="MS Shell Dlg 2" font-size="11.8056" font-weight="400" font-style="normal" 
>
</g>

<g fill="none" stroke="#000000" stroke-opacity="1" stroke-width="1" stroke-linecap="square" stroke-linejoin="bevel" transform="matrix(0.885417,0,0,0.885417,1032.92,585.26)"
font-family="MS Shell Dlg 2" font-size="11.8056" font-weight="400" font-style="normal" 
>
</g>

<g fill="none" stroke="#000000" stroke-opacity="1" stroke-width="1" stroke-linecap="square" stroke-linejoin="bevel" transform="matrix(0.885417,0,0,0.885417,0,0)"
font-family="MS Shell Dlg 2" font-size="11.8056" font-weight="400" font-style="normal" 
>
</g>

<g fill="none" stroke="#000000" stroke-opacity="1" stroke-width="1" stroke-linecap="square" stroke-linejoin="bevel" transform="matrix(0.885417,0,0,0.885417,0,0)"
font-family="MS Shell Dlg 2" font-size="11.8056" font-weight="400" font-style="normal" 
>
</g>

<g fill="none" stroke="#000000" stroke-opacity="1" stroke-width="1" stroke-linecap="butt" stroke-linejoin="bevel" transform="matrix(0.885417,0,0,0.885417,0,0)"
font-family="MS Shell Dlg 2" font-size="11.8056" font-weight="400" font-style="normal" 
>
<polyline fill="none" vector-effect="non-scaling-stroke" points="156.186,648 156.186,652 " />
<polyline fill="none" vector-effect="non-scaling-stroke" points="264.229,648 264.229,652 " />
<polyline fill="none" vector-effect="non-scaling-stroke" points="372.271,648 372.271,652 " />
<polyline fill="none" vector-effect="non-scaling-stroke" points="480.313,648 480.313,652 " />
<polyline fill="none" vector-effect="non-scaling-stroke" points="588.356,648 588.356,652 " />
<polyline fill="none" vector-effect="non-scaling-stroke" points="696.398,648 696.398,652 " />
<polyline fill="none" vector-effect="non-scaling-stroke" points="804.441,648 804.441,652 " />
<polyline fill="none" vector-effect="non-scaling-stroke" points="912.483,648 912.483,652 " />
<polyline fill="none" vector-effect="non-scaling-stroke" points="1020.53,648 1020.53,652 " />
<polyline fill="none" vector-effect="non-scaling-stroke" points="1128.57,648 1128.57,652 " />
<polyline fill="none" vector-effect="non-scaling-stroke" points="1236.61,648 1236.61,652 " />
<polyline fill="none" vector-effect="non-scaling-stroke" points="210.207,648 210.207,654 " />
<polyline fill="none" vector-effect="non-scaling-stroke" points="426.292,648 426.292,654 " />
<polyline fill="none" vector-effect="non-scaling-stroke" points="642.377,648 642.377,654 " />
<polyline fill="none" vector-effect="non-scaling-stroke" points="858.462,648 858.462,654 " />
<polyline fill="none" vector-effect="non-scaling-stroke" points="1074.55,648 1074.55,654 " />
<polyline fill="none" vector-effect="non-scaling-stroke" points="102.165,648 102.165,656 " />
<polyline fill="none" vector-effect="non-scaling-stroke" points="318.25,648 318.25,656 " />
<polyline fill="none" vector-effect="non-scaling-stroke" points="534.335,648 534.335,656 " />
<polyline fill="none" vector-effect="non-scaling-stroke" points="750.42,648 750.42,656 " />
<polyline fill="none" vector-effect="non-scaling-stroke" points="966.505,648 966.505,656 " />
<polyline fill="none" vector-effect="non-scaling-stroke" points="1182.59,648 1182.59,656 " />
</g>

<g fill="none" stroke="#000000" stroke-opacity="1" stroke-width="1" stroke-linecap="square" stroke-linejoin="bevel" transform="matrix(0.885417,0,0,0.885417,0,0)"
font-family="MS Shell Dlg 2" font-size="11.8056" font-weight="400" font-style="normal" 
>
</g>

<g fill="none" stroke="#000000" stroke-opacity="1" stroke-width="1" stroke-linecap="butt" stroke-linejoin="bevel" transform="matrix(0.885417,0,0,0.885417,0,0)"
font-family="MS Shell Dlg 2" font-size="11.8056" font-weight="400" font-style="normal" 
>
<polyline fill="none" vector-effect="non-scaling-stroke" points="68,648 1239,648 " />
</g>

<g fill="none" stroke="#000000" stroke-opacity="1" stroke-width="1" stroke-linecap="square" stroke-linejoin="bevel" transform="matrix(0.885417,0,0,0.885417,0,0)"
font-family="MS Shell Dlg 2" font-size="11.8056" font-weight="400" font-style="normal" 
>
</g>

<g fill="none" stroke="#000000" stroke-opacity="1" stroke-width="1" stroke-linecap="square" stroke-linejoin="bevel" transform="matrix(0.885417,0,0,0.885417,0,0)"
font-family="MS Shell Dlg 2" font-size="11.8056" font-weight="400" font-style="normal" 
>
</g>

<g fill="none" stroke="#000000" stroke-opacity="1" stroke-width="1" stroke-linecap="square" stroke-linejoin="bevel" transform="matrix(0.885417,0,0,0.885417,0,0)"
font-family="MS Shell Dlg 2" font-size="9.73958" font-weight="400" font-style="normal" 
>
</g>

<g fill="none" stroke="#000000" stroke-opacity="1" stroke-width="1" stroke-linecap="square" stroke-linejoin="bevel" transform="matrix(1,0,0,1,0,0)"
font-family="MS Shell Dlg 2" font-size="9.73958" font-weight="400" font-style="normal" 
>
</g>
</g>
</svg>
