<svg xmlns="http://www.w3.org/2000/svg" xmlns:xlink="http://www.w3.org/1999/xlink" x="0" y="0" width="1046.666748046875" height="769" style="
        width:1046.666748046875px;
        height:769px;
        background: transparent;
        fill: none;
">
        
        
        <svg xmlns="http://www.w3.org/2000/svg" class="role-diagram-draw-area"><g class="shapes-region" style="stroke: black; fill: none;"><g class="composite-shape"><path class="real" d=" M204.05,194.2 L803.66,536.49 L775.99,584.97 L176.38,242.68 Z" style="stroke-width: 2; stroke: rgb(0, 0, 0); fill: none; fill-opacity: 1;"/></g><g class="composite-shape"><path class="real" d=" M364,275.01 L461,329 L425.69,392.44 L328.69,338.45 Z" style="stroke-width: 1; stroke: rgb(0, 0, 0); fill: none; fill-opacity: 1; stroke-dasharray: 6, 6;"/></g><g class="composite-shape"><path class="real" d=" M507.26,358.6 L605,413 L569.69,476.44 L471.95,422.04 Z" style="stroke-width: 1; stroke: rgb(0, 0, 0); fill: none; fill-opacity: 1; stroke-dasharray: 6, 6;"/></g><g class="arrow-line"><path class="connection real" stroke-dasharray="1.125 3.35" d="  M15,196 L850,679" style="stroke: rgb(0, 0, 0); stroke-width: 1; fill: none; fill-opacity: 1;"/></g><g class="arrow-line"><path class="connection real" stroke-dasharray="1.125 3.35" d="  M156,166 L108,249" style="stroke: rgb(0, 0, 0); stroke-width: 1; fill: none; fill-opacity: 1;"/></g><g class="arrow-line"><path class="connection real" stroke-dasharray="1.125 3.35" d="  M82,186 L874,642" style="stroke: rgb(0, 0, 0); stroke-width: 1; fill: none; fill-opacity: 1;"/></g><g class="arrow-line"><path class="connection real" stroke-dasharray="1.125 3.35" d="  M107,137 L808.17,540.7 L899,593" style="stroke: rgb(0, 0, 0); stroke-width: 1; fill: none; fill-opacity: 1;"/></g><g class="arrow-line"><path class="connection real" stroke-dasharray="1.125 3.35" d="  M107,137 L59,220" style="stroke: rgb(0, 0, 0); stroke-width: 1; fill: none; fill-opacity: 1;"/></g><g class="arrow-line"><path class="connection real" stroke-dasharray="1.125 3.35" d="  M204.05,194.2 L156.05,277.2" style="stroke: rgb(0, 0, 0); stroke-width: 1; fill: none; fill-opacity: 1;"/></g><g class="arrow-line"><path class="connection real" stroke-dasharray="1.125 3.35" d="  M250.05,222.2 L202.05,305.2" style="stroke: rgb(0, 0, 0); stroke-width: 1; fill: none; fill-opacity: 1;"/></g><g class="arrow-line"><path class="connection real" stroke-dasharray="1.125 3.35" d="  M299.05,248.2 L251.05,331.2" style="stroke: rgb(0, 0, 0); stroke-width: 1; fill: none; fill-opacity: 1;"/></g><g class="arrow-line"><path class="connection real" stroke-dasharray="1.125 3.35" d="  M359.05,284.2 L311.05,367.2" style="stroke: rgb(0, 0, 0); stroke-width: 1; fill: none; fill-opacity: 1;"/></g><g class="arrow-line"><path class="connection real" stroke-dasharray="1.125 3.35" d="  M405.05,312.2 L357.05,395.2" style="stroke: rgb(0, 0, 0); stroke-width: 1; fill: none; fill-opacity: 1;"/></g><g class="arrow-line"><path class="connection real" stroke-dasharray="1.125 3.35" d="  M457.59,338.85 L409.59,421.85" style="stroke: rgb(0, 0, 0); stroke-width: 1; fill: none; fill-opacity: 1;"/></g><g class="arrow-line"><path class="connection real" stroke-dasharray="1.125 3.35" d="  M501.59,365.85 L453.59,448.85" style="stroke: rgb(0, 0, 0); stroke-width: 1; fill: none; fill-opacity: 1;"/></g><g class="arrow-line"><path class="connection real" stroke-dasharray="1.125 3.35" d="  M550.59,394.85 L502.59,477.85" style="stroke: rgb(0, 0, 0); stroke-width: 1; fill: none; fill-opacity: 1;"/></g><g class="arrow-line"><path class="connection real" stroke-dasharray="1.125 3.35" d="  M598.59,422.85 L550.59,505.85" style="stroke: rgb(0, 0, 0); stroke-width: 1; fill: none; fill-opacity: 1;"/></g><g class="arrow-line"><path class="connection real" stroke-dasharray="1.125 3.35" d="  M657.59,456.85 L609.59,539.85" style="stroke: rgb(0, 0, 0); stroke-width: 1; fill: none; fill-opacity: 1;"/></g><g class="arrow-line"><path class="connection real" stroke-dasharray="1.125 3.35" d="  M707.59,484.85 L659.59,567.85" style="stroke: rgb(0, 0, 0); stroke-width: 1; fill: none; fill-opacity: 1;"/></g><g class="arrow-line"><path class="connection real" stroke-dasharray="1.125 3.35" d="  M754.59,511.85 L706.59,594.85" style="stroke: rgb(0, 0, 0); stroke-width: 1; fill: none; fill-opacity: 1;"/></g><g class="arrow-line"><path class="connection real" stroke-dasharray="1.125 3.35" d="  M803.66,536.49 L755.66,619.49" style="stroke: rgb(0, 0, 0); stroke-width: 1; fill: none; fill-opacity: 1;"/></g><g class="arrow-line"><path class="connection real" stroke-dasharray="1.125 3.35" d="  M853.59,566.85 L805.59,649.85" style="stroke: rgb(0, 0, 0); stroke-width: 1; fill: none; fill-opacity: 1;"/></g><g class="arrow-line"><path class="connection real" stroke-dasharray="1.125 3.35" d="  M899,593 L851,676" style="stroke: rgb(0, 0, 0); stroke-width: 1; fill: none; fill-opacity: 1;"/></g><g class="arrow-line"><path class="connection real" stroke-dasharray="" d="  M327,264 L325,274 L339,264 L340,272" style="stroke: rgb(0, 0, 0); stroke-width: 1; fill: rgb(255, 255, 255); fill-opacity: 1;"/></g><g class="arrow-line"><path class="connection real" stroke-dasharray="" d="  M301,313 L299,323 L313,313 L314,321" style="stroke: rgb(0, 0, 0); stroke-width: 1; fill: rgb(255, 255, 255); fill-opacity: 1;"/></g><g class="arrow-line"><path class="connection real" stroke-dasharray="" d="  M626,435 L624,445 L638,435 L639,443" style="stroke: rgb(0, 0, 0); stroke-width: 1; fill: rgb(255, 255, 255); fill-opacity: 1;"/></g><g class="arrow-line"><path class="connection real" stroke-dasharray="" d="  M600,484 L598,494 L612,484 L613,492" style="stroke: rgb(0, 0, 0); stroke-width: 1; fill: rgb(255, 255, 255); fill-opacity: 1;"/></g><g class="arrow-line"><path class="connection real" stroke-dasharray="" d="  M387,329 L400.46,337.41" style="stroke: rgb(0, 0, 0); stroke-width: 1; fill: none; fill-opacity: 1;"/><g stroke="none" transform="matrix(-0.8479555948810784,-0.5300672684762533,0.5300672684762533,-0.8479555948810784,403,339)" style="stroke: none; stroke-width: 1; fill: rgb(0, 0, 0);" fill="#000"><path d=" M8.93,-4.29 L0,0 L8.93,4.29 Z"/></g></g><g class="arrow-line"><path class="connection real" stroke-dasharray="" d="  M483,384 L496.46,392.41" style="stroke: rgb(0, 0, 0); stroke-width: 1; fill: none; fill-opacity: 1;"/><g stroke="none" fill="#000" transform="matrix(-0.8479555948810784,-0.5300672684762533,0.5300672684762533,-0.8479555948810784,498.99999999999994,394)" style="stroke: none; fill: rgb(0, 0, 0); stroke-width: 1;"><path d=" M8.93,-4.29 L0,0 L8.93,4.29 Z"/></g></g><g class="arrow-line"><path class="connection real" stroke-dasharray="" d="  M577,441 L590.46,449.41" style="stroke: rgb(0, 0, 0); stroke-width: 1; fill: none; fill-opacity: 1;"/><g stroke="none" fill="#000" transform="matrix(-0.8479555948810784,-0.5300672684762533,0.5300672684762533,-0.8479555948810784,593,450.9999999999999)" style="stroke: none; fill: rgb(0, 0, 0); stroke-width: 1;"><path d=" M8.93,-4.29 L0,0 L8.93,4.29 Z"/></g></g><g class="arrow-line"><path class="connection real" stroke-dasharray="" d="  M639,474 L652.46,482.41" style="stroke: rgb(0, 0, 0); stroke-width: 1; fill: none; fill-opacity: 1;"/><g stroke="none" fill="#000" transform="matrix(-0.8479555948810784,-0.5300672684762533,0.5300672684762533,-0.8479555948810784,655,484)" style="stroke: none; fill: rgb(0, 0, 0); stroke-width: 1;"><path d=" M8.93,-4.29 L0,0 L8.93,4.29 Z"/></g></g><g class="arrow-line"><path class="connection real" stroke-dasharray="" d="  M734,528 L747.46,536.41" style="stroke: rgb(0, 0, 0); stroke-width: 1; fill: none; fill-opacity: 1;"/><g stroke="none" fill="#000" transform="matrix(-0.8479555948810784,-0.5300672684762533,0.5300672684762533,-0.8479555948810784,750,538)" style="stroke: none; fill: rgb(0, 0, 0); stroke-width: 1;"><path d=" M8.93,-4.29 L0,0 L8.93,4.29 Z"/></g></g><g class="arrow-line"><path class="connection real" stroke-dasharray="" d="  M232,239 L245.46,247.41" style="stroke: rgb(0, 0, 0); stroke-width: 1; fill: none; fill-opacity: 1;"/><g stroke="none" fill="#000" transform="matrix(-0.8479555948810784,-0.5300672684762533,0.5300672684762533,-0.8479555948810784,248.00000000000003,249)" style="stroke: none; fill: rgb(0, 0, 0); stroke-width: 1;"><path d=" M8.93,-4.29 L0,0 L8.93,4.29 Z"/></g></g><g class="composite-shape"><path class="real" d=" M189.44,217.67 C189.44,215.83 190.94,214.33 192.78,214.33 C194.62,214.33 196.11,215.83 196.11,217.67 C196.11,219.51 194.62,221 192.78,221 C190.94,221 189.44,219.51 189.44,217.67 Z" style="stroke-width: 1; stroke: rgb(0, 0, 0); fill: rgb(0, 0, 0); fill-opacity: 1;"/></g><g class="composite-shape"><path class="real" d=" M282.44,273.67 C282.44,271.83 283.94,270.33 285.78,270.33 C287.62,270.33 289.11,271.83 289.11,273.67 C289.11,275.51 287.62,277 285.78,277 C283.94,277 282.44,275.51 282.44,273.67 Z" style="stroke-width: 1; stroke: rgb(0, 0, 0); fill: rgb(0, 0, 0); fill-opacity: 1;"/></g><g class="composite-shape"><path class="real" d=" M343.44,308.67 C343.44,306.83 344.94,305.33 346.78,305.33 C348.62,305.33 350.11,306.83 350.11,308.67 C350.11,310.51 348.62,312 346.78,312 C344.94,312 343.44,310.51 343.44,308.67 Z" style="stroke-width: 1; stroke: rgb(0, 0, 0); fill: rgb(0, 0, 0); fill-opacity: 1;"/></g><g class="composite-shape"><path class="real" d=" M441.44,361.67 C441.44,359.83 442.94,358.33 444.78,358.33 C446.62,358.33 448.11,359.83 448.11,361.67 C448.11,363.51 446.62,365 444.78,365 C442.94,365 441.44,363.51 441.44,361.67 Z" style="stroke-width: 1; stroke: rgb(0, 0, 0); fill: rgb(0, 0, 0); fill-opacity: 1;"/></g><g class="composite-shape"><path class="real" d=" M531.81,417.52 C531.81,415.68 533.3,414.19 535.14,414.19 C536.98,414.19 538.48,415.68 538.48,417.52 C538.48,419.36 536.98,420.85 535.14,420.85 C533.3,420.85 531.81,419.36 531.81,417.52 Z" style="stroke-width: 1; stroke: rgb(0, 0, 0); fill: rgb(0, 0, 0); fill-opacity: 1;"/></g><g class="composite-shape"><path class="real" d=" M690.81,508.52 C690.81,506.68 692.3,505.19 694.14,505.19 C695.98,505.19 697.48,506.68 697.48,508.52 C697.48,510.36 695.98,511.85 694.14,511.85 C692.3,511.85 690.81,510.36 690.81,508.52 Z" style="stroke-width: 1; stroke: rgb(0, 0, 0); fill: rgb(0, 0, 0); fill-opacity: 1;"/></g><g class="composite-shape"><path class="real" d=" M784.81,561.52 C784.81,559.68 786.3,558.19 788.14,558.19 C789.98,558.19 791.48,559.68 791.48,561.52 C791.48,563.36 789.98,564.85 788.14,564.85 C786.3,564.85 784.81,563.36 784.81,561.52 Z" style="stroke-width: 1; stroke: rgb(0, 0, 0); fill: rgb(0, 0, 0); fill-opacity: 1;"/></g><g class="arrow-line"><path class="connection real" stroke-dasharray="" d="  M832.79,586.73 L841.16,591.96 M831.21,589.27 L839.57,594.5" style="stroke: rgb(0, 0, 0); stroke-width: 1; fill: rgb(255, 255, 255); fill-opacity: 1;"/><g stroke="none" fill="#000" transform="matrix(-0.8479555948810784,-0.5300672684762533,0.5300672684762533,-0.8479555948810784,847.9999999999999,598)" style="stroke: none; fill: rgb(0, 0, 0); stroke-width: 1;"><path d=" M8.93,-4.29 L0,0 L8.93,4.29 Z"/></g></g><g class="composite-shape"><path class="real" d=" M880.81,619.52 C880.81,617.68 882.3,616.19 884.14,616.19 C885.98,616.19 887.48,617.68 887.48,619.52 C887.48,621.36 885.98,622.85 884.14,622.85 C882.3,622.85 880.81,621.36 880.81,619.52 Z" style="stroke-width: 1; stroke: rgb(0, 0, 0); fill: rgb(255, 255, 255); fill-opacity: 1;"/></g><g class="arrow-line"><path class="connection real" stroke-dasharray="" d="  M137.79,180.73 L146.16,185.96 M136.21,183.27 L144.57,188.5" style="stroke: rgb(0, 0, 0); stroke-width: 1; fill: rgb(255, 255, 255); fill-opacity: 1;"/><g stroke="none" fill="#000" transform="matrix(-0.8479555948810784,-0.5300672684762533,0.5300672684762533,-0.8479555948810784,153,192)" style="stroke: none; fill: rgb(0, 0, 0); stroke-width: 1;"><path d=" M8.93,-4.29 L0,0 L8.93,4.29 Z"/></g></g><g class="composite-shape"><path class="real" d=" M90.81,156.52 C90.81,154.68 92.3,153.19 94.14,153.19 C95.98,153.19 97.48,154.68 97.48,156.52 C97.48,158.36 95.98,159.85 94.14,159.85 C92.3,159.85 90.81,158.36 90.81,156.52 Z" style="stroke-width: 1; stroke: rgb(0, 0, 0); fill: rgb(255, 255, 255); fill-opacity: 1;"/></g><g class="composite-shape"><path class="real" d=" M125.26,133.57 C130.34,127.22 138.24,123.84 145.62,124.87 C152.99,125.9 158.54,131.16 159.92,138.43 C164.79,136.67 169.89,137.22 173.68,139.91 C177.47,142.6 179.51,147.12 179.17,152.09 C183.5,150.41 188.09,150.99 191.31,153.61 C194.53,156.23 195.92,160.53 195,164.98 C200.56,164.19 205.65,166.64 208.07,171.27 C210.48,175.91 209.79,181.89 206.29,186.63 C208.26,190.45 208.33,195.17 206.5,199.57 C204.67,203.97 201.11,207.62 196.75,209.58 C195.3,216.69 190.25,223 183.48,226.16 C176.72,229.32 169.26,228.87 163.89,224.96 C159.16,229.56 152.63,231.57 146.82,230.21 C141.01,228.85 136.83,224.33 135.89,218.4 C128.8,222.47 120.54,222.39 114.68,218.19 C108.83,213.98 106.42,206.41 108.5,198.75 C102.66,197.64 97.84,194.15 95.13,189.06 C92.43,183.96 92.07,177.69 94.13,171.67 C90.14,168.58 88.86,163.05 90.92,157.83 C92.99,152.6 97.96,148.79 103.37,148.28 C102.38,142.99 105.03,137.17 109.95,133.86 C114.86,130.55 120.92,130.49 124.97,133.72" style="stroke-width: 1; stroke: rgb(144, 19, 254); fill: none; fill-opacity: 1; stroke-opacity: 1;"/><path class="real" d=" M103.37,148.28 C103.84,150.78 105.08,152.96 106.95,154.54 M94.13,171.67 C94.97,172.31 95.9,172.83 96.9,173.22 M108.5,198.75 C108.89,197.33 109.42,195.94 110.09,194.6 M135.89,218.4 C137.18,217.65 138.41,216.79 139.55,215.81 M163.89,224.95 C168.93,220.05 171.06,213.05 169.38,206.97 M196.75,209.58 C194.42,210.63 191.95,211.15 189.54,211.11 M206.29,186.63 C205.71,187.42 205.06,188.16 204.35,188.84 M195,164.98 C193.61,165.18 192.23,165.57 190.91,166.15 M179.17,152.09 C178.13,152.49 177.13,153.01 176.18,153.65 M159.92,138.43 C160.21,139.96 160.31,141.55 160.21,143.16 M125.26,133.57 C124.56,134.45 123.93,135.37 123.36,136.33" style="stroke-width: 1; stroke: rgb(144, 19, 254); fill: none; fill-opacity: 1; stroke-opacity: 1;"/></g><g class="composite-shape"><path class="real" d=" M219.52,204.1 C224.65,197.84 232.26,194.23 239.14,194.78 C246.01,195.33 250.94,199.96 251.82,206.7 C256.5,204.78 261.26,205.01 264.68,207.32 C268.09,209.63 269.75,213.75 269.15,218.44 C273.32,216.62 277.6,216.9 280.48,219.19 C283.36,221.47 284.43,225.42 283.31,229.65 C288.58,228.59 293.23,230.61 295.24,234.82 C297.25,239.03 296.26,244.69 292.7,249.34 C294.34,252.81 294.14,257.24 292.18,261.47 C290.21,265.71 286.66,269.33 282.44,271.42 C280.67,278.17 275.57,284.38 269.04,287.73 C262.5,291.08 255.51,291.07 250.68,287.7 C245.98,292.29 239.73,294.54 234.34,293.59 C228.96,292.64 225.28,288.64 224.72,283.12 C217.83,287.35 210.07,287.73 204.8,284.12 C199.53,280.5 197.7,273.53 200.09,266.22 C194.65,265.51 190.32,262.51 188.06,257.88 C185.81,253.25 185.82,247.38 188.1,241.61 C184.52,238.94 183.63,233.82 185.87,228.8 C188.1,223.78 192.99,219.92 198.1,219.14 C197.47,214.23 200.29,208.62 205.1,205.23 C209.91,201.84 215.61,201.45 219.23,204.25" style="stroke-width: 1; stroke: rgb(144, 19, 254); fill: none; fill-opacity: 1; stroke-opacity: 1;"/><path class="real" d=" M198.1,219.14 C198.4,221.46 199.45,223.43 201.12,224.81 M188.1,241.61 C188.85,242.17 189.7,242.61 190.62,242.91 M200.09,266.22 C200.53,264.87 201.1,263.54 201.81,262.24 M224.72,283.12 C225.98,282.35 227.19,281.47 228.32,280.49 M250.68,287.7 C255.69,282.81 258.1,276.12 256.86,270.51 M282.44,271.42 C280.19,272.53 277.84,273.16 275.57,273.26 M292.7,249.34 C292.11,250.11 291.46,250.84 290.76,251.52 M283.31,229.65 C281.99,229.91 280.67,230.36 279.39,230.98 M269.15,218.44 C268.15,218.88 267.18,219.42 266.26,220.07 M251.82,206.7 C252.01,208.12 252.01,209.61 251.83,211.13 M219.52,204.1 C218.81,204.96 218.16,205.86 217.57,206.79" style="stroke-width: 1; stroke: rgb(144, 19, 254); fill: none; fill-opacity: 1; stroke-opacity: 1;"/></g><g class="composite-shape"><path class="real" d=" M849.19,585.77 C852,580.16 857.99,576.85 864.63,577.25 C871.26,577.65 877.36,581.68 880.35,587.65 C884.13,585.88 888.68,586.02 892.62,588.03 C896.57,590.03 899.44,593.66 900.38,597.83 C903.71,596.16 907.82,596.35 911.26,598.34 C914.69,600.32 916.96,603.82 917.26,607.58 C921.88,606.57 926.88,608.29 930.12,612 C933.36,615.71 934.24,620.74 932.39,624.91 C935.04,627.97 936.27,631.9 935.78,635.68 C935.29,639.46 933.12,642.73 929.83,644.63 C930.33,650.64 927.53,656.22 922.47,659.27 C917.41,662.33 910.85,662.42 905.23,659.5 C902.28,663.63 897.14,665.71 891.78,664.94 C886.42,664.17 881.68,660.67 879.39,655.78 C874.27,659.62 867.11,660.07 861.01,656.93 C854.9,653.8 850.95,647.64 850.85,641.12 C845.52,640.57 840.49,637.96 836.89,633.89 C833.29,629.81 831.42,624.61 831.71,619.46 C827.5,617.14 825.02,612.61 825.51,608.13 C826,603.65 829.35,600.16 833.9,599.4 C831.73,595.05 832.59,590.04 836.02,586.97 C839.44,583.9 844.67,583.48 848.97,585.91" style="stroke-width: 1; stroke: rgb(144, 19, 254); stroke-opacity: 1; fill: none; fill-opacity: 1;"/><path class="real" d=" M833.9,599.4 C834.93,601.45 836.55,603.19 838.55,604.39 M831.71,619.46 C832.59,619.95 833.53,620.32 834.49,620.58 M850.85,641.12 C850.83,639.92 850.94,638.73 851.19,637.57 M879.39,655.78 C880.33,655.08 881.17,654.28 881.92,653.4 M905.23,659.5 C908.37,655.09 908.48,649.13 905.52,644.16 M929.83,644.63 C928.07,645.65 926.07,646.24 923.97,646.35 M932.39,624.91 C932.08,625.61 931.71,626.26 931.26,626.87 M917.26,607.58 C916.11,607.83 915.02,608.25 914.02,608.81 M900.38,597.83 C899.59,598.23 898.85,598.73 898.19,599.31 M880.35,587.65 C880.98,588.91 881.46,590.23 881.78,591.58 M849.19,585.77 C848.8,586.55 848.48,587.35 848.23,588.19" style="stroke-width: 1; stroke: rgb(144, 19, 254); stroke-opacity: 1; fill: none; fill-opacity: 1;"/></g><g class="composite-shape"><path class="real" d=" M747.4,519.22 C750.28,513.65 756.04,510.18 762.24,510.28 C768.44,510.37 773.99,514.02 776.53,519.67 C780.15,517.79 784.4,517.73 788.01,519.5 C791.62,521.27 794.16,524.66 794.86,528.66 C798.05,526.9 801.9,526.9 805.03,528.68 C808.16,530.45 810.14,533.74 810.26,537.37 C814.62,536.19 819.24,537.64 822.12,541.1 C824.99,544.55 825.6,549.38 823.68,553.51 C826.02,556.36 827.01,560.11 826.39,563.8 C825.76,567.48 823.58,570.74 820.41,572.74 C820.62,578.54 817.75,584.06 812.87,587.25 C807.99,590.44 801.84,590.81 796.7,588.22 C793.76,592.36 788.84,594.6 783.85,594.09 C778.86,593.58 774.57,590.39 772.64,585.76 C767.67,589.7 760.94,590.45 755.36,587.68 C749.77,584.91 746.33,579.11 746.53,572.8 C741.56,572.49 736.95,570.19 733.76,566.39 C730.56,562.6 729.04,557.64 729.54,552.64 C725.69,550.57 723.56,546.29 724.22,541.93 C724.87,537.56 728.17,534.03 732.47,533.1 C730.63,528.98 731.65,524.08 735,520.96 C738.34,517.83 743.26,517.19 747.19,519.36" style="stroke-width: 1; stroke: rgb(144, 19, 254); stroke-opacity: 1; fill: none; fill-opacity: 1;"/><path class="real" d=" M732.47,533.09 C733.34,535.04 734.78,536.66 736.61,537.73 M729.54,552.64 C730.34,553.07 731.2,553.39 732.09,553.6 M746.53,572.8 C746.56,571.63 746.72,570.47 747,569.34 M772.64,585.76 C773.55,585.04 774.38,584.22 775.12,583.33 M796.7,588.22 C799.84,583.82 800.2,578.03 797.64,573.35 M820.41,572.74 C818.72,573.8 816.81,574.46 814.84,574.66 M823.68,553.51 C823.36,554.19 822.98,554.85 822.53,555.46 M810.26,537.37 C809.17,537.67 808.12,538.12 807.16,538.71 M794.86,528.66 C794.09,529.08 793.38,529.6 792.74,530.2 M776.53,519.67 C777.06,520.87 777.46,522.12 777.69,523.42 M747.4,519.22 C747,519.99 746.66,520.78 746.39,521.6" style="stroke-width: 1; stroke: rgb(144, 19, 254); stroke-opacity: 1; fill: none; fill-opacity: 1;"/></g><g class="arrow-line"><path class="connection real" stroke-dasharray="" d="  M914,544 L882.18,587.39" style="stroke: rgb(0, 0, 0); stroke-width: 1; fill: none; fill-opacity: 1;"/><g stroke="#000" transform="matrix(0.591309648363582,-0.8064446042674829,0.8064446042674829,0.591309648363582,881,589)" style="stroke: rgb(0, 0, 0); stroke-width: 1;"><path d=" M10.93,-3.29 Q4.96,-0.45 0,0 Q4.96,0.45 10.93,3.29"/></g></g><g class="arrow-line"><path class="connection real" stroke-dasharray="" d="  M804,420 L773.29,512.59" style="stroke: rgb(0, 0, 0); stroke-width: 1; fill: none; fill-opacity: 1;"/><g stroke="#000" transform="matrix(0.3148208663321464,-0.9491511060531284,0.9491511060531284,0.3148208663321464,772.6598205787388,514.4907513361854)" style="stroke: rgb(0, 0, 0); stroke-width: 1;"><path d=" M10.93,-3.29 Q4.96,-0.45 0,0 Q4.96,0.45 10.93,3.29"/></g></g><g class="arrow-line"><path class="connection real" stroke-dasharray="" d="  M184,30 L153.29,122.59" style="stroke: rgb(0, 0, 0); stroke-width: 1; fill: none; fill-opacity: 1;"/><g stroke="#000" transform="matrix(0.3148208663321464,-0.9491511060531284,0.9491511060531284,0.3148208663321464,152.65982057873885,124.49075133618544)" style="stroke: rgb(0, 0, 0); stroke-width: 1;"><path d=" M10.93,-3.29 Q4.96,-0.45 0,0 Q4.96,0.45 10.93,3.29"/></g></g><g class="arrow-line"><path class="connection real" stroke-dasharray="" d="  M282,104 L251.29,196.59" style="stroke: rgb(0, 0, 0); stroke-width: 1; fill: none; fill-opacity: 1;"/><g stroke="#000" transform="matrix(0.3148208663321464,-0.9491511060531284,0.9491511060531284,0.3148208663321464,250.65982057873885,198.49075133618544)" style="stroke: rgb(0, 0, 0); stroke-width: 1;"><path d=" M10.93,-3.29 Q4.96,-0.45 0,0 Q4.96,0.45 10.93,3.29"/></g></g><g class="arrow-line"><path class="connection real" stroke-dasharray="" d="  M406,185 L375.29,277.59" style="stroke: rgb(0, 0, 0); stroke-width: 1; fill: none; fill-opacity: 1;"/><g stroke="#000" transform="matrix(0.3148208663321464,-0.9491511060531284,0.9491511060531284,0.3148208663321464,374.65982057873885,279.4907513361855)" style="stroke: rgb(0, 0, 0); stroke-width: 1;"><path d=" M10.93,-3.29 Q4.96,-0.45 0,0 Q4.96,0.45 10.93,3.29"/></g></g><g class="arrow-line"><path class="connection real" stroke-dasharray="" d="  M563,277 L532.29,369.59" style="stroke: rgb(0, 0, 0); stroke-width: 1; fill: none; fill-opacity: 1;"/><g stroke="#000" transform="matrix(0.3148208663321464,-0.9491511060531284,0.9491511060531284,0.3148208663321464,531.6598205787388,371.4907513361855)" style="stroke: rgb(0, 0, 0); stroke-width: 1;"><path d=" M10.93,-3.29 Q4.96,-0.45 0,0 Q4.96,0.45 10.93,3.29"/></g></g><g class="arrow-line"><path class="connection real" stroke-dasharray="" d="  M16.74,296.99 L705.26,687.01" style="stroke: rgb(0, 0, 0); stroke-width: 1; fill: none; fill-opacity: 1;"/><g stroke="#000" transform="matrix(-0.8700977442720598,-0.4928792097590173,0.4928792097590173,-0.8700977442720598,707,688)" style="stroke: rgb(0, 0, 0); stroke-width: 1;"><path d=" M10.93,-3.29 Q4.96,-0.45 0,0 Q4.96,0.45 10.93,3.29"/></g><g stroke="#000" transform="matrix(0.8700977442720597,0.49287920975901744,-0.49287920975901744,0.8700977442720597,15,296)" style="stroke: rgb(0, 0, 0); stroke-width: 1;"><path d=" M10.93,-3.29 Q4.96,-0.45 0,0 Q4.96,0.45 10.93,3.29"/></g></g><g/></g><g/><g/><g/></svg>
        <svg xmlns="http://www.w3.org/2000/svg" xmlns:xlink="http://www.w3.org/1999/xlink" width="1044" height="766.3333740234375" style="width:1044px;height:766.3333740234375px;font-family:Asana-Math, Asana;background:transparent;"><g transform="matrix(0.8250148803678496,0.5651110042917433,-0.5651110042917433,0.8250148803678496,140.81993469342848,11.891475918398555)"><g><g><g transform="matrix(1,0,0,1,41.354156494140625,237.8125)"><path transform="matrix(0.017,0,0,-0.017,0,0)" d="M416 25L416 -3C464 -1 509 0 551 0C591 0 636 -1 684 -3L684 25L659 27C618 30 605 37 591 61L420 368L641 620C671 653 680 659 706 662L734 664L734 692L620 689C608 689 594 689 505 692L505 664L538 662C570 660 583 655 583 643C583 632 578 623 560 601L399 405L295 604C286 622 281 634 281 642C281 654 294 660 324 662L361 664L361 692L315 691C274 690 244 689 228 689C211 689 181 690 140 691L95 692L95 664L121 662C170 657 182 650 202 613L348 343L110 61C95 43 72 31 48 28L20 25L20 -3C69 -1 110 0 145 0C181 0 221 -1 264 -3L264 25L232 28C194 32 177 38 177 50C177 58 181 67 187 75L369 306L488 80C497 62 502 49 502 40C502 32 495 29 470 29L454 28Z" stroke="rgb(0,0,0)" stroke-opacity="1" stroke-width="0" fill="rgb(0,0,0)" fill-opacity="1"></path></g></g><g><g><g><g><g transform="matrix(1,0,0,1,54.125,242.15)"><path transform="matrix(0.0119,0,0,-0.0119,0,0)" d="M418 -3L418 27L366 30C311 33 301 44 301 96L301 700L60 598L67 548L217 614L217 96C217 44 206 33 152 30L96 27L96 -3C250 0 250 0 261 0C292 0 402 -3 418 -3Z" stroke="rgb(0,0,0)" stroke-opacity="1" stroke-width="0" fill="rgb(0,0,0)" fill-opacity="1"></path></g></g></g></g></g></g></g><g transform="matrix(0.8828656411661311,0.4696256590608271,-0.4696256590608271,0.8828656411661311,135.4132816589348,-16.2027946359745)"><g><g><g transform="matrix(1,0,0,1,90.33332824707031,267.8333435058594)"><path transform="matrix(0.017,0,0,-0.017,0,0)" d="M416 25L416 -3C464 -1 509 0 551 0C591 0 636 -1 684 -3L684 25L659 27C618 30 605 37 591 61L420 368L641 620C671 653 680 659 706 662L734 664L734 692L620 689C608 689 594 689 505 692L505 664L538 662C570 660 583 655 583 643C583 632 578 623 560 601L399 405L295 604C286 622 281 634 281 642C281 654 294 660 324 662L361 664L361 692L315 691C274 690 244 689 228 689C211 689 181 690 140 691L95 692L95 664L121 662C170 657 182 650 202 613L348 343L110 61C95 43 72 31 48 28L20 25L20 -3C69 -1 110 0 145 0C181 0 221 -1 264 -3L264 25L232 28C194 32 177 38 177 50C177 58 181 67 187 75L369 306L488 80C497 62 502 49 502 40C502 32 495 29 470 29L454 28Z" stroke="rgb(0,0,0)" stroke-opacity="1" stroke-width="0" fill="rgb(0,0,0)" fill-opacity="1"></path></g></g><g><g><g><g><g transform="matrix(1,0,0,1,103.10415649414062,272.17084350585935)"><path transform="matrix(0.0119,0,0,-0.0119,0,0)" d="M16 23L16 -3C203 -3 203 0 239 0C275 0 275 -3 468 -3L468 82C353 77 307 81 122 77L304 270C401 373 431 428 431 503C431 618 353 689 226 689C154 689 105 669 56 619L39 483L68 483L81 529C97 587 133 612 200 612C286 612 341 558 341 473C341 398 299 324 186 204Z" stroke="rgb(0,0,0)" stroke-opacity="1" stroke-width="0" fill="rgb(0,0,0)" fill-opacity="1"></path></g></g></g></g></g></g></g><g transform="matrix(0.8250148803678496,0.5651110042917433,-0.5651110042917433,0.8250148803678496,188.83444088839764,-35.17042805063966)"><g><g><g transform="matrix(1,0,0,1,141.35415649414062,291.8125)"><path transform="matrix(0.017,0,0,-0.017,0,0)" d="M416 25L416 -3C464 -1 509 0 551 0C591 0 636 -1 684 -3L684 25L659 27C618 30 605 37 591 61L420 368L641 620C671 653 680 659 706 662L734 664L734 692L620 689C608 689 594 689 505 692L505 664L538 662C570 660 583 655 583 643C583 632 578 623 560 601L399 405L295 604C286 622 281 634 281 642C281 654 294 660 324 662L361 664L361 692L315 691C274 690 244 689 228 689C211 689 181 690 140 691L95 692L95 664L121 662C170 657 182 650 202 613L348 343L110 61C95 43 72 31 48 28L20 25L20 -3C69 -1 110 0 145 0C181 0 221 -1 264 -3L264 25L232 28C194 32 177 38 177 50C177 58 181 67 187 75L369 306L488 80C497 62 502 49 502 40C502 32 495 29 470 29L454 28Z" stroke="rgb(0,0,0)" stroke-opacity="1" stroke-width="0" fill="rgb(0,0,0)" fill-opacity="1"></path></g></g><g><g><g><g><g transform="matrix(1,0,0,1,154.125,296.15)"><path transform="matrix(0.0119,0,0,-0.0119,0,0)" d="M462 224C462 345 355 366 308 374C388 436 418 482 418 541C418 630 344 689 233 689C165 689 120 670 72 622L43 498L74 498L92 554C103 588 166 622 218 622C283 622 336 569 336 506C336 431 277 368 206 368C198 368 187 369 174 370L159 371L147 318L154 312C192 329 211 334 238 334C321 334 369 281 369 190C369 88 308 21 215 21C169 21 128 36 98 64C74 86 61 109 42 163L15 153C36 92 44 56 50 6C103 -12 147 -20 184 -20C307 -20 462 87 462 224Z" stroke="rgb(0,0,0)" stroke-opacity="1" stroke-width="0" fill="rgb(0,0,0)" fill-opacity="1"></path></g></g></g></g></g></g></g><g transform="matrix(0.8250148803678496,0.5651110042917433,-0.5651110042917433,0.8250148803678496,198.50375949437938,-24.022302425614896)"><g><g><g transform="matrix(1,0,0,1,129.60415649414062,313)"><path transform="matrix(0.017,0,0,-0.017,0,0)" d="M108 471C108 386 146 339 230 319L325 296C379 283 406 248 406 191C406 96 335 30 232 30C178 30 140 42 96 73L96 172L66 172C60 117 53 72 42 20C91 -5 144 -18 197 -18C352 -18 485 99 485 234C485 313 442 355 341 377L276 391C210 405 180 442 180 508C180 595 247 658 339 658C388 658 421 645 451 613L451 537L481 537C485 591 492 629 506 672C461 696 421 706 374 706C250 706 108 614 108 471Z" stroke="rgb(0,0,0)" stroke-opacity="1" stroke-width="0" fill="rgb(0,0,0)" fill-opacity="1"></path></g></g><g><g><g><g><g transform="matrix(1,0,0,1,139.54165649414062,317.3375)"><path transform="matrix(0.0119,0,0,-0.0119,0,0)" d="M418 -3L418 27L366 30C311 33 301 44 301 96L301 700L60 598L67 548L217 614L217 96C217 44 206 33 152 30L96 27L96 -3C250 0 250 0 261 0C292 0 402 -3 418 -3Z" stroke="rgb(0,0,0)" stroke-opacity="1" stroke-width="0" fill="rgb(0,0,0)" fill-opacity="1"></path></g></g></g></g></g></g></g><g transform="matrix(0.8250148803678496,0.5651110042917433,-0.5651110042917433,0.8250148803678496,213.75425501792037,-54.690143981434915)"><g><g><g transform="matrix(1,0,0,1,184.8125,323.28125)"><path transform="matrix(0.017,0,0,-0.017,0,0)" d="M416 25L416 -3C464 -1 509 0 551 0C591 0 636 -1 684 -3L684 25L659 27C618 30 605 37 591 61L420 368L641 620C671 653 680 659 706 662L734 664L734 692L620 689C608 689 594 689 505 692L505 664L538 662C570 660 583 655 583 643C583 632 578 623 560 601L399 405L295 604C286 622 281 634 281 642C281 654 294 660 324 662L361 664L361 692L315 691C274 690 244 689 228 689C211 689 181 690 140 691L95 692L95 664L121 662C170 657 182 650 202 613L348 343L110 61C95 43 72 31 48 28L20 25L20 -3C69 -1 110 0 145 0C181 0 221 -1 264 -3L264 25L232 28C194 32 177 38 177 50C177 58 181 67 187 75L369 306L488 80C497 62 502 49 502 40C502 32 495 29 470 29L454 28ZM1001 181L1001 106C1001 46 990 32 941 30L879 27L879 -3C1012 0 1012 0 1036 0C1060 0 1060 0 1193 -3L1193 27L1145 30C1096 33 1085 46 1085 106L1085 181C1144 181 1165 180 1193 177L1193 248L1085 245L1086 697L1006 667L723 204L723 181ZM1001 245L786 245L1001 597Z" stroke="rgb(0,0,0)" stroke-opacity="1" stroke-width="0" fill="rgb(0,0,0)" fill-opacity="1"></path></g></g></g></g><g transform="matrix(0.8250148803678496,0.5651110042917433,-0.5651110042917433,0.8250148803678496,222.52332531848174,-39.71795708356717)"><g><g><g transform="matrix(1,0,0,1,165.30209350585938,343.9375)"><path transform="matrix(0.017,0,0,-0.017,0,0)" d="M108 471C108 386 146 339 230 319L325 296C379 283 406 248 406 191C406 96 335 30 232 30C178 30 140 42 96 73L96 172L66 172C60 117 53 72 42 20C91 -5 144 -18 197 -18C352 -18 485 99 485 234C485 313 442 355 341 377L276 391C210 405 180 442 180 508C180 595 247 658 339 658C388 658 421 645 451 613L451 537L481 537C485 591 492 629 506 672C461 696 421 706 374 706C250 706 108 614 108 471Z" stroke="rgb(0,0,0)" stroke-opacity="1" stroke-width="0" fill="rgb(0,0,0)" fill-opacity="1"></path></g></g><g><g><g><g><g transform="matrix(1,0,0,1,175.23959350585938,348.275)"><path transform="matrix(0.0119,0,0,-0.0119,0,0)" d="M582 103L237 692L75 692L70 664L105 662C150 660 184 615 185 606L92 102C80 40 74 32 38 28L7 25L2 -3L113 0C125 0 126 0 223 -3L228 25L186 28C146 31 137 39 137 72C137 80 138 91 140 102L220 566L558 -11L608 -11L702 542C723 655 725 659 762 662L799 664L802 691L589 692L584 664L631 662C657 661 667 654 667 638C667 631 584 116 582 103Z" stroke="rgb(0,0,0)" stroke-opacity="1" stroke-width="0" fill="rgb(0,0,0)" fill-opacity="1"></path></g></g></g></g></g></g></g><g transform="matrix(0.8250148803678496,0.5651110042917433,-0.5651110042917433,0.8250148803678496,244.06849126031764,-63.172646994446666)"><g><g><g transform="matrix(1,0,0,1,215.60415649414062,367)"><path transform="matrix(0.017,0,0,-0.017,0,0)" d="M108 471C108 386 146 339 230 319L325 296C379 283 406 248 406 191C406 96 335 30 232 30C178 30 140 42 96 73L96 172L66 172C60 117 53 72 42 20C91 -5 144 -18 197 -18C352 -18 485 99 485 234C485 313 442 355 341 377L276 391C210 405 180 442 180 508C180 595 247 658 339 658C388 658 421 645 451 613L451 537L481 537C485 591 492 629 506 672C461 696 421 706 374 706C250 706 108 614 108 471Z" stroke="rgb(0,0,0)" stroke-opacity="1" stroke-width="0" fill="rgb(0,0,0)" fill-opacity="1"></path></g></g><g><g><g><g><g transform="matrix(1,0,0,1,225.54165649414062,371.3375)"><path transform="matrix(0.0119,0,0,-0.0119,0,0)" d="M16 23L16 -3C203 -3 203 0 239 0C275 0 275 -3 468 -3L468 82C353 77 307 81 122 77L304 270C401 373 431 428 431 503C431 618 353 689 226 689C154 689 105 669 56 619L39 483L68 483L81 529C97 587 133 612 200 612C286 612 341 558 341 473C341 398 299 324 186 204Z" stroke="rgb(0,0,0)" stroke-opacity="1" stroke-width="0" fill="rgb(0,0,0)" fill-opacity="1"></path></g></g></g></g></g></g></g><g transform="matrix(0.8250148803678496,0.5651110042917433,-0.5651110042917433,0.8250148803678496,235.44908337212885,-77.71143864522185)"><g><g><g transform="matrix(1,0,0,1,233.35415649414062,345.8125)"><path transform="matrix(0.017,0,0,-0.017,0,0)" d="M416 25L416 -3C464 -1 509 0 551 0C591 0 636 -1 684 -3L684 25L659 27C618 30 605 37 591 61L420 368L641 620C671 653 680 659 706 662L734 664L734 692L620 689C608 689 594 689 505 692L505 664L538 662C570 660 583 655 583 643C583 632 578 623 560 601L399 405L295 604C286 622 281 634 281 642C281 654 294 660 324 662L361 664L361 692L315 691C274 690 244 689 228 689C211 689 181 690 140 691L95 692L95 664L121 662C170 657 182 650 202 613L348 343L110 61C95 43 72 31 48 28L20 25L20 -3C69 -1 110 0 145 0C181 0 221 -1 264 -3L264 25L232 28C194 32 177 38 177 50C177 58 181 67 187 75L369 306L488 80C497 62 502 49 502 40C502 32 495 29 470 29L454 28Z" stroke="rgb(0,0,0)" stroke-opacity="1" stroke-width="0" fill="rgb(0,0,0)" fill-opacity="1"></path></g></g><g><g><g><g><g transform="matrix(1,0,0,1,246.125,350.15)"><path transform="matrix(0.0119,0,0,-0.0119,0,0)" d="M459 253C459 366 378 446 264 446C216 446 180 443 127 396L127 605L432 604L432 689L75 690L75 322L95 316C142 363 169 377 218 377C314 377 374 309 374 201C374 90 310 25 201 25C147 25 97 43 83 69L37 151L13 137C36 80 48 48 62 4C90 -11 130 -20 173 -20C301 -20 459 89 459 253Z" stroke="rgb(0,0,0)" stroke-opacity="1" stroke-width="0" fill="rgb(0,0,0)" fill-opacity="1"></path></g></g></g></g></g></g></g><g transform="matrix(0.8250148803678496,0.5651110042917433,-0.5651110042917433,0.8250148803678496,266.4204394871007,-106.6078244362069)"><g><g><g transform="matrix(1,0,0,1,285.6354064941406,381.375)"><path transform="matrix(0.017,0,0,-0.017,0,0)" d="M416 25L416 -3C464 -1 509 0 551 0C591 0 636 -1 684 -3L684 25L659 27C618 30 605 37 591 61L420 368L641 620C671 653 680 659 706 662L734 664L734 692L620 689C608 689 594 689 505 692L505 664L538 662C570 660 583 655 583 643C583 632 578 623 560 601L399 405L295 604C286 622 281 634 281 642C281 654 294 660 324 662L361 664L361 692L315 691C274 690 244 689 228 689C211 689 181 690 140 691L95 692L95 664L121 662C170 657 182 650 202 613L348 343L110 61C95 43 72 31 48 28L20 25L20 -3C69 -1 110 0 145 0C181 0 221 -1 264 -3L264 25L232 28C194 32 177 38 177 50C177 58 181 67 187 75L369 306L488 80C497 62 502 49 502 40C502 32 495 29 470 29L454 28Z" stroke="rgb(0,0,0)" stroke-opacity="1" stroke-width="0" fill="rgb(0,0,0)" fill-opacity="1"></path></g></g><g><g><g><g><g transform="matrix(1,0,0,1,298.40625,384.3791870117187)"><path transform="matrix(0.0119,0,0,-0.0119,0,0)" d="M16 23L16 -3C203 -3 203 0 239 0C275 0 275 -3 468 -3L468 82C353 77 307 81 122 77L304 270C401 373 431 428 431 503C431 618 353 689 226 689C154 689 105 669 56 619L39 483L68 483L81 529C97 587 133 612 200 612C286 612 341 558 341 473C341 398 299 324 186 204ZM523 388L530 368L562 389C599 412 602 414 609 414C620 414 627 404 627 389C627 338 586 145 545 2L552 -9C577 -2 600 4 622 8C641 134 662 199 708 268C762 352 837 414 882 414C893 414 899 405 899 390C899 372 896 351 888 319L836 107C827 70 823 47 823 31C823 6 834 -9 853 -9C879 -9 915 12 1013 85L1003 103L977 86C948 67 926 56 916 56C909 56 903 65 903 76C903 81 904 92 905 96L971 372C978 401 982 429 982 446C982 469 971 482 951 482C909 482 840 444 781 389C743 354 715 320 663 247L701 408C705 426 707 438 707 449C707 470 699 482 684 482C663 482 624 460 551 408ZM1609 243L1609 299L1105 299L1105 243ZM2121 224C2121 345 2014 366 1967 374C2047 436 2077 482 2077 541C2077 630 2003 689 1892 689C1824 689 1779 670 1731 622L1702 498L1733 498L1751 554C1762 588 1825 622 1877 622C1942 622 1995 569 1995 506C1995 431 1936 368 1865 368C1857 368 1846 369 1833 370L1818 371L1806 318L1813 312C1851 329 1870 334 1897 334C1980 334 2028 281 2028 190C2028 88 1967 21 1874 21C1828 21 1787 36 1757 64C1733 86 1720 109 1701 163L1674 153C1695 92 1703 56 1709 6C1762 -12 1806 -20 1843 -20C1966 -20 2121 87 2121 224Z" stroke="rgb(0,0,0)" stroke-opacity="1" stroke-width="0" fill="rgb(0,0,0)" fill-opacity="1"></path></g></g></g></g></g></g></g><g transform="matrix(0.8789003791906053,0.47700537047145536,-0.47700537047145536,0.8789003791906053,236.28446650343957,-118.92098852330855)"><g><g><g transform="matrix(1,0,0,1,332.6354064941406,410.375)"><path transform="matrix(0.017,0,0,-0.017,0,0)" d="M416 25L416 -3C464 -1 509 0 551 0C591 0 636 -1 684 -3L684 25L659 27C618 30 605 37 591 61L420 368L641 620C671 653 680 659 706 662L734 664L734 692L620 689C608 689 594 689 505 692L505 664L538 662C570 660 583 655 583 643C583 632 578 623 560 601L399 405L295 604C286 622 281 634 281 642C281 654 294 660 324 662L361 664L361 692L315 691C274 690 244 689 228 689C211 689 181 690 140 691L95 692L95 664L121 662C170 657 182 650 202 613L348 343L110 61C95 43 72 31 48 28L20 25L20 -3C69 -1 110 0 145 0C181 0 221 -1 264 -3L264 25L232 28C194 32 177 38 177 50C177 58 181 67 187 75L369 306L488 80C497 62 502 49 502 40C502 32 495 29 470 29L454 28Z" stroke="rgb(0,0,0)" stroke-opacity="1" stroke-width="0" fill="rgb(0,0,0)" fill-opacity="1"></path></g></g><g><g><g><g><g transform="matrix(1,0,0,1,345.40625,413.3791870117187)"><path transform="matrix(0.0119,0,0,-0.0119,0,0)" d="M16 23L16 -3C203 -3 203 0 239 0C275 0 275 -3 468 -3L468 82C353 77 307 81 122 77L304 270C401 373 431 428 431 503C431 618 353 689 226 689C154 689 105 669 56 619L39 483L68 483L81 529C97 587 133 612 200 612C286 612 341 558 341 473C341 398 299 324 186 204ZM523 388L530 368L562 389C599 412 602 414 609 414C620 414 627 404 627 389C627 338 586 145 545 2L552 -9C577 -2 600 4 622 8C641 134 662 199 708 268C762 352 837 414 882 414C893 414 899 405 899 390C899 372 896 351 888 319L836 107C827 70 823 47 823 31C823 6 834 -9 853 -9C879 -9 915 12 1013 85L1003 103L977 86C948 67 926 56 916 56C909 56 903 65 903 76C903 81 904 92 905 96L971 372C978 401 982 429 982 446C982 469 971 482 951 482C909 482 840 444 781 389C743 354 715 320 663 247L701 408C705 426 707 438 707 449C707 470 699 482 684 482C663 482 624 460 551 408ZM1609 243L1609 299L1105 299L1105 243ZM1675 23L1675 -3C1862 -3 1862 0 1898 0C1934 0 1934 -3 2127 -3L2127 82C2012 77 1966 81 1781 77L1963 270C2060 373 2090 428 2090 503C2090 618 2012 689 1885 689C1813 689 1764 669 1715 619L1698 483L1727 483L1740 529C1756 587 1792 612 1859 612C1945 612 2000 558 2000 473C2000 398 1958 324 1845 204Z" stroke="rgb(0,0,0)" stroke-opacity="1" stroke-width="0" fill="rgb(0,0,0)" fill-opacity="1"></path></g></g></g></g></g></g></g><g transform="matrix(0.8696672947667645,0.49363832551075026,-0.49363832551075026,0.8696672947667645,265.8732346406938,-141.20966507725598)"><g><g><g transform="matrix(1,0,0,1,380.6354064941406,437.375)"><path transform="matrix(0.017,0,0,-0.017,0,0)" d="M416 25L416 -3C464 -1 509 0 551 0C591 0 636 -1 684 -3L684 25L659 27C618 30 605 37 591 61L420 368L641 620C671 653 680 659 706 662L734 664L734 692L620 689C608 689 594 689 505 692L505 664L538 662C570 660 583 655 583 643C583 632 578 623 560 601L399 405L295 604C286 622 281 634 281 642C281 654 294 660 324 662L361 664L361 692L315 691C274 690 244 689 228 689C211 689 181 690 140 691L95 692L95 664L121 662C170 657 182 650 202 613L348 343L110 61C95 43 72 31 48 28L20 25L20 -3C69 -1 110 0 145 0C181 0 221 -1 264 -3L264 25L232 28C194 32 177 38 177 50C177 58 181 67 187 75L369 306L488 80C497 62 502 49 502 40C502 32 495 29 470 29L454 28Z" stroke="rgb(0,0,0)" stroke-opacity="1" stroke-width="0" fill="rgb(0,0,0)" fill-opacity="1"></path></g></g><g><g><g><g><g transform="matrix(1,0,0,1,393.4062805175781,440.3791870117187)"><path transform="matrix(0.0119,0,0,-0.0119,0,0)" d="M16 23L16 -3C203 -3 203 0 239 0C275 0 275 -3 468 -3L468 82C353 77 307 81 122 77L304 270C401 373 431 428 431 503C431 618 353 689 226 689C154 689 105 669 56 619L39 483L68 483L81 529C97 587 133 612 200 612C286 612 341 558 341 473C341 398 299 324 186 204ZM523 388L530 368L562 389C599 412 602 414 609 414C620 414 627 404 627 389C627 338 586 145 545 2L552 -9C577 -2 600 4 622 8C641 134 662 199 708 268C762 352 837 414 882 414C893 414 899 405 899 390C899 372 896 351 888 319L836 107C827 70 823 47 823 31C823 6 834 -9 853 -9C879 -9 915 12 1013 85L1003 103L977 86C948 67 926 56 916 56C909 56 903 65 903 76C903 81 904 92 905 96L971 372C978 401 982 429 982 446C982 469 971 482 951 482C909 482 840 444 781 389C743 354 715 320 663 247L701 408C705 426 707 438 707 449C707 470 699 482 684 482C663 482 624 460 551 408ZM1609 243L1609 299L1105 299L1105 243ZM2077 -3L2077 27L2025 30C1970 33 1960 44 1960 96L1960 700L1719 598L1726 548L1876 614L1876 96C1876 44 1865 33 1811 30L1755 27L1755 -3C1909 0 1909 0 1920 0C1951 0 2061 -3 2077 -3Z" stroke="rgb(0,0,0)" stroke-opacity="1" stroke-width="0" fill="rgb(0,0,0)" fill-opacity="1"></path></g></g></g></g></g></g></g><g transform="matrix(0.8808081149230036,0.4734734044123121,-0.4734734044123121,0.8808081149230036,271.27706095211556,-157.23589192433133)"><g><g><g transform="matrix(1,0,0,1,434.7812805175781,464.66668701171875)"><path transform="matrix(0.017,0,0,-0.017,0,0)" d="M416 25L416 -3C464 -1 509 0 551 0C591 0 636 -1 684 -3L684 25L659 27C618 30 605 37 591 61L420 368L641 620C671 653 680 659 706 662L734 664L734 692L620 689C608 689 594 689 505 692L505 664L538 662C570 660 583 655 583 643C583 632 578 623 560 601L399 405L295 604C286 622 281 634 281 642C281 654 294 660 324 662L361 664L361 692L315 691C274 690 244 689 228 689C211 689 181 690 140 691L95 692L95 664L121 662C170 657 182 650 202 613L348 343L110 61C95 43 72 31 48 28L20 25L20 -3C69 -1 110 0 145 0C181 0 221 -1 264 -3L264 25L232 28C194 32 177 38 177 50C177 58 181 67 187 75L369 306L488 80C497 62 502 49 502 40C502 32 495 29 470 29L454 28Z" stroke="rgb(0,0,0)" stroke-opacity="1" stroke-width="0" fill="rgb(0,0,0)" fill-opacity="1"></path></g></g><g><g><g><g><g transform="matrix(1,0,0,1,447.5520935058594,467.6708740234375)"><path transform="matrix(0.0119,0,0,-0.0119,0,0)" d="M16 23L16 -3C203 -3 203 0 239 0C275 0 275 -3 468 -3L468 82C353 77 307 81 122 77L304 270C401 373 431 428 431 503C431 618 353 689 226 689C154 689 105 669 56 619L39 483L68 483L81 529C97 587 133 612 200 612C286 612 341 558 341 473C341 398 299 324 186 204ZM523 388L530 368L562 389C599 412 602 414 609 414C620 414 627 404 627 389C627 338 586 145 545 2L552 -9C577 -2 600 4 622 8C641 134 662 199 708 268C762 352 837 414 882 414C893 414 899 405 899 390C899 372 896 351 888 319L836 107C827 70 823 47 823 31C823 6 834 -9 853 -9C879 -9 915 12 1013 85L1003 103L977 86C948 67 926 56 916 56C909 56 903 65 903 76C903 81 904 92 905 96L971 372C978 401 982 429 982 446C982 469 971 482 951 482C909 482 840 444 781 389C743 354 715 320 663 247L701 408C705 426 707 438 707 449C707 470 699 482 684 482C663 482 624 460 551 408Z" stroke="rgb(0,0,0)" stroke-opacity="1" stroke-width="0" fill="rgb(0,0,0)" fill-opacity="1"></path></g></g></g></g></g></g></g><g transform="matrix(0.8660254037844387,0.49999999999999994,-0.49999999999999994,0.8660254037844387,311.22399444790926,-183.29538579069424)"><g><g><g transform="matrix(1,0,0,1,477.5520935058594,493.5833740234375)"><path transform="matrix(0.017,0,0,-0.017,0,0)" d="M416 25L416 -3C464 -1 509 0 551 0C591 0 636 -1 684 -3L684 25L659 27C618 30 605 37 591 61L420 368L641 620C671 653 680 659 706 662L734 664L734 692L620 689C608 689 594 689 505 692L505 664L538 662C570 660 583 655 583 643C583 632 578 623 560 601L399 405L295 604C286 622 281 634 281 642C281 654 294 660 324 662L361 664L361 692L315 691C274 690 244 689 228 689C211 689 181 690 140 691L95 692L95 664L121 662C170 657 182 650 202 613L348 343L110 61C95 43 72 31 48 28L20 25L20 -3C69 -1 110 0 145 0C181 0 221 -1 264 -3L264 25L232 28C194 32 177 38 177 50C177 58 181 67 187 75L369 306L488 80C497 62 502 49 502 40C502 32 495 29 470 29L454 28Z" stroke="rgb(0,0,0)" stroke-opacity="1" stroke-width="0" fill="rgb(0,0,0)" fill-opacity="1"></path></g></g><g><g><g><g><g transform="matrix(1,0,0,1,490.3229064941406,496.5875)"><path transform="matrix(0.0119,0,0,-0.0119,0,0)" d="M16 23L16 -3C203 -3 203 0 239 0C275 0 275 -3 468 -3L468 82C353 77 307 81 122 77L304 270C401 373 431 428 431 503C431 618 353 689 226 689C154 689 105 669 56 619L39 483L68 483L81 529C97 587 133 612 200 612C286 612 341 558 341 473C341 398 299 324 186 204ZM523 388L530 368L562 389C599 412 602 414 609 414C620 414 627 404 627 389C627 338 586 145 545 2L552 -9C577 -2 600 4 622 8C641 134 662 199 708 268C762 352 837 414 882 414C893 414 899 405 899 390C899 372 896 351 888 319L836 107C827 70 823 47 823 31C823 6 834 -9 853 -9C879 -9 915 12 1013 85L1003 103L977 86C948 67 926 56 916 56C909 56 903 65 903 76C903 81 904 92 905 96L971 372C978 401 982 429 982 446C982 469 971 482 951 482C909 482 840 444 781 389C743 354 715 320 663 247L701 408C705 426 707 438 707 449C707 470 699 482 684 482C663 482 624 460 551 408ZM1658 241L1658 300L1418 300L1418 538L1359 538L1359 300L1119 300L1119 241L1359 241L1359 0L1418 0L1418 241ZM2140 -3L2140 27L2088 30C2033 33 2023 44 2023 96L2023 700L1782 598L1789 548L1939 614L1939 96C1939 44 1928 33 1874 30L1818 27L1818 -3C1972 0 1972 0 1983 0C2014 0 2124 -3 2140 -3Z" stroke="rgb(0,0,0)" stroke-opacity="1" stroke-width="0" fill="rgb(0,0,0)" fill-opacity="1"></path></g></g></g></g></g></g></g><g transform="matrix(0.8537326119405507,0.5207116546699958,-0.5207116546699958,0.8537326119405507,348.4084344094563,-208.12506454588856)"><g><g><g transform="matrix(1,0,0,1,524.5729064941406,520.5833740234375)"><path transform="matrix(0.017,0,0,-0.017,0,0)" d="M416 25L416 -3C464 -1 509 0 551 0C591 0 636 -1 684 -3L684 25L659 27C618 30 605 37 591 61L420 368L641 620C671 653 680 659 706 662L734 664L734 692L620 689C608 689 594 689 505 692L505 664L538 662C570 660 583 655 583 643C583 632 578 623 560 601L399 405L295 604C286 622 281 634 281 642C281 654 294 660 324 662L361 664L361 692L315 691C274 690 244 689 228 689C211 689 181 690 140 691L95 692L95 664L121 662C170 657 182 650 202 613L348 343L110 61C95 43 72 31 48 28L20 25L20 -3C69 -1 110 0 145 0C181 0 221 -1 264 -3L264 25L232 28C194 32 177 38 177 50C177 58 181 67 187 75L369 306L488 80C497 62 502 49 502 40C502 32 495 29 470 29L454 28Z" stroke="rgb(0,0,0)" stroke-opacity="1" stroke-width="0" fill="rgb(0,0,0)" fill-opacity="1"></path></g></g><g><g><g><g><g transform="matrix(1,0,0,1,537.3437805175781,523.5875)"><path transform="matrix(0.0119,0,0,-0.0119,0,0)" d="M16 23L16 -3C203 -3 203 0 239 0C275 0 275 -3 468 -3L468 82C353 77 307 81 122 77L304 270C401 373 431 428 431 503C431 618 353 689 226 689C154 689 105 669 56 619L39 483L68 483L81 529C97 587 133 612 200 612C286 612 341 558 341 473C341 398 299 324 186 204ZM523 388L530 368L562 389C599 412 602 414 609 414C620 414 627 404 627 389C627 338 586 145 545 2L552 -9C577 -2 600 4 622 8C641 134 662 199 708 268C762 352 837 414 882 414C893 414 899 405 899 390C899 372 896 351 888 319L836 107C827 70 823 47 823 31C823 6 834 -9 853 -9C879 -9 915 12 1013 85L1003 103L977 86C948 67 926 56 916 56C909 56 903 65 903 76C903 81 904 92 905 96L971 372C978 401 982 429 982 446C982 469 971 482 951 482C909 482 840 444 781 389C743 354 715 320 663 247L701 408C705 426 707 438 707 449C707 470 699 482 684 482C663 482 624 460 551 408ZM1658 241L1658 300L1418 300L1418 538L1359 538L1359 300L1119 300L1119 241L1359 241L1359 0L1418 0L1418 241ZM1738 23L1738 -3C1925 -3 1925 0 1961 0C1997 0 1997 -3 2190 -3L2190 82C2075 77 2029 81 1844 77L2026 270C2123 373 2153 428 2153 503C2153 618 2075 689 1948 689C1876 689 1827 669 1778 619L1761 483L1790 483L1803 529C1819 587 1855 612 1922 612C2008 612 2063 558 2063 473C2063 398 2021 324 1908 204Z" stroke="rgb(0,0,0)" stroke-opacity="1" stroke-width="0" fill="rgb(0,0,0)" fill-opacity="1"></path></g></g></g></g></g></g></g><g transform="matrix(0.8757174530458134,0.4828239248742274,-0.4828239248742274,0.8757174530458134,344.24909500531993,-221.32788267964781)"><g><g><g transform="matrix(1,0,0,1,581.0000305175781,554.7708740234375)"><path transform="matrix(0.017,0,0,-0.017,0,0)" d="M416 25L416 -3C464 -1 509 0 551 0C591 0 636 -1 684 -3L684 25L659 27C618 30 605 37 591 61L420 368L641 620C671 653 680 659 706 662L734 664L734 692L620 689C608 689 594 689 505 692L505 664L538 662C570 660 583 655 583 643C583 632 578 623 560 601L399 405L295 604C286 622 281 634 281 642C281 654 294 660 324 662L361 664L361 692L315 691C274 690 244 689 228 689C211 689 181 690 140 691L95 692L95 664L121 662C170 657 182 650 202 613L348 343L110 61C95 43 72 31 48 28L20 25L20 -3C69 -1 110 0 145 0C181 0 221 -1 264 -3L264 25L232 28C194 32 177 38 177 50C177 58 181 67 187 75L369 306L488 80C497 62 502 49 502 40C502 32 495 29 470 29L454 28Z" stroke="rgb(0,0,0)" stroke-opacity="1" stroke-width="0" fill="rgb(0,0,0)" fill-opacity="1"></path></g></g><g><g><g><g><g transform="matrix(1,0,0,1,593.7708435058594,558.9625)"><path transform="matrix(0.0119,0,0,-0.0119,0,0)" d="M16 23L16 -3C203 -3 203 0 239 0C275 0 275 -3 468 -3L468 82C353 77 307 81 122 77L304 270C401 373 431 428 431 503C431 618 353 689 226 689C154 689 105 669 56 619L39 483L68 483L81 529C97 587 133 612 200 612C286 612 341 558 341 473C341 398 299 324 186 204ZM1081 103L736 692L574 692L569 664L604 662C649 660 683 615 684 606L591 102C579 40 573 32 537 28L506 25L501 -3L612 0C624 0 625 0 722 -3L727 25L685 28C645 31 636 39 636 72C636 80 637 91 639 102L719 566L1057 -11L1107 -11L1201 542C1222 655 1224 659 1261 662L1298 664L1301 691L1088 692L1083 664L1130 662C1156 661 1166 654 1166 638C1166 631 1083 116 1081 103ZM1831 243L1831 299L1327 299L1327 243ZM2161 181L2161 106C2161 46 2150 32 2101 30L2039 27L2039 -3C2172 0 2172 0 2196 0C2220 0 2220 0 2353 -3L2353 27L2305 30C2256 33 2245 46 2245 106L2245 181C2304 181 2325 180 2353 177L2353 248L2245 245L2246 697L2166 667L1883 204L1883 181ZM2161 245L1946 245L2161 597Z" stroke="rgb(0,0,0)" stroke-opacity="1" stroke-width="0" fill="rgb(0,0,0)" fill-opacity="1"></path></g></g></g><g></g></g></g></g></g><g transform="matrix(0.8659381241319608,0.5001511423308167,-0.5001511423308167,0.8659381241319608,367.8326185324202,-214.6242418734371)"><g><g><g transform="matrix(1,0,0,1,564.6458435058594,583.3125)"><path transform="matrix(0.017,0,0,-0.017,0,0)" d="M108 471C108 386 146 339 230 319L325 296C379 283 406 248 406 191C406 96 335 30 232 30C178 30 140 42 96 73L96 172L66 172C60 117 53 72 42 20C91 -5 144 -18 197 -18C352 -18 485 99 485 234C485 313 442 355 341 377L276 391C210 405 180 442 180 508C180 595 247 658 339 658C388 658 421 645 451 613L451 537L481 537C485 591 492 629 506 672C461 696 421 706 374 706C250 706 108 614 108 471Z" stroke="rgb(0,0,0)" stroke-opacity="1" stroke-width="0" fill="rgb(0,0,0)" fill-opacity="1"></path></g></g><g><g><g><g><g transform="matrix(1,0,0,1,574.5833435058594,586.3166870117187)"><path transform="matrix(0.0119,0,0,-0.0119,0,0)" d="M16 23L16 -3C203 -3 203 0 239 0C275 0 275 -3 468 -3L468 82C353 77 307 81 122 77L304 270C401 373 431 428 431 503C431 618 353 689 226 689C154 689 105 669 56 619L39 483L68 483L81 529C97 587 133 612 200 612C286 612 341 558 341 473C341 398 299 324 186 204ZM1081 103L736 692L574 692L569 664L604 662C649 660 683 615 684 606L591 102C579 40 573 32 537 28L506 25L501 -3L612 0C624 0 625 0 722 -3L727 25L685 28C645 31 636 39 636 72C636 80 637 91 639 102L719 566L1057 -11L1107 -11L1201 542C1222 655 1224 659 1261 662L1298 664L1301 691L1088 692L1083 664L1130 662C1156 661 1166 654 1166 638C1166 631 1083 116 1081 103ZM1831 243L1831 299L1327 299L1327 243ZM2161 181L2161 106C2161 46 2150 32 2101 30L2039 27L2039 -3C2172 0 2172 0 2196 0C2220 0 2220 0 2353 -3L2353 27L2305 30C2256 33 2245 46 2245 106L2245 181C2304 181 2325 180 2353 177L2353 248L2245 245L2246 697L2166 667L1883 204L1883 181ZM2161 245L1946 245L2161 597Z" stroke="rgb(0,0,0)" stroke-opacity="1" stroke-width="0" fill="rgb(0,0,0)" fill-opacity="1"></path></g></g></g></g></g></g></g><g transform="matrix(0.8665485276128189,0.4990928263279846,-0.4990928263279846,0.8665485276128189,386.48411616285034,-235.07180897039586)"><g><g><g transform="matrix(1,0,0,1,616.1562805175781,609.6458740234375)"><path transform="matrix(0.017,0,0,-0.017,0,0)" d="M108 471C108 386 146 339 230 319L325 296C379 283 406 248 406 191C406 96 335 30 232 30C178 30 140 42 96 73L96 172L66 172C60 117 53 72 42 20C91 -5 144 -18 197 -18C352 -18 485 99 485 234C485 313 442 355 341 377L276 391C210 405 180 442 180 508C180 595 247 658 339 658C388 658 421 645 451 613L451 537L481 537C485 591 492 629 506 672C461 696 421 706 374 706C250 706 108 614 108 471Z" stroke="rgb(0,0,0)" stroke-opacity="1" stroke-width="0" fill="rgb(0,0,0)" fill-opacity="1"></path></g></g><g><g><g><g><g transform="matrix(1,0,0,1,626.0937805175781,612.65)"><path transform="matrix(0.0119,0,0,-0.0119,0,0)" d="M582 103L237 692L75 692L70 664L105 662C150 660 184 615 185 606L92 102C80 40 74 32 38 28L7 25L2 -3L113 0C125 0 126 0 223 -3L228 25L186 28C146 31 137 39 137 72C137 80 138 91 140 102L220 566L558 -11L608 -11L702 542C723 655 725 659 762 662L799 664L802 691L589 692L584 664L631 662C657 661 667 654 667 638C667 631 584 116 582 103ZM1332 243L1332 299L828 299L828 243ZM1398 23L1398 -3C1585 -3 1585 0 1621 0C1657 0 1657 -3 1850 -3L1850 82C1735 77 1689 81 1504 77L1686 270C1783 373 1813 428 1813 503C1813 618 1735 689 1608 689C1536 689 1487 669 1438 619L1421 483L1450 483L1463 529C1479 587 1515 612 1582 612C1668 612 1723 558 1723 473C1723 398 1681 324 1568 204Z" stroke="rgb(0,0,0)" stroke-opacity="1" stroke-width="0" fill="rgb(0,0,0)" fill-opacity="1"></path></g></g></g></g></g></g></g><g transform="matrix(0.8667226910779762,0.49879031342895086,-0.49879031342895086,0.8667226910779762,406.28754457235044,-256.614341143159)"><g><g><g transform="matrix(1,0,0,1,659.9895935058594,636.4375)"><path transform="matrix(0.017,0,0,-0.017,0,0)" d="M108 471C108 386 146 339 230 319L325 296C379 283 406 248 406 191C406 96 335 30 232 30C178 30 140 42 96 73L96 172L66 172C60 117 53 72 42 20C91 -5 144 -18 197 -18C352 -18 485 99 485 234C485 313 442 355 341 377L276 391C210 405 180 442 180 508C180 595 247 658 339 658C388 658 421 645 451 613L451 537L481 537C485 591 492 629 506 672C461 696 421 706 374 706C250 706 108 614 108 471Z" stroke="rgb(0,0,0)" stroke-opacity="1" stroke-width="0" fill="rgb(0,0,0)" fill-opacity="1"></path></g></g><g><g><g><g><g transform="matrix(1,0,0,1,669.9270935058594,639.4416870117187)"><path transform="matrix(0.0119,0,0,-0.0119,0,0)" d="M16 23L16 -3C203 -3 203 0 239 0C275 0 275 -3 468 -3L468 82C353 77 307 81 122 77L304 270C401 373 431 428 431 503C431 618 353 689 226 689C154 689 105 669 56 619L39 483L68 483L81 529C97 587 133 612 200 612C286 612 341 558 341 473C341 398 299 324 186 204ZM1081 103L736 692L574 692L569 664L604 662C649 660 683 615 684 606L591 102C579 40 573 32 537 28L506 25L501 -3L612 0C624 0 625 0 722 -3L727 25L685 28C645 31 636 39 636 72C636 80 637 91 639 102L719 566L1057 -11L1107 -11L1201 542C1222 655 1224 659 1261 662L1298 664L1301 691L1088 692L1083 664L1130 662C1156 661 1166 654 1166 638C1166 631 1083 116 1081 103ZM1831 243L1831 299L1327 299L1327 243ZM2343 224C2343 345 2236 366 2189 374C2269 436 2299 482 2299 541C2299 630 2225 689 2114 689C2046 689 2001 670 1953 622L1924 498L1955 498L1973 554C1984 588 2047 622 2099 622C2164 622 2217 569 2217 506C2217 431 2158 368 2087 368C2079 368 2068 369 2055 370L2040 371L2028 318L2035 312C2073 329 2092 334 2119 334C2202 334 2250 281 2250 190C2250 88 2189 21 2096 21C2050 21 2009 36 1979 64C1955 86 1942 109 1923 163L1896 153C1917 92 1925 56 1931 6C1984 -12 2028 -20 2065 -20C2188 -20 2343 87 2343 224Z" stroke="rgb(0,0,0)" stroke-opacity="1" stroke-width="0" fill="rgb(0,0,0)" fill-opacity="1"></path></g></g></g></g></g><g><g><g></g></g></g></g></g><g transform="matrix(0.86436258233232,0.5028690945602079,-0.5028690945602079,0.86436258233232,400.58233198183694,-269.80603694695174)"><g><g><g transform="matrix(1,0,0,1,679.3958435058594,612.1458740234375)"><path transform="matrix(0.017,0,0,-0.017,0,0)" d="M416 25L416 -3C464 -1 509 0 551 0C591 0 636 -1 684 -3L684 25L659 27C618 30 605 37 591 61L420 368L641 620C671 653 680 659 706 662L734 664L734 692L620 689C608 689 594 689 505 692L505 664L538 662C570 660 583 655 583 643C583 632 578 623 560 601L399 405L295 604C286 622 281 634 281 642C281 654 294 660 324 662L361 664L361 692L315 691C274 690 244 689 228 689C211 689 181 690 140 691L95 692L95 664L121 662C170 657 182 650 202 613L348 343L110 61C95 43 72 31 48 28L20 25L20 -3C69 -1 110 0 145 0C181 0 221 -1 264 -3L264 25L232 28C194 32 177 38 177 50C177 58 181 67 187 75L369 306L488 80C497 62 502 49 502 40C502 32 495 29 470 29L454 28Z" stroke="rgb(0,0,0)" stroke-opacity="1" stroke-width="0" fill="rgb(0,0,0)" fill-opacity="1"></path></g></g><g><g><g><g><g transform="matrix(1,0,0,1,692.1666564941406,615.15)"><path transform="matrix(0.0119,0,0,-0.0119,0,0)" d="M16 23L16 -3C203 -3 203 0 239 0C275 0 275 -3 468 -3L468 82C353 77 307 81 122 77L304 270C401 373 431 428 431 503C431 618 353 689 226 689C154 689 105 669 56 619L39 483L68 483L81 529C97 587 133 612 200 612C286 612 341 558 341 473C341 398 299 324 186 204ZM1081 103L736 692L574 692L569 664L604 662C649 660 683 615 684 606L591 102C579 40 573 32 537 28L506 25L501 -3L612 0C624 0 625 0 722 -3L727 25L685 28C645 31 636 39 636 72C636 80 637 91 639 102L719 566L1057 -11L1107 -11L1201 542C1222 655 1224 659 1261 662L1298 664L1301 691L1088 692L1083 664L1130 662C1156 661 1166 654 1166 638C1166 631 1083 116 1081 103ZM1831 243L1831 299L1327 299L1327 243ZM1897 23L1897 -3C2084 -3 2084 0 2120 0C2156 0 2156 -3 2349 -3L2349 82C2234 77 2188 81 2003 77L2185 270C2282 373 2312 428 2312 503C2312 618 2234 689 2107 689C2035 689 1986 669 1937 619L1920 483L1949 483L1962 529C1978 587 2014 612 2081 612C2167 612 2222 558 2222 473C2222 398 2180 324 2067 204Z" stroke="rgb(0,0,0)" stroke-opacity="1" stroke-width="0" fill="rgb(0,0,0)" fill-opacity="1"></path></g></g></g></g></g></g></g><g transform="matrix(0.889974159837923,0.4560109591016239,-0.4560109591016239,0.889974159837923,371.4164455405748,-272.03200875917037)"><g><g><g transform="matrix(1,0,0,1,728.3958435058594,638.1458740234375)"><path transform="matrix(0.017,0,0,-0.017,0,0)" d="M416 25L416 -3C464 -1 509 0 551 0C591 0 636 -1 684 -3L684 25L659 27C618 30 605 37 591 61L420 368L641 620C671 653 680 659 706 662L734 664L734 692L620 689C608 689 594 689 505 692L505 664L538 662C570 660 583 655 583 643C583 632 578 623 560 601L399 405L295 604C286 622 281 634 281 642C281 654 294 660 324 662L361 664L361 692L315 691C274 690 244 689 228 689C211 689 181 690 140 691L95 692L95 664L121 662C170 657 182 650 202 613L348 343L110 61C95 43 72 31 48 28L20 25L20 -3C69 -1 110 0 145 0C181 0 221 -1 264 -3L264 25L232 28C194 32 177 38 177 50C177 58 181 67 187 75L369 306L488 80C497 62 502 49 502 40C502 32 495 29 470 29L454 28Z" stroke="rgb(0,0,0)" stroke-opacity="1" stroke-width="0" fill="rgb(0,0,0)" fill-opacity="1"></path></g></g><g><g><g><g><g transform="matrix(1,0,0,1,741.1666564941406,641.15)"><path transform="matrix(0.0119,0,0,-0.0119,0,0)" d="M16 23L16 -3C203 -3 203 0 239 0C275 0 275 -3 468 -3L468 82C353 77 307 81 122 77L304 270C401 373 431 428 431 503C431 618 353 689 226 689C154 689 105 669 56 619L39 483L68 483L81 529C97 587 133 612 200 612C286 612 341 558 341 473C341 398 299 324 186 204ZM1081 103L736 692L574 692L569 664L604 662C649 660 683 615 684 606L591 102C579 40 573 32 537 28L506 25L501 -3L612 0C624 0 625 0 722 -3L727 25L685 28C645 31 636 39 636 72C636 80 637 91 639 102L719 566L1057 -11L1107 -11L1201 542C1222 655 1224 659 1261 662L1298 664L1301 691L1088 692L1083 664L1130 662C1156 661 1166 654 1166 638C1166 631 1083 116 1081 103ZM1831 243L1831 299L1327 299L1327 243ZM2299 -3L2299 27L2247 30C2192 33 2182 44 2182 96L2182 700L1941 598L1948 548L2098 614L2098 96C2098 44 2087 33 2033 30L1977 27L1977 -3C2131 0 2131 0 2142 0C2173 0 2283 -3 2299 -3Z" stroke="rgb(0,0,0)" stroke-opacity="1" stroke-width="0" fill="rgb(0,0,0)" fill-opacity="1"></path></g></g></g></g></g></g></g><g transform="matrix(0.8726665149030235,0.48831665317395334,-0.48831665317395334,0.8726665149030235,412.94367576154536,-269.2820712277037)"><g><g><g transform="matrix(1,0,0,1,706.1562805175781,661.6458740234375)"><path transform="matrix(0.017,0,0,-0.017,0,0)" d="M108 471C108 386 146 339 230 319L325 296C379 283 406 248 406 191C406 96 335 30 232 30C178 30 140 42 96 73L96 172L66 172C60 117 53 72 42 20C91 -5 144 -18 197 -18C352 -18 485 99 485 234C485 313 442 355 341 377L276 391C210 405 180 442 180 508C180 595 247 658 339 658C388 658 421 645 451 613L451 537L481 537C485 591 492 629 506 672C461 696 421 706 374 706C250 706 108 614 108 471Z" stroke="rgb(0,0,0)" stroke-opacity="1" stroke-width="0" fill="rgb(0,0,0)" fill-opacity="1"></path></g></g><g><g><g><g><g transform="matrix(1,0,0,1,716.0937805175781,664.65)"><path transform="matrix(0.0119,0,0,-0.0119,0,0)" d="M582 103L237 692L75 692L70 664L105 662C150 660 184 615 185 606L92 102C80 40 74 32 38 28L7 25L2 -3L113 0C125 0 126 0 223 -3L228 25L186 28C146 31 137 39 137 72C137 80 138 91 140 102L220 566L558 -11L608 -11L702 542C723 655 725 659 762 662L799 664L802 691L589 692L584 664L631 662C657 661 667 654 667 638C667 631 584 116 582 103ZM1332 243L1332 299L828 299L828 243ZM1800 -3L1800 27L1748 30C1693 33 1683 44 1683 96L1683 700L1442 598L1449 548L1599 614L1599 96C1599 44 1588 33 1534 30L1478 27L1478 -3C1632 0 1632 0 1643 0C1674 0 1784 -3 1800 -3Z" stroke="rgb(0,0,0)" stroke-opacity="1" stroke-width="0" fill="rgb(0,0,0)" fill-opacity="1"></path></g></g></g></g></g></g></g><g transform="matrix(0.8733474826986873,0.48709770525415746,-0.48709770525415746,0.8733474826986873,424.8537363865298,-306.0860492715294)"><g><g><g transform="matrix(1,0,0,1,786.5416564941406,668.4166870117188)"><path transform="matrix(0.017,0,0,-0.017,0,0)" d="M416 25L416 -3C464 -1 509 0 551 0C591 0 636 -1 684 -3L684 25L659 27C618 30 605 37 591 61L420 368L641 620C671 653 680 659 706 662L734 664L734 692L620 689C608 689 594 689 505 692L505 664L538 662C570 660 583 655 583 643C583 632 578 623 560 601L399 405L295 604C286 622 281 634 281 642C281 654 294 660 324 662L361 664L361 692L315 691C274 690 244 689 228 689C211 689 181 690 140 691L95 692L95 664L121 662C170 657 182 650 202 613L348 343L110 61C95 43 72 31 48 28L20 25L20 -3C69 -1 110 0 145 0C181 0 221 -1 264 -3L264 25L232 28C194 32 177 38 177 50C177 58 181 67 187 75L369 306L488 80C497 62 502 49 502 40C502 32 495 29 470 29L454 28Z" stroke="rgb(0,0,0)" stroke-opacity="1" stroke-width="0" fill="rgb(0,0,0)" fill-opacity="1"></path></g></g><g><g><g><g><g transform="matrix(1,0,0,1,799.3125305175781,671.4208740234375)"><path transform="matrix(0.0119,0,0,-0.0119,0,0)" d="M16 23L16 -3C203 -3 203 0 239 0C275 0 275 -3 468 -3L468 82C353 77 307 81 122 77L304 270C401 373 431 428 431 503C431 618 353 689 226 689C154 689 105 669 56 619L39 483L68 483L81 529C97 587 133 612 200 612C286 612 341 558 341 473C341 398 299 324 186 204ZM1081 103L736 692L574 692L569 664L604 662C649 660 683 615 684 606L591 102C579 40 573 32 537 28L506 25L501 -3L612 0C624 0 625 0 722 -3L727 25L685 28C645 31 636 39 636 72C636 80 637 91 639 102L719 566L1057 -11L1107 -11L1201 542C1222 655 1224 659 1261 662L1298 664L1301 691L1088 692L1083 664L1130 662C1156 661 1166 654 1166 638C1166 631 1083 116 1081 103Z" stroke="rgb(0,0,0)" stroke-opacity="1" stroke-width="0" fill="rgb(0,0,0)" fill-opacity="1"></path></g></g></g></g></g></g></g><g transform="matrix(0.8557257027611674,0.5174297262758548,-0.5174297262758548,0.8557257027611674,476.70816029036456,-335.9306403720152)"><g><g><g transform="matrix(1,0,0,1,819.3333435058594,691.3541870117188)"><path transform="matrix(0.017,0,0,-0.017,0,0)" d="M416 25L416 -3C464 -1 509 0 551 0C591 0 636 -1 684 -3L684 25L659 27C618 30 605 37 591 61L420 368L641 620C671 653 680 659 706 662L734 664L734 692L620 689C608 689 594 689 505 692L505 664L538 662C570 660 583 655 583 643C583 632 578 623 560 601L399 405L295 604C286 622 281 634 281 642C281 654 294 660 324 662L361 664L361 692L315 691C274 690 244 689 228 689C211 689 181 690 140 691L95 692L95 664L121 662C170 657 182 650 202 613L348 343L110 61C95 43 72 31 48 28L20 25L20 -3C69 -1 110 0 145 0C181 0 221 -1 264 -3L264 25L232 28C194 32 177 38 177 50C177 58 181 67 187 75L369 306L488 80C497 62 502 49 502 40C502 32 495 29 470 29L454 28Z" stroke="rgb(0,0,0)" stroke-opacity="1" stroke-width="0" fill="rgb(0,0,0)" fill-opacity="1"></path></g></g><g><g><g><g><g transform="matrix(1,0,0,1,832.1041564941406,694.3583740234375)"><path transform="matrix(0.0119,0,0,-0.0119,0,0)" d="M16 23L16 -3C203 -3 203 0 239 0C275 0 275 -3 468 -3L468 82C353 77 307 81 122 77L304 270C401 373 431 428 431 503C431 618 353 689 226 689C154 689 105 669 56 619L39 483L68 483L81 529C97 587 133 612 200 612C286 612 341 558 341 473C341 398 299 324 186 204ZM1081 103L736 692L574 692L569 664L604 662C649 660 683 615 684 606L591 102C579 40 573 32 537 28L506 25L501 -3L612 0C624 0 625 0 722 -3L727 25L685 28C645 31 636 39 636 72C636 80 637 91 639 102L719 566L1057 -11L1107 -11L1201 542C1222 655 1224 659 1261 662L1298 664L1301 691L1088 692L1083 664L1130 662C1156 661 1166 654 1166 638C1166 631 1083 116 1081 103ZM1880 241L1880 300L1640 300L1640 538L1581 538L1581 300L1341 300L1341 241L1581 241L1581 0L1640 0L1640 241ZM2362 -3L2362 27L2310 30C2255 33 2245 44 2245 96L2245 700L2004 598L2011 548L2161 614L2161 96C2161 44 2150 33 2096 30L2040 27L2040 -3C2194 0 2194 0 2205 0C2236 0 2346 -3 2362 -3Z" stroke="rgb(0,0,0)" stroke-opacity="1" stroke-width="0" fill="rgb(0,0,0)" fill-opacity="1"></path></g></g></g></g></g></g></g><g transform="matrix(0.8724960070727972,0.4886212414969549,-0.4886212414969549,0.8724960070727972,367.9928993422004,-242.18194828239598)"><g><g><g transform="matrix(1,0,0,1,627.0000305175781,580.7708740234375)"><path transform="matrix(0.017,0,0,-0.017,0,0)" d="M416 25L416 -3C464 -1 509 0 551 0C591 0 636 -1 684 -3L684 25L659 27C618 30 605 37 591 61L420 368L641 620C671 653 680 659 706 662L734 664L734 692L620 689C608 689 594 689 505 692L505 664L538 662C570 660 583 655 583 643C583 632 578 623 560 601L399 405L295 604C286 622 281 634 281 642C281 654 294 660 324 662L361 664L361 692L315 691C274 690 244 689 228 689C211 689 181 690 140 691L95 692L95 664L121 662C170 657 182 650 202 613L348 343L110 61C95 43 72 31 48 28L20 25L20 -3C69 -1 110 0 145 0C181 0 221 -1 264 -3L264 25L232 28C194 32 177 38 177 50C177 58 181 67 187 75L369 306L488 80C497 62 502 49 502 40C502 32 495 29 470 29L454 28Z" stroke="rgb(0,0,0)" stroke-opacity="1" stroke-width="0" fill="rgb(0,0,0)" fill-opacity="1"></path></g></g><g><g><g><g><g transform="matrix(1,0,0,1,639.7708435058594,584.9625)"><path transform="matrix(0.0119,0,0,-0.0119,0,0)" d="M16 23L16 -3C203 -3 203 0 239 0C275 0 275 -3 468 -3L468 82C353 77 307 81 122 77L304 270C401 373 431 428 431 503C431 618 353 689 226 689C154 689 105 669 56 619L39 483L68 483L81 529C97 587 133 612 200 612C286 612 341 558 341 473C341 398 299 324 186 204ZM1081 103L736 692L574 692L569 664L604 662C649 660 683 615 684 606L591 102C579 40 573 32 537 28L506 25L501 -3L612 0C624 0 625 0 722 -3L727 25L685 28C645 31 636 39 636 72C636 80 637 91 639 102L719 566L1057 -11L1107 -11L1201 542C1222 655 1224 659 1261 662L1298 664L1301 691L1088 692L1083 664L1130 662C1156 661 1166 654 1166 638C1166 631 1083 116 1081 103ZM1831 243L1831 299L1327 299L1327 243ZM2343 224C2343 345 2236 366 2189 374C2269 436 2299 482 2299 541C2299 630 2225 689 2114 689C2046 689 2001 670 1953 622L1924 498L1955 498L1973 554C1984 588 2047 622 2099 622C2164 622 2217 569 2217 506C2217 431 2158 368 2087 368C2079 368 2068 369 2055 370L2040 371L2028 318L2035 312C2073 329 2092 334 2119 334C2202 334 2250 281 2250 190C2250 88 2189 21 2096 21C2050 21 2009 36 1979 64C1955 86 1942 109 1923 163L1896 153C1917 92 1925 56 1931 6C1984 -12 2028 -20 2065 -20C2188 -20 2343 87 2343 224Z" stroke="rgb(0,0,0)" stroke-opacity="1" stroke-width="0" fill="rgb(0,0,0)" fill-opacity="1"></path></g></g></g><g></g></g></g></g></g><g><g><g><text x="902.3334045410156" y="518.6666870117188" style="white-space:pre;stroke:none;fill:rgb(0,0,0);fill-opacity:1;font-size:15px;font-family:Arial, Helvetica, sans-serif;font-weight:400;font-style:normal;dominant-baseline:text-before-edge;text-decoration:none;">Inputs from tailwater</text></g></g></g><g><g><g><text x="775.3333435058594" y="398.66668701171875" style="white-space:pre;stroke:none;fill:rgb(0,0,0);fill-opacity:1;font-size:15px;font-family:Arial, Helvetica, sans-serif;font-weight:400;font-style:normal;dominant-baseline:text-before-edge;text-decoration:none;">Outputs to tail water</text></g></g></g><g><g><g><text x="155.33334350585938" y="8.666671752929688" style="white-space:pre;stroke:none;fill:rgb(0,0,0);fill-opacity:1;font-size:15px;font-family:Arial, Helvetica, sans-serif;font-weight:400;font-style:normal;dominant-baseline:text-before-edge;text-decoration:none;">Inputs from head water</text></g></g></g><g><g><g><text x="253.33334350585938" y="82.66668701171875" style="white-space:pre;stroke:none;fill:rgb(0,0,0);fill-opacity:1;font-size:15px;font-family:Arial, Helvetica, sans-serif;font-weight:400;font-style:normal;dominant-baseline:text-before-edge;text-decoration:none;">Outputs to head water</text></g></g></g><g transform="matrix(0.8798145434409992,0.4753171248226874,-0.4753171248226874,0.8798145434409992,288.9739566426647,-74.06096256632122)"><g><g><text x="237.57290649414062" y="518.8958740234375" style="white-space:pre;stroke:none;fill:rgb(0,0,0);fill-opacity:1;font-size:25.95px;font-family:Arial, Helvetica, sans-serif;font-weight:400;font-style:normal;dominant-baseline:text-before-edge;text-decoration:none;">Penstock</text></g></g></g><g><g><g><text x="377.3333435058594" y="163.66668701171875" style="white-space:pre;stroke:none;fill:rgb(0,0,0);fill-opacity:1;font-size:15px;font-family:Arial, Helvetica, sans-serif;font-weight:400;font-style:normal;dominant-baseline:text-before-edge;text-decoration:none;">Control Volume for momentum balance</text></g></g></g><g><g><g><text x="450.3333435058594" y="255.66668701171875" style="white-space:pre;stroke:none;fill:rgb(0,0,0);fill-opacity:1;font-size:15px;font-family:Arial, Helvetica, sans-serif;font-weight:400;font-style:normal;dominant-baseline:text-before-edge;text-decoration:none;">Control Volume for mass balance or continuity </text></g></g></g><g><g><g><g transform="matrix(1,0,0,1,305.3333435058594,485)"><path transform="matrix(0.017,0,0,-0.017,0,0)" d="M349 664L352 692L238 689C222 689 204 689 161 690L97 692L94 664L141 662C165 661 176 653 176 635L81 55C77 37 65 30 21 23L16 -3L57 -2C88 -1 150 0 170 0C170 0 467 -1 467 -1C467 -1 500 0 500 0C499 25 510 103 523 165L492 165L475 103C466 71 457 54 448 49C435 44 371 39 304 39C255 39 228 40 162 46C165 64 256 605 256 613C263 651 270 658 307 661Z" stroke="rgb(0,0,0)" stroke-opacity="1" stroke-width="0" fill="rgb(0,0,0)" fill-opacity="1"></path></g></g><g><g><g><g><g transform="matrix(1,0,0,1,315.2708435058594,489.3375)"><path transform="matrix(0.0119,0,0,-0.0119,0,0)" d="M176 -11C232 -11 347 62 390 125C431 186 465 296 465 371C465 438 442 482 406 482C364 482 311 456 259 409C218 374 198 348 162 289L186 408C189 425 191 440 191 452C191 471 183 482 169 482C148 482 110 461 36 408L8 388L15 368L47 389C75 407 86 412 95 412C105 412 112 403 112 389C112 381 110 361 108 351L50 8C40 -52 21 -143 1 -233L-7 -270L0 -276C21 -269 41 -264 73 -259L115 3C136 -4 158 -11 176 -11ZM143 165C165 293 272 424 355 424C381 424 393 402 393 356C393 275 353 156 300 80C280 51 248 36 207 36C176 36 151 43 125 59Z" stroke="rgb(0,0,0)" stroke-opacity="1" stroke-width="0" fill="rgb(0,0,0)" fill-opacity="1"></path></g></g></g></g></g></g></g></svg>
</svg>
