<svg xmlns="http://www.w3.org/2000/svg" xmlns:xlink="http://www.w3.org/1999/xlink" x="0" y="0" width="318" height="260" style="
        width:318px;
        height:260px;
        background: #FFF;
        fill: none;
">
        
        
        <svg xmlns="http://www.w3.org/2000/svg" class="role-diagram-draw-area"><g class="shapes-region" style="stroke: black; fill: none;"><g class="arrow-line"><path class="connection real" stroke-dasharray="" d="  M215.61,60.82 C209.31,175.74 131.58,190.41 73.01,179.03 C71.04,178.65 69.1,178.24 67.17,177.8" style="stroke: rgb(208, 2, 27); stroke-opacity: 1; stroke-width: 2; fill: none; fill-opacity: 1;"/></g><g class="arrow-line"><path class="connection real" stroke-dasharray="" d="  M152.4,66.8 C169.47,135.54 127.83,122.76 68.9,118.8" style="stroke: rgb(0, 0, 0); stroke-width: 2; fill: none; fill-opacity: 1;"/></g><g class="arrow-line"><path class="connection real" stroke-dasharray="" d="  M272.82,63.31 C284,206.86 129.5,231.29 70.4,217.8" style="stroke: rgb(0, 0, 0); stroke-width: 2; fill: none; fill-opacity: 1;"/></g><g class="composite-shape"><path class="real" d=" M50.4,168.3 C50.4,140.96 58.68,118.8 68.9,118.8 C79.11,118.8 87.4,140.96 87.4,168.3 C87.4,195.64 79.11,217.8 68.9,217.8 C58.68,217.8 50.4,195.64 50.4,168.3 Z" style="stroke-width: 1; stroke: rgb(0, 0, 0); fill: none; fill-opacity: 1;"/></g><g class="composite-shape"><path class="real" d=" M151.5,63.28 C151.38,55.81 178.44,49.33 211.93,48.81 C245.43,48.29 272.67,53.92 272.79,61.39 C272.91,68.87 245.85,75.34 212.35,75.86 C178.86,76.39 151.61,70.75 151.5,63.28 Z" style="stroke-width: 2; stroke: rgb(0, 0, 0); fill: none; fill-opacity: 1;"/></g><g class="composite-shape"><path class="real" d=" M157.82,63.12 C157.75,58.45 182.01,54.29 212.01,53.82 C242.01,53.36 266.39,56.76 266.47,61.43 C266.54,66.1 242.28,70.27 212.27,70.73 C182.27,71.2 157.89,67.79 157.82,63.12 Z" style="stroke-width: 2; stroke: rgb(0, 0, 0); fill: rgb(144, 19, 254); fill-opacity: 0.28;"/></g><g class="composite-shape"><path class="real" d=" M55.4,168.8 C55.4,143.95 61.44,123.8 68.9,123.8 C76.35,123.8 82.4,143.95 82.4,168.8 C82.4,193.65 76.35,213.8 68.9,213.8 C61.44,213.8 55.4,193.65 55.4,168.8 Z" style="stroke-width: 1; stroke: rgb(0, 0, 0); fill: rgb(144, 19, 254); fill-opacity: 0.28;"/></g><g class="composite-shape"><path class="real" d=" M67.17,177.8 C67.17,175.9 68.71,174.37 70.61,174.37 C72.5,174.37 74.04,175.9 74.04,177.8 C74.04,179.7 72.5,181.23 70.61,181.23 C68.71,181.23 67.17,179.7 67.17,177.8 Z" style="stroke-width: 1; stroke: rgb(0, 0, 0); fill: rgb(0, 0, 0); fill-opacity: 1;"/></g><g class="composite-shape"><path class="real" d=" M212.17,64.25 C212.17,62.36 213.71,60.82 215.61,60.82 C217.5,60.82 219.04,62.36 219.04,64.25 C219.04,66.15 217.5,67.68 215.61,67.68 C213.71,67.68 212.17,66.15 212.17,64.25 Z" style="stroke-width: 1; stroke: rgb(0, 0, 0); fill: rgb(0, 0, 0); fill-opacity: 1;"/></g><g class="arrow-line"><path class="connection real" stroke-dasharray="" d="  M234.1,116.6 L211.93,145.23" style="stroke: rgb(0, 0, 0); stroke-width: 1; fill: none; fill-opacity: 1;"/><g stroke="none" fill="#000" transform="matrix(0.612217280034449,-0.7906895737438435,0.7906895737438435,0.612217280034449,210.09636310269286,147.5999984741211)" style="stroke: none; fill: rgb(0, 0, 0); stroke-width: 1;"><path d=" M8.93,-4.29 L0,0 L8.93,4.29 Z"/></g></g><g class="arrow-line"><path class="connection real" stroke-dasharray="" d="  M193.32,101.02 L173.1,128.6" style="stroke: rgb(0, 0, 0); stroke-width: 1; fill: none; fill-opacity: 1;"/><g stroke="none" fill="#000" transform="matrix(-0.5913096483635821,0.8064446042674828,-0.8064446042674828,-0.5913096483635821,195.0963631026929,98.5999984741211)" style="stroke: none; fill: rgb(0, 0, 0); stroke-width: 1;"><path d=" M10.72,-5.15 L0,0 L10.72,5.15 L7.12,0 Z"/></g></g><g class="arrow-line"><path class="connection real" stroke-dasharray="" d="  M186.56,146.95 L186.57,183.69" style="stroke: rgb(0, 0, 0); stroke-width: 1; fill: none; fill-opacity: 1;"/><g stroke="none" fill="#000" transform="matrix(-0.00017453292431350963,-0.9999999847691291,0.9999999847691291,-0.00017453292431350963,186.56720266793275,186.6930705491508)" style="stroke: none; fill: rgb(0, 0, 0); stroke-width: 1;"><path d=" M8.93,-4.29 L0,0 L8.93,4.29 Z"/></g></g><g class="arrow-line"><path class="connection real" stroke-dasharray="" d="  M42.5,211.8 L42.5,119.8" style="stroke: rgb(0, 0, 0); stroke-width: 1; fill: none; fill-opacity: 1;"/><g stroke="none" fill="#000" transform="matrix(3.061616997868383e-16,1,-1,3.061616997868383e-16,42.49635699917725,116.79999542236328)" style="stroke: none; fill: rgb(0, 0, 0); stroke-width: 1;"><path d=" M10.72,-5.15 L0,0 L10.72,5.15 L7.12,0 Z"/></g><g stroke="none" fill="#000" transform="matrix(-1.8369701987210297e-16,-1,1,-1.8369701987210297e-16,42.49635699917724,214.79999542236328)" style="stroke: none; fill: rgb(0, 0, 0); stroke-width: 1;"><path d=" M10.72,-5.15 L0,0 L10.72,5.15 L7.12,0 Z"/></g></g><g class="arrow-line"><path class="connection real" stroke-dasharray="" d="  M262.47,36.48 L159.82,38.07" style="stroke: rgb(0, 0, 0); stroke-width: 1; fill: none; fill-opacity: 1;"/><g stroke="none" fill="#000" transform="matrix(0.9998793586966922,-0.015532805679965123,0.015532805679965123,0.9998793586966922,156.81929505119183,38.12156244290888)" style="stroke: none; fill: rgb(0, 0, 0); stroke-width: 1;"><path d=" M10.72,-5.15 L0,0 L10.72,5.15 L7.12,0 Z"/></g><g stroke="none" fill="#000" transform="matrix(-0.9998793586966922,0.015532805679964557,-0.015532805679964557,-0.9998793586966922,265.4662615383959,36.43376660685608)" style="stroke: none; fill: rgb(0, 0, 0); stroke-width: 1;"><path d=" M10.72,-5.15 L0,0 L10.72,5.15 L7.12,0 Z"/></g></g><g class="composite-shape"><path class="real" d=" M181.14,145.24 C182.09,142.25 185.28,140.59 188.27,141.54 C191.26,142.48 192.92,145.67 191.97,148.67 C191.03,151.66 187.84,153.32 184.84,152.37 C181.85,151.42 180.19,148.23 181.14,145.24 Z" style="stroke-width: 1; stroke: rgb(208, 2, 27); stroke-opacity: 1; fill: rgb(208, 2, 27); fill-opacity: 1;"/></g><g/></g><g/><g/><g/></svg>
        <svg xmlns="http://www.w3.org/2000/svg" xmlns:xlink="http://www.w3.org/1999/xlink" width="316" height="258" style="width:316px;height:258px;font-family:Asana-Math, Asana;background:#FFF;"><g><g><g><g transform="matrix(1,0,0,1,223.0859375,64.9921875)"><path transform="matrix(0.017,0,0,-0.017,0,0)" d="M176 -11C232 -11 347 62 390 125C431 186 465 296 465 371C465 438 442 482 406 482C364 482 311 456 259 409C218 374 198 348 162 289L186 408C189 425 191 440 191 452C191 471 183 482 169 482C148 482 110 461 36 408L8 388L15 368L47 389C75 407 86 412 95 412C105 412 112 403 112 389C112 381 110 361 108 351L50 8C40 -52 21 -143 1 -233L-7 -270L0 -276C21 -269 41 -264 73 -259L115 3C136 -4 158 -11 176 -11ZM143 165C165 293 272 424 355 424C381 424 393 402 393 356C393 275 353 156 300 80C280 51 248 36 207 36C176 36 151 43 125 59Z" stroke="rgb(0,0,0)" stroke-opacity="1" stroke-width="0" fill="rgb(0,0,0)" fill-opacity="1"></path></g></g><g><g><g><g><g transform="matrix(1,0,0,1,232.0703125,68.0015625)"><path transform="matrix(0.0119,0,0,-0.0119,0,0)" d="M188 465L179 469C128 448 76 434 23 428L23 400L60 400C100 400 104 393 104 327L104 102C104 39 101 32 67 30L21 27L21 -3C121 0 121 0 146 0C171 0 171 0 271 -3L271 27L225 30C191 32 188 39 188 102ZM142 687C112 687 86 661 86 631C86 602 112 576 141 576C170 576 197 602 197 631C197 659 170 687 142 687Z" stroke="rgb(0,0,0)" stroke-opacity="1" stroke-width="0" fill="rgb(0,0,0)" fill-opacity="1"></path></g></g></g></g></g></g></g><g><g><g><g transform="matrix(1,0,0,1,61.9921875,167.7890625)"><path transform="matrix(0.017,0,0,-0.017,0,0)" d="M176 -11C232 -11 347 62 390 125C431 186 465 296 465 371C465 438 442 482 406 482C364 482 311 456 259 409C218 374 198 348 162 289L186 408C189 425 191 440 191 452C191 471 183 482 169 482C148 482 110 461 36 408L8 388L15 368L47 389C75 407 86 412 95 412C105 412 112 403 112 389C112 381 110 361 108 351L50 8C40 -52 21 -143 1 -233L-7 -270L0 -276C21 -269 41 -264 73 -259L115 3C136 -4 158 -11 176 -11ZM143 165C165 293 272 424 355 424C381 424 393 402 393 356C393 275 353 156 300 80C280 51 248 36 207 36C176 36 151 43 125 59Z" stroke="rgb(0,0,0)" stroke-opacity="1" stroke-width="0" fill="rgb(0,0,0)" fill-opacity="1"></path></g></g><g><g><g><g><g transform="matrix(1,0,0,1,70.9765625,170.7984375)"><path transform="matrix(0.0119,0,0,-0.0119,0,0)" d="M250 -20C315 -20 405 18 417 36L437 70L424 80C360 42 337 33 294 33C229 33 175 62 147 111C128 144 121 172 119 230C140 227 170 226 204 226C290 226 399 234 446 244C447 258 448 267 448 279C448 394 374 469 262 469C225 469 180 464 140 440C58 392 26 323 26 219C26 25 161 -20 250 -20ZM359 267C335 264 284 261 233 261C190 261 147 264 121 270C121 317 125 339 138 365C159 409 202 436 250 436C283 436 309 423 327 396C349 363 356 334 359 267Z" stroke="rgb(0,0,0)" stroke-opacity="1" stroke-width="0" fill="rgb(0,0,0)" fill-opacity="1"></path></g></g></g></g></g></g></g><g><g><g><g><g><g><g transform="matrix(1,0,0,1,236.0859375,118)"><path transform="matrix(0.017,0,0,-0.017,0,0)" d="M310 96L239 624C237 646 241 661 281 662L323 664L323 692L282 691C245 690 217 689 199 689C181 689 153 690 116 691L75 692L75 664L100 662C144 659 152 651 159 614L247 -8L296 -8L674 611C699 651 707 658 736 662L754 664L754 692L724 691C697 690 674 689 658 689C648 689 621 690 580 691L534 692L534 664L560 662C598 659 617 649 617 630C617 619 613 608 601 588Z" stroke="rgb(0,0,0)" stroke-opacity="1" stroke-width="0" fill="rgb(0,0,0)" fill-opacity="1"></path></g></g></g></g><g><g transform="matrix(1,0,0,1,240.9515380859375,114)"><path transform="matrix(0.017,0,0,-0.017,0,0)" d="M124 800C94 800 67 772 67 742C67 712 94 684 123 684C155 684 183 711 183 742C183 772 155 800 124 800Z" stroke="rgb(0,0,0)" stroke-opacity="1" stroke-width="0" fill="rgb(0,0,0)" fill-opacity="1"></path></g></g></g></g></g><g><g><g><g transform="matrix(1,0,0,1,189.09375,94.9921875)"><path transform="matrix(0.017,0,0,-0.017,0,0)" d="M286 646L392 650C454 650 494 641 495 626L503 537L527 537C530 600 537 651 548 689C526 691 498 692 481 692L440 691L275 689L246 689C221 689 181 690 143 691L94 692L91 664L147 662C171 661 182 652 182 635C182 621 178 589 173 559L98 125C81 33 81 32 40 28L4 25L0 -3L34 -2C74 -1 106 0 127 0C145 0 174 -1 213 -2L265 -3L268 25L204 28C177 29 168 37 168 57C168 63 169 74 170 78L206 301L323 301C350 301 381 300 429 298L455 297L474 342L470 349C389 345 329 343 251 343L214 343L260 614C263 630 264 635 269 646Z" stroke="rgb(0,0,0)" stroke-opacity="1" stroke-width="0" fill="rgb(0,0,0)" fill-opacity="1"></path></g></g><g><g><g><g><g transform="matrix(1,0,0,1,199.03125,98.0015625)"><path transform="matrix(0.0119,0,0,-0.0119,0,0)" d="M341 717C317 731 295 737 274 737C163 737 106 555 106 478L106 476L106 434L37 403L37 381L106 385L106 102C106 39 103 32 69 30L23 27L23 -3C123 0 123 0 148 0C173 0 173 0 273 -3L273 27L227 30C193 32 190 39 190 102L190 385L314 385L321 438L190 434L190 519C190 634 203 662 260 662C287 662 305 655 329 634L341 640Z" stroke="rgb(0,0,0)" stroke-opacity="1" stroke-width="0" fill="rgb(0,0,0)" fill-opacity="1"></path></g></g></g></g></g></g></g><g><g><g><g transform="matrix(1,0,0,1,175.09375,195.9921875)"><path transform="matrix(0.017,0,0,-0.017,0,0)" d="M286 646L392 650C454 650 494 641 495 626L503 537L527 537C530 600 537 651 548 689C526 691 498 692 481 692L440 691L275 689L246 689C221 689 181 690 143 691L94 692L91 664L147 662C171 661 182 652 182 635C182 621 178 589 173 559L98 125C81 33 81 32 40 28L4 25L0 -3L34 -2C74 -1 106 0 127 0C145 0 174 -1 213 -2L265 -3L268 25L204 28C177 29 168 37 168 57C168 63 169 74 170 78L206 301L323 301C350 301 381 300 429 298L455 297L474 342L470 349C389 345 329 343 251 343L214 343L260 614C263 630 264 635 269 646Z" stroke="rgb(0,0,0)" stroke-opacity="1" stroke-width="0" fill="rgb(0,0,0)" fill-opacity="1"></path></g></g><g><g><g><g><g transform="matrix(1,0,0,1,185.03125,199.0015625)"><path transform="matrix(0.0119,0,0,-0.0119,0,0)" d="M55 289C55 215 101 164 175 156L96 95C86 80 81 67 81 52C81 24 99 8 147 -6L60 -53C46 -61 32 -98 32 -129C32 -220 121 -283 248 -283C399 -283 518 -188 518 -66C518 6 470 56 400 56L240 56C188 56 164 68 164 95C164 118 193 135 210 152C220 151 226 150 234 150C295 150 438 197 438 324C438 344 435 357 427 378L519 378L544 419L540 431L398 427C361 457 325 469 276 469C201 469 55 424 55 289ZM240 435C308 435 354 379 354 294C354 229 312 184 251 184C184 184 139 236 139 313C139 390 176 435 240 435ZM287 -14C400 -14 439 -37 439 -102C439 -188 360 -252 255 -252C168 -252 108 -201 108 -127C108 -82 134 -41 174 -24C190 -16 218 -14 287 -14Z" stroke="rgb(0,0,0)" stroke-opacity="1" stroke-width="0" fill="rgb(0,0,0)" fill-opacity="1"></path></g></g></g></g></g></g></g><g><g><g><g transform="matrix(1,0,0,1,209.09375,30.9921875)"><path transform="matrix(0.017,0,0,-0.017,0,0)" d="M316 -3C388 -3 437 8 489 34C645 114 741 265 741 431C741 529 711 599 650 642C604 675 519 693 424 692L220 689L210 689C201 689 198 689 97 692L94 664L147 662C171 661 182 653 182 635C182 621 178 589 173 559L86 55C81 31 56 29 33 23L28 -3L121 0L176 0C211 0 282 -3 316 -3ZM384 655C566 655 649 579 649 415C649 225 549 41 329 41C285 41 236 46 168 56C168 68 169 75 172 93L268 650C291 650 349 655 384 655Z" stroke="rgb(0,0,0)" stroke-opacity="1" stroke-width="0" fill="rgb(0,0,0)" fill-opacity="1"></path></g></g><g><g><g><g><g transform="matrix(1,0,0,1,222.8125,34.0015625)"><path transform="matrix(0.0119,0,0,-0.0119,0,0)" d="M188 465L179 469C128 448 76 434 23 428L23 400L60 400C100 400 104 393 104 327L104 102C104 39 101 32 67 30L21 27L21 -3C121 0 121 0 146 0C171 0 171 0 271 -3L271 27L225 30C191 32 188 39 188 102ZM142 687C112 687 86 661 86 631C86 602 112 576 141 576C170 576 197 602 197 631C197 659 170 687 142 687Z" stroke="rgb(0,0,0)" stroke-opacity="1" stroke-width="0" fill="rgb(0,0,0)" fill-opacity="1"></path></g></g></g></g></g></g></g><g><g><g><g transform="matrix(1,0,0,1,14.0859375,174.734375)"><path transform="matrix(0.017,0,0,-0.017,0,0)" d="M316 -3C388 -3 437 8 489 34C645 114 741 265 741 431C741 529 711 599 650 642C604 675 519 693 424 692L220 689L210 689C201 689 198 689 97 692L94 664L147 662C171 661 182 653 182 635C182 621 178 589 173 559L86 55C81 31 56 29 33 23L28 -3L121 0L176 0C211 0 282 -3 316 -3ZM384 655C566 655 649 579 649 415C649 225 549 41 329 41C285 41 236 46 168 56C168 68 169 75 172 93L268 650C291 650 349 655 384 655Z" stroke="rgb(0,0,0)" stroke-opacity="1" stroke-width="0" fill="rgb(0,0,0)" fill-opacity="1"></path></g></g><g><g><g></g></g><g><g><g><g transform="matrix(1,0,0,1,27.8046875,178.4)"><path transform="matrix(0.0119,0,0,-0.0119,0,0)" d="M250 -20C315 -20 405 18 417 36L437 70L424 80C360 42 337 33 294 33C229 33 175 62 147 111C128 144 121 172 119 230C140 227 170 226 204 226C290 226 399 234 446 244C447 258 448 267 448 279C448 394 374 469 262 469C225 469 180 464 140 440C58 392 26 323 26 219C26 25 161 -20 250 -20ZM359 267C335 264 284 261 233 261C190 261 147 264 121 270C121 317 125 339 138 365C159 409 202 436 250 436C283 436 309 423 327 396C349 363 356 334 359 267Z" stroke="rgb(0,0,0)" stroke-opacity="1" stroke-width="0" fill="rgb(0,0,0)" fill-opacity="1"></path></g></g></g></g></g></g></g><g><g><g><g transform="matrix(1,0,0,1,149.0859375,150.390625)"><path transform="matrix(0.017,0,0,-0.017,0,0)" d="M22 342C22 126 180 -20 415 -20C498 -20 573 -2 642 34L670 84L661 94C599 54 530 34 454 34C259 34 129 164 129 361C129 545 243 667 415 667C513 667 614 627 614 588L614 516L645 516C646 566 650 602 664 668C579 696 506 709 433 709C218 709 22 582 22 342ZM1440 120C1440 41 1436 34 1389 30L1355 27L1355 -3C1401 -1 1431 0 1483 0C1539 0 1575 -1 1634 -3L1634 27L1586 30C1540 33 1535 41 1535 120L1535 569C1535 647 1540 656 1586 659L1628 662L1628 692C1552 689 1552 689 1535 689C1520 689 1520 689 1440 692L1178 136L914 692C834 689 834 689 819 689C804 689 804 689 724 692L724 662L768 659C814 656 819 647 819 569L819 120C819 42 814 33 768 30L724 27L724 -3C823 0 823 0 840 0C855 0 855 0 960 -3L960 27L916 30C870 33 865 42 865 120L865 578L1144 -13L1164 -13L1440 578Z" stroke="rgb(0,0,0)" stroke-opacity="1" stroke-width="0" fill="rgb(0,0,0)" fill-opacity="1"></path></g></g></g></g></svg>
</svg>
