<?xml version="1.0" encoding="UTF-8"?>
<svg width="208px" height="208px" version="1.1" viewBox="0 0 26 26" xmlns="http://www.w3.org/2000/svg">
 <path d="m11.469 0.96875-0.5625 3.5625c-0.85547 0.21094-1.6719 0.52734-2.4062 0.96875l-2.9375-2.0938-2.125 2.125 2.0625 2.9375c-0.44531 0.73828-0.78516 1.5469-1 2.4062l-3.5312 0.59375v3l3.5312 0.625c0.21484 0.85938 0.55469 1.668 1 2.4062l-2.0938 2.9375 2.125 2.125 2.9375-2.0625c0.73438 0.44141 1.5508 0.75781 2.4062 0.96875l0.59375 3.5625h3l0.65625-3.5625c0.85156-0.21484 1.6445-0.55469 2.375-1l2.9688 2.0938 2.125-2.125-2.125-2.9375c0.4375-0.73047 0.78906-1.5273 1-2.375l3.5625-0.65625v-3l-3.5625-0.59375c-0.21094-0.84766-0.5625-1.6445-1-2.375l2.0938-2.9688-2.125-2.125-2.9375 2.125c-0.73047-0.44141-1.5508-0.78516-2.4062-1l-0.625-3.5625zm1.5312 5.5c3.6055 0 6.5312 2.9258 6.5312 6.5312s-2.9258 6.5312-6.5312 6.5312-6.5312-2.9297-6.5312-6.5312c0-3.6016 2.9258-6.5312 6.5312-6.5312z"/>
 <g transform="matrix(.20119 0 0 .20119 8.1371 7.9062)">
  <path d="M 17,33 26,22 H 19 L 36.166,4.902 C 32.857,3.056 29.05,2 25,2 12.318,2 2,12.318 2,25 2,33.752 6.915,41.376 14.128,45.262 L 22,33 Z"/>
  <path d="M 37.404,5.647 30,17 h 6 l -9,11 h 6 L 15.247,45.823 C 18.21,47.217 21.515,48 25,48 37.682,48 48,37.682 48,25 48,16.884 43.771,9.742 37.404,5.647 Z"/>
  <path d="m11.087 50 4.16-4.177c-0.378-0.178-0.752-0.364-1.119-0.561z"/>
  <path d="m41.087 0-4.921 4.902c0.422 0.235 0.834 0.485 1.238 0.745z"/>
 </g>
</svg>
