<?xml version="1.0" encoding="iso-8859-1"?>
<!-- Generator: Adobe Illustrator 21.1.0, SVG Export Plug-In . SVG Version: 6.00 Build 0)  -->
<svg xmlns="http://www.w3.org/2000/svg" xmlns:xlink="http://www.w3.org/1999/xlink" version="1.1" id="Layer_1" x="0px" y="0px" viewBox="0 0 50 50" style="enable-background:new 0 0 50 50;" xml:space="preserve" width="500px" height="500px">
<g>
	<path d="M17,33l9-11h-7L36.166,4.902C32.857,3.056,29.05,2,25,2C12.318,2,2,12.318,2,25c0,8.752,4.915,16.376,12.128,20.262L22,33   H17z"/>
	<path d="M37.404,5.647L30,17h6l-9,11h6L15.247,45.823C18.21,47.217,21.515,48,25,48c12.682,0,23-10.318,23-23   C48,16.884,43.771,9.742,37.404,5.647z"/>
	<path d="M11.087,50l4.16-4.177c-0.378-0.178-0.752-0.364-1.119-0.561L11.087,50z"/>
	<path d="M41.087,0l-4.921,4.902c0.422,0.235,0.834,0.485,1.238,0.745L41.087,0z"/>
</g>
</svg>
