<?xml version="1.0" encoding="UTF-8"?>
<svg width="500px" height="500px" enable-background="new 0 0 50 50" version="1.1" viewBox="0 0 50 50" xml:space="preserve" xmlns="http://www.w3.org/2000/svg">
<path d="m32 35.409v-3.875l-4.612-0.753c-0.273-1.093-0.702-2.119-1.267-3.06l2.688-3.831-2.74-2.739-3.782 2.719c-0.943-0.571-1.976-1.006-3.076-1.28l-0.804-4.589h-3.875l-0.747 4.575c-1.101 0.27-2.14 0.699-3.085 1.268l-3.771-2.694-2.74 2.739 2.653 3.793c-0.573 0.95-1.01 1.987-1.287 3.095l-4.555 0.757v3.875l4.549 0.806c0.274 1.106 0.711 2.143 1.287 3.094l-2.689 3.76 2.739 2.742 3.798-2.66c0.948 0.57 1.985 1.002 3.085 1.274l0.762 4.577h3.875l0.814-4.589c1.095-0.277 2.129-0.713 3.068-1.285l3.824 2.684 2.74-2.742-2.73-3.791c0.565-0.941 0.994-1.968 1.265-3.061l4.613-0.809zm-15.5 3.258c-2.853 0-5.167-2.314-5.167-5.167s2.313-5.167 5.167-5.167 5.167 2.314 5.167 5.167c0 2.854-2.314 5.167-5.167 5.167z" fill="none" stroke="#000" stroke-linecap="round" stroke-linejoin="round" stroke-miterlimit="10" stroke-width="2"/>
<path d="m47.844 18.982 1.156-2.843-3.159-1.928c0.126-0.883 0.117-1.764-0.017-2.623l3.115-2.009-1.193-2.827-3.586 0.867c-0.521-0.7-1.15-1.327-1.875-1.857l0.779-3.607-2.843-1.155-1.912 3.133c-0.888-0.13-1.778-0.125-2.642 0.01l-1.963-3.101-2.827 1.192 0.815 3.574c-0.704 0.526-1.333 1.157-1.867 1.887l-3.567-0.802-1.156 2.843 3.097 1.948c-0.128 0.893-0.118 1.784 0.021 2.654l-3.094 1.957 1.192 2.829 3.58-0.819c0.525 0.701 1.157 1.327 1.884 1.855l-0.806 3.585 2.843 1.156 1.966-3.124c0.886 0.123 1.775 0.112 2.634-0.028l2.005 3.11 2.828-1.194-0.872-3.595c0.695-0.522 1.316-1.147 1.841-1.869l3.623 0.781zm-12.343-2.232c-2.093-0.851-3.1-3.238-2.249-5.331s3.238-3.1 5.331-2.249 3.1 3.238 2.249 5.331c-0.85 2.092-3.238 3.1-5.331 2.249z" fill="none" stroke="#000" stroke-linecap="round" stroke-linejoin="round" stroke-miterlimit="10" stroke-width="2"/>
</svg>
