<?xml version="1.0" encoding="UTF-8"?>
<svg width="896.09px" height="896.09px" enable-background="new 0 0 896.09 896.09" version="1.1" viewBox="0 0 896.09 896.09" xml:space="preserve" xmlns="http://www.w3.org/2000/svg">
		<path d="m448.04 0c-113.82 0-217.57 43.042-296.71 113.21l44.794 30.137c68.558-56.293 156.34-90.149 251.92-90.149 218.63 0 396.5 177.12 396.5 394.84 0 217.71-177.86 394.83-396.5 394.83-218.66 0-396.52-177.12-396.52-394.83 0-108.94 44.575-207.7 116.41-279.19l-23.983-48.909c-88.276 81.875-143.95 198.48-143.95 328.1 0 247.05 201 448.04 448.04 448.04 247.05 0 448.04-201 448.04-448.04 1e-3 -247.08-201-448.04-448.04-448.04z"/>
		<path d="m95.659 448.04c0 97.409 46.296 185.16 97.845 247.68l25.761-19.499 65.302-82.776-14.984-28.003-75.859 52.942c-33.116-48.649-51.466-107.14-51.466-170.34 0-72.755 25.759-139.45 68.529-191.77l-19.936-40.679c-58.494 61.175-95.192 142.64-95.192 232.45z"/>
		<path d="m218.09 189.87-16.38-11.007 20.646 42.1 7.138 14.548 114.8 234.22c3.611 16.161 10.612 30.271 20.896 42.059 18.158 20.812 44.411 32.762 72.058 32.762h0.026c23.026 0 45.26-8.312 62.68-23.436 19.359-16.847 30.982-40.228 32.68-65.782 1.723-25.487-6.537-50.099-23.328-69.364-10.473-11.992-23.789-20.947-38.203-25.926l-217.79-146.48 0.028-0.013-35.223-23.696-0.03 0.011z"/>
		<path d="m619.78 567.69-6.154 28.905 69.541 77.911 25.764 21.221c51.547-62.515 94.645-150.27 94.645-247.66 0-189.63-165.53-343.38-355.53-343.38-76.98 0-149.15 25.542-208.11 68.134l35.715 24.022c48.54-33.02 107.06-52.478 170.07-52.875 56.989 0.369 111.66 16.504 159.21 43.973 88.301 53.258 147.56 149.64 147.56 260.12 0 62.72-18.951 120.89-51.631 169.29l-81.081-49.66z"/>
</svg>
