<?xml version="1.0" standalone="no"?>
<!DOCTYPE svg PUBLIC "-//W3C//DTD SVG 20010904//EN"
 "http://www.w3.org/TR/2001/REC-SVG-20010904/DTD/svg10.dtd">
<svg version="1.0" xmlns="http://www.w3.org/2000/svg"
 width="854.000000pt" height="854.000000pt" viewBox="0 0 854.000000 854.000000"
 preserveAspectRatio="xMidYMid meet">

<g transform="translate(0.000000,854.000000) scale(0.100000,-0.100000)"
fill="#000000" stroke="none">
<path d="M7485 8345 c-82 -22 -156 -54 -235 -102 -308 -187 -774 -660 -1100
-1118 -235 -329 -513 -696 -719 -947 -90 -109 -96 -115 -120 -106 -79 30 -374
101 -366 89 2 -4 -15 -12 -39 -18 -141 -38 -227 -231 -212 -478 11 -192 58
-362 162 -585 110 -238 138 -371 138 -665 0 -253 -19 -370 -85 -510 -47 -99
-62 -177 -62 -315 0 -69 3 -143 7 -166 l7 -41 112 -27 c346 -86 677 -276 878
-507 216 -247 350 -546 414 -924 22 -129 22 -334 1 -435 -9 -41 -16 -76 -16
-77 0 -2 13 -3 28 -3 48 0 242 210 345 373 322 506 419 1305 257 2107 -16 80
-43 185 -60 234 -33 98 -37 153 -16 194 30 57 107 108 205 138 108 32 317 219
374 333 32 65 32 68 33 216 1 171 12 221 149 695 123 424 169 568 235 730 110
271 131 332 170 485 61 236 75 348 75 595 0 230 -9 306 -52 445 -65 208 -175
339 -322 385 -73 23 -116 24 -186 5z m-16 -571 c39 -15 127 -110 194 -208 63
-94 86 -275 52 -411 -21 -84 -104 -246 -174 -340 -252 -339 -335 -505 -406
-810 -58 -246 -107 -388 -217 -630 -251 -549 -388 -606 -712 -296 -211 202
-266 478 -170 851 64 247 228 579 459 930 391 597 708 920 912 929 13 1 40 -6
62 -15z m-1187 -3785 c109 -23 225 -106 281 -202 68 -116 76 -279 20 -400
-158 -337 -628 -337 -786 0 -40 86 -49 207 -22 299 64 220 282 350 507 303z"/>
<path d="M6101 3894 c-69 -18 -108 -43 -161 -100 -66 -72 -85 -123 -85 -229 0
-78 4 -97 28 -146 66 -136 224 -218 365 -189 112 24 202 91 249 189 24 49 28
68 28 146 0 117 -24 174 -106 250 -93 85 -198 111 -318 79z m13 -116 c36 -33
39 -75 6 -108 -26 -26 -60 -25 -94 1 -52 41 -20 125 51 128 7 1 23 -9 37 -21z"/>
<path d="M814 8092 c-83 -25 -140 -60 -201 -124 -189 -201 -232 -615 -114
-1103 57 -232 120 -396 256 -658 192 -373 415 -899 506 -1199 25 -83 33 -129
39 -239 6 -116 11 -144 33 -193 63 -136 288 -309 459 -351 81 -20 151 -63 178
-107 25 -42 25 -94 0 -201 -70 -294 -84 -778 -35 -1160 83 -635 328 -1137 703
-1438 74 -60 109 -75 99 -41 -60 179 -59 177 -53 362 13 432 101 737 296 1029
106 159 290 335 463 444 87 55 250 135 362 178 l100 38 3 58 c6 117 -32 258
-134 499 -82 194 -99 283 -90 474 8 192 56 392 143 595 44 102 84 230 119 381
35 154 44 364 20 467 -43 182 -157 284 -321 288 -49 1 -120 -20 -290 -86 l-70
-26 -109 113 c-264 273 -491 527 -983 1103 -454 531 -747 780 -1035 882 -99
34 -255 41 -344 15z m291 -465 c202 -102 475 -409 790 -887 269 -410 429 -756
486 -1051 29 -156 24 -336 -15 -455 -43 -134 -123 -242 -264 -355 -242 -195
-359 -152 -546 203 -134 254 -225 493 -294 778 -83 336 -140 458 -359 755
-175 237 -243 396 -243 565 0 89 17 165 51 232 26 51 165 215 197 233 40 23
135 14 197 -18z m1789 -3790 c351 -174 350 -667 -1 -835 -77 -37 -79 -37 -203
-37 -122 0 -127 1 -195 34 -123 60 -225 185 -254 312 -13 56 -13 162 0 218 24
108 104 220 199 281 84 54 150 70 271 67 100 -2 110 -4 183 -40z"/>
<path d="M2595 3747 c-67 -23 -98 -43 -148 -96 -69 -74 -90 -128 -91 -231 -1
-74 3 -93 27 -142 35 -72 97 -134 167 -167 46 -22 69 -26 145 -26 78 0 97 4
147 28 250 123 251 491 1 613 -66 33 -183 42 -248 21z m222 -133 c20 -20 24
-31 19 -57 -9 -44 -29 -61 -72 -61 -68 0 -97 72 -49 119 31 32 69 32 102 -1z"/>
<path d="M4335 3210 c-94 -15 -231 -57 -321 -99 -85 -40 -103 -56 -85 -74 8
-8 35 1 98 31 148 70 247 94 408 99 199 7 341 -26 492 -115 51 -30 53 -31 63
-12 8 16 6 22 -12 34 -52 34 -198 96 -273 116 -92 24 -277 34 -370 20z"/>
<path d="M4260 2985 c-257 -54 -432 -188 -470 -359 -21 -96 25 -199 135 -306
89 -86 163 -212 197 -338 29 -106 31 -365 5 -497 -37 -180 -144 -450 -240
-602 -15 -24 -27 -45 -27 -48 0 -11 153 51 272 111 70 35 160 73 200 84 167
46 331 36 508 -32 152 -58 306 -108 334 -108 22 0 19 8 -51 111 -207 310 -302
609 -290 908 8 212 55 346 142 411 91 68 145 167 145 266 0 170 -142 311 -385
385 -91 28 -373 36 -475 14z"/>
<path d="M5546 2478 c-24 -34 -20 -73 10 -97 15 -12 35 -21 46 -21 27 0 68 45
68 75 0 59 -91 90 -124 43z"/>
<path d="M3506 2139 c-50 -39 -24 -119 39 -119 78 0 101 103 29 130 -34 13
-38 13 -68 -11z"/>
<path d="M5222 1964 c-47 -32 -16 -124 42 -124 37 0 69 32 69 68 0 62 -60 92
-111 56z"/>
<path d="M5820 1888 c-11 -12 -20 -32 -20 -45 0 -29 42 -73 68 -73 33 0 72 38
72 71 0 62 -78 92 -120 47z"/>
<path d="M2976 1738 c-36 -51 -7 -108 53 -108 46 0 71 24 71 67 0 39 -28 63
-73 63 -26 0 -40 -6 -51 -22z"/>
<path d="M3806 1738 c-36 -51 -7 -108 54 -108 29 0 43 6 54 22 36 51 7 108
-54 108 -29 0 -43 -6 -54 -22z"/>
<path d="M3567 1322 c-51 -56 15 -142 82 -107 33 16 45 52 32 88 -16 41 -84
52 -114 19z"/>
<path d="M5406 1318 c-35 -49 -4 -111 54 -111 58 0 89 62 54 111 -21 31 -87
31 -108 0z"/>
</g>
</svg>
