<?xml version="1.0" encoding="UTF-8" standalone="no"?>
<svg
   xmlns:ns2="http://www.iki.fi/pav/software/textext/"
   xmlns:dc="http://purl.org/dc/elements/1.1/"
   xmlns:cc="http://creativecommons.org/ns#"
   xmlns:rdf="http://www.w3.org/1999/02/22-rdf-syntax-ns#"
   xmlns:svg="http://www.w3.org/2000/svg"
   xmlns="http://www.w3.org/2000/svg"
   xmlns:sodipodi="http://sodipodi.sourceforge.net/DTD/sodipodi-0.dtd"
   xmlns:inkscape="http://www.inkscape.org/namespaces/inkscape"
   version="1.1"
   id="svg2"
   xml:space="preserve"
   width="497.15518"
   height="135.88695"
   viewBox="0 0 894.87933 244.5965"
   sodipodi:docname="pip.svg"
   inkscape:version="1.0.1 (1.0.1+r73)"><metadata
     id="metadata8"><rdf:RDF><cc:Work
         rdf:about=""><dc:format>image/svg+xml</dc:format><dc:type
           rdf:resource="http://purl.org/dc/dcmitype/StillImage" /><dc:title></dc:title></cc:Work></rdf:RDF></metadata><defs
     id="defs6"><marker
       style="overflow:visible"
       id="Arrow1Lend"
       refX="0"
       refY="0"
       orient="auto"
       inkscape:stockid="Arrow1Lend"
       inkscape:isstock="true"><path
         transform="matrix(-0.8,0,0,-0.8,-10,0)"
         style="fill:#000000;fill-opacity:1;fill-rule:evenodd;stroke:#000000;stroke-width:1pt;stroke-opacity:1"
         d="M 0,0 5,-5 -12.5,0 5,5 Z"
         id="path3426" /></marker><marker
       style="overflow:visible"
       id="Arrow1Lstart"
       refX="0"
       refY="0"
       orient="auto"
       inkscape:stockid="Arrow1Lstart"
       inkscape:isstock="true"><path
         transform="matrix(0.8,0,0,0.8,10,0)"
         style="fill:#000000;fill-opacity:1;fill-rule:evenodd;stroke:#000000;stroke-width:1pt;stroke-opacity:1"
         d="M 0,0 5,-5 -12.5,0 5,5 Z"
         id="path3423" /></marker><marker
       style="overflow:visible"
       id="Arrow1Lstart-4"
       refX="0"
       refY="0"
       orient="auto"
       inkscape:stockid="Arrow1Lstart"
       inkscape:isstock="true"><path
         transform="matrix(0.8,0,0,0.8,10,0)"
         style="fill:#000000;fill-opacity:1;fill-rule:evenodd;stroke:#000000;stroke-width:1pt;stroke-opacity:1"
         d="M 0,0 5,-5 -12.5,0 5,5 Z"
         id="path3423-7" /></marker><marker
       style="overflow:visible"
       id="Arrow1Lend-4"
       refX="0"
       refY="0"
       orient="auto"
       inkscape:stockid="Arrow1Lend"
       inkscape:isstock="true"><path
         transform="matrix(-0.8,0,0,-0.8,-10,0)"
         style="fill:#000000;fill-opacity:1;fill-rule:evenodd;stroke:#000000;stroke-width:1pt;stroke-opacity:1"
         d="M 0,0 5,-5 -12.5,0 5,5 Z"
         id="path3426-4" /></marker></defs><sodipodi:namedview
     pagecolor="#ffffff"
     bordercolor="#666666"
     borderopacity="1"
     objecttolerance="10"
     gridtolerance="10"
     guidetolerance="10"
     inkscape:pageopacity="0"
     inkscape:pageshadow="2"
     inkscape:window-width="1920"
     inkscape:window-height="1173"
     id="namedview4"
     showgrid="true"
     inkscape:zoom="2.8522281"
     inkscape:cx="248.57759"
     inkscape:cy="67.943471"
     inkscape:window-x="1920"
     inkscape:window-y="0"
     inkscape:window-maximized="1"
     inkscape:current-layer="g90"
     inkscape:document-rotation="0"
     inkscape:snap-grids="true"
     fit-margin-top="0"
     fit-margin-left="0"
     fit-margin-right="0"
     fit-margin-bottom="0"
     scale-x="1.8"><inkscape:grid
       type="xygrid"
       id="grid6525"
       originx="-2.6061136"
       originy="-18.003888" /></sodipodi:namedview><g
     id="g10"
     inkscape:groupmode="layer"
     inkscape:label="intakeRaceForces"
     transform="matrix(1.3333333,0,0,-1.3333333,-1.4478409,244.59783)"><g
       id="g12"><g
         id="g14"
         transform="matrix(0.64723153,0,0,1,166.30532,190.94998)"><path
           d="M 471.789,-90.371 H 776.648"
           style="fill:none;stroke:#000000;stroke-width:0.75;stroke-linecap:round;stroke-linejoin:round;stroke-miterlimit:10;stroke-dasharray:0.75, 1.5;stroke-dashoffset:0;stroke-opacity:1"
           id="path16" /></g><g
         id="g18"
         transform="translate(-86.992605,191.81607)"><path
           d="m 755.969,-85.422 v 27.863"
           style="fill:none;stroke:#000000;stroke-width:0.75;stroke-linecap:round;stroke-linejoin:round;stroke-miterlimit:10;stroke-dasharray:none;stroke-opacity:1"
           id="path20" /></g><path
         d="m 668.97639,100.87713 -3.27,6.543 c 2.063,-1.031 4.492,-1.031 6.539,0 z"
         style="fill:#000000;fill-opacity:1;fill-rule:evenodd;stroke:none"
         id="path22" /><path
         d="m 668.97639,137.63275 3.269,-7.08003 c -2.047,1.11197 -4.476,1.11197 -6.539,0 z"
         style="fill:#000000;fill-opacity:1;fill-rule:evenodd;stroke:none;stroke-width:1.04055"
         id="path24" /></g><g
       id="g90"><g
         id="g92"
         transform="translate(0,190.94998)"><path
           d="M 52.262,-16.961 564.18,-52.738"
           style="fill:none;stroke:#000000;stroke-width:0.75;stroke-linecap:round;stroke-linejoin:round;stroke-miterlimit:10;stroke-dasharray:none;stroke-opacity:1"
           id="path94" /></g><path
         d="m 47.32,174.329 6.75,2.812 c -1.172,-1.98 -1.34,-4.402 -0.461,-6.519 z"
         style="fill:#000000;fill-opacity:1;fill-rule:evenodd;stroke:none"
         id="path96" /><path
         d="m 569.121,137.86 -6.75,-2.801 c 1.168,1.981 1.34,4.403 0.449,6.52 z"
         style="fill:#000000;fill-opacity:1;fill-rule:evenodd;stroke:none"
         id="path98" /><path
         d="M 571.109,123.098 45.238,158.641 45.328,117.829 571.109,81.36 Z"
         style="fill:#c6d8f0;fill-opacity:1;fill-rule:evenodd;stroke:none"
         id="path100" /><g
         id="g102"
         transform="matrix(1.0076261,0,0,0.99999997,-2.3521808,191.61)"><path
           d="M 47.23,-32.969 569.121,-68.512"
           style="fill:none;stroke:#000000;stroke-width:0.75;stroke-linecap:round;stroke-linejoin:round;stroke-miterlimit:10;stroke-dasharray:none;stroke-opacity:1"
           id="path104" /></g><g
         id="g106"
         transform="matrix(1.0076274,0,0,1.0000001,-2.3529323,191.61001)"><path
           d="M 569.121,-110.25 47.32,-73.781"
           style="fill:none;stroke:#000000;stroke-width:0.75;stroke-linecap:round;stroke-linejoin:round;stroke-miterlimit:10;stroke-dasharray:none;stroke-opacity:1"
           id="path108" /></g><g
         id="g110"
         transform="matrix(0.84743186,0,0,1,13.481905,190.94998)"><path
           d="M 773.50702,-52.609 H 37.629"
           style="fill:none;stroke:#000000;stroke-width:0.748301;stroke-linecap:round;stroke-linejoin:round;stroke-miterlimit:10;stroke-dasharray:0.748301, 1.4966;stroke-dashoffset:0;stroke-opacity:1"
           id="path112" /></g><g
         id="g114"
         transform="translate(0,190.94998)"><path
           d="M 308.219,-72.148 V -179.891"
           style="fill:none;stroke:#000000;stroke-width:1.5;stroke-linecap:round;stroke-linejoin:round;stroke-miterlimit:10;stroke-dasharray:none;stroke-opacity:1"
           id="path116" /></g><path
         d="m 312.238,12.059 -4.019,-12.058 -4.02,12.058 z"
         style="fill:#000000;fill-opacity:1;fill-rule:evenodd;stroke:none"
         id="path118" /><g
         id="g128"
         transform="translate(0,190.94998)"><path
           d="m 253.922,-105.078 -78.481,5.488"
           style="fill:none;stroke:#000000;stroke-width:1.5;stroke-linecap:round;stroke-linejoin:round;stroke-miterlimit:10;stroke-dasharray:none;stroke-opacity:1"
           id="path130" /></g><path
         d="m 176.16,87.278 -11.75,4.852 12.309,3.172 z"
         style="fill:#000000;fill-opacity:1;fill-rule:evenodd;stroke:none"
         id="path132" /><path
         style="fill:none;fill-rule:evenodd;stroke:#000000;stroke-width:0.726164px;stroke-linecap:butt;stroke-linejoin:miter;stroke-opacity:1;marker-start:url(#Arrow1Lstart);marker-end:url(#Arrow1Lend)"
         d="m 54.768222,156.19631 0.508894,-37.21605"
         id="path3421"
         inkscape:connector-type="polyline"
         inkscape:connector-curvature="0" /><path
         style="fill:none;fill-rule:evenodd;stroke:#000000;stroke-width:0.727141px;stroke-linecap:butt;stroke-linejoin:miter;stroke-opacity:1;marker-start:url(#Arrow1Lstart-4);marker-end:url(#Arrow1Lend-4)"
         d="m 565.34174,121.15354 0.49895,-38.059929"
         id="path3421-3"
         inkscape:connector-type="polyline"
         inkscape:connector-curvature="0"
         inkscape:transform-center-x="-3.6124487"
         inkscape:transform-center-y="-0.30398641" /></g><g
       id="g166"><g
         id="g168"
         transform="translate(0,190.94998)"><path
           d="m 357.172,-76.141 46.406,-3.16"
           style="fill:none;stroke:#000000;stroke-width:1.5;stroke-linecap:round;stroke-linejoin:round;stroke-miterlimit:10;stroke-dasharray:none;stroke-opacity:1"
           id="path170" /></g><path
         d="m 402.852,115.731 11.757,-4.832 -12.308,-3.199 z"
         style="fill:#000000;fill-opacity:1;fill-rule:evenodd;stroke:none"
         id="path172" /></g><g
       id="g334"
       transform="translate(0.29589793,5.0078351)"><g
         id="g336"
         transform="translate(0,190.94998)"><path
           d="m 571.109,-98.82 c 15.821,-0.649 30.571,-8.18 40.371,-20.621"
           style="fill:none;stroke:#000000;stroke-width:0.75;stroke-linecap:round;stroke-linejoin:round;stroke-miterlimit:10;stroke-dasharray:none;stroke-opacity:1"
           id="path338" /></g></g><g
       transform="matrix(5.0206075,0,0,-5.0206075,1.088391,156.58775)"
       ns2:version="1.1.0"
       ns2:texconverter="lualatex"
       ns2:pdfconverter="inkscape"
       ns2:text="$$p_i$$"
       ns2:preamble="/home/dietmarw/.config/inkscape/extensions/textext/default_packages.tex"
       ns2:scale="0.9999999999999999"
       ns2:alignment="middle center"
       ns2:jacobian_sqrt="1.33333"
       id="g2682"><defs
   id="id-16e62eb2-9c1a-4c82-ab04-0f4d36fb6470" />
  <g
   id="id-1866d566-eec0-45df-8671-d653ff5a5d7f"
   transform="translate(-301.147,-142.314)">
    <g
   style="fill:#000000;fill-opacity:1"
   id="id-749e3f42-5d12-42e3-8987-42ca798ca177">
      <g
   transform="translate(301.459,146.72)"
   id="g2674"><path
   style="stroke:none"
   d="M 0.453125,1.21875 C 0.375,1.5625 0.34375,1.625 -0.09375,1.625 c -0.109375,0 -0.21875,0 -0.21875,0.1875 0,0.078125 0.046875,0.125 0.125,0.125 0.265625,0 0.5625,-0.03125 0.828125,-0.03125 0.34375,0 0.671875,0.03125 1,0.03125 0.046875,0 0.171875,0 0.171875,-0.203125 C 1.8125,1.625 1.71875,1.625 1.578125,1.625 c -0.5,0 -0.5,-0.0625 -0.5,-0.15625 0,-0.125 0.421875,-1.75 0.484375,-2 0.125,0.296875 0.40625,0.640625 0.921875,0.640625 1.15625,0 2.40625,-1.453125 2.40625,-2.921875 0,-0.9375 -0.578125,-1.59375 -1.328125,-1.59375 -0.5,0 -0.984375,0.359375 -1.3125,0.75 -0.09375,-0.546875 -0.53125,-0.75 -0.890625,-0.75 -0.46875,0 -0.65625,0.390625 -0.734375,0.5625 C 0.4375,-3.5 0.3125,-2.90625 0.3125,-2.875 c 0,0.109375 0.09375,0.109375 0.109375,0.109375 0.109375,0 0.109375,-0.015625 0.171875,-0.234375 0.171875,-0.703125 0.375,-1.1875 0.734375,-1.1875 0.171875,0 0.3125,0.078125 0.3125,0.453125 0,0.234375 -0.03125,0.34375 -0.078125,0.515625 z m 1.75,-4.328125 C 2.265625,-3.375 2.546875,-3.65625 2.71875,-3.8125 c 0.359375,-0.296875 0.640625,-0.375 0.8125,-0.375 0.390625,0 0.640625,0.34375 0.640625,0.9375 0,0.59375 -0.328125,1.734375 -0.515625,2.109375 -0.34375,0.703125 -0.8125,1.03125 -1.1875,1.03125 C 1.8125,-0.109375 1.6875,-0.9375 1.6875,-1 c 0,-0.015625 0,-0.03125 0.03125,-0.15625 z m 0,0"
   id="id-123b785a-94a7-4bec-a42f-e2b2eb8de7b5" />
      </g></g>
    <g
   style="fill:#000000;fill-opacity:1"
   id="id-fd011032-f8d0-407e-ac9b-d0ccff8c624a">
      <g
   transform="translate(306.472,148.214)"
   id="g2678"><path
   style="stroke:none"
   d="m 2.265625,-4.359375 c 0,-0.109375 -0.09375,-0.265625 -0.28125,-0.265625 -0.1875,0 -0.390625,0.1875 -0.390625,0.390625 0,0.109375 0.078125,0.265625 0.28125,0.265625 0.1875,0 0.390625,-0.203125 0.390625,-0.390625 z M 0.84375,-0.8125 c -0.03125,0.09375 -0.0625,0.171875 -0.0625,0.296875 0,0.328125 0.265625,0.578125 0.65625,0.578125 0.6875,0 1,-0.953125 1,-1.0625 0,-0.09375 -0.09375,-0.09375 -0.109375,-0.09375 -0.09375,0 -0.109375,0.046875 -0.140625,0.125 -0.15625,0.5625 -0.453125,0.84375 -0.734375,0.84375 -0.140625,0 -0.171875,-0.09375 -0.171875,-0.25 0,-0.15625 0.046875,-0.28125 0.109375,-0.4375 C 1.46875,-1 1.546875,-1.1875 1.609375,-1.375 1.671875,-1.546875 1.9375,-2.171875 1.953125,-2.265625 1.984375,-2.328125 2,-2.40625 2,-2.484375 2,-2.8125 1.71875,-3.078125 1.34375,-3.078125 0.640625,-3.078125 0.328125,-2.125 0.328125,-2 c 0,0.078125 0.09375,0.078125 0.125,0.078125 0.09375,0 0.09375,-0.03125 0.125,-0.109375 C 0.75,-2.625 1.0625,-2.875 1.3125,-2.875 c 0.109375,0 0.171875,0.046875 0.171875,0.234375 0,0.171875 -0.03125,0.265625 -0.203125,0.703125 z m 0,0"
   id="id-aea20851-44f0-4136-997e-3cea856a7853" />
      </g></g>
  </g>
</g><g
       transform="matrix(5.02061,0,0,-5.02061,612.00271,84.439452)"
       ns2:version="1.1.0"
       ns2:texconverter="lualatex"
       ns2:pdfconverter="inkscape"
       ns2:text="$$p_o$$"
       ns2:preamble="/home/dietmarw/.config/inkscape/extensions/textext/default_packages.tex"
       ns2:scale="3.765465038662596"
       ns2:alignment="middle center"
       ns2:jacobian_sqrt="5.02061"
       id="g2981"><defs
   id="id-cb09f28b-9e58-4385-8e90-aff0a0944c48" />
  <g
   id="id-3ad90627-17b5-49e7-b650-b65e0e7aa15d"
   transform="translate(-300.59,-142.314)">
    <g
   style="fill:#000000;fill-opacity:1"
   id="id-60cbe99a-6f36-453a-9c28-3857d6f51f4a">
      <g
   transform="translate(300.902,146.72)"
   id="g2973"><path
   style="stroke:none"
   d="M 0.453125,1.21875 C 0.375,1.5625 0.34375,1.625 -0.09375,1.625 c -0.109375,0 -0.21875,0 -0.21875,0.1875 0,0.078125 0.046875,0.125 0.125,0.125 0.265625,0 0.5625,-0.03125 0.828125,-0.03125 0.34375,0 0.671875,0.03125 1,0.03125 0.046875,0 0.171875,0 0.171875,-0.203125 C 1.8125,1.625 1.71875,1.625 1.578125,1.625 c -0.5,0 -0.5,-0.0625 -0.5,-0.15625 0,-0.125 0.421875,-1.75 0.484375,-2 0.125,0.296875 0.40625,0.640625 0.921875,0.640625 1.15625,0 2.40625,-1.453125 2.40625,-2.921875 0,-0.9375 -0.578125,-1.59375 -1.328125,-1.59375 -0.5,0 -0.984375,0.359375 -1.3125,0.75 -0.09375,-0.546875 -0.53125,-0.75 -0.890625,-0.75 -0.46875,0 -0.65625,0.390625 -0.734375,0.5625 C 0.4375,-3.5 0.3125,-2.90625 0.3125,-2.875 c 0,0.109375 0.09375,0.109375 0.109375,0.109375 0.109375,0 0.109375,-0.015625 0.171875,-0.234375 0.171875,-0.703125 0.375,-1.1875 0.734375,-1.1875 0.171875,0 0.3125,0.078125 0.3125,0.453125 0,0.234375 -0.03125,0.34375 -0.078125,0.515625 z m 1.75,-4.328125 C 2.265625,-3.375 2.546875,-3.65625 2.71875,-3.8125 c 0.359375,-0.296875 0.640625,-0.375 0.8125,-0.375 0.390625,0 0.640625,0.34375 0.640625,0.9375 0,0.59375 -0.328125,1.734375 -0.515625,2.109375 -0.34375,0.703125 -0.8125,1.03125 -1.1875,1.03125 C 1.8125,-0.109375 1.6875,-0.9375 1.6875,-1 c 0,-0.015625 0,-0.03125 0.03125,-0.15625 z m 0,0"
   id="id-77e15bf1-e8c1-4c01-b5bd-ac8a18313146" />
      </g></g>
    <g
   style="fill:#000000;fill-opacity:1"
   id="id-7428eadf-b351-487c-b91b-2d31c94f6d12">
      <g
   transform="translate(305.915,148.214)"
   id="g2977"><path
   style="stroke:none"
   d="m 3.703125,-1.859375 c 0,-0.765625 -0.578125,-1.21875 -1.265625,-1.21875 -1.03125,0 -2,0.96875 -2,1.921875 0,0.703125 0.5,1.21875 1.265625,1.21875 1,0 2,-0.90625 2,-1.921875 z m -2,1.734375 c -0.34375,0 -0.6875,-0.21875 -0.6875,-0.78125 0,-0.28125 0.125,-0.96875 0.40625,-1.359375 C 1.71875,-2.703125 2.125,-2.875 2.4375,-2.875 c 0.375,0 0.6875,0.25 0.6875,0.765625 C 3.125,-1.9375 3.046875,-1.25 2.734375,-0.765625 2.46875,-0.34375 2.0625,-0.125 1.703125,-0.125 Z m 0,0"
   id="id-130b9460-45dd-4ffe-a125-86bd6729b4bc" />
      </g></g>
  </g>
</g><g
       transform="matrix(3.2524924,0,0,-3.2524924,417.43485,127.49389)"
       ns2:version="1.1.0"
       ns2:texconverter="lualatex"
       ns2:pdfconverter="inkscape"
       ns2:text="$$\\dot{V}$$"
       ns2:preamble="/home/dietmarw/.config/inkscape/extensions/textext/default_packages.tex"
       ns2:scale="3.765465038662596"
       ns2:alignment="middle center"
       ns2:jacobian_sqrt="5.02061"
       id="g3297"><defs
   id="id-23b3a514-32d9-4aed-940e-41933f0c87a4" />
  <g
   id="id-33f5fc42-5ab5-4dcf-bbfe-cfdf504bbc67"
   transform="translate(-302.173,-137.529)">
    <g
   style="fill:#000000;fill-opacity:1"
   id="id-4b676639-808f-4026-9d5b-5206be4df007">
      <g
   transform="translate(304.24,144.201)"
   id="g3289"><path
   style="stroke:none"
   d="m 1.90625,-6.140625 c 0,-0.265625 -0.21875,-0.53125 -0.515625,-0.53125 -0.34375,0 -0.546875,0.28125 -0.546875,0.53125 0,0.265625 0.234375,0.53125 0.53125,0.53125 0.34375,0 0.53125,-0.28125 0.53125,-0.53125 z m 0,0"
   id="id-b40b9808-bf75-47ef-aaa5-7e3ae611e4c2" />
      </g></g>
    <g
   style="fill:#000000;fill-opacity:1"
   id="id-072b13e5-055f-4cda-9000-e127141ad655">
      <g
   transform="translate(301.611,146.72)"
   id="g3293"><path
   style="stroke:none"
   d="M 6.265625,-5.671875 C 6.75,-6.453125 7.171875,-6.484375 7.53125,-6.5 c 0.125,-0.015625 0.140625,-0.171875 0.140625,-0.1875 0,-0.078125 -0.0625,-0.125 -0.140625,-0.125 -0.25,0 -0.546875,0.03125 -0.8125,0.03125 -0.328125,0 -0.671875,-0.03125 -0.984375,-0.03125 -0.0625,0 -0.1875,0 -0.1875,0.1875 0,0.109375 0.078125,0.125 0.15625,0.125 0.265625,0.015625 0.453125,0.125 0.453125,0.328125 0,0.15625 -0.140625,0.375 -0.140625,0.375 l -3.0625,4.875 -0.6875,-5.28125 C 2.265625,-6.375 2.5,-6.5 2.953125,-6.5 c 0.140625,0 0.25,0 0.25,-0.203125 0,-0.078125 -0.078125,-0.109375 -0.125,-0.109375 -0.40625,0 -0.828125,0.03125 -1.25,0.03125 -0.171875,0 -0.359375,0 -0.546875,0 -0.171875,0 -0.359375,-0.03125 -0.53125,-0.03125 -0.078125,0 -0.1875,0 -0.1875,0.1875 0,0.125 0.078125,0.125 0.25,0.125 0.546875,0 0.5625,0.09375 0.59375,0.34375 L 2.1875,-0.015625 C 2.21875,0.1875 2.265625,0.21875 2.390625,0.21875 c 0.15625,0 0.203125,-0.046875 0.28125,-0.171875 z m 0,0"
   id="id-a16cfb92-08fd-4fdf-a859-887258a871a1" />
      </g></g>
  </g>
</g><g
       transform="matrix(3.25249,0,0,-3.25249,63.368502,149.2292)"
       ns2:version="1.1.0"
       ns2:texconverter="lualatex"
       ns2:pdfconverter="inkscape"
       ns2:text="$$D_i$$"
       ns2:preamble="/home/dietmarw/.config/inkscape/extensions/textext/default_packages.tex"
       ns2:scale="2.4393741837577108"
       ns2:alignment="middle center"
       ns2:jacobian_sqrt="3.25249"
       id="g4135"><defs
   id="id-5f9208a8-49ab-44b4-90db-d6f734cbf41e" />
  <g
   id="id-f3749b64-652a-44f3-8ae5-cb27f0746da3"
   transform="translate(-300.247,-139.907)">
    <g
   style="fill:#000000;fill-opacity:1"
   id="id-5feee58e-df5c-4eb5-8d82-b39972fe9bc3">
      <g
   transform="translate(299.841,146.72)"
   id="g4127"><path
   style="stroke:none"
   d="m 1.578125,-0.78125 c -0.09375,0.390625 -0.109375,0.46875 -0.90625,0.46875 -0.15625,0 -0.265625,0 -0.265625,0.1875 C 0.40625,0 0.484375,0 0.671875,0 h 3.3125 c 2.0625,0 4.03125,-2.109375 4.03125,-4.28125 0,-1.40625 -0.84375,-2.53125 -2.34375,-2.53125 h -3.34375 c -0.1875,0 -0.296875,0 -0.296875,0.1875 0,0.125 0.078125,0.125 0.28125,0.125 0.125,0 0.3125,0.015625 0.421875,0.015625 0.171875,0.03125 0.21875,0.046875 0.21875,0.171875 0,0.03125 0,0.0625 -0.03125,0.1875 z M 3.734375,-6.125 C 3.828125,-6.46875 3.84375,-6.5 4.28125,-6.5 h 1.0625 c 0.96875,0 1.796875,0.53125 1.796875,1.84375 0,0.484375 -0.1875,2.125 -1.046875,3.21875 -0.28125,0.375 -1.0625,1.125 -2.296875,1.125 h -1.125 c -0.140625,0 -0.15625,0 -0.21875,0 -0.09375,-0.015625 -0.125,-0.03125 -0.125,-0.109375 0,-0.03125 0,-0.046875 0.046875,-0.21875 z m 0,0"
   id="id-f15bf674-72a5-4f30-85f6-3355c5b0d2a0" />
      </g></g>
    <g
   style="fill:#000000;fill-opacity:1"
   id="id-8036cad6-56f7-4cd8-b4d3-4e711503d705">
      <g
   transform="translate(308.09,148.214)"
   id="g4131"><path
   style="stroke:none"
   d="m 2.265625,-4.359375 c 0,-0.109375 -0.09375,-0.265625 -0.28125,-0.265625 -0.1875,0 -0.390625,0.1875 -0.390625,0.390625 0,0.109375 0.078125,0.265625 0.28125,0.265625 0.1875,0 0.390625,-0.203125 0.390625,-0.390625 z M 0.84375,-0.8125 c -0.03125,0.09375 -0.0625,0.171875 -0.0625,0.296875 0,0.328125 0.265625,0.578125 0.65625,0.578125 0.6875,0 1,-0.953125 1,-1.0625 0,-0.09375 -0.09375,-0.09375 -0.109375,-0.09375 -0.09375,0 -0.109375,0.046875 -0.140625,0.125 -0.15625,0.5625 -0.453125,0.84375 -0.734375,0.84375 -0.140625,0 -0.171875,-0.09375 -0.171875,-0.25 0,-0.15625 0.046875,-0.28125 0.109375,-0.4375 C 1.46875,-1 1.546875,-1.1875 1.609375,-1.375 1.671875,-1.546875 1.9375,-2.171875 1.953125,-2.265625 1.984375,-2.328125 2,-2.40625 2,-2.484375 2,-2.8125 1.71875,-3.078125 1.34375,-3.078125 0.640625,-3.078125 0.328125,-2.125 0.328125,-2 c 0,0.078125 0.09375,0.078125 0.125,0.078125 0.09375,0 0.09375,-0.03125 0.125,-0.109375 C 0.75,-2.625 1.0625,-2.875 1.3125,-2.875 c 0.109375,0 0.171875,0.046875 0.171875,0.234375 0,0.171875 -0.03125,0.265625 -0.203125,0.703125 z m 0,0"
   id="id-31837864-614b-4c96-a508-bc86ae4ae8d4" />
      </g></g>
  </g>
</g><g
       transform="matrix(3.25249,0,0,-3.25249,520.61068,116.57694)"
       ns2:version="1.1.0"
       ns2:texconverter="lualatex"
       ns2:pdfconverter="inkscape"
       ns2:text="$$D_o$$"
       ns2:preamble="/home/dietmarw/.config/inkscape/extensions/textext/default_packages.tex"
       ns2:scale="2.4393741837577108"
       ns2:alignment="middle center"
       ns2:jacobian_sqrt="3.25249"
       id="g4514"><defs
   id="id-5166d213-c92b-41bf-9629-706853332887" />
  <g
   id="id-97d93103-7122-4145-a83a-7c2a740568f9"
   transform="translate(-299.69,-139.907)">
    <g
   style="fill:#000000;fill-opacity:1"
   id="id-b0f47f25-be59-42a2-93c2-9317489724d7">
      <g
   transform="translate(299.284,146.72)"
   id="g4506"><path
   style="stroke:none"
   d="m 1.578125,-0.78125 c -0.09375,0.390625 -0.109375,0.46875 -0.90625,0.46875 -0.15625,0 -0.265625,0 -0.265625,0.1875 C 0.40625,0 0.484375,0 0.671875,0 h 3.3125 c 2.0625,0 4.03125,-2.109375 4.03125,-4.28125 0,-1.40625 -0.84375,-2.53125 -2.34375,-2.53125 h -3.34375 c -0.1875,0 -0.296875,0 -0.296875,0.1875 0,0.125 0.078125,0.125 0.28125,0.125 0.125,0 0.3125,0.015625 0.421875,0.015625 0.171875,0.03125 0.21875,0.046875 0.21875,0.171875 0,0.03125 0,0.0625 -0.03125,0.1875 z M 3.734375,-6.125 C 3.828125,-6.46875 3.84375,-6.5 4.28125,-6.5 h 1.0625 c 0.96875,0 1.796875,0.53125 1.796875,1.84375 0,0.484375 -0.1875,2.125 -1.046875,3.21875 -0.28125,0.375 -1.0625,1.125 -2.296875,1.125 h -1.125 c -0.140625,0 -0.15625,0 -0.21875,0 -0.09375,-0.015625 -0.125,-0.03125 -0.125,-0.109375 0,-0.03125 0,-0.046875 0.046875,-0.21875 z m 0,0"
   id="id-a6f1ddb7-6fb6-4f33-bcdf-2ccc13d699d3" />
      </g></g>
    <g
   style="fill:#000000;fill-opacity:1"
   id="id-b69c9f54-18ae-4c64-a2f8-db601688b0b6">
      <g
   transform="translate(307.533,148.214)"
   id="g4510"><path
   style="stroke:none"
   d="m 3.703125,-1.859375 c 0,-0.765625 -0.578125,-1.21875 -1.265625,-1.21875 -1.03125,0 -2,0.96875 -2,1.921875 0,0.703125 0.5,1.21875 1.265625,1.21875 1,0 2,-0.90625 2,-1.921875 z m -2,1.734375 c -0.34375,0 -0.6875,-0.21875 -0.6875,-0.78125 0,-0.28125 0.125,-0.96875 0.40625,-1.359375 C 1.71875,-2.703125 2.125,-2.875 2.4375,-2.875 c 0.375,0 0.6875,0.25 0.6875,0.765625 C 3.125,-1.9375 3.046875,-1.25 2.734375,-0.765625 2.46875,-0.34375 2.0625,-0.125 1.703125,-0.125 Z m 0,0"
   id="id-91cf8bd9-eb36-4626-b034-9af146ee1bf6" />
      </g></g>
  </g>
</g><g
       transform="matrix(3.25249,0,0,-3.25249,310.647,183.45)"
       ns2:version="1.1.0"
       ns2:texconverter="lualatex"
       ns2:pdfconverter="inkscape"
       ns2:text="$$L$$"
       ns2:preamble="/home/dietmarw/.config/inkscape/extensions/textext/default_packages.tex"
       ns2:scale="2.4393741837577108"
       ns2:alignment="middle center"
       ns2:jacobian_sqrt="3.25249"
       id="g5148"><defs
   id="id-bbc20adb-0c00-4cfc-bae3-4769e5f67d9f" />
  <g
   id="id-11896e84-64e6-4be1-a2ae-1fc381cb80c4"
   transform="translate(-302.625,-139.907)">
    <g
   style="fill:#000000;fill-opacity:1"
   id="id-fa331306-2705-4a58-ab2b-28f32aa4ba0b">
      <g
   transform="translate(302.234,146.72)"
   id="g5144"><path
   style="stroke:none"
   d="M 3.734375,-6.03125 C 3.8125,-6.390625 3.84375,-6.5 4.78125,-6.5 c 0.296875,0 0.375,0 0.375,-0.1875 0,-0.125 -0.109375,-0.125 -0.15625,-0.125 -0.328125,0 -1.140625,0.03125 -1.46875,0.03125 -0.296875,0 -1.03125,-0.03125 -1.328125,-0.03125 -0.0625,0 -0.1875,0 -0.1875,0.203125 0,0.109375 0.09375,0.109375 0.28125,0.109375 0.015625,0 0.203125,0 0.375,0.015625 0.171875,0.03125 0.265625,0.03125 0.265625,0.171875 0,0.03125 0,0.0625 -0.03125,0.1875 L 1.5625,-0.78125 c -0.09375,0.390625 -0.109375,0.46875 -0.90625,0.46875 -0.171875,0 -0.265625,0 -0.265625,0.203125 C 0.390625,0 0.484375,0 0.65625,0 h 4.625 C 5.515625,0 5.515625,0 5.578125,-0.171875 L 6.375,-2.328125 c 0.03125,-0.109375 0.03125,-0.125 0.03125,-0.140625 0,-0.03125 -0.03125,-0.109375 -0.109375,-0.109375 -0.09375,0 -0.109375,0.0625 -0.171875,0.21875 -0.34375,0.90625 -0.78125,2.046875 -2.5,2.046875 H 2.6875 c -0.140625,0 -0.171875,0 -0.21875,0 -0.109375,-0.015625 -0.140625,-0.03125 -0.140625,-0.109375 0,-0.03125 0,-0.046875 0.046875,-0.21875 z m 0,0"
   id="id-00e65b72-efa1-428f-a057-df6ed607fce3" />
      </g></g>
  </g>
</g><g
       transform="matrix(3.25249,0,0,-3.25249,198.17741,78.533223)"
       ns2:version="1.1.0"
       ns2:texconverter="lualatex"
       ns2:pdfconverter="inkscape"
       ns2:text="$$F_f$$"
       ns2:preamble="/home/dietmarw/.config/inkscape/extensions/textext/default_packages.tex"
       ns2:scale="2.4393741837577108"
       ns2:alignment="middle center"
       ns2:jacobian_sqrt="3.25249"
       id="g5769"><defs
   id="id-65ce46e3-4937-433e-abf7-dd10cf79a462" />
  <g
   id="id-c0c5d0ce-776f-4472-aeb4-ff1e3e2fe712"
   transform="translate(-300.213,-139.939)">
    <g
   style="fill:#000000;fill-opacity:1"
   id="id-e13ae703-ca19-4589-94ea-c05655a15491">
      <g
   transform="translate(299.838,146.72)"
   id="g5761"><path
   style="stroke:none"
   d="m 3.015625,-3.234375 h 0.96875 c 0.75,0 0.828125,0.15625 0.828125,0.4375 0,0.078125 0,0.1875 -0.0625,0.5 C 4.71875,-2.25 4.71875,-2.21875 4.71875,-2.1875 c 0,0.078125 0.0625,0.109375 0.109375,0.109375 0.109375,0 0.109375,-0.03125 0.15625,-0.203125 L 5.53125,-4.453125 C 5.5625,-4.5625 5.5625,-4.578125 5.5625,-4.609375 5.5625,-4.625 5.546875,-4.71875 5.4375,-4.71875 5.34375,-4.71875 5.328125,-4.671875 5.296875,-4.5 5.078125,-3.734375 4.859375,-3.546875 4,-3.546875 H 3.09375 l 0.640625,-2.53125 C 3.828125,-6.4375 3.84375,-6.46875 4.28125,-6.46875 h 1.3125 c 1.21875,0 1.453125,0.328125 1.453125,1.09375 0,0.234375 0,0.265625 -0.03125,0.546875 C 7,-4.703125 7,-4.6875 7,-4.65625 c 0,0.046875 0.03125,0.125 0.125,0.125 0.109375,0 0.109375,-0.0625 0.125,-0.25 L 7.453125,-6.515625 C 7.484375,-6.78125 7.4375,-6.78125 7.1875,-6.78125 H 2.296875 c -0.1875,0 -0.296875,0 -0.296875,0.203125 0,0.109375 0.09375,0.109375 0.28125,0.109375 0.375,0 0.65625,0 0.65625,0.171875 0,0.046875 0,0.0625 -0.0625,0.25 L 1.5625,-0.78125 c -0.09375,0.390625 -0.109375,0.46875 -0.90625,0.46875 -0.171875,0 -0.28125,0 -0.28125,0.1875 C 0.375,0 0.5,0 0.53125,0 0.8125,0 1.5625,-0.03125 1.84375,-0.03125 2.171875,-0.03125 3,0 3.328125,0 3.421875,0 3.53125,0 3.53125,-0.1875 3.53125,-0.265625 3.484375,-0.296875 3.484375,-0.296875 3.453125,-0.3125 3.421875,-0.3125 3.203125,-0.3125 c -0.21875,0 -0.265625,0 -0.515625,-0.015625 -0.296875,-0.03125 -0.328125,-0.078125 -0.328125,-0.203125 0,-0.015625 0,-0.078125 0.046875,-0.21875 z m 0,0"
   id="id-74b3e50e-3b6c-426d-bae3-c13dd7f88bb4" />
      </g></g>
    <g
   style="fill:#000000;fill-opacity:1"
   id="id-2fa839e5-8c26-4c8f-aee7-277b8d9d2f75">
      <g
   transform="translate(306.245,148.214)"
   id="g5765"><path
   style="stroke:none"
   d="M 2.84375,-2.75 H 3.515625 C 3.65625,-2.75 3.75,-2.75 3.75,-2.90625 3.75,-3 3.65625,-3 3.53125,-3 H 2.890625 c 0.15625,-0.890625 0.203125,-1.203125 0.265625,-1.40625 0.03125,-0.15625 0.1875,-0.296875 0.359375,-0.296875 0,0 0.1875,0 0.328125,0.078125 -0.296875,0.09375 -0.3125,0.34375 -0.3125,0.375 0,0.15625 0.125,0.265625 0.28125,0.265625 0.1875,0 0.390625,-0.15625 0.390625,-0.421875 0,-0.328125 -0.328125,-0.5 -0.6875,-0.5 -0.3125,0 -0.65625,0.171875 -0.84375,0.515625 C 2.53125,-4.125 2.484375,-3.8125 2.328125,-3 H 1.78125 c -0.140625,0 -0.234375,0 -0.234375,0.15625 0,0.09375 0.09375,0.09375 0.21875,0.09375 H 2.28125 c 0,0.046875 -0.4375,2.546875 -0.609375,3.296875 -0.03125,0.15625 -0.15625,0.671875 -0.484375,0.671875 -0.015625,0 -0.171875,0 -0.3125,-0.078125 0.28125,-0.09375 0.3125,-0.34375 0.3125,-0.375 C 1.1875,0.609375 1.0625,0.5 0.90625,0.5 c -0.1875,0 -0.390625,0.15625 -0.390625,0.421875 0,0.3125 0.328125,0.5 0.671875,0.5 0.4375,0 0.75,-0.453125 0.828125,-0.609375 0.25,-0.46875 0.421875,-1.328125 0.4375,-1.40625 z m 0,0"
   id="id-caa47041-175c-4f3d-90e2-f5db720f3f6e" />
      </g></g>
  </g>
</g><g
       transform="matrix(3.25249,0,0,-3.25249,312.13693,72.708668)"
       ns2:version="1.1.0"
       ns2:texconverter="lualatex"
       ns2:pdfconverter="inkscape"
       ns2:text="$$F_g$$"
       ns2:preamble="/home/dietmarw/.config/inkscape/extensions/textext/default_packages.tex"
       ns2:scale="2.4393741837577108"
       ns2:alignment="middle center"
       ns2:jacobian_sqrt="3.25249"
       id="g6081"><defs
   id="id-69628098-c060-4aee-be8c-514c0447446e" />
  <g
   id="id-753e8f33-dd54-4b03-a5fb-f2335840f0ad"
   transform="translate(-300.478,-139.939)">
    <g
   style="fill:#000000;fill-opacity:1"
   id="id-d7471cd0-df2e-41e1-a09f-4a3f3c837656">
      <g
   transform="translate(300.103,146.72)"
   id="g6073"><path
   style="stroke:none"
   d="m 3.015625,-3.234375 h 0.96875 c 0.75,0 0.828125,0.15625 0.828125,0.4375 0,0.078125 0,0.1875 -0.0625,0.5 C 4.71875,-2.25 4.71875,-2.21875 4.71875,-2.1875 c 0,0.078125 0.0625,0.109375 0.109375,0.109375 0.109375,0 0.109375,-0.03125 0.15625,-0.203125 L 5.53125,-4.453125 C 5.5625,-4.5625 5.5625,-4.578125 5.5625,-4.609375 5.5625,-4.625 5.546875,-4.71875 5.4375,-4.71875 5.34375,-4.71875 5.328125,-4.671875 5.296875,-4.5 5.078125,-3.734375 4.859375,-3.546875 4,-3.546875 H 3.09375 l 0.640625,-2.53125 C 3.828125,-6.4375 3.84375,-6.46875 4.28125,-6.46875 h 1.3125 c 1.21875,0 1.453125,0.328125 1.453125,1.09375 0,0.234375 0,0.265625 -0.03125,0.546875 C 7,-4.703125 7,-4.6875 7,-4.65625 c 0,0.046875 0.03125,0.125 0.125,0.125 0.109375,0 0.109375,-0.0625 0.125,-0.25 L 7.453125,-6.515625 C 7.484375,-6.78125 7.4375,-6.78125 7.1875,-6.78125 H 2.296875 c -0.1875,0 -0.296875,0 -0.296875,0.203125 0,0.109375 0.09375,0.109375 0.28125,0.109375 0.375,0 0.65625,0 0.65625,0.171875 0,0.046875 0,0.0625 -0.0625,0.25 L 1.5625,-0.78125 c -0.09375,0.390625 -0.109375,0.46875 -0.90625,0.46875 -0.171875,0 -0.28125,0 -0.28125,0.1875 C 0.375,0 0.5,0 0.53125,0 0.8125,0 1.5625,-0.03125 1.84375,-0.03125 2.171875,-0.03125 3,0 3.328125,0 3.421875,0 3.53125,0 3.53125,-0.1875 3.53125,-0.265625 3.484375,-0.296875 3.484375,-0.296875 3.453125,-0.3125 3.421875,-0.3125 3.203125,-0.3125 c -0.21875,0 -0.265625,0 -0.515625,-0.015625 -0.296875,-0.03125 -0.328125,-0.078125 -0.328125,-0.203125 0,-0.015625 0,-0.078125 0.046875,-0.21875 z m 0,0"
   id="id-0b06db3d-a21e-4698-b5dc-901a17403b99" />
      </g></g>
    <g
   style="fill:#000000;fill-opacity:1"
   id="id-72d9d801-10b7-4808-a910-9ef46670f91f">
      <g
   transform="translate(306.51,148.214)"
   id="g6077"><path
   style="stroke:none"
   d="m 3.703125,-2.578125 c 0.03125,-0.09375 0.03125,-0.125 0.03125,-0.140625 0,-0.15625 -0.125,-0.21875 -0.234375,-0.21875 -0.15625,0 -0.296875,0.125 -0.328125,0.265625 -0.109375,-0.1875 -0.34375,-0.40625 -0.71875,-0.40625 -0.859375,0 -1.78125,0.9375 -1.78125,1.9375 0,0.71875 0.484375,1.140625 1.0625,1.140625 0.328125,0 0.625,-0.15625 0.875,-0.375 L 2.453125,0.25 C 2.375,0.546875 2.328125,0.734375 2.0625,0.96875 c -0.3125,0.25 -0.609375,0.25 -0.78125,0.25 -0.3125,0 -0.40625,-0.015625 -0.53125,-0.046875 0.171875,-0.078125 0.21875,-0.25 0.21875,-0.34375 0,-0.171875 -0.125,-0.25 -0.265625,-0.25 C 0.5,0.578125 0.296875,0.734375 0.296875,1 c 0,0.421875 0.609375,0.421875 1,0.421875 1.09375,0 1.546875,-0.5625 1.65625,-0.953125 z M 2.75,-0.921875 c -0.03125,0.09375 -0.03125,0.109375 -0.15625,0.25 C 2.359375,-0.375 2.015625,-0.1875 1.75,-0.1875 c -0.34375,0 -0.515625,-0.3125 -0.515625,-0.671875 0,-0.296875 0.1875,-1.078125 0.375,-1.390625 0.28125,-0.484375 0.609375,-0.625 0.84375,-0.625 0.5,0 0.625,0.515625 0.625,0.59375 0,0.015625 0,0.015625 -0.015625,0.09375 z m 0,0"
   id="id-b408683f-595a-4244-b843-5a40907f246f" />
      </g></g>
  </g>
</g><g
       transform="matrix(3.4498747,0,0,-3.4498747,631.4136,131.89061)"
       ns2:version="1.1.0"
       ns2:texconverter="lualatex"
       ns2:pdfconverter="inkscape"
       ns2:text="$$H$$"
       ns2:preamble="/home/dietmarw/.config/inkscape/extensions/textext/default_packages.tex"
       ns2:scale="3.765465038662596"
       ns2:alignment="middle center"
       ns2:jacobian_sqrt="5.02061"
       id="g6486"><defs
   id="id-eb7d1524-a007-40f7-b70d-2a05b9f5a7db" />
  <g
   id="id-dd708156-634f-4783-a974-8ff3e66040ce"
   transform="translate(-301.469,-139.907)">
    <g
   style="fill:#000000;fill-opacity:1"
   id="id-e0b75013-902b-4aec-a9bf-a3274f3ea84f">
      <g
   transform="translate(301.078,146.72)"
   id="g6482"><path
   style="stroke:none"
   d="M 7.609375,-6.046875 C 7.703125,-6.40625 7.71875,-6.5 8.4375,-6.5 c 0.265625,0 0.34375,0 0.34375,-0.203125 0,-0.109375 -0.109375,-0.109375 -0.140625,-0.109375 -0.28125,0 -1,0.03125 -1.28125,0.03125 -0.28125,0 -0.984375,-0.03125 -1.28125,-0.03125 -0.078125,0 -0.1875,0 -0.1875,0.203125 0,0.109375 0.09375,0.109375 0.28125,0.109375 0.015625,0 0.203125,0 0.375,0.015625 0.1875,0.03125 0.265625,0.03125 0.265625,0.171875 0,0.03125 0,0.046875 -0.03125,0.1875 L 6.1875,-3.703125 H 3.140625 l 0.59375,-2.34375 C 3.8125,-6.40625 3.84375,-6.5 4.5625,-6.5 c 0.265625,0 0.34375,0 0.34375,-0.203125 0,-0.109375 -0.109375,-0.109375 -0.140625,-0.109375 -0.28125,0 -1,0.03125 -1.28125,0.03125 -0.28125,0 -0.984375,-0.03125 -1.28125,-0.03125 -0.078125,0 -0.1875,0 -0.1875,0.203125 0,0.109375 0.09375,0.109375 0.28125,0.109375 0.015625,0 0.203125,0 0.375,0.015625 0.171875,0.03125 0.265625,0.03125 0.265625,0.171875 0,0.03125 0,0.0625 -0.03125,0.1875 L 1.5625,-0.78125 c -0.09375,0.390625 -0.109375,0.46875 -0.90625,0.46875 -0.171875,0 -0.265625,0 -0.265625,0.203125 C 0.390625,0 0.515625,0 0.53125,0 0.8125,0 1.515625,-0.03125 1.796875,-0.03125 2,-0.03125 2.21875,-0.015625 2.4375,-0.015625 2.65625,-0.015625 2.875,0 3.078125,0 3.15625,0 3.28125,0 3.28125,-0.203125 3.28125,-0.3125 3.1875,-0.3125 3,-0.3125 c -0.375,0 -0.640625,0 -0.640625,-0.171875 0,-0.0625 0.015625,-0.109375 0.015625,-0.171875 l 0.6875,-2.734375 h 3.03125 c -0.40625,1.65625 -0.640625,2.609375 -0.6875,2.75 C 5.3125,-0.3125 5.125,-0.3125 4.5,-0.3125 c -0.140625,0 -0.234375,0 -0.234375,0.203125 C 4.265625,0 4.390625,0 4.40625,0 4.6875,0 5.390625,-0.03125 5.671875,-0.03125 5.875,-0.03125 6.09375,-0.015625 6.3125,-0.015625 6.53125,-0.015625 6.75,0 6.953125,0 7.03125,0 7.15625,0 7.15625,-0.203125 7.15625,-0.3125 7.0625,-0.3125 6.875,-0.3125 c -0.359375,0 -0.640625,0 -0.640625,-0.171875 0,-0.0625 0.015625,-0.109375 0.03125,-0.171875 z m 0,0"
   id="id-0fd4c792-8dab-4f6d-80d3-11dddf911fcc" />
      </g></g>
  </g>
</g></g></svg>
