<?xml version="1.0" encoding="UTF-8"?>
<svg enable-background="new 0 0 512.005 512.005" version="1.1" viewBox="0 0 512 512" xml:space="preserve" xmlns="http://www.w3.org/2000/svg">
			<path d="m327.16 2.766c-4.063-3.688-10.25-3.688-14.313 0-4.642 4.186-110.89 101.29-160.23 213.84-5.318-1.867-11.44-3.266-19.355-3.266-18.677 0-28.698 6.969-36.75 12.573-7.031 4.896-12.583 8.76-24.573 8.76-11.969 0-17.521-3.865-24.542-8.75-8.042-5.604-18.063-12.583-36.729-12.583-5.896 0-10.667 4.771-10.667 10.667s4.771 10.667 10.667 10.667c11.969 0 17.521 3.865 24.542 8.75 8.042 5.604 18.063 12.583 36.729 12.583 18.677 0 28.708-6.979 36.76-12.583 7.031-4.885 12.583-8.75 24.563-8.75 12 0 17.563 3.865 24.604 8.76 8.052 5.604 18.083 12.573 36.771 12.573 18.677 0 28.708-6.969 36.771-12.573 7.031-4.896 12.594-8.76 24.594-8.76 5.896 0 10.667-4.771 10.667-10.667s-4.771-10.667-10.667-10.667c-18.687 0-28.719 6.969-36.781 12.573-7.031 4.896-12.594 8.76-24.583 8.76-11.208 0-16.823-3.419-23.242-7.854 40.121-92.661 123.66-177.47 148.61-201.49 33.219 32.01 170.67 171.86 170.67 294.68 0 94.104-76.563 170.67-170.67 170.67-42.477 0-82.669-15.822-113.78-43.758 11.542-2.138 18.994-7.177 25.186-11.482 7.031-4.896 12.594-8.76 24.594-8.76 5.896 0 10.667-4.771 10.667-10.667s-4.771-10.667-10.667-10.667c-18.687 0-28.719 6.969-36.781 12.573-7.031 4.896-12.594 8.76-24.583 8.76-12 0-17.563-3.865-24.594-8.76-8.063-5.604-18.094-12.573-36.781-12.573-18.677 0-28.698 6.969-36.75 12.573-7.031 4.896-12.583 8.76-24.573 8.76-11.969 0-17.521-3.865-24.542-8.75-8.042-5.604-18.063-12.583-36.729-12.583-5.896 0-10.667 4.771-10.667 10.667s4.771 10.667 10.667 10.667c11.969 0 17.521 3.865 24.542 8.75 8.042 5.604 18.063 12.583 36.729 12.583 18.677 0 28.708-6.979 36.76-12.583 7.031-4.885 12.583-8.75 24.563-8.75 12 0 17.563 3.865 24.604 8.76 4.345 3.023 9.414 6.355 15.961 8.865 36.6 42.996 89.655 67.708 146.17 67.708 105.86 0 192-86.135 192-192-1e-3 -148.36-177.3-310.42-184.84-317.24z"/>
			<path d="m10.669 362.67c11.969 0 17.521 3.865 24.542 8.75 8.042 5.604 18.063 12.583 36.729 12.583 5.896 0 10.667-4.771 10.667-10.667s-4.771-10.667-10.667-10.667c-11.969 0-17.521-3.865-24.542-8.75-8.042-5.604-18.063-12.583-36.729-12.583-5.896 0-10.667 4.771-10.667 10.667s4.771 10.667 10.667 10.667z"/>
			<path d="m133.26 341.34c-5.896 0-10.667 4.771-10.667 10.667s4.771 10.667 10.667 10.667c12 0 17.563 3.865 24.594 8.76 8.063 5.604 18.094 12.573 36.781 12.573 18.677 0 28.708-6.969 36.771-12.573 7.031-4.896 12.594-8.76 24.594-8.76 12.198 0 18.406 3.969 26.25 8.99 9.052 5.781 19.313 12.344 37.75 12.344 5.896 0 10.667-4.771 10.667-10.667s-4.771-10.667-10.667-10.667c-12.198 0-18.406-3.969-26.25-8.99-9.052-5.781-19.313-12.344-37.75-12.344-18.687 0-28.719 6.969-36.781 12.573-7.031 4.896-12.594 8.76-24.583 8.76-12 0-17.563-3.865-24.604-8.76-8.053-5.605-18.084-12.573-36.772-12.573z"/>
			<path d="m133.26 277.34c-18.677 0-28.698 6.969-36.75 12.573-7.031 4.896-12.583 8.76-24.573 8.76-11.969 0-17.521-3.865-24.542-8.75-8.042-5.604-18.063-12.583-36.729-12.583-5.896 0-10.667 4.771-10.667 10.667s4.771 10.667 10.667 10.667c11.969 0 17.521 3.865 24.542 8.75 8.042 5.604 18.063 12.583 36.729 12.583 18.677 0 28.708-6.979 36.76-12.583 7.031-4.885 12.583-8.75 24.563-8.75 5.896 0 10.667-4.771 10.667-10.667 0-5.897-4.771-10.667-10.667-10.667z"/>
			<path d="m231.41 307.43c7.031-4.896 12.594-8.76 24.594-8.76 11.969 0 17.521 3.865 24.542 8.75 8.042 5.604 18.063 12.583 36.729 12.583 18.677 0 28.708-6.979 36.76-12.583 7.031-4.885 12.583-8.75 24.563-8.75 5.896 0 10.667-4.771 10.667-10.667s-4.771-10.667-10.667-10.667c-18.677 0-28.698 6.969-36.75 12.573-7.031 4.896-12.583 8.76-24.573 8.76-11.969 0-17.521-3.865-24.542-8.75-8.042-5.604-18.063-12.583-36.729-12.583-18.687 0-28.719 6.969-36.781 12.573-7.031 4.896-12.594 8.76-24.583 8.76-5.896 0-10.667 4.771-10.667 10.667s4.771 10.667 10.667 10.667c18.676 0 28.707-6.969 36.77-12.573z"/>
</svg>
