<?xml version="1.0" encoding="UTF-8" standalone="no"?>
<svg
   xmlns:ns2="http://www.iki.fi/pav/software/textext/"
   xmlns:dc="http://purl.org/dc/elements/1.1/"
   xmlns:cc="http://creativecommons.org/ns#"
   xmlns:rdf="http://www.w3.org/1999/02/22-rdf-syntax-ns#"
   xmlns:svg="http://www.w3.org/2000/svg"
   xmlns="http://www.w3.org/2000/svg"
   xmlns:sodipodi="http://sodipodi.sourceforge.net/DTD/sodipodi-0.dtd"
   xmlns:inkscape="http://www.inkscape.org/namespaces/inkscape"
   version="1.1"
   id="svg2"
   xml:space="preserve"
   width="432.71286"
   height="407.57999"
   viewBox="0 0 259.62771 244.548"
   sodipodi:docname="turbine.svg"
   inkscape:version="1.0.1 (1.0.1+r73)"><metadata
     id="metadata8"><rdf:RDF><cc:Work
         rdf:about=""><dc:format>image/svg+xml</dc:format><dc:type
           rdf:resource="http://purl.org/dc/dcmitype/StillImage" /><dc:title></dc:title></cc:Work></rdf:RDF></metadata><defs
     id="defs6"><clipPath
       clipPathUnits="userSpaceOnUse"
       id="clipPath26"><path
         d="m 109.273,108.05 h 21.984 V 92.07 h -21.984 z"
         id="path24" /></clipPath><clipPath
       clipPathUnits="userSpaceOnUse"
       id="clipPath36"><path
         d="m 109,92 h 23 v 17 h -23 z"
         id="path34" /></clipPath><clipPath
       clipPathUnits="userSpaceOnUse"
       id="clipPath46"><path
         d="m 109.273,108.93 h 21.98 V 92.95 h -21.98 z"
         id="path44" /></clipPath><linearGradient
       x1="267.62"
       y1="579.39001"
       x2="294.26001"
       y2="579.39001"
       gradientUnits="userSpaceOnUse"
       gradientTransform="translate(-191.54487,-449.48)"
       spreadMethod="pad"
       id="linearGradient72"><stop
         style="stop-opacity:1;stop-color:#7f7f7f"
         offset="0"
         id="stop58" /><stop
         style="stop-opacity:1;stop-color:#d8d8d8"
         offset="0.14902"
         id="stop60" /><stop
         style="stop-opacity:1;stop-color:#f2f2f2"
         offset="0.24902"
         id="stop62" /><stop
         style="stop-opacity:1;stop-color:#7f7f7f"
         offset="0.5"
         id="stop64" /><stop
         style="stop-opacity:1;stop-color:#f2f2f2"
         offset="0.75098"
         id="stop66" /><stop
         style="stop-opacity:1;stop-color:#d8d8d8"
         offset="0.85098"
         id="stop68" /><stop
         style="stop-opacity:1;stop-color:#7f7f7f"
         offset="1"
         id="stop70" /></linearGradient><linearGradient
       x1="200.44"
       y1="579.39001"
       x2="316.66"
       y2="579.39001"
       gradientUnits="userSpaceOnUse"
       gradientTransform="translate(-191.54487,-449.48)"
       spreadMethod="pad"
       id="linearGradient92"><stop
         style="stop-opacity:1;stop-color:#7f7f7f"
         offset="0"
         id="stop78" /><stop
         style="stop-opacity:1;stop-color:#d8d8d8"
         offset="0.14902"
         id="stop80" /><stop
         style="stop-opacity:1;stop-color:#f2f2f2"
         offset="0.24902"
         id="stop82" /><stop
         style="stop-opacity:1;stop-color:#7f7f7f"
         offset="0.5"
         id="stop84" /><stop
         style="stop-opacity:1;stop-color:#f2f2f2"
         offset="0.75098"
         id="stop86" /><stop
         style="stop-opacity:1;stop-color:#d8d8d8"
         offset="0.85098"
         id="stop88" /><stop
         style="stop-opacity:1;stop-color:#7f7f7f"
         offset="1"
         id="stop90" /></linearGradient><clipPath
       clipPathUnits="userSpaceOnUse"
       id="clipPath120"><path
         d="M 3.707,79.542 H 27.07 V 67.831 H 3.707 Z"
         id="path118" /></clipPath><clipPath
       clipPathUnits="userSpaceOnUse"
       id="clipPath130"><path
         d="M 3,68 H 28 V 81 H 3 Z"
         id="path128" /></clipPath><clipPath
       clipPathUnits="userSpaceOnUse"
       id="clipPath140"><path
         d="M 3.707,80.418 H 27.07 V 68.707 H 3.707 Z"
         id="path138" /></clipPath><clipPath
       clipPathUnits="userSpaceOnUse"
       id="clipPath152"><path
         d="m 160.926,79.542 h 26.078 V 67.831 h -26.078 z"
         id="path150" /></clipPath><clipPath
       clipPathUnits="userSpaceOnUse"
       id="clipPath162"><path
         d="m 160,68 h 28 v 13 h -28 z"
         id="path160" /></clipPath><clipPath
       clipPathUnits="userSpaceOnUse"
       id="clipPath172"><path
         d="m 160.926,80.418 h 26.078 V 68.707 h -26.078 z"
         id="path170" /></clipPath><clipPath
       clipPathUnits="userSpaceOnUse"
       id="clipPath184"><path
         d="m 126.445,179.12 h 15.98 v -9.98 h -15.98 z"
         id="path182" /></clipPath><clipPath
       clipPathUnits="userSpaceOnUse"
       id="clipPath194"><path
         d="m 126,170 h 17 v 10 h -17 z"
         id="path192" /></clipPath><clipPath
       clipPathUnits="userSpaceOnUse"
       id="clipPath204"><path
         d="m 126.445,180 h 15.98 v -9.98 h -15.98 z"
         id="path202" /></clipPath><g
       id="id-e303f8e0-d2c5-4e4f-a62e-d7f724cfc07e-7"><symbol
         overflow="visible"
         id="id-41ad7b08-206c-4d37-aa1d-a87fbfb18cbe-5"><path
           style="stroke:none"
           d=""
           id="id-787ab4a7-aa25-4a4f-a5d1-3cf9cc56e2cd-3" /></symbol><symbol
         overflow="visible"
         id="id-0144da64-fc85-48b3-85c1-314feebe1a55-5"><path
           style="stroke:none"
           d="M 0.453125,1.21875 C 0.375,1.5625 0.34375,1.625 -0.09375,1.625 c -0.109375,0 -0.21875,0 -0.21875,0.1875 0,0.078125 0.046875,0.125 0.125,0.125 0.265625,0 0.5625,-0.03125 0.828125,-0.03125 0.34375,0 0.671875,0.03125 1,0.03125 0.046875,0 0.171875,0 0.171875,-0.203125 C 1.8125,1.625 1.71875,1.625 1.578125,1.625 c -0.5,0 -0.5,-0.0625 -0.5,-0.15625 0,-0.125 0.421875,-1.75 0.484375,-2 0.125,0.296875 0.40625,0.640625 0.921875,0.640625 1.15625,0 2.40625,-1.453125 2.40625,-2.921875 0,-0.9375 -0.578125,-1.59375 -1.328125,-1.59375 -0.5,0 -0.984375,0.359375 -1.3125,0.75 -0.09375,-0.546875 -0.53125,-0.75 -0.890625,-0.75 -0.46875,0 -0.65625,0.390625 -0.734375,0.5625 C 0.4375,-3.5 0.3125,-2.90625 0.3125,-2.875 c 0,0.109375 0.09375,0.109375 0.109375,0.109375 0.109375,0 0.109375,-0.015625 0.171875,-0.234375 0.171875,-0.703125 0.375,-1.1875 0.734375,-1.1875 0.171875,0 0.3125,0.078125 0.3125,0.453125 0,0.234375 -0.03125,0.34375 -0.078125,0.515625 z m 1.75,-4.328125 C 2.265625,-3.375 2.546875,-3.65625 2.71875,-3.8125 c 0.359375,-0.296875 0.640625,-0.375 0.8125,-0.375 0.390625,0 0.640625,0.34375 0.640625,0.9375 0,0.59375 -0.328125,1.734375 -0.515625,2.109375 -0.34375,0.703125 -0.8125,1.03125 -1.1875,1.03125 C 1.8125,-0.109375 1.6875,-0.9375 1.6875,-1 c 0,-0.015625 0,-0.03125 0.03125,-0.15625 z m 0,0"
           id="id-2726c863-dd3b-4ea2-aa74-d4feb292632b-6" /></symbol><symbol
         overflow="visible"
         id="id-dc18e29d-efbc-4a28-953a-e5c996806733-2"><path
           style="stroke:none"
           d=""
           id="id-c6ba67e5-7d1b-46e5-9496-c44b249e4fda-9" /></symbol><symbol
         overflow="visible"
         id="id-e14eefeb-3f90-41b2-8f79-32e9214f084c-1"><path
           style="stroke:none"
           d="m 2.265625,-4.359375 c 0,-0.109375 -0.09375,-0.265625 -0.28125,-0.265625 -0.1875,0 -0.390625,0.1875 -0.390625,0.390625 0,0.109375 0.078125,0.265625 0.28125,0.265625 0.1875,0 0.390625,-0.203125 0.390625,-0.390625 z M 0.84375,-0.8125 c -0.03125,0.09375 -0.0625,0.171875 -0.0625,0.296875 0,0.328125 0.265625,0.578125 0.65625,0.578125 0.6875,0 1,-0.953125 1,-1.0625 0,-0.09375 -0.09375,-0.09375 -0.109375,-0.09375 -0.09375,0 -0.109375,0.046875 -0.140625,0.125 -0.15625,0.5625 -0.453125,0.84375 -0.734375,0.84375 -0.140625,0 -0.171875,-0.09375 -0.171875,-0.25 0,-0.15625 0.046875,-0.28125 0.109375,-0.4375 C 1.46875,-1 1.546875,-1.1875 1.609375,-1.375 1.671875,-1.546875 1.9375,-2.171875 1.953125,-2.265625 1.984375,-2.328125 2,-2.40625 2,-2.484375 2,-2.8125 1.71875,-3.078125 1.34375,-3.078125 0.640625,-3.078125 0.328125,-2.125 0.328125,-2 c 0,0.078125 0.09375,0.078125 0.125,0.078125 0.09375,0 0.09375,-0.03125 0.125,-0.109375 C 0.75,-2.625 1.0625,-2.875 1.3125,-2.875 c 0.109375,0 0.171875,0.046875 0.171875,0.234375 0,0.171875 -0.03125,0.265625 -0.203125,0.703125 z m 0,0"
           id="id-5795dc19-3d42-497b-9b21-6ced593eb7eb-2" /></symbol></g><g
       id="id-07146c87-4ac8-44c3-8ca3-483460b9b42e-1"><symbol
         overflow="visible"
         id="id-245a0e5d-b12e-4236-8767-edc40d839c6b-8"><path
           style="stroke:none"
           d=""
           id="id-a00ee3ef-2ff6-4cb5-aeda-cd5364365d9b-7" /></symbol><symbol
         overflow="visible"
         id="id-0e2808c7-2ee0-4125-ad04-e512508203bc-9"><path
           style="stroke:none"
           d="M 0.453125,1.21875 C 0.375,1.5625 0.34375,1.625 -0.09375,1.625 c -0.109375,0 -0.21875,0 -0.21875,0.1875 0,0.078125 0.046875,0.125 0.125,0.125 0.265625,0 0.5625,-0.03125 0.828125,-0.03125 0.34375,0 0.671875,0.03125 1,0.03125 0.046875,0 0.171875,0 0.171875,-0.203125 C 1.8125,1.625 1.71875,1.625 1.578125,1.625 c -0.5,0 -0.5,-0.0625 -0.5,-0.15625 0,-0.125 0.421875,-1.75 0.484375,-2 0.125,0.296875 0.40625,0.640625 0.921875,0.640625 1.15625,0 2.40625,-1.453125 2.40625,-2.921875 0,-0.9375 -0.578125,-1.59375 -1.328125,-1.59375 -0.5,0 -0.984375,0.359375 -1.3125,0.75 -0.09375,-0.546875 -0.53125,-0.75 -0.890625,-0.75 -0.46875,0 -0.65625,0.390625 -0.734375,0.5625 C 0.4375,-3.5 0.3125,-2.90625 0.3125,-2.875 c 0,0.109375 0.09375,0.109375 0.109375,0.109375 0.109375,0 0.109375,-0.015625 0.171875,-0.234375 0.171875,-0.703125 0.375,-1.1875 0.734375,-1.1875 0.171875,0 0.3125,0.078125 0.3125,0.453125 0,0.234375 -0.03125,0.34375 -0.078125,0.515625 z m 1.75,-4.328125 C 2.265625,-3.375 2.546875,-3.65625 2.71875,-3.8125 c 0.359375,-0.296875 0.640625,-0.375 0.8125,-0.375 0.390625,0 0.640625,0.34375 0.640625,0.9375 0,0.59375 -0.328125,1.734375 -0.515625,2.109375 -0.34375,0.703125 -0.8125,1.03125 -1.1875,1.03125 C 1.8125,-0.109375 1.6875,-0.9375 1.6875,-1 c 0,-0.015625 0,-0.03125 0.03125,-0.15625 z m 0,0"
           id="id-50ea0fbc-d234-4108-90f0-c7197f284dd6-2" /></symbol><symbol
         overflow="visible"
         id="id-f9d91c25-b73b-4ddb-8227-2b2ad5c18479-0"><path
           style="stroke:none"
           d=""
           id="id-9a8475ce-16fd-4ac4-8433-0106b3a66dcd-2" /></symbol><symbol
         overflow="visible"
         id="id-4f6a5674-3b04-4176-a7a5-7c63da7c85e3-3"><path
           style="stroke:none"
           d="m 2.265625,-4.359375 c 0,-0.109375 -0.09375,-0.265625 -0.28125,-0.265625 -0.1875,0 -0.390625,0.1875 -0.390625,0.390625 0,0.109375 0.078125,0.265625 0.28125,0.265625 0.1875,0 0.390625,-0.203125 0.390625,-0.390625 z M 0.84375,-0.8125 c -0.03125,0.09375 -0.0625,0.171875 -0.0625,0.296875 0,0.328125 0.265625,0.578125 0.65625,0.578125 0.6875,0 1,-0.953125 1,-1.0625 0,-0.09375 -0.09375,-0.09375 -0.109375,-0.09375 -0.09375,0 -0.109375,0.046875 -0.140625,0.125 -0.15625,0.5625 -0.453125,0.84375 -0.734375,0.84375 -0.140625,0 -0.171875,-0.09375 -0.171875,-0.25 0,-0.15625 0.046875,-0.28125 0.109375,-0.4375 C 1.46875,-1 1.546875,-1.1875 1.609375,-1.375 1.671875,-1.546875 1.9375,-2.171875 1.953125,-2.265625 1.984375,-2.328125 2,-2.40625 2,-2.484375 2,-2.8125 1.71875,-3.078125 1.34375,-3.078125 0.640625,-3.078125 0.328125,-2.125 0.328125,-2 c 0,0.078125 0.09375,0.078125 0.125,0.078125 0.09375,0 0.09375,-0.03125 0.125,-0.109375 C 0.75,-2.625 1.0625,-2.875 1.3125,-2.875 c 0.109375,0 0.171875,0.046875 0.171875,0.234375 0,0.171875 -0.03125,0.265625 -0.203125,0.703125 z m 0,0"
           id="id-767751b0-384f-484f-8ace-e0eeea2d5717-7" /></symbol><symbol
         overflow="visible"
         id="id-a0afe973-2211-47ae-8383-f892f9218b47-5"><path
           style="stroke:none"
           d=""
           id="id-6f42a7ca-27b1-402c-a6bb-ad3fb81374fc-9" /></symbol><symbol
         overflow="visible"
         id="id-7d07cc56-7262-4fbe-b5e1-c8bc89e534b1-2"><path
           style="stroke:none"
           d="m 1.5625,-1.921875 h 0.59375 c 0.109375,0 0.109375,0 0.125,-0.03125 C 2.3125,-1.96875 2.328125,-2.03125 2.328125,-2.0625 2.328125,-2.140625 2.25,-2.140625 2.171875,-2.140625 H 1.625 L 1.71875,-2.5625 C 1.75,-2.6875 1.8125,-2.921875 1.8125,-2.953125 1.8125,-3.03125 1.75,-3.125 1.625,-3.125 c -0.078125,0 -0.203125,0.0625 -0.234375,0.1875 -0.03125,0.09375 0.03125,-0.140625 -0.203125,0.796875 H 0.59375 c -0.09375,0 -0.171875,0 -0.171875,0.125 0,0.09375 0.0625,0.09375 0.15625,0.09375 H 1.125 L 0.84375,-0.75 c -0.03125,0.109375 -0.078125,0.265625 -0.078125,0.328125 0,0.28125 0.265625,0.484375 0.625,0.484375 0.59375,0 0.96875,-0.6875 0.96875,-0.78125 0,-0.0625 -0.09375,-0.0625 -0.109375,-0.0625 -0.078125,0 -0.09375,0.015625 -0.109375,0.078125 -0.171875,0.359375 -0.46875,0.59375 -0.734375,0.59375 -0.15625,0 -0.203125,-0.125 -0.203125,-0.265625 0,-0.078125 0,-0.09375 0.015625,-0.140625 z m 0,0"
           id="id-ea7df496-d8ad-4bf2-a177-2733e23b3d3c-2" /></symbol><symbol
         overflow="visible"
         id="id-a8601847-5ad1-4f9b-b522-2a3907da5e95-8"><path
           style="stroke:none"
           d="M 1.484375,-0.8125 C 1.5,-0.890625 1.546875,-1.078125 1.5625,-1.15625 1.578125,-1.234375 1.609375,-1.3125 1.625,-1.375 1.640625,-1.453125 1.796875,-1.71875 1.96875,-1.859375 2.140625,-2 2.296875,-2.03125 2.46875,-2.03125 c 0.0625,0 0.296875,0 0.46875,0.078125 -0.21875,0.078125 -0.21875,0.28125 -0.21875,0.296875 0,0.078125 0.0625,0.203125 0.21875,0.203125 0.140625,0 0.3125,-0.125 0.3125,-0.34375 0,-0.359375 -0.53125,-0.40625 -0.765625,-0.40625 -0.125,0 -0.453125,0 -0.796875,0.390625 -0.0625,-0.265625 -0.359375,-0.390625 -0.59375,-0.390625 -0.171875,0 -0.3125,0.078125 -0.453125,0.28125 -0.125,0.203125 -0.1875,0.46875 -0.1875,0.484375 0,0.078125 0.078125,0.078125 0.109375,0.078125 0.078125,0 0.078125,-0.015625 0.125,-0.140625 0.078125,-0.296875 0.1875,-0.53125 0.375,-0.53125 0.171875,0 0.203125,0.15625 0.203125,0.265625 0,0.0625 -0.046875,0.25 -0.078125,0.390625 -0.03125,0.125 -0.078125,0.328125 -0.109375,0.4375 L 0.96875,-0.484375 C 0.9375,-0.359375 0.875,-0.140625 0.875,-0.125 c 0,0.109375 0.09375,0.1875 0.1875,0.1875 0.078125,0 0.171875,-0.046875 0.21875,-0.140625 C 1.3125,-0.109375 1.34375,-0.28125 1.375,-0.375 Z m 0,0"
           id="id-ab4eb2d4-caff-4c44-8b20-4c230faffbdf-9" /></symbol></g><g
       id="id-b26172cb-027c-421d-954a-9a3edf6fcf3c-0"><symbol
         overflow="visible"
         id="id-884f4cd2-8377-4beb-80e7-0aed45543e00-3"><path
           style="stroke:none"
           d=""
           id="id-8aa4fc3b-54d4-4ed8-acf5-c765a37e3df8-6" /></symbol><symbol
         overflow="visible"
         id="id-0398d649-fca1-4956-a3c8-89b8a13175b9-1"><path
           style="stroke:none"
           d="m 1.90625,-6.140625 c 0,-0.265625 -0.21875,-0.53125 -0.515625,-0.53125 -0.34375,0 -0.546875,0.28125 -0.546875,0.53125 0,0.265625 0.234375,0.53125 0.53125,0.53125 0.34375,0 0.53125,-0.28125 0.53125,-0.53125 z m 0,0"
           id="id-62d30d5d-7baf-4103-a07c-87dd472f0a83-0" /></symbol><symbol
         overflow="visible"
         id="id-b7373ce2-b1de-4eee-bbaf-6d3431c531df-6"><path
           style="stroke:none"
           d="m 6.84375,-3.265625 c 0.15625,0 0.34375,0 0.34375,-0.1875 C 7.1875,-3.65625 7,-3.65625 6.859375,-3.65625 h -5.96875 c -0.140625,0 -0.328125,0 -0.328125,0.203125 0,0.1875 0.1875,0.1875 0.328125,0.1875 z m 0.015625,1.9375 c 0.140625,0 0.328125,0 0.328125,-0.203125 0,-0.1875 -0.1875,-0.1875 -0.34375,-0.1875 H 0.890625 c -0.140625,0 -0.328125,0 -0.328125,0.1875 0,0.203125 0.1875,0.203125 0.328125,0.203125 z m 0,0"
           id="id-3e21917c-ab6b-4ba4-a724-6c815b3be0d1-3" /></symbol><symbol
         overflow="visible"
         id="id-7cdad4d5-66bb-441b-8cc1-c2fed5adf0bf-2"><path
           style="stroke:none"
           d=""
           id="id-cbed7880-5fe1-42d9-989b-4591360532c1-0" /></symbol><symbol
         overflow="visible"
         id="id-089f8f61-7aee-448d-8ebe-bc0b06e19aae-6"><path
           style="stroke:none"
           d="m 9.140625,-5.65625 c 0.25,-0.4375 0.484375,-0.796875 1.125,-0.84375 0.07813,-0.015625 0.1875,-0.015625 0.1875,-0.203125 0,-0.03125 -0.04687,-0.109375 -0.125,-0.109375 -0.234375,0 -0.515625,0.03125 -0.765625,0.03125 -0.34375,0 -0.703125,-0.03125 -1.046875,-0.03125 -0.046875,0 -0.1875,0 -0.1875,0.1875 0,0.109375 0.09375,0.125 0.15625,0.125 0.234375,0.015625 0.59375,0.09375 0.59375,0.390625 0,0.109375 -0.0625,0.1875 -0.140625,0.328125 L 6.25,-1.09375 5.875,-6.03125 c 0,-0.203125 -0.015625,-0.453125 0.703125,-0.46875 0.171875,0 0.265625,0 0.265625,-0.203125 0,-0.09375 -0.109375,-0.109375 -0.140625,-0.109375 -0.40625,0 -0.828125,0.03125 -1.21875,0.03125 -0.234375,0 -0.8125,-0.03125 -1.046875,-0.03125 -0.0625,0 -0.1875,0 -0.1875,0.203125 C 4.25,-6.5 4.34375,-6.5 4.484375,-6.5 4.921875,-6.5 5,-6.4375 5.015625,-6.25 l 0.0625,0.765625 -2.53125,4.390625 -0.375,-5.046875 c 0,-0.125 0,-0.34375 0.765625,-0.359375 0.09375,0 0.203125,0 0.203125,-0.203125 C 3.140625,-6.8125 3.015625,-6.8125 3,-6.8125 c -0.390625,0 -0.8125,0.03125 -1.21875,0.03125 -0.359375,0 -0.71875,-0.03125 -1.046875,-0.03125 -0.0625,0 -0.1875,0 -0.1875,0.1875 0,0.125 0.09375,0.125 0.25,0.125 0.5,0 0.515625,0.09375 0.53125,0.375 l 0.453125,6.078125 c 0,0.1875 0.015625,0.265625 0.15625,0.265625 0.109375,0 0.140625,-0.0625 0.234375,-0.203125 l 2.9375,-5.09375 0.359375,5.03125 C 5.5,0.171875 5.515625,0.21875 5.625,0.21875 c 0.140625,0 0.203125,-0.09375 0.25,-0.1875 z m 0,0"
           id="id-e521e3de-eaef-4e4f-a307-f9209e5531cb-1" /></symbol><symbol
         overflow="visible"
         id="id-661192c5-87a4-48a0-9b60-8f6888369730-5"><path
           style="stroke:none"
           d="M 3.015625,-3.15625 H 4.71875 c 1.40625,0 2.796875,-1.03125 2.796875,-2.140625 0,-0.78125 -0.65625,-1.515625 -1.96875,-1.515625 h -3.21875 c -0.1875,0 -0.296875,0 -0.296875,0.1875 0,0.125 0.078125,0.125 0.28125,0.125 0.125,0 0.3125,0.015625 0.421875,0.015625 0.171875,0.03125 0.21875,0.046875 0.21875,0.171875 0,0.03125 0,0.0625 -0.03125,0.1875 l -1.34375,5.34375 c -0.09375,0.390625 -0.109375,0.46875 -0.90625,0.46875 -0.15625,0 -0.265625,0 -0.265625,0.1875 C 0.40625,0 0.515625,0 0.546875,0 0.828125,0 1.53125,-0.03125 1.8125,-0.03125 c 0.21875,0 0.4375,0.015625 0.640625,0.015625 0.21875,0 0.4375,0.015625 0.640625,0.015625 0.078125,0 0.203125,0 0.203125,-0.203125 0,-0.109375 -0.09375,-0.109375 -0.28125,-0.109375 -0.359375,0 -0.640625,0 -0.640625,-0.171875 0,-0.0625 0.015625,-0.109375 0.03125,-0.171875 z M 3.734375,-6.125 C 3.828125,-6.46875 3.84375,-6.5 4.28125,-6.5 h 0.953125 c 0.828125,0 1.359375,0.265625 1.359375,0.953125 0,0.390625 -0.203125,1.25 -0.59375,1.609375 -0.5,0.453125 -1.09375,0.53125 -1.53125,0.53125 H 3.0625 Z m 0,0"
           id="id-daa03c2d-4f75-473c-87d0-b50b77f662bc-5" /></symbol><symbol
         overflow="visible"
         id="id-60c2aa2a-62c8-42cd-a2cc-706bbf5148dc-4"><path
           style="stroke:none"
           d=""
           id="id-a813adae-ee86-4a8b-af12-a96311cd57fb-7" /></symbol><symbol
         overflow="visible"
         id="id-5b5a918e-d059-4e11-9d3d-7a10a7f4034e-6"><path
           style="stroke:none"
           d="m 3,-2.625 c -0.171875,0.046875 -0.296875,0.1875 -0.296875,0.328125 0,0.171875 0.140625,0.234375 0.234375,0.234375 0.078125,0 0.34375,-0.046875 0.34375,-0.40625 0,-0.453125 -0.5,-0.609375 -0.9375,-0.609375 -1.078125,0 -1.28125,0.8125 -1.28125,1.015625 0,0.265625 0.15625,0.4375 0.25,0.515625 0.171875,0.140625 0.296875,0.171875 0.78125,0.25 0.15625,0.03125 0.59375,0.109375 0.59375,0.453125 0,0.125 -0.078125,0.390625 -0.359375,0.5625 C 2.046875,-0.125 1.703125,-0.125 1.625,-0.125 1.34375,-0.125 0.953125,-0.1875 0.78125,-0.421875 1.015625,-0.453125 1.171875,-0.625 1.171875,-0.8125 c 0,-0.171875 -0.125,-0.265625 -0.265625,-0.265625 -0.203125,0 -0.40625,0.171875 -0.40625,0.46875 0,0.421875 0.4375,0.671875 1.109375,0.671875 1.296875,0 1.53125,-0.875 1.53125,-1.140625 0,-0.640625 -0.703125,-0.765625 -0.96875,-0.8125 -0.0625,-0.015625 -0.234375,-0.046875 -0.28125,-0.0625 -0.25,-0.046875 -0.375,-0.1875 -0.375,-0.34375 0,-0.15625 0.125,-0.34375 0.28125,-0.453125 0.1875,-0.109375 0.421875,-0.125 0.546875,-0.125 0.140625,0 0.5,0.015625 0.65625,0.25 z m 0,0"
           id="id-bb808aa7-2bed-48cc-afdc-d3a8f56485cb-5" /></symbol><symbol
         overflow="visible"
         id="id-c64f4deb-fe69-44d2-be62-996d4d51558d-6"><path
           style="stroke:none"
           d=""
           id="id-dd8f97a1-1bae-405a-90eb-3bc7627ba73d-9" /></symbol><symbol
         overflow="visible"
         id="id-3518f292-3ef5-41f5-a687-139092bb0719-3"><path
           style="stroke:none"
           d="m 3.6875,-1.484375 c 0,-0.875 -0.75,-1.625 -1.703125,-1.625 -0.96875,0 -1.71875,0.75 -1.71875,1.625 0,0.859375 0.765625,1.546875 1.71875,1.546875 0.9375,0 1.703125,-0.6875 1.703125,-1.546875 z m -0.640625,-0.0625 c 0,0.328125 -0.015625,0.703125 -0.21875,0.984375 -0.1875,0.265625 -0.5,0.40625 -0.84375,0.40625 -0.265625,0 -0.640625,-0.078125 -0.875,-0.421875 -0.1875,-0.28125 -0.203125,-0.640625 -0.203125,-0.96875 0,-0.296875 0,-0.71875 0.25,-1.015625 0.171875,-0.203125 0.46875,-0.34375 0.828125,-0.34375 0.40625,0 0.703125,0.1875 0.859375,0.40625 0.1875,0.265625 0.203125,0.625 0.203125,0.953125 z m 0,0"
           id="id-d3118bc8-55a8-411e-804f-815f85a8fce5-7" /></symbol><symbol
         overflow="visible"
         id="id-961f8b21-ca01-4a18-ba14-ce34708fd421-4"><path
           style="stroke:none"
           d="m 4.109375,0 v -0.25 c -0.46875,0 -0.515625,-0.046875 -0.515625,-0.390625 v -2.4375 L 2.515625,-3 v 0.25 c 0.46875,0 0.515625,0.046875 0.515625,0.390625 v 1.203125 c 0,0.609375 -0.390625,1.03125 -0.921875,1.03125 -0.625,0 -0.65625,-0.296875 -0.65625,-0.65625 V -3.078125 L 0.375,-3 v 0.25 c 0.53125,0 0.53125,0.03125 0.53125,0.640625 V -1.0625 c 0,0.484375 0,1.125 1.15625,1.125 0.15625,0 0.65625,0 1,-0.578125 V 0.0625 Z m 0,0"
           id="id-4ef3fd32-07cc-4620-af76-f6494c2d4c58-5" /></symbol><symbol
         overflow="visible"
         id="id-1ac6bda9-fc08-4234-86d8-32e783aff230-2"><path
           style="stroke:none"
           d="M 2.609375,-0.875 V -1.265625 H 2.375 v 0.375 c 0,0.484375 -0.21875,0.734375 -0.5,0.734375 -0.46875,0 -0.46875,-0.578125 -0.46875,-0.703125 V -2.75 H 2.484375 V -3 H 1.40625 v -1.28125 h -0.25 c 0,0.625 -0.28125,1.3125 -0.953125,1.328125 V -2.75 H 0.84375 v 1.875 c 0,0.78125 0.59375,0.9375 0.984375,0.9375 0.46875,0 0.78125,-0.390625 0.78125,-0.9375 z m 0,0"
           id="id-4dd69f33-6223-4df9-82fb-e475a5374f50-5" /></symbol></g><g
       id="id-fef24c94-4558-4c9d-95a4-a1c49fbb9560-9"><symbol
         overflow="visible"
         id="id-2c861a30-82f9-4234-a1f8-a8384908cc79-5"><path
           style="stroke:none"
           d=""
           id="id-26c3d2e3-d975-42f7-b7b8-fe07e4926d9e-0" /></symbol><symbol
         overflow="visible"
         id="id-61b8db31-a421-4a89-a5f9-2ef2838b7332-4"><path
           style="stroke:none"
           d="M 0.453125,1.21875 C 0.375,1.5625 0.34375,1.625 -0.09375,1.625 c -0.109375,0 -0.21875,0 -0.21875,0.1875 0,0.078125 0.046875,0.125 0.125,0.125 0.265625,0 0.5625,-0.03125 0.828125,-0.03125 0.34375,0 0.671875,0.03125 1,0.03125 0.046875,0 0.171875,0 0.171875,-0.203125 C 1.8125,1.625 1.71875,1.625 1.578125,1.625 c -0.5,0 -0.5,-0.0625 -0.5,-0.15625 0,-0.125 0.421875,-1.75 0.484375,-2 0.125,0.296875 0.40625,0.640625 0.921875,0.640625 1.15625,0 2.40625,-1.453125 2.40625,-2.921875 0,-0.9375 -0.578125,-1.59375 -1.328125,-1.59375 -0.5,0 -0.984375,0.359375 -1.3125,0.75 -0.09375,-0.546875 -0.53125,-0.75 -0.890625,-0.75 -0.46875,0 -0.65625,0.390625 -0.734375,0.5625 C 0.4375,-3.5 0.3125,-2.90625 0.3125,-2.875 c 0,0.109375 0.09375,0.109375 0.109375,0.109375 0.109375,0 0.109375,-0.015625 0.171875,-0.234375 0.171875,-0.703125 0.375,-1.1875 0.734375,-1.1875 0.171875,0 0.3125,0.078125 0.3125,0.453125 0,0.234375 -0.03125,0.34375 -0.078125,0.515625 z m 1.75,-4.328125 C 2.265625,-3.375 2.546875,-3.65625 2.71875,-3.8125 c 0.359375,-0.296875 0.640625,-0.375 0.8125,-0.375 0.390625,0 0.640625,0.34375 0.640625,0.9375 0,0.59375 -0.328125,1.734375 -0.515625,2.109375 -0.34375,0.703125 -0.8125,1.03125 -1.1875,1.03125 C 1.8125,-0.109375 1.6875,-0.9375 1.6875,-1 c 0,-0.015625 0,-0.03125 0.03125,-0.15625 z m 0,0"
           id="id-954b32e1-88c8-47b3-90b9-6540568ffb28-8" /></symbol><symbol
         overflow="visible"
         id="id-6c61c473-f32d-48e4-93ce-35b9c8d0ab9b-7"><path
           style="stroke:none"
           d=""
           id="id-479b8405-6846-4e9f-945c-d00d1d0c00f4-1" /></symbol><symbol
         overflow="visible"
         id="id-fbd70231-c8b5-4536-b027-c68e010298b8-7"><path
           style="stroke:none"
           d="m 3.703125,-1.859375 c 0,-0.765625 -0.578125,-1.21875 -1.265625,-1.21875 -1.03125,0 -2,0.96875 -2,1.921875 0,0.703125 0.5,1.21875 1.265625,1.21875 1,0 2,-0.90625 2,-1.921875 z m -2,1.734375 c -0.34375,0 -0.6875,-0.21875 -0.6875,-0.78125 0,-0.28125 0.125,-0.96875 0.40625,-1.359375 C 1.71875,-2.703125 2.125,-2.875 2.4375,-2.875 c 0.375,0 0.6875,0.25 0.6875,0.765625 C 3.125,-1.9375 3.046875,-1.25 2.734375,-0.765625 2.46875,-0.34375 2.0625,-0.125 1.703125,-0.125 Z m 0,0"
           id="id-7adc83c5-1689-498e-9e2a-04d427ca4555-2" /></symbol><symbol
         overflow="visible"
         id="id-bec5161f-081b-41c8-a625-68ae78eea029-7"><path
           style="stroke:none"
           d=""
           id="id-8112a675-59a9-442f-bb3d-85234a2685d7-2" /></symbol><symbol
         overflow="visible"
         id="id-626db69d-5e80-4d5f-b04b-0a2efb7fdf90-2"><path
           style="stroke:none"
           d="m 1.5625,-1.921875 h 0.59375 c 0.109375,0 0.109375,0 0.125,-0.03125 C 2.3125,-1.96875 2.328125,-2.03125 2.328125,-2.0625 2.328125,-2.140625 2.25,-2.140625 2.171875,-2.140625 H 1.625 L 1.71875,-2.5625 C 1.75,-2.6875 1.8125,-2.921875 1.8125,-2.953125 1.8125,-3.03125 1.75,-3.125 1.625,-3.125 c -0.078125,0 -0.203125,0.0625 -0.234375,0.1875 -0.03125,0.09375 0.03125,-0.140625 -0.203125,0.796875 H 0.59375 c -0.09375,0 -0.171875,0 -0.171875,0.125 0,0.09375 0.0625,0.09375 0.15625,0.09375 H 1.125 L 0.84375,-0.75 c -0.03125,0.109375 -0.078125,0.265625 -0.078125,0.328125 0,0.28125 0.265625,0.484375 0.625,0.484375 0.59375,0 0.96875,-0.6875 0.96875,-0.78125 0,-0.0625 -0.09375,-0.0625 -0.109375,-0.0625 -0.078125,0 -0.09375,0.015625 -0.109375,0.078125 -0.171875,0.359375 -0.46875,0.59375 -0.734375,0.59375 -0.15625,0 -0.203125,-0.125 -0.203125,-0.265625 0,-0.078125 0,-0.09375 0.015625,-0.140625 z m 0,0"
           id="id-9aadd2b1-9bd0-462a-abdf-f76349a39179-6" /></symbol><symbol
         overflow="visible"
         id="id-54ff32bc-62e8-4e1c-90b6-4ee300067137-1"><path
           style="stroke:none"
           d="M 1.484375,-0.8125 C 1.5,-0.890625 1.546875,-1.078125 1.5625,-1.15625 1.578125,-1.234375 1.609375,-1.3125 1.625,-1.375 1.640625,-1.453125 1.796875,-1.71875 1.96875,-1.859375 2.140625,-2 2.296875,-2.03125 2.46875,-2.03125 c 0.0625,0 0.296875,0 0.46875,0.078125 -0.21875,0.078125 -0.21875,0.28125 -0.21875,0.296875 0,0.078125 0.0625,0.203125 0.21875,0.203125 0.140625,0 0.3125,-0.125 0.3125,-0.34375 0,-0.359375 -0.53125,-0.40625 -0.765625,-0.40625 -0.125,0 -0.453125,0 -0.796875,0.390625 -0.0625,-0.265625 -0.359375,-0.390625 -0.59375,-0.390625 -0.171875,0 -0.3125,0.078125 -0.453125,0.28125 -0.125,0.203125 -0.1875,0.46875 -0.1875,0.484375 0,0.078125 0.078125,0.078125 0.109375,0.078125 0.078125,0 0.078125,-0.015625 0.125,-0.140625 0.078125,-0.296875 0.1875,-0.53125 0.375,-0.53125 0.171875,0 0.203125,0.15625 0.203125,0.265625 0,0.0625 -0.046875,0.25 -0.078125,0.390625 -0.03125,0.125 -0.078125,0.328125 -0.109375,0.4375 L 0.96875,-0.484375 C 0.9375,-0.359375 0.875,-0.140625 0.875,-0.125 c 0,0.109375 0.09375,0.1875 0.1875,0.1875 0.078125,0 0.171875,-0.046875 0.21875,-0.140625 C 1.3125,-0.109375 1.34375,-0.28125 1.375,-0.375 Z m 0,0"
           id="id-efbc89a1-ebd3-4299-b839-a7948bf1df4c-0" /></symbol></g></defs><sodipodi:namedview
     pagecolor="#ffffff"
     bordercolor="#666666"
     borderopacity="1"
     objecttolerance="10"
     gridtolerance="10"
     guidetolerance="10"
     inkscape:pageopacity="0"
     inkscape:pageshadow="2"
     inkscape:window-width="1920"
     inkscape:window-height="1173"
     id="namedview4"
     showgrid="false"
     inkscape:zoom="2.9376326"
     inkscape:cx="74.958866"
     inkscape:cy="83.360834"
     inkscape:window-x="1920"
     inkscape:window-y="0"
     inkscape:window-maximized="1"
     inkscape:current-layer="g10"
     inkscape:document-rotation="0"
     scale-x="0.6"
     fit-margin-top="5"
     fit-margin-left="5"
     fit-margin-right="5"
     fit-margin-bottom="5"
     lock-margins="true" /><g
     id="g10"
     inkscape:groupmode="layer"
     inkscape:label="TurbineProject2016"
     transform="matrix(1.3333333,0,0,-1.3333333,3.1943883,241.54533)"><g
       id="g12"><path
         d="m 34.805,117.429 120.468,-31.18 v 77.109 H 34.805 Z"
         style="fill:#fcebdd;fill-opacity:1;fill-rule:evenodd;stroke:#000000;stroke-width:0.72;stroke-linecap:round;stroke-linejoin:round;stroke-miterlimit:10;stroke-dasharray:0.72, 1.44;stroke-dashoffset:0;stroke-opacity:1"
         id="path14" /><path
         d="M 34.805,117.429 V 0.358 h 120.468 v 85.891 z"
         style="fill:#f2dcda;fill-opacity:1;fill-rule:evenodd;stroke:#000000;stroke-width:0.72;stroke-linecap:round;stroke-linejoin:round;stroke-miterlimit:10;stroke-dasharray:0.72, 1.44;stroke-dashoffset:0;stroke-opacity:1"
         id="path16" /><path
         d="M 43.734,84.343 H 146.343 V 35.159 H 43.734 Z"
         style="fill:#ffffff;fill-opacity:1;fill-rule:evenodd;stroke:#000000;stroke-width:0.72;stroke-linecap:round;stroke-linejoin:round;stroke-miterlimit:10;stroke-dasharray:none;stroke-opacity:1"
         id="path18" /></g><g
       id="g52"><path
         d="M 43.734,8.3 V 111.198 L 146.344,84.339 V 35.159 Z"
         style="fill:#eaeff5;fill-opacity:1;fill-rule:evenodd;stroke:#000000;stroke-width:0.72;stroke-linecap:round;stroke-linejoin:round;stroke-miterlimit:10;stroke-dasharray:none;stroke-opacity:1"
         id="path54" /><g
         id="g56"><path
           d="m 89.395,177.811 h 13.324 V 81.998 H 89.395 Z"
           style="fill:url(#linearGradient72);fill-opacity:1;fill-rule:evenodd;stroke:#000000;stroke-width:0.72;stroke-linecap:round;stroke-linejoin:round;stroke-miterlimit:10;stroke-dasharray:none;stroke-opacity:1"
           id="path74" /></g><g
         id="g76"><path
           d="m 67.004,148.698 h 58.109 V 111.12 H 67.004 Z"
           style="fill:url(#linearGradient92);fill-opacity:1;fill-rule:evenodd;stroke:#000000;stroke-width:0.72;stroke-linecap:round;stroke-linejoin:round;stroke-miterlimit:10;stroke-dasharray:none;stroke-opacity:1"
           id="path94" /></g><path
         d="M 0.363,64.28 H 189.715 V 55.21 H 0.363 Z"
         style="fill:#c6d8f0;fill-opacity:1;fill-rule:evenodd;stroke:none"
         id="path96" /><path
         d="M 0.363,64.28 H 189.715"
         style="fill:none;stroke:#000000;stroke-width:0.72;stroke-linecap:round;stroke-linejoin:round;stroke-miterlimit:10;stroke-dasharray:none;stroke-opacity:1"
         id="path98" /><path
         d="M 189.715,55.21 H 0.363"
         style="fill:none;stroke:#000000;stroke-width:0.72;stroke-linecap:round;stroke-linejoin:round;stroke-miterlimit:10;stroke-dasharray:none;stroke-opacity:1"
         id="path100" /><path
         d="m 86.816,69.241 h 17.008 V 51.1 H 86.816 Z"
         style="fill:#dbeef3;fill-opacity:1;fill-rule:evenodd;stroke:none"
         id="path102" /><path
         d="m 80.297,74.491 29.476,-29.48 v 29.48 L 80.297,45.011 Z"
         style="fill:#bfbfbf;fill-opacity:1;fill-rule:evenodd;stroke:#000000;stroke-width:0.72;stroke-linecap:round;stroke-linejoin:round;stroke-miterlimit:10;stroke-dasharray:none;stroke-opacity:1"
         id="path104" /><path
         d="m 83.727,177.78 c -12.571,-1.191 -17.262,-4.219 -10.481,-6.769 6.777,-2.551 22.469,-3.641 35.039,-2.45 12.57,1.2 17.262,4.231 10.481,6.778 -0.493,0.179 -1.032,0.359 -1.621,0.531"
         style="fill:none;stroke:#000000;stroke-width:0.72;stroke-linecap:round;stroke-linejoin:round;stroke-miterlimit:10;stroke-dasharray:none;stroke-opacity:1"
         id="path106" /><path
         d="m 117.344,172.542 -8.957,4.957 10.148,1.41 z"
         style="fill:#000000;fill-opacity:1;fill-rule:evenodd;stroke:none"
         id="path108" /><g
         id="g1352"
         transform="translate(-39.919554,-2.1218395)"><path
           d="M 136.145,74.909 V 101.44"
           style="fill:none;stroke:#000000;stroke-width:0.72;stroke-linecap:round;stroke-linejoin:round;stroke-miterlimit:10;stroke-dasharray:none;stroke-opacity:1"
           id="path110" /><path
           d="m 132.906,100.632 3.239,9.718 3.242,-9.718 z"
           style="fill:#000000;fill-opacity:1;fill-rule:evenodd;stroke:none"
           id="path112" /></g></g><g
       transform="matrix(1.29844,0,0,-1.29844,168.471,76.2208)"
       ns2:version="1.1.0"
       ns2:texconverter="lualatex"
       ns2:pdfconverter="inkscape"
       ns2:text="$$p_{o_{tr}}$$"
       ns2:preamble="/home/dietmarw/.config/inkscape/extensions/textext/default_packages.tex"
       ns2:scale="0.9738324345810865"
       ns2:alignment="middle center"
       ns2:jacobian_sqrt="1.29844"
       id="g728"><defs
   id="id-c4c128df-b57b-48e5-be22-c5165ab221b3">
    <g
   id="id-fef24c94-4558-4c9d-95a4-a1c49fbb9560">
      <symbol
   overflow="visible"
   id="id-2c861a30-82f9-4234-a1f8-a8384908cc79">
        <path
   style="stroke:none"
   d=""
   id="id-26c3d2e3-d975-42f7-b7b8-fe07e4926d9e" />
      </symbol>
      <symbol
   overflow="visible"
   id="id-61b8db31-a421-4a89-a5f9-2ef2838b7332">
        <path
   style="stroke:none"
   d="M 0.453125,1.21875 C 0.375,1.5625 0.34375,1.625 -0.09375,1.625 c -0.109375,0 -0.21875,0 -0.21875,0.1875 0,0.078125 0.046875,0.125 0.125,0.125 0.265625,0 0.5625,-0.03125 0.828125,-0.03125 0.34375,0 0.671875,0.03125 1,0.03125 0.046875,0 0.171875,0 0.171875,-0.203125 C 1.8125,1.625 1.71875,1.625 1.578125,1.625 c -0.5,0 -0.5,-0.0625 -0.5,-0.15625 0,-0.125 0.421875,-1.75 0.484375,-2 0.125,0.296875 0.40625,0.640625 0.921875,0.640625 1.15625,0 2.40625,-1.453125 2.40625,-2.921875 0,-0.9375 -0.578125,-1.59375 -1.328125,-1.59375 -0.5,0 -0.984375,0.359375 -1.3125,0.75 -0.09375,-0.546875 -0.53125,-0.75 -0.890625,-0.75 -0.46875,0 -0.65625,0.390625 -0.734375,0.5625 C 0.4375,-3.5 0.3125,-2.90625 0.3125,-2.875 c 0,0.109375 0.09375,0.109375 0.109375,0.109375 0.109375,0 0.109375,-0.015625 0.171875,-0.234375 0.171875,-0.703125 0.375,-1.1875 0.734375,-1.1875 0.171875,0 0.3125,0.078125 0.3125,0.453125 0,0.234375 -0.03125,0.34375 -0.078125,0.515625 z m 1.75,-4.328125 C 2.265625,-3.375 2.546875,-3.65625 2.71875,-3.8125 c 0.359375,-0.296875 0.640625,-0.375 0.8125,-0.375 0.390625,0 0.640625,0.34375 0.640625,0.9375 0,0.59375 -0.328125,1.734375 -0.515625,2.109375 -0.34375,0.703125 -0.8125,1.03125 -1.1875,1.03125 C 1.8125,-0.109375 1.6875,-0.9375 1.6875,-1 c 0,-0.015625 0,-0.03125 0.03125,-0.15625 z m 0,0"
   id="id-954b32e1-88c8-47b3-90b9-6540568ffb28" />
      </symbol>
      <symbol
   overflow="visible"
   id="id-6c61c473-f32d-48e4-93ce-35b9c8d0ab9b">
        <path
   style="stroke:none"
   d=""
   id="id-479b8405-6846-4e9f-945c-d00d1d0c00f4" />
      </symbol>
      <symbol
   overflow="visible"
   id="id-fbd70231-c8b5-4536-b027-c68e010298b8">
        <path
   style="stroke:none"
   d="m 3.703125,-1.859375 c 0,-0.765625 -0.578125,-1.21875 -1.265625,-1.21875 -1.03125,0 -2,0.96875 -2,1.921875 0,0.703125 0.5,1.21875 1.265625,1.21875 1,0 2,-0.90625 2,-1.921875 z m -2,1.734375 c -0.34375,0 -0.6875,-0.21875 -0.6875,-0.78125 0,-0.28125 0.125,-0.96875 0.40625,-1.359375 C 1.71875,-2.703125 2.125,-2.875 2.4375,-2.875 c 0.375,0 0.6875,0.25 0.6875,0.765625 C 3.125,-1.9375 3.046875,-1.25 2.734375,-0.765625 2.46875,-0.34375 2.0625,-0.125 1.703125,-0.125 Z m 0,0"
   id="id-7adc83c5-1689-498e-9e2a-04d427ca4555" />
      </symbol>
      <symbol
   overflow="visible"
   id="id-bec5161f-081b-41c8-a625-68ae78eea029">
        <path
   style="stroke:none"
   d=""
   id="id-8112a675-59a9-442f-bb3d-85234a2685d7" />
      </symbol>
      <symbol
   overflow="visible"
   id="id-626db69d-5e80-4d5f-b04b-0a2efb7fdf90">
        <path
   style="stroke:none"
   d="m 1.5625,-1.921875 h 0.59375 c 0.109375,0 0.109375,0 0.125,-0.03125 C 2.3125,-1.96875 2.328125,-2.03125 2.328125,-2.0625 2.328125,-2.140625 2.25,-2.140625 2.171875,-2.140625 H 1.625 L 1.71875,-2.5625 C 1.75,-2.6875 1.8125,-2.921875 1.8125,-2.953125 1.8125,-3.03125 1.75,-3.125 1.625,-3.125 c -0.078125,0 -0.203125,0.0625 -0.234375,0.1875 -0.03125,0.09375 0.03125,-0.140625 -0.203125,0.796875 H 0.59375 c -0.09375,0 -0.171875,0 -0.171875,0.125 0,0.09375 0.0625,0.09375 0.15625,0.09375 H 1.125 L 0.84375,-0.75 c -0.03125,0.109375 -0.078125,0.265625 -0.078125,0.328125 0,0.28125 0.265625,0.484375 0.625,0.484375 0.59375,0 0.96875,-0.6875 0.96875,-0.78125 0,-0.0625 -0.09375,-0.0625 -0.109375,-0.0625 -0.078125,0 -0.09375,0.015625 -0.109375,0.078125 -0.171875,0.359375 -0.46875,0.59375 -0.734375,0.59375 -0.15625,0 -0.203125,-0.125 -0.203125,-0.265625 0,-0.078125 0,-0.09375 0.015625,-0.140625 z m 0,0"
   id="id-9aadd2b1-9bd0-462a-abdf-f76349a39179" />
      </symbol>
      <symbol
   overflow="visible"
   id="id-54ff32bc-62e8-4e1c-90b6-4ee300067137">
        <path
   style="stroke:none"
   d="M 1.484375,-0.8125 C 1.5,-0.890625 1.546875,-1.078125 1.5625,-1.15625 1.578125,-1.234375 1.609375,-1.3125 1.625,-1.375 1.640625,-1.453125 1.796875,-1.71875 1.96875,-1.859375 2.140625,-2 2.296875,-2.03125 2.46875,-2.03125 c 0.0625,0 0.296875,0 0.46875,0.078125 -0.21875,0.078125 -0.21875,0.28125 -0.21875,0.296875 0,0.078125 0.0625,0.203125 0.21875,0.203125 0.140625,0 0.3125,-0.125 0.3125,-0.34375 0,-0.359375 -0.53125,-0.40625 -0.765625,-0.40625 -0.125,0 -0.453125,0 -0.796875,0.390625 -0.0625,-0.265625 -0.359375,-0.390625 -0.59375,-0.390625 -0.171875,0 -0.3125,0.078125 -0.453125,0.28125 -0.125,0.203125 -0.1875,0.46875 -0.1875,0.484375 0,0.078125 0.078125,0.078125 0.109375,0.078125 0.078125,0 0.078125,-0.015625 0.125,-0.140625 0.078125,-0.296875 0.1875,-0.53125 0.375,-0.53125 0.171875,0 0.203125,0.15625 0.203125,0.265625 0,0.0625 -0.046875,0.25 -0.078125,0.390625 -0.03125,0.125 -0.078125,0.328125 -0.109375,0.4375 L 0.96875,-0.484375 C 0.9375,-0.359375 0.875,-0.140625 0.875,-0.125 c 0,0.109375 0.09375,0.1875 0.1875,0.1875 0.078125,0 0.171875,-0.046875 0.21875,-0.140625 C 1.3125,-0.109375 1.34375,-0.28125 1.375,-0.375 Z m 0,0"
   id="id-efbc89a1-ebd3-4299-b839-a7948bf1df4c" />
      </symbol>
    </g>
  </defs>
  <g
   id="id-5178eb1c-a2a0-48fd-b787-6224d98438c2"
   transform="translate(-297.178,-142.314)">
    <g
   style="fill:#000000;fill-opacity:1"
   id="id-833a7479-6693-4c49-b544-6854161aedee">
      <g
   transform="translate(297.491,146.72)"
   id="g713"><path
   style="stroke:none"
   d="M 0.453125,1.21875 C 0.375,1.5625 0.34375,1.625 -0.09375,1.625 c -0.109375,0 -0.21875,0 -0.21875,0.1875 0,0.078125 0.046875,0.125 0.125,0.125 0.265625,0 0.5625,-0.03125 0.828125,-0.03125 0.34375,0 0.671875,0.03125 1,0.03125 0.046875,0 0.171875,0 0.171875,-0.203125 C 1.8125,1.625 1.71875,1.625 1.578125,1.625 c -0.5,0 -0.5,-0.0625 -0.5,-0.15625 0,-0.125 0.421875,-1.75 0.484375,-2 0.125,0.296875 0.40625,0.640625 0.921875,0.640625 1.15625,0 2.40625,-1.453125 2.40625,-2.921875 0,-0.9375 -0.578125,-1.59375 -1.328125,-1.59375 -0.5,0 -0.984375,0.359375 -1.3125,0.75 -0.09375,-0.546875 -0.53125,-0.75 -0.890625,-0.75 -0.46875,0 -0.65625,0.390625 -0.734375,0.5625 C 0.4375,-3.5 0.3125,-2.90625 0.3125,-2.875 c 0,0.109375 0.09375,0.109375 0.109375,0.109375 0.109375,0 0.109375,-0.015625 0.171875,-0.234375 0.171875,-0.703125 0.375,-1.1875 0.734375,-1.1875 0.171875,0 0.3125,0.078125 0.3125,0.453125 0,0.234375 -0.03125,0.34375 -0.078125,0.515625 z m 1.75,-4.328125 C 2.265625,-3.375 2.546875,-3.65625 2.71875,-3.8125 c 0.359375,-0.296875 0.640625,-0.375 0.8125,-0.375 0.390625,0 0.640625,0.34375 0.640625,0.9375 0,0.59375 -0.328125,1.734375 -0.515625,2.109375 -0.34375,0.703125 -0.8125,1.03125 -1.1875,1.03125 C 1.8125,-0.109375 1.6875,-0.9375 1.6875,-1 c 0,-0.015625 0,-0.03125 0.03125,-0.15625 z m 0,0"
   id="id-1f6c78e9-33d1-41b3-ae9b-407d5f758cf4" />
      </g></g>
    <g
   style="fill:#000000;fill-opacity:1"
   id="id-a4fb9d9c-bcc2-4bed-9a6d-9c48e3bd5585">
      <g
   transform="translate(302.503,148.214)"
   id="g717"><path
   style="stroke:none"
   d="m 3.703125,-1.859375 c 0,-0.765625 -0.578125,-1.21875 -1.265625,-1.21875 -1.03125,0 -2,0.96875 -2,1.921875 0,0.703125 0.5,1.21875 1.265625,1.21875 1,0 2,-0.90625 2,-1.921875 z m -2,1.734375 c -0.34375,0 -0.6875,-0.21875 -0.6875,-0.78125 0,-0.28125 0.125,-0.96875 0.40625,-1.359375 C 1.71875,-2.703125 2.125,-2.875 2.4375,-2.875 c 0.375,0 0.6875,0.25 0.6875,0.765625 C 3.125,-1.9375 3.046875,-1.25 2.734375,-0.765625 2.46875,-0.34375 2.0625,-0.125 1.703125,-0.125 Z m 0,0"
   id="id-8dea29ad-a5e7-4d48-a235-0f0d7a4d794a" />
      </g></g>
    <g
   style="fill:#000000;fill-opacity:1"
   id="id-1502878d-2be3-4f34-86f0-5915276ee35d">
      <g
   transform="translate(306.436,149.21)"
   id="g721"><path
   style="stroke:none"
   d="m 1.5625,-1.921875 h 0.59375 c 0.109375,0 0.109375,0 0.125,-0.03125 C 2.3125,-1.96875 2.328125,-2.03125 2.328125,-2.0625 2.328125,-2.140625 2.25,-2.140625 2.171875,-2.140625 H 1.625 L 1.71875,-2.5625 C 1.75,-2.6875 1.8125,-2.921875 1.8125,-2.953125 1.8125,-3.03125 1.75,-3.125 1.625,-3.125 c -0.078125,0 -0.203125,0.0625 -0.234375,0.1875 -0.03125,0.09375 0.03125,-0.140625 -0.203125,0.796875 H 0.59375 c -0.09375,0 -0.171875,0 -0.171875,0.125 0,0.09375 0.0625,0.09375 0.15625,0.09375 H 1.125 L 0.84375,-0.75 c -0.03125,0.109375 -0.078125,0.265625 -0.078125,0.328125 0,0.28125 0.265625,0.484375 0.625,0.484375 0.59375,0 0.96875,-0.6875 0.96875,-0.78125 0,-0.0625 -0.09375,-0.0625 -0.109375,-0.0625 -0.078125,0 -0.09375,0.015625 -0.109375,0.078125 -0.171875,0.359375 -0.46875,0.59375 -0.734375,0.59375 -0.15625,0 -0.203125,-0.125 -0.203125,-0.265625 0,-0.078125 0,-0.09375 0.015625,-0.140625 z m 0,0"
   id="id-3113ad61-fcb8-44a5-a382-af1f094e4505" />
      </g><g
   transform="translate(309.244,149.21)"
   id="g724"><path
   style="stroke:none"
   d="M 1.484375,-0.8125 C 1.5,-0.890625 1.546875,-1.078125 1.5625,-1.15625 1.578125,-1.234375 1.609375,-1.3125 1.625,-1.375 1.640625,-1.453125 1.796875,-1.71875 1.96875,-1.859375 2.140625,-2 2.296875,-2.03125 2.46875,-2.03125 c 0.0625,0 0.296875,0 0.46875,0.078125 -0.21875,0.078125 -0.21875,0.28125 -0.21875,0.296875 0,0.078125 0.0625,0.203125 0.21875,0.203125 0.140625,0 0.3125,-0.125 0.3125,-0.34375 0,-0.359375 -0.53125,-0.40625 -0.765625,-0.40625 -0.125,0 -0.453125,0 -0.796875,0.390625 -0.0625,-0.265625 -0.359375,-0.390625 -0.59375,-0.390625 -0.171875,0 -0.3125,0.078125 -0.453125,0.28125 -0.125,0.203125 -0.1875,0.46875 -0.1875,0.484375 0,0.078125 0.078125,0.078125 0.109375,0.078125 0.078125,0 0.078125,-0.015625 0.125,-0.140625 0.078125,-0.296875 0.1875,-0.53125 0.375,-0.53125 0.171875,0 0.203125,0.15625 0.203125,0.265625 0,0.0625 -0.046875,0.25 -0.078125,0.390625 -0.03125,0.125 -0.078125,0.328125 -0.109375,0.4375 L 0.96875,-0.484375 C 0.9375,-0.359375 0.875,-0.140625 0.875,-0.125 c 0,0.109375 0.09375,0.1875 0.1875,0.1875 0.078125,0 0.171875,-0.046875 0.21875,-0.140625 C 1.3125,-0.109375 1.34375,-0.28125 1.375,-0.375 Z m 0,0"
   id="id-eb532435-00b4-41e3-a42f-03dd18465fa1" />
      </g></g>
  </g>
</g><g
       transform="matrix(1.29844,0,0,-1.29844,-0.145142,76.5663)"
       ns2:version="1.1.0"
       ns2:texconverter="lualatex"
       ns2:pdfconverter="inkscape"
       ns2:text="$$p_{i_{tr}}$$"
       ns2:preamble="/home/dietmarw/.config/inkscape/extensions/textext/default_packages.tex"
       ns2:scale="0.9738324345810865"
       ns2:alignment="middle center"
       ns2:jacobian_sqrt="1.29844"
       id="g913"><defs
   id="id-bb384722-fb56-415e-8210-eea4e38cae95">
    <g
   id="id-07146c87-4ac8-44c3-8ca3-483460b9b42e">
      <symbol
   overflow="visible"
   id="id-245a0e5d-b12e-4236-8767-edc40d839c6b">
        <path
   style="stroke:none"
   d=""
   id="id-a00ee3ef-2ff6-4cb5-aeda-cd5364365d9b" />
      </symbol>
      <symbol
   overflow="visible"
   id="id-0e2808c7-2ee0-4125-ad04-e512508203bc">
        <path
   style="stroke:none"
   d="M 0.453125,1.21875 C 0.375,1.5625 0.34375,1.625 -0.09375,1.625 c -0.109375,0 -0.21875,0 -0.21875,0.1875 0,0.078125 0.046875,0.125 0.125,0.125 0.265625,0 0.5625,-0.03125 0.828125,-0.03125 0.34375,0 0.671875,0.03125 1,0.03125 0.046875,0 0.171875,0 0.171875,-0.203125 C 1.8125,1.625 1.71875,1.625 1.578125,1.625 c -0.5,0 -0.5,-0.0625 -0.5,-0.15625 0,-0.125 0.421875,-1.75 0.484375,-2 0.125,0.296875 0.40625,0.640625 0.921875,0.640625 1.15625,0 2.40625,-1.453125 2.40625,-2.921875 0,-0.9375 -0.578125,-1.59375 -1.328125,-1.59375 -0.5,0 -0.984375,0.359375 -1.3125,0.75 -0.09375,-0.546875 -0.53125,-0.75 -0.890625,-0.75 -0.46875,0 -0.65625,0.390625 -0.734375,0.5625 C 0.4375,-3.5 0.3125,-2.90625 0.3125,-2.875 c 0,0.109375 0.09375,0.109375 0.109375,0.109375 0.109375,0 0.109375,-0.015625 0.171875,-0.234375 0.171875,-0.703125 0.375,-1.1875 0.734375,-1.1875 0.171875,0 0.3125,0.078125 0.3125,0.453125 0,0.234375 -0.03125,0.34375 -0.078125,0.515625 z m 1.75,-4.328125 C 2.265625,-3.375 2.546875,-3.65625 2.71875,-3.8125 c 0.359375,-0.296875 0.640625,-0.375 0.8125,-0.375 0.390625,0 0.640625,0.34375 0.640625,0.9375 0,0.59375 -0.328125,1.734375 -0.515625,2.109375 -0.34375,0.703125 -0.8125,1.03125 -1.1875,1.03125 C 1.8125,-0.109375 1.6875,-0.9375 1.6875,-1 c 0,-0.015625 0,-0.03125 0.03125,-0.15625 z m 0,0"
   id="id-50ea0fbc-d234-4108-90f0-c7197f284dd6" />
      </symbol>
      <symbol
   overflow="visible"
   id="id-f9d91c25-b73b-4ddb-8227-2b2ad5c18479">
        <path
   style="stroke:none"
   d=""
   id="id-9a8475ce-16fd-4ac4-8433-0106b3a66dcd" />
      </symbol>
      <symbol
   overflow="visible"
   id="id-4f6a5674-3b04-4176-a7a5-7c63da7c85e3">
        <path
   style="stroke:none"
   d="m 2.265625,-4.359375 c 0,-0.109375 -0.09375,-0.265625 -0.28125,-0.265625 -0.1875,0 -0.390625,0.1875 -0.390625,0.390625 0,0.109375 0.078125,0.265625 0.28125,0.265625 0.1875,0 0.390625,-0.203125 0.390625,-0.390625 z M 0.84375,-0.8125 c -0.03125,0.09375 -0.0625,0.171875 -0.0625,0.296875 0,0.328125 0.265625,0.578125 0.65625,0.578125 0.6875,0 1,-0.953125 1,-1.0625 0,-0.09375 -0.09375,-0.09375 -0.109375,-0.09375 -0.09375,0 -0.109375,0.046875 -0.140625,0.125 -0.15625,0.5625 -0.453125,0.84375 -0.734375,0.84375 -0.140625,0 -0.171875,-0.09375 -0.171875,-0.25 0,-0.15625 0.046875,-0.28125 0.109375,-0.4375 C 1.46875,-1 1.546875,-1.1875 1.609375,-1.375 1.671875,-1.546875 1.9375,-2.171875 1.953125,-2.265625 1.984375,-2.328125 2,-2.40625 2,-2.484375 2,-2.8125 1.71875,-3.078125 1.34375,-3.078125 0.640625,-3.078125 0.328125,-2.125 0.328125,-2 c 0,0.078125 0.09375,0.078125 0.125,0.078125 0.09375,0 0.09375,-0.03125 0.125,-0.109375 C 0.75,-2.625 1.0625,-2.875 1.3125,-2.875 c 0.109375,0 0.171875,0.046875 0.171875,0.234375 0,0.171875 -0.03125,0.265625 -0.203125,0.703125 z m 0,0"
   id="id-767751b0-384f-484f-8ace-e0eeea2d5717" />
      </symbol>
      <symbol
   overflow="visible"
   id="id-a0afe973-2211-47ae-8383-f892f9218b47">
        <path
   style="stroke:none"
   d=""
   id="id-6f42a7ca-27b1-402c-a6bb-ad3fb81374fc" />
      </symbol>
      <symbol
   overflow="visible"
   id="id-7d07cc56-7262-4fbe-b5e1-c8bc89e534b1">
        <path
   style="stroke:none"
   d="m 1.5625,-1.921875 h 0.59375 c 0.109375,0 0.109375,0 0.125,-0.03125 C 2.3125,-1.96875 2.328125,-2.03125 2.328125,-2.0625 2.328125,-2.140625 2.25,-2.140625 2.171875,-2.140625 H 1.625 L 1.71875,-2.5625 C 1.75,-2.6875 1.8125,-2.921875 1.8125,-2.953125 1.8125,-3.03125 1.75,-3.125 1.625,-3.125 c -0.078125,0 -0.203125,0.0625 -0.234375,0.1875 -0.03125,0.09375 0.03125,-0.140625 -0.203125,0.796875 H 0.59375 c -0.09375,0 -0.171875,0 -0.171875,0.125 0,0.09375 0.0625,0.09375 0.15625,0.09375 H 1.125 L 0.84375,-0.75 c -0.03125,0.109375 -0.078125,0.265625 -0.078125,0.328125 0,0.28125 0.265625,0.484375 0.625,0.484375 0.59375,0 0.96875,-0.6875 0.96875,-0.78125 0,-0.0625 -0.09375,-0.0625 -0.109375,-0.0625 -0.078125,0 -0.09375,0.015625 -0.109375,0.078125 -0.171875,0.359375 -0.46875,0.59375 -0.734375,0.59375 -0.15625,0 -0.203125,-0.125 -0.203125,-0.265625 0,-0.078125 0,-0.09375 0.015625,-0.140625 z m 0,0"
   id="id-ea7df496-d8ad-4bf2-a177-2733e23b3d3c" />
      </symbol>
      <symbol
   overflow="visible"
   id="id-a8601847-5ad1-4f9b-b522-2a3907da5e95">
        <path
   style="stroke:none"
   d="M 1.484375,-0.8125 C 1.5,-0.890625 1.546875,-1.078125 1.5625,-1.15625 1.578125,-1.234375 1.609375,-1.3125 1.625,-1.375 1.640625,-1.453125 1.796875,-1.71875 1.96875,-1.859375 2.140625,-2 2.296875,-2.03125 2.46875,-2.03125 c 0.0625,0 0.296875,0 0.46875,0.078125 -0.21875,0.078125 -0.21875,0.28125 -0.21875,0.296875 0,0.078125 0.0625,0.203125 0.21875,0.203125 0.140625,0 0.3125,-0.125 0.3125,-0.34375 0,-0.359375 -0.53125,-0.40625 -0.765625,-0.40625 -0.125,0 -0.453125,0 -0.796875,0.390625 -0.0625,-0.265625 -0.359375,-0.390625 -0.59375,-0.390625 -0.171875,0 -0.3125,0.078125 -0.453125,0.28125 -0.125,0.203125 -0.1875,0.46875 -0.1875,0.484375 0,0.078125 0.078125,0.078125 0.109375,0.078125 0.078125,0 0.078125,-0.015625 0.125,-0.140625 0.078125,-0.296875 0.1875,-0.53125 0.375,-0.53125 0.171875,0 0.203125,0.15625 0.203125,0.265625 0,0.0625 -0.046875,0.25 -0.078125,0.390625 -0.03125,0.125 -0.078125,0.328125 -0.109375,0.4375 L 0.96875,-0.484375 C 0.9375,-0.359375 0.875,-0.140625 0.875,-0.125 c 0,0.109375 0.09375,0.1875 0.1875,0.1875 0.078125,0 0.171875,-0.046875 0.21875,-0.140625 C 1.3125,-0.109375 1.34375,-0.28125 1.375,-0.375 Z m 0,0"
   id="id-ab4eb2d4-caff-4c44-8b20-4c230faffbdf" />
      </symbol>
    </g>
  </defs>
  <g
   id="id-64686830-4c08-4f1b-9090-9b5f6ff07e56"
   transform="translate(-297.736,-142.314)">
    <g
   style="fill:#000000;fill-opacity:1"
   id="id-7e5af5bf-3702-421a-a0ac-cf3e2c44b9fb">
      <g
   transform="translate(298.048,146.72)"
   id="g898"><path
   style="stroke:none"
   d="M 0.453125,1.21875 C 0.375,1.5625 0.34375,1.625 -0.09375,1.625 c -0.109375,0 -0.21875,0 -0.21875,0.1875 0,0.078125 0.046875,0.125 0.125,0.125 0.265625,0 0.5625,-0.03125 0.828125,-0.03125 0.34375,0 0.671875,0.03125 1,0.03125 0.046875,0 0.171875,0 0.171875,-0.203125 C 1.8125,1.625 1.71875,1.625 1.578125,1.625 c -0.5,0 -0.5,-0.0625 -0.5,-0.15625 0,-0.125 0.421875,-1.75 0.484375,-2 0.125,0.296875 0.40625,0.640625 0.921875,0.640625 1.15625,0 2.40625,-1.453125 2.40625,-2.921875 0,-0.9375 -0.578125,-1.59375 -1.328125,-1.59375 -0.5,0 -0.984375,0.359375 -1.3125,0.75 -0.09375,-0.546875 -0.53125,-0.75 -0.890625,-0.75 -0.46875,0 -0.65625,0.390625 -0.734375,0.5625 C 0.4375,-3.5 0.3125,-2.90625 0.3125,-2.875 c 0,0.109375 0.09375,0.109375 0.109375,0.109375 0.109375,0 0.109375,-0.015625 0.171875,-0.234375 0.171875,-0.703125 0.375,-1.1875 0.734375,-1.1875 0.171875,0 0.3125,0.078125 0.3125,0.453125 0,0.234375 -0.03125,0.34375 -0.078125,0.515625 z m 1.75,-4.328125 C 2.265625,-3.375 2.546875,-3.65625 2.71875,-3.8125 c 0.359375,-0.296875 0.640625,-0.375 0.8125,-0.375 0.390625,0 0.640625,0.34375 0.640625,0.9375 0,0.59375 -0.328125,1.734375 -0.515625,2.109375 -0.34375,0.703125 -0.8125,1.03125 -1.1875,1.03125 C 1.8125,-0.109375 1.6875,-0.9375 1.6875,-1 c 0,-0.015625 0,-0.03125 0.03125,-0.15625 z m 0,0"
   id="id-f649ce65-018a-4bca-969d-f62d8f4eb2c3" />
      </g></g>
    <g
   style="fill:#000000;fill-opacity:1"
   id="id-75fb8fbe-0198-434f-9f71-5089bbcd2f1d">
      <g
   transform="translate(303.06,148.214)"
   id="g902"><path
   style="stroke:none"
   d="m 2.265625,-4.359375 c 0,-0.109375 -0.09375,-0.265625 -0.28125,-0.265625 -0.1875,0 -0.390625,0.1875 -0.390625,0.390625 0,0.109375 0.078125,0.265625 0.28125,0.265625 0.1875,0 0.390625,-0.203125 0.390625,-0.390625 z M 0.84375,-0.8125 c -0.03125,0.09375 -0.0625,0.171875 -0.0625,0.296875 0,0.328125 0.265625,0.578125 0.65625,0.578125 0.6875,0 1,-0.953125 1,-1.0625 0,-0.09375 -0.09375,-0.09375 -0.109375,-0.09375 -0.09375,0 -0.109375,0.046875 -0.140625,0.125 -0.15625,0.5625 -0.453125,0.84375 -0.734375,0.84375 -0.140625,0 -0.171875,-0.09375 -0.171875,-0.25 0,-0.15625 0.046875,-0.28125 0.109375,-0.4375 C 1.46875,-1 1.546875,-1.1875 1.609375,-1.375 1.671875,-1.546875 1.9375,-2.171875 1.953125,-2.265625 1.984375,-2.328125 2,-2.40625 2,-2.484375 2,-2.8125 1.71875,-3.078125 1.34375,-3.078125 0.640625,-3.078125 0.328125,-2.125 0.328125,-2 c 0,0.078125 0.09375,0.078125 0.125,0.078125 0.09375,0 0.09375,-0.03125 0.125,-0.109375 C 0.75,-2.625 1.0625,-2.875 1.3125,-2.875 c 0.109375,0 0.171875,0.046875 0.171875,0.234375 0,0.171875 -0.03125,0.265625 -0.203125,0.703125 z m 0,0"
   id="id-d4028132-27d8-4018-bb17-f88f826d9997" />
      </g></g>
    <g
   style="fill:#000000;fill-opacity:1"
   id="id-0c14ea71-1f02-4226-a46c-9d57957e9245">
      <g
   transform="translate(305.879,149.21)"
   id="g906"><path
   style="stroke:none"
   d="m 1.5625,-1.921875 h 0.59375 c 0.109375,0 0.109375,0 0.125,-0.03125 C 2.3125,-1.96875 2.328125,-2.03125 2.328125,-2.0625 2.328125,-2.140625 2.25,-2.140625 2.171875,-2.140625 H 1.625 L 1.71875,-2.5625 C 1.75,-2.6875 1.8125,-2.921875 1.8125,-2.953125 1.8125,-3.03125 1.75,-3.125 1.625,-3.125 c -0.078125,0 -0.203125,0.0625 -0.234375,0.1875 -0.03125,0.09375 0.03125,-0.140625 -0.203125,0.796875 H 0.59375 c -0.09375,0 -0.171875,0 -0.171875,0.125 0,0.09375 0.0625,0.09375 0.15625,0.09375 H 1.125 L 0.84375,-0.75 c -0.03125,0.109375 -0.078125,0.265625 -0.078125,0.328125 0,0.28125 0.265625,0.484375 0.625,0.484375 0.59375,0 0.96875,-0.6875 0.96875,-0.78125 0,-0.0625 -0.09375,-0.0625 -0.109375,-0.0625 -0.078125,0 -0.09375,0.015625 -0.109375,0.078125 -0.171875,0.359375 -0.46875,0.59375 -0.734375,0.59375 -0.15625,0 -0.203125,-0.125 -0.203125,-0.265625 0,-0.078125 0,-0.09375 0.015625,-0.140625 z m 0,0"
   id="id-b12e283f-c0b8-48b8-a44c-71137c5b7cb1" />
      </g><g
   transform="translate(308.687,149.21)"
   id="g909"><path
   style="stroke:none"
   d="M 1.484375,-0.8125 C 1.5,-0.890625 1.546875,-1.078125 1.5625,-1.15625 1.578125,-1.234375 1.609375,-1.3125 1.625,-1.375 1.640625,-1.453125 1.796875,-1.71875 1.96875,-1.859375 2.140625,-2 2.296875,-2.03125 2.46875,-2.03125 c 0.0625,0 0.296875,0 0.46875,0.078125 -0.21875,0.078125 -0.21875,0.28125 -0.21875,0.296875 0,0.078125 0.0625,0.203125 0.21875,0.203125 0.140625,0 0.3125,-0.125 0.3125,-0.34375 0,-0.359375 -0.53125,-0.40625 -0.765625,-0.40625 -0.125,0 -0.453125,0 -0.796875,0.390625 -0.0625,-0.265625 -0.359375,-0.390625 -0.59375,-0.390625 -0.171875,0 -0.3125,0.078125 -0.453125,0.28125 -0.125,0.203125 -0.1875,0.46875 -0.1875,0.484375 0,0.078125 0.078125,0.078125 0.109375,0.078125 0.078125,0 0.078125,-0.015625 0.125,-0.140625 0.078125,-0.296875 0.1875,-0.53125 0.375,-0.53125 0.171875,0 0.203125,0.15625 0.203125,0.265625 0,0.0625 -0.046875,0.25 -0.078125,0.390625 -0.03125,0.125 -0.078125,0.328125 -0.109375,0.4375 L 0.96875,-0.484375 C 0.9375,-0.359375 0.875,-0.140625 0.875,-0.125 c 0,0.109375 0.09375,0.1875 0.1875,0.1875 0.078125,0 0.171875,-0.046875 0.21875,-0.140625 C 1.3125,-0.109375 1.34375,-0.28125 1.375,-0.375 Z m 0,0"
   id="id-d21f13d1-240b-4f06-8ff5-6d30273f7266" />
      </g></g>
  </g>
</g><g
       transform="matrix(1.29844,0,0,-1.29844,104.91791,91.16311)"
       ns2:version="1.1.0"
       ns2:texconverter="lualatex"
       ns2:pdfconverter="inkscape"
       ns2:text="$$\\dot{W}_s$$"
       ns2:preamble="/home/dietmarw/.config/inkscape/extensions/textext/default_packages.tex"
       ns2:scale="0.9738324345810865"
       ns2:alignment="middle center"
       ns2:jacobian_sqrt="1.29844"
       id="g2080"><defs
   id="id-3dfa71f6-77b9-4048-91be-f6f3332d8d4c">
    <g
   id="id-0569b312-a4e7-4093-b781-6f19ab51778a">
      <symbol
   overflow="visible"
   id="id-71fbd4c6-37d4-489f-9c4c-3f7b0567d157">
        <path
   style="stroke:none"
   d=""
   id="id-a2bad689-ba23-4545-8fff-a3c12448fcef" />
      </symbol>
      <symbol
   overflow="visible"
   id="id-4e801218-0f37-4ac6-a978-9c900b0f6b1c">
        <path
   style="stroke:none"
   d="m 1.90625,-6.140625 c 0,-0.265625 -0.21875,-0.53125 -0.515625,-0.53125 -0.34375,0 -0.546875,0.28125 -0.546875,0.53125 0,0.265625 0.234375,0.53125 0.53125,0.53125 0.34375,0 0.53125,-0.28125 0.53125,-0.53125 z m 0,0"
   id="id-3a36bcdb-fd26-4abb-979b-19ed396e026d" />
      </symbol>
      <symbol
   overflow="visible"
   id="id-57b9f2d1-5c55-4231-9910-bfcc259a1178">
        <path
   style="stroke:none"
   d=""
   id="id-2c87d0ac-dd5f-4f5c-acb5-9edf4a00e3e6" />
      </symbol>
      <symbol
   overflow="visible"
   id="id-e3688ddf-49cc-4b06-95f3-3a8d1726c5eb">
        <path
   style="stroke:none"
   d="m 9.140625,-5.65625 c 0.25,-0.4375 0.484375,-0.796875 1.125,-0.84375 0.07813,-0.015625 0.1875,-0.015625 0.1875,-0.203125 0,-0.03125 -0.04687,-0.109375 -0.125,-0.109375 -0.234375,0 -0.515625,0.03125 -0.765625,0.03125 -0.34375,0 -0.703125,-0.03125 -1.046875,-0.03125 -0.046875,0 -0.1875,0 -0.1875,0.1875 0,0.109375 0.09375,0.125 0.15625,0.125 0.234375,0.015625 0.59375,0.09375 0.59375,0.390625 0,0.109375 -0.0625,0.1875 -0.140625,0.328125 L 6.25,-1.09375 5.875,-6.03125 c 0,-0.203125 -0.015625,-0.453125 0.703125,-0.46875 0.171875,0 0.265625,0 0.265625,-0.203125 0,-0.09375 -0.109375,-0.109375 -0.140625,-0.109375 -0.40625,0 -0.828125,0.03125 -1.21875,0.03125 -0.234375,0 -0.8125,-0.03125 -1.046875,-0.03125 -0.0625,0 -0.1875,0 -0.1875,0.203125 C 4.25,-6.5 4.34375,-6.5 4.484375,-6.5 4.921875,-6.5 5,-6.4375 5.015625,-6.25 l 0.0625,0.765625 -2.53125,4.390625 -0.375,-5.046875 c 0,-0.125 0,-0.34375 0.765625,-0.359375 0.09375,0 0.203125,0 0.203125,-0.203125 C 3.140625,-6.8125 3.015625,-6.8125 3,-6.8125 c -0.390625,0 -0.8125,0.03125 -1.21875,0.03125 -0.359375,0 -0.71875,-0.03125 -1.046875,-0.03125 -0.0625,0 -0.1875,0 -0.1875,0.1875 0,0.125 0.09375,0.125 0.25,0.125 0.5,0 0.515625,0.09375 0.53125,0.375 l 0.453125,6.078125 c 0,0.1875 0.015625,0.265625 0.15625,0.265625 0.109375,0 0.140625,-0.0625 0.234375,-0.203125 l 2.9375,-5.09375 0.359375,5.03125 C 5.5,0.171875 5.515625,0.21875 5.625,0.21875 c 0.140625,0 0.203125,-0.09375 0.25,-0.1875 z m 0,0"
   id="id-b8962f5b-9994-4a6a-84a7-794649258af1" />
      </symbol>
      <symbol
   overflow="visible"
   id="id-e42268a4-4445-494f-b979-40a7061b982d">
        <path
   style="stroke:none"
   d=""
   id="id-e24a6014-cdd1-483b-8c04-64e07b13fe2c" />
      </symbol>
      <symbol
   overflow="visible"
   id="id-fc65a3a5-92fb-44d5-90a5-525f4edda630">
        <path
   style="stroke:none"
   d="m 3,-2.625 c -0.171875,0.046875 -0.296875,0.1875 -0.296875,0.328125 0,0.171875 0.140625,0.234375 0.234375,0.234375 0.078125,0 0.34375,-0.046875 0.34375,-0.40625 0,-0.453125 -0.5,-0.609375 -0.9375,-0.609375 -1.078125,0 -1.28125,0.8125 -1.28125,1.015625 0,0.265625 0.15625,0.4375 0.25,0.515625 0.171875,0.140625 0.296875,0.171875 0.78125,0.25 0.15625,0.03125 0.59375,0.109375 0.59375,0.453125 0,0.125 -0.078125,0.390625 -0.359375,0.5625 C 2.046875,-0.125 1.703125,-0.125 1.625,-0.125 1.34375,-0.125 0.953125,-0.1875 0.78125,-0.421875 1.015625,-0.453125 1.171875,-0.625 1.171875,-0.8125 c 0,-0.171875 -0.125,-0.265625 -0.265625,-0.265625 -0.203125,0 -0.40625,0.171875 -0.40625,0.46875 0,0.421875 0.4375,0.671875 1.109375,0.671875 1.296875,0 1.53125,-0.875 1.53125,-1.140625 0,-0.640625 -0.703125,-0.765625 -0.96875,-0.8125 -0.0625,-0.015625 -0.234375,-0.046875 -0.28125,-0.0625 -0.25,-0.046875 -0.375,-0.1875 -0.375,-0.34375 0,-0.15625 0.125,-0.34375 0.28125,-0.453125 0.1875,-0.109375 0.421875,-0.125 0.546875,-0.125 0.140625,0 0.5,0.015625 0.65625,0.25 z m 0,0"
   id="id-1e44f8c5-4870-4d8f-89e9-955bf4213beb" />
      </symbol>
    </g>
  </defs>
  <g
   id="id-13c4dab8-4b5f-44f3-9d61-f11dfdf89aa0"
   transform="translate(-299.337,-137.529)">
    <g
   style="fill:#000000;fill-opacity:1"
   id="id-0d0dcc74-3d77-4048-a8b3-7c7b629a5e5b">
      <g
   transform="translate(302.803,144.201)"
   id="g2068"><path
   style="stroke:none"
   d="m 1.90625,-6.140625 c 0,-0.265625 -0.21875,-0.53125 -0.515625,-0.53125 -0.34375,0 -0.546875,0.28125 -0.546875,0.53125 0,0.265625 0.234375,0.53125 0.53125,0.53125 0.34375,0 0.53125,-0.28125 0.53125,-0.53125 z m 0,0"
   id="id-73af6613-141b-48ba-8e9d-d7736acc87fb" />
      </g></g>
    <g
   style="fill:#000000;fill-opacity:1"
   id="id-bdfba97a-def3-40be-943f-8c16b9324f9c">
      <g
   transform="translate(298.79,146.72)"
   id="g2072"><path
   style="stroke:none"
   d="m 9.140625,-5.65625 c 0.25,-0.4375 0.484375,-0.796875 1.125,-0.84375 0.07813,-0.015625 0.1875,-0.015625 0.1875,-0.203125 0,-0.03125 -0.04687,-0.109375 -0.125,-0.109375 -0.234375,0 -0.515625,0.03125 -0.765625,0.03125 -0.34375,0 -0.703125,-0.03125 -1.046875,-0.03125 -0.046875,0 -0.1875,0 -0.1875,0.1875 0,0.109375 0.09375,0.125 0.15625,0.125 0.234375,0.015625 0.59375,0.09375 0.59375,0.390625 0,0.109375 -0.0625,0.1875 -0.140625,0.328125 L 6.25,-1.09375 5.875,-6.03125 c 0,-0.203125 -0.015625,-0.453125 0.703125,-0.46875 0.171875,0 0.265625,0 0.265625,-0.203125 0,-0.09375 -0.109375,-0.109375 -0.140625,-0.109375 -0.40625,0 -0.828125,0.03125 -1.21875,0.03125 -0.234375,0 -0.8125,-0.03125 -1.046875,-0.03125 -0.0625,0 -0.1875,0 -0.1875,0.203125 C 4.25,-6.5 4.34375,-6.5 4.484375,-6.5 4.921875,-6.5 5,-6.4375 5.015625,-6.25 l 0.0625,0.765625 -2.53125,4.390625 -0.375,-5.046875 c 0,-0.125 0,-0.34375 0.765625,-0.359375 0.09375,0 0.203125,0 0.203125,-0.203125 C 3.140625,-6.8125 3.015625,-6.8125 3,-6.8125 c -0.390625,0 -0.8125,0.03125 -1.21875,0.03125 -0.359375,0 -0.71875,-0.03125 -1.046875,-0.03125 -0.0625,0 -0.1875,0 -0.1875,0.1875 0,0.125 0.09375,0.125 0.25,0.125 0.5,0 0.515625,0.09375 0.53125,0.375 l 0.453125,6.078125 c 0,0.1875 0.015625,0.265625 0.15625,0.265625 0.109375,0 0.140625,-0.0625 0.234375,-0.203125 l 2.9375,-5.09375 0.359375,5.03125 C 5.5,0.171875 5.515625,0.21875 5.625,0.21875 c 0.140625,0 0.203125,-0.09375 0.25,-0.1875 z m 0,0"
   id="id-d4f52331-7f8a-4e98-a78e-a8abdd852ed2" />
      </g></g>
    <g
   style="fill:#000000;fill-opacity:1"
   id="id-9dc69c1d-e9d1-4cbb-8028-18866974a65d">
      <g
   transform="translate(308.199,148.214)"
   id="g2076"><path
   style="stroke:none"
   d="m 3,-2.625 c -0.171875,0.046875 -0.296875,0.1875 -0.296875,0.328125 0,0.171875 0.140625,0.234375 0.234375,0.234375 0.078125,0 0.34375,-0.046875 0.34375,-0.40625 0,-0.453125 -0.5,-0.609375 -0.9375,-0.609375 -1.078125,0 -1.28125,0.8125 -1.28125,1.015625 0,0.265625 0.15625,0.4375 0.25,0.515625 0.171875,0.140625 0.296875,0.171875 0.78125,0.25 0.15625,0.03125 0.59375,0.109375 0.59375,0.453125 0,0.125 -0.078125,0.390625 -0.359375,0.5625 C 2.046875,-0.125 1.703125,-0.125 1.625,-0.125 1.34375,-0.125 0.953125,-0.1875 0.78125,-0.421875 1.015625,-0.453125 1.171875,-0.625 1.171875,-0.8125 c 0,-0.171875 -0.125,-0.265625 -0.265625,-0.265625 -0.203125,0 -0.40625,0.171875 -0.40625,0.46875 0,0.421875 0.4375,0.671875 1.109375,0.671875 1.296875,0 1.53125,-0.875 1.53125,-1.140625 0,-0.640625 -0.703125,-0.765625 -0.96875,-0.8125 -0.0625,-0.015625 -0.234375,-0.046875 -0.28125,-0.0625 -0.25,-0.046875 -0.375,-0.1875 -0.375,-0.34375 0,-0.15625 0.125,-0.34375 0.28125,-0.453125 0.1875,-0.109375 0.421875,-0.125 0.546875,-0.125 0.140625,0 0.5,0.015625 0.65625,0.25 z m 0,0"
   id="id-1df4ede8-be17-40c2-84bd-d04f011bb85f" />
      </g></g>
  </g>
</g><g
       transform="matrix(1.29844,0,0,-1.29844,109.0828,108.95892)"
       ns2:version="1.1.0"
       ns2:texconverter="lualatex"
       ns2:pdfconverter="inkscape"
       ns2:text="$$= P_\\text{out}$$"
       ns2:preamble="/home/dietmarw/.config/inkscape/extensions/textext/default_packages.tex"
       ns2:scale="0.9738324345810865"
       ns2:alignment="middle center"
       ns2:jacobian_sqrt="1.29844"
       id="g2351"><defs
   id="id-c07b6c27-c926-4350-a726-6d4cb6aba147">
    <g
   id="id-a61c3b49-4419-4469-a500-cda428a816fc">
      <symbol
   overflow="visible"
   id="id-41ba9472-3ba8-4c24-84b5-b5df39628448">
        <path
   style="stroke:none"
   d=""
   id="id-0643c4ad-db82-475d-a404-01ab2be37137" />
      </symbol>
      <symbol
   overflow="visible"
   id="id-70ed001a-09ab-4f26-8875-8b19d5a49222">
        <path
   style="stroke:none"
   d="m 6.84375,-3.265625 c 0.15625,0 0.34375,0 0.34375,-0.1875 C 7.1875,-3.65625 7,-3.65625 6.859375,-3.65625 h -5.96875 c -0.140625,0 -0.328125,0 -0.328125,0.203125 0,0.1875 0.1875,0.1875 0.328125,0.1875 z m 0.015625,1.9375 c 0.140625,0 0.328125,0 0.328125,-0.203125 0,-0.1875 -0.1875,-0.1875 -0.34375,-0.1875 H 0.890625 c -0.140625,0 -0.328125,0 -0.328125,0.1875 0,0.203125 0.1875,0.203125 0.328125,0.203125 z m 0,0"
   id="id-267dc7d5-a75b-48d3-9878-ea4b2e403322" />
      </symbol>
      <symbol
   overflow="visible"
   id="id-6eb944c5-64ef-4cf3-a593-c6670cffdeff">
        <path
   style="stroke:none"
   d=""
   id="id-aa4d7e14-5c8e-428b-9348-43bb15fec334" />
      </symbol>
      <symbol
   overflow="visible"
   id="id-5afe236c-44c2-4c4d-a325-6da4666a5d05">
        <path
   style="stroke:none"
   d="M 3.015625,-3.15625 H 4.71875 c 1.40625,0 2.796875,-1.03125 2.796875,-2.140625 0,-0.78125 -0.65625,-1.515625 -1.96875,-1.515625 h -3.21875 c -0.1875,0 -0.296875,0 -0.296875,0.1875 0,0.125 0.078125,0.125 0.28125,0.125 0.125,0 0.3125,0.015625 0.421875,0.015625 0.171875,0.03125 0.21875,0.046875 0.21875,0.171875 0,0.03125 0,0.0625 -0.03125,0.1875 l -1.34375,5.34375 c -0.09375,0.390625 -0.109375,0.46875 -0.90625,0.46875 -0.15625,0 -0.265625,0 -0.265625,0.1875 C 0.40625,0 0.515625,0 0.546875,0 0.828125,0 1.53125,-0.03125 1.8125,-0.03125 c 0.21875,0 0.4375,0.015625 0.640625,0.015625 0.21875,0 0.4375,0.015625 0.640625,0.015625 0.078125,0 0.203125,0 0.203125,-0.203125 0,-0.109375 -0.09375,-0.109375 -0.28125,-0.109375 -0.359375,0 -0.640625,0 -0.640625,-0.171875 0,-0.0625 0.015625,-0.109375 0.03125,-0.171875 z M 3.734375,-6.125 C 3.828125,-6.46875 3.84375,-6.5 4.28125,-6.5 h 0.953125 c 0.828125,0 1.359375,0.265625 1.359375,0.953125 0,0.390625 -0.203125,1.25 -0.59375,1.609375 -0.5,0.453125 -1.09375,0.53125 -1.53125,0.53125 H 3.0625 Z m 0,0"
   id="id-cafc7f8d-ad02-4a8c-b9a3-f3f5a40a9858" />
      </symbol>
      <symbol
   overflow="visible"
   id="id-d8d4fadc-6f6a-435b-91f8-fd56a6a9e227">
        <path
   style="stroke:none"
   d=""
   id="id-95e3fa90-eafe-48ad-a7f5-696687f5b3b0" />
      </symbol>
      <symbol
   overflow="visible"
   id="id-a6ae2d71-c089-4ee3-a7d9-270d358392c9">
        <path
   style="stroke:none"
   d="m 3.6875,-1.484375 c 0,-0.875 -0.75,-1.625 -1.703125,-1.625 -0.96875,0 -1.71875,0.75 -1.71875,1.625 0,0.859375 0.765625,1.546875 1.71875,1.546875 0.9375,0 1.703125,-0.6875 1.703125,-1.546875 z m -0.640625,-0.0625 c 0,0.328125 -0.015625,0.703125 -0.21875,0.984375 -0.1875,0.265625 -0.5,0.40625 -0.84375,0.40625 -0.265625,0 -0.640625,-0.078125 -0.875,-0.421875 -0.1875,-0.28125 -0.203125,-0.640625 -0.203125,-0.96875 0,-0.296875 0,-0.71875 0.25,-1.015625 0.171875,-0.203125 0.46875,-0.34375 0.828125,-0.34375 0.40625,0 0.703125,0.1875 0.859375,0.40625 0.1875,0.265625 0.203125,0.625 0.203125,0.953125 z m 0,0"
   id="id-b45e605e-34ca-4264-bde1-7bd3a518aa8c" />
      </symbol>
      <symbol
   overflow="visible"
   id="id-93ff56ea-c448-4365-9108-e029fc8b9300">
        <path
   style="stroke:none"
   d="m 4.109375,0 v -0.25 c -0.46875,0 -0.515625,-0.046875 -0.515625,-0.390625 v -2.4375 L 2.515625,-3 v 0.25 c 0.46875,0 0.515625,0.046875 0.515625,0.390625 v 1.203125 c 0,0.609375 -0.390625,1.03125 -0.921875,1.03125 -0.625,0 -0.65625,-0.296875 -0.65625,-0.65625 V -3.078125 L 0.375,-3 v 0.25 c 0.53125,0 0.53125,0.03125 0.53125,0.640625 V -1.0625 c 0,0.484375 0,1.125 1.15625,1.125 0.15625,0 0.65625,0 1,-0.578125 V 0.0625 Z m 0,0"
   id="id-9776ed5f-05e0-4c04-a3cc-1e547dae1abc" />
      </symbol>
      <symbol
   overflow="visible"
   id="id-c5556272-4c8d-4b3d-900c-d06458f86205">
        <path
   style="stroke:none"
   d="M 2.609375,-0.875 V -1.265625 H 2.375 v 0.375 c 0,0.484375 -0.21875,0.734375 -0.5,0.734375 -0.46875,0 -0.46875,-0.578125 -0.46875,-0.703125 V -2.75 H 2.484375 V -3 H 1.40625 v -1.28125 h -0.25 c 0,0.625 -0.28125,1.3125 -0.953125,1.328125 V -2.75 H 0.84375 v 1.875 c 0,0.78125 0.59375,0.9375 0.984375,0.9375 0.46875,0 0.78125,-0.390625 0.78125,-0.9375 z m 0,0"
   id="id-a88dda1d-e153-4a04-9cff-e9e80080a6f1" />
      </symbol>
    </g>
  </defs>
  <g
   id="id-f659fe55-c341-42ca-a2c3-31c1262e2605"
   transform="translate(-291.741,-139.907)">
    <g
   style="fill:#000000;fill-opacity:1"
   id="id-c1329687-97f8-4eb5-ab81-f7152437d06e">
      <g
   transform="translate(291.179,146.72)"
   id="g2333"><path
   style="stroke:none"
   d="m 6.84375,-3.265625 c 0.15625,0 0.34375,0 0.34375,-0.1875 C 7.1875,-3.65625 7,-3.65625 6.859375,-3.65625 h -5.96875 c -0.140625,0 -0.328125,0 -0.328125,0.203125 0,0.1875 0.1875,0.1875 0.328125,0.1875 z m 0.015625,1.9375 c 0.140625,0 0.328125,0 0.328125,-0.203125 0,-0.1875 -0.1875,-0.1875 -0.34375,-0.1875 H 0.890625 c -0.140625,0 -0.328125,0 -0.328125,0.1875 0,0.203125 0.1875,0.203125 0.328125,0.203125 z m 0,0"
   id="id-0cc4c8cb-e7d7-463e-8f8d-5456d8c47b17" />
      </g></g>
    <g
   style="fill:#000000;fill-opacity:1"
   id="id-e4069b84-009f-407f-8661-ef20975145bf">
      <g
   transform="translate(301.695,146.72)"
   id="g2337"><path
   style="stroke:none"
   d="M 3.015625,-3.15625 H 4.71875 c 1.40625,0 2.796875,-1.03125 2.796875,-2.140625 0,-0.78125 -0.65625,-1.515625 -1.96875,-1.515625 h -3.21875 c -0.1875,0 -0.296875,0 -0.296875,0.1875 0,0.125 0.078125,0.125 0.28125,0.125 0.125,0 0.3125,0.015625 0.421875,0.015625 0.171875,0.03125 0.21875,0.046875 0.21875,0.171875 0,0.03125 0,0.0625 -0.03125,0.1875 l -1.34375,5.34375 c -0.09375,0.390625 -0.109375,0.46875 -0.90625,0.46875 -0.15625,0 -0.265625,0 -0.265625,0.1875 C 0.40625,0 0.515625,0 0.546875,0 0.828125,0 1.53125,-0.03125 1.8125,-0.03125 c 0.21875,0 0.4375,0.015625 0.640625,0.015625 0.21875,0 0.4375,0.015625 0.640625,0.015625 0.078125,0 0.203125,0 0.203125,-0.203125 0,-0.109375 -0.09375,-0.109375 -0.28125,-0.109375 -0.359375,0 -0.640625,0 -0.640625,-0.171875 0,-0.0625 0.015625,-0.109375 0.03125,-0.171875 z M 3.734375,-6.125 C 3.828125,-6.46875 3.84375,-6.5 4.28125,-6.5 h 0.953125 c 0.828125,0 1.359375,0.265625 1.359375,0.953125 0,0.390625 -0.203125,1.25 -0.59375,1.609375 -0.5,0.453125 -1.09375,0.53125 -1.53125,0.53125 H 3.0625 Z m 0,0"
   id="id-b40eeb62-d076-44d4-a03c-fed0a96f3fe2" />
      </g></g>
    <g
   style="fill:#000000;fill-opacity:1"
   id="id-f3d70e7f-f466-49ed-9a5f-2dceeb62b167">
      <g
   transform="translate(308.091,148.214)"
   id="g2341"><path
   style="stroke:none"
   d="m 3.6875,-1.484375 c 0,-0.875 -0.75,-1.625 -1.703125,-1.625 -0.96875,0 -1.71875,0.75 -1.71875,1.625 0,0.859375 0.765625,1.546875 1.71875,1.546875 0.9375,0 1.703125,-0.6875 1.703125,-1.546875 z m -0.640625,-0.0625 c 0,0.328125 -0.015625,0.703125 -0.21875,0.984375 -0.1875,0.265625 -0.5,0.40625 -0.84375,0.40625 -0.265625,0 -0.640625,-0.078125 -0.875,-0.421875 -0.1875,-0.28125 -0.203125,-0.640625 -0.203125,-0.96875 0,-0.296875 0,-0.71875 0.25,-1.015625 0.171875,-0.203125 0.46875,-0.34375 0.828125,-0.34375 0.40625,0 0.703125,0.1875 0.859375,0.40625 0.1875,0.265625 0.203125,0.625 0.203125,0.953125 z m 0,0"
   id="id-714902b1-9316-4312-b780-62dfa95dbc2b" />
      </g><g
   transform="translate(312.059,148.214)"
   id="g2344"><path
   style="stroke:none"
   d="m 4.109375,0 v -0.25 c -0.46875,0 -0.515625,-0.046875 -0.515625,-0.390625 v -2.4375 L 2.515625,-3 v 0.25 c 0.46875,0 0.515625,0.046875 0.515625,0.390625 v 1.203125 c 0,0.609375 -0.390625,1.03125 -0.921875,1.03125 -0.625,0 -0.65625,-0.296875 -0.65625,-0.65625 V -3.078125 L 0.375,-3 v 0.25 c 0.53125,0 0.53125,0.03125 0.53125,0.640625 V -1.0625 c 0,0.484375 0,1.125 1.15625,1.125 0.15625,0 0.65625,0 1,-0.578125 V 0.0625 Z m 0,0"
   id="id-c5631e20-603e-414a-9f16-d5ee437596bd" />
      </g><g
   transform="translate(316.46,148.214)"
   id="g2347"><path
   style="stroke:none"
   d="M 2.609375,-0.875 V -1.265625 H 2.375 v 0.375 c 0,0.484375 -0.21875,0.734375 -0.5,0.734375 -0.46875,0 -0.46875,-0.578125 -0.46875,-0.703125 V -2.75 H 2.484375 V -3 H 1.40625 v -1.28125 h -0.25 c 0,0.625 -0.28125,1.3125 -0.953125,1.328125 V -2.75 H 0.84375 v 1.875 c 0,0.78125 0.59375,0.9375 0.984375,0.9375 0.46875,0 0.78125,-0.390625 0.78125,-0.9375 z m 0,0"
   id="id-d057c03c-03dd-45b2-9bf6-23ad54f470db" />
      </g></g>
  </g>
</g><g
       transform="matrix(1.29844,0,0,-1.29844,124.9642,175.49845)"
       ns2:version="1.1.0"
       ns2:texconverter="lualatex"
       ns2:pdfconverter="inkscape"
       ns2:text="$$\\omega$$"
       ns2:preamble="/home/dietmarw/.config/inkscape/extensions/textext/default_packages.tex"
       ns2:scale="0.9738324345810865"
       ns2:alignment="middle center"
       ns2:jacobian_sqrt="1.29844"
       id="g2771"><defs
   id="id-ffda0eb8-369a-40d7-a734-4c8c651d6e71">
    <g
   id="id-d8007bba-19dc-4a28-b78b-b8505f02a03f">
      <symbol
   overflow="visible"
   id="id-ec71975c-5447-46f4-a1b9-0b6b9fb7067d">
        <path
   style="stroke:none"
   d=""
   id="id-f115cdbc-bb47-4728-963e-50239f514ea0" />
      </symbol>
      <symbol
   overflow="visible"
   id="id-416d771c-843d-43ce-959b-980b443d8a44">
        <path
   style="stroke:none"
   d="m 6.03125,-3.703125 c 0,-0.453125 -0.171875,-0.703125 -0.40625,-0.703125 -0.25,0 -0.515625,0.234375 -0.515625,0.46875 0,0.09375 0.046875,0.203125 0.140625,0.296875 0.171875,0.15625 0.359375,0.421875 0.359375,0.84375 0,0.390625 -0.203125,0.96875 -0.5,1.421875 C 4.8125,-0.953125 4.4375,-0.609375 3.96875,-0.609375 3.40625,-0.609375 3.09375,-0.96875 3,-1.5 c 0.109375,-0.265625 0.34375,-0.90625 0.34375,-1.1875 0,-0.109375 -0.046875,-0.21875 -0.1875,-0.21875 -0.078125,0 -0.1875,0.03125 -0.265625,0.171875 C 2.78125,-2.53125 2.65625,-1.890625 2.65625,-1.53125 2.328125,-1.0625 1.9375,-0.609375 1.3125,-0.609375 c -0.671875,0 -0.875,-0.59375 -0.875,-1.140625 0,-1.25 1.015625,-2.296875 1.015625,-2.421875 0,-0.109375 -0.078125,-0.1875 -0.1875,-0.1875 -0.125,0 -0.203125,0.125 -0.265625,0.21875 -0.5,0.734375 -0.875,1.921875 -0.875,2.828125 0,0.6875 0.21875,1.421875 1.046875,1.421875 0.703125,0 1.171875,-0.5 1.53125,-1.046875 0.09375,0.578125 0.484375,1.046875 1.09375,1.046875 0.78125,0 1.25,-0.609375 1.609375,-1.359375 0.25,-0.484375 0.625,-1.84375 0.625,-2.453125 z m 0,0"
   id="id-bf803f63-189c-4295-b1e7-f8a49507af4c" />
      </symbol>
    </g>
  </defs>
  <g
   id="id-5ab77965-e557-4f5d-9327-c9b17e2f5cb5"
   transform="translate(-302.47,-142.314)">
    <g
   style="fill:#000000;fill-opacity:1"
   id="id-41dbb468-e1a4-40ee-bb23-26beb8765de0">
      <g
   transform="translate(302.345,146.72)"
   id="g2767"><path
   style="stroke:none"
   d="m 6.03125,-3.703125 c 0,-0.453125 -0.171875,-0.703125 -0.40625,-0.703125 -0.25,0 -0.515625,0.234375 -0.515625,0.46875 0,0.09375 0.046875,0.203125 0.140625,0.296875 0.171875,0.15625 0.359375,0.421875 0.359375,0.84375 0,0.390625 -0.203125,0.96875 -0.5,1.421875 C 4.8125,-0.953125 4.4375,-0.609375 3.96875,-0.609375 3.40625,-0.609375 3.09375,-0.96875 3,-1.5 c 0.109375,-0.265625 0.34375,-0.90625 0.34375,-1.1875 0,-0.109375 -0.046875,-0.21875 -0.1875,-0.21875 -0.078125,0 -0.1875,0.03125 -0.265625,0.171875 C 2.78125,-2.53125 2.65625,-1.890625 2.65625,-1.53125 2.328125,-1.0625 1.9375,-0.609375 1.3125,-0.609375 c -0.671875,0 -0.875,-0.59375 -0.875,-1.140625 0,-1.25 1.015625,-2.296875 1.015625,-2.421875 0,-0.109375 -0.078125,-0.1875 -0.1875,-0.1875 -0.125,0 -0.203125,0.125 -0.265625,0.21875 -0.5,0.734375 -0.875,1.921875 -0.875,2.828125 0,0.6875 0.21875,1.421875 1.046875,1.421875 0.703125,0 1.171875,-0.5 1.53125,-1.046875 0.09375,0.578125 0.484375,1.046875 1.09375,1.046875 0.78125,0 1.25,-0.609375 1.609375,-1.359375 0.25,-0.484375 0.625,-1.84375 0.625,-2.453125 z m 0,0"
   id="id-dbda863f-13b4-4e3a-b7b3-007e51518b12" />
      </g></g>
  </g>
</g></g></svg>
